<?xml version="1.0" encoding="UTF-8" standalone="no"?>
<svg
   xmlns:dc="http://purl.org/dc/elements/1.1/"
   xmlns:cc="http://creativecommons.org/ns#"
   xmlns:rdf="http://www.w3.org/1999/02/22-rdf-syntax-ns#"
   xmlns:svg="http://www.w3.org/2000/svg"
   xmlns="http://www.w3.org/2000/svg"
   xmlns:sodipodi="http://sodipodi.sourceforge.net/DTD/sodipodi-0.dtd"
   xmlns:inkscape="http://www.inkscape.org/namespaces/inkscape"
   version="1.1"
   x="0"
   y="0"
   width="944"
   height="704"
   viewBox="0, 0, 944, 704"
   id="svg16404"
   sodipodi:docname="AAG.svg"
   inkscape:export-filename="X:\07-Administration\04-CoC\CoC-ML\intern\Präsentationen\Fachliche Szenarien\ML Poster Sketches\ML Poster\AAG.png"
   inkscape:export-xdpi="96"
   inkscape:export-ydpi="96"
   inkscape:version="0.92.1 r15371">
  <metadata
     id="metadata16410">
    <rdf:RDF>
      <cc:Work
         rdf:about="">
        <dc:format>image/svg+xml</dc:format>
        <dc:type
           rdf:resource="http://purl.org/dc/dcmitype/StillImage" />
      </cc:Work>
    </rdf:RDF>
  </metadata>
  <defs
     id="defs16408" />
  <sodipodi:namedview
     pagecolor="#ffffff"
     bordercolor="#666666"
     borderopacity="1"
     objecttolerance="10"
     gridtolerance="10"
     guidetolerance="10"
     inkscape:pageopacity="0"
     inkscape:pageshadow="2"
     inkscape:window-width="1920"
     inkscape:window-height="1027"
     id="namedview16406"
     showgrid="false"
     inkscape:zoom="0.94816591"
     inkscape:cx="349.90652"
     inkscape:cy="340.38334"
     inkscape:window-x="-8"
     inkscape:window-y="-8"
     inkscape:window-maximized="1"
     inkscape:current-layer="Layer_1" />
  <g
     id="Layer_1">
    <path
       d="M584.5,418.5 C576.865,427.044 567.828,436.73 560.5,446.5"
       fill-opacity="0"
       stroke="#000000"
       stroke-width="4"
       stroke-linecap="round"
       stroke-linejoin="round"
       id="path16187" />
    <path
       d="M560.5,446.5 C558.166,444.71 559.114,445.703 555.606,443.282"
       fill-opacity="0"
       stroke="#000000"
       stroke-width="4"
       stroke-linecap="round"
       stroke-linejoin="round"
       id="path16189" />
    <path
       d="M555.132,443.282 C555.169,446.821 554.69,449.586 554.303,453.116"
       fill-opacity="0"
       stroke="#000000"
       stroke-width="4"
       stroke-linecap="round"
       stroke-linejoin="round"
       id="path16191" />
    <path
       d="M554.303,453.116 C552.919,455.119 550.341,457.383 549.326,459.751"
       fill-opacity="0"
       stroke="#000000"
       stroke-width="4"
       stroke-linecap="round"
       stroke-linejoin="round"
       id="path16193" />
    <path
       d="M584.5,418.5 C582.531,417.438 577.742,413.858 575.639,413.017 C572.693,411.839 568.453,410.008 565.147,411.109 C560.69,412.595 550.563,434.061 543.21,423.032"
       fill-opacity="0"
       stroke="#000000"
       stroke-width="4"
       stroke-linecap="round"
       stroke-linejoin="round"
       id="path16195" />
    <path
       d="M543.21,422.547 C544.465,431.342 533.052,438.862 530.013,444.94"
       fill-opacity="0"
       stroke="#000000"
       stroke-width="4"
       stroke-linecap="round"
       stroke-linejoin="round"
       id="path16197" />
    <path
       d="M530.013,444.94 C533.805,448.021 544.98,456.277 547.979,459.276"
       fill-opacity="0"
       stroke="#000000"
       stroke-width="4"
       stroke-linecap="round"
       stroke-linejoin="round"
       id="path16199" />
    <path
       d="M537.573,424.014 C517.942,411.203 501.561,384.465 477.515,378.453 C461.642,374.485 452.191,377.49 438.58,369.134"
       fill-opacity="0"
       stroke="#000000"
       stroke-width="4"
       stroke-linecap="round"
       stroke-linejoin="round"
       id="path16201" />
    <path
       d="M528.944,436.095 C516.304,431.152 490.589,406.61 479.24,404.34 C450.566,398.605 402.614,415.251 402.614,369.134"
       fill-opacity="0"
       stroke="#000000"
       stroke-width="4"
       stroke-linecap="round"
       stroke-linejoin="round"
       id="path16203" />
    <path
       d="M441.834,404.803 C454.223,404.803 468.535,403.794 478.534,410.459 C485.391,415.031 476.859,431.043 473.239,434.663 C468.194,439.708 411.987,437.442 402.517,434.285 C394.721,431.686 397.607,419.132 399.113,413.106 C403.325,396.261 428.894,404.803 441.283,404.803"
       fill-opacity="0"
       stroke="#000000"
       stroke-width="4"
       stroke-linecap="round"
       stroke-linejoin="round"
       id="path16205" />
    <path
       d="M437.436,366.858 C426.516,364.061 415.536,365.453 404.766,367.606"
       fill-opacity="0"
       stroke="#000000"
       stroke-width="4"
       stroke-linecap="round"
       stroke-linejoin="round"
       id="path16207" />
    <path
       d="M437.436,365.113 C437.848,354.229 438.775,343.993 435.192,334.437"
       fill-opacity="0"
       stroke="#000000"
       stroke-width="4"
       stroke-linecap="round"
       stroke-linejoin="round"
       id="path16209" />
    <path
       d="M399.415,303.359 C399.49,307.103 397.91,311.649 400.169,315.037 C403.892,320.622 441.878,338.551 448.008,336.508 C455.512,334.007 461.846,332.399 466.668,327.576"
       fill-opacity="0"
       stroke="#000000"
       stroke-width="4"
       stroke-linecap="round"
       stroke-linejoin="round"
       id="path16211" />
    <path
       d="M466.668,327.576 C464.052,324.877 463.792,318.7 461.189,316.618"
       fill-opacity="0"
       stroke="#000000"
       stroke-width="4"
       stroke-linecap="round"
       stroke-linejoin="round"
       id="path16213" />
    <path
       d="M461.189,316.618 C459.271,318.603 446.675,322.095 442.904,319.58 C435.765,314.821 402.537,284.629 399.415,303.359"
       fill-opacity="0"
       stroke="#000000"
       stroke-width="4"
       stroke-linecap="round"
       stroke-linejoin="round"
       id="path16215" />
    <path
       d="M464.006,318.494 C464.819,317.963 465.948,317.677 466.428,316.718 C472.043,305.487 480.101,320.325 475.957,324.47 C474.451,325.975 469.528,324.793 467.559,324.793"
       fill-opacity="0"
       stroke="#000000"
       stroke-width="4"
       stroke-linecap="round"
       stroke-linejoin="round"
       id="path16217" />
    <path
       d="M468.387,309.887 C472.59,298.333 472.737,286.527 472.737,274.273"
       fill-opacity="0"
       stroke="#000000"
       stroke-width="4"
       stroke-linecap="round"
       stroke-linejoin="round"
       id="path16219" />
    <path
       d="M473.825,271.282 C485.275,281.465 499.389,282.249 513.518,284.604"
       fill-opacity="0"
       stroke="#000000"
       stroke-width="4"
       stroke-linecap="round"
       stroke-linejoin="round"
       id="path16221" />
    <path
       d="M512.702,286.235 C508.456,304.311 503.272,322.532 505.633,341.424"
       fill-opacity="0"
       stroke="#000000"
       stroke-width="4"
       stroke-linecap="round"
       stroke-linejoin="round"
       id="path16223" />
    <path
       d="M504.546,343.871 C491.406,341.548 477.854,336.531 464.309,336.531"
       fill-opacity="0"
       stroke="#000000"
       stroke-width="4"
       stroke-linecap="round"
       stroke-linejoin="round"
       id="path16225" />
    <path
       d="M464.037,332.724 C465.514,331.089 466.597,329.16 467.3,327.287"
       fill-opacity="0"
       stroke="#000000"
       stroke-width="4"
       stroke-linecap="round"
       stroke-linejoin="round"
       id="path16227" />
    <path
       d="M480.361,290.688 L481.033,290.975 L482.39,291.529 L484.446,292.307 L487.218,293.261 L490.018,294.141 L494.245,295.369 L498.479,296.553 L501.289,297.355 L502.685,297.768 L502.685,297.768 C503.277,297.944 503.859,295.965 503.986,293.349 C504.112,290.733 503.735,288.47 503.144,288.295 L501.742,287.881 L498.93,287.078 L494.701,285.895 L490.486,284.671 L487.7,283.795 L484.944,282.847 L482.901,282.074 L481.554,281.525 L480.881,281.237 C480.881,281.237 480.881,281.237 480.881,281.237 C480.294,280.987 479.701,282.9 479.558,285.509 C479.414,288.119 479.774,290.438 480.361,290.688 L480.361,290.688"
       fill="#000000"
       id="path16229" />
    <path
       d="M493.203,299.844 L493.646,299.863 L494.515,299.944 L495.364,300.075 L496.198,300.252 L497.018,300.468 L497.828,300.718 L499.027,301.143 L499.818,301.451 L499.818,301.451 C499.973,301.511 500.128,301.003 500.165,300.316 C500.201,299.629 500.105,299.022 499.95,298.962 C499.95,298.962 499.95,298.962 499.95,298.962 L499.155,298.652 L497.95,298.225 L497.135,297.974 L496.308,297.757 L495.467,297.578 L494.609,297.446 L493.735,297.365 L493.291,297.345 C493.291,297.345 493.291,297.345 493.291,297.345 C493.134,297.338 492.987,297.892 492.962,298.582 C492.938,299.272 493.046,299.837 493.203,299.844 L493.203,299.844"
       fill="#000000"
       id="path16231" />
    <path
       d="M492.447,303.162 L492.906,303.169 L493.82,303.238 L494.728,303.373 L495.623,303.564 L496.5,303.803 L497.354,304.078 L498.177,304.38 L498.964,304.7 L499.341,304.863 L499.341,304.863 C499.496,304.93 499.652,304.428 499.69,303.741 C499.728,303.054 499.634,302.443 499.479,302.376 L499.098,302.212 L498.306,301.89 L497.478,301.586 L496.618,301.309 L495.733,301.069 L494.83,300.876 L493.913,300.74 L492.991,300.67 L492.531,300.664 C492.374,300.662 492.227,301.219 492.204,301.909 C492.18,302.599 492.289,303.16 492.447,303.162 L492.447,303.162"
       fill="#000000"
       id="path16233" />
    <path
       d="M493.185,306.857 L493.833,307.067 L495.175,307.473 L496.535,307.855 L497.863,308.209 L498.499,308.375 L498.499,308.375 C498.655,308.416 498.807,307.89 498.839,307.202 C498.871,306.513 498.771,305.921 498.615,305.881 L497.98,305.715 L496.654,305.361 L495.297,304.981 L493.958,304.576 L493.309,304.365 C493.309,304.365 493.309,304.365 493.309,304.365 C493.154,304.314 493,304.832 492.966,305.52 C492.932,306.208 493.03,306.806 493.185,306.857 L493.185,306.857"
       fill="#000000"
       id="path16235" />
    <path
       d="M491.949,309.7 L492.717,310 L494.262,310.523 L495.809,310.961 L497.352,311.335 L498.122,311.504 L498.122,311.504 C498.278,311.539 498.43,311.008 498.46,310.319 C498.491,309.63 498.389,309.043 498.233,309.009 L497.466,308.84 L495.928,308.468 L494.388,308.032 L492.85,307.511 L492.081,307.211 C492.081,307.211 492.081,307.211 492.081,307.211 C491.926,307.15 491.771,307.659 491.734,308.346 C491.698,309.034 491.794,309.64 491.949,309.7 L491.949,309.7"
       fill="#000000"
       id="path16237" />
    <path
       d="M480.575,295.574 L481.595,295.907 L483.606,296.606 L485.577,297.303 L487.025,297.793 L487.976,298.091 L488.446,298.229 L488.446,298.229 C488.602,298.275 488.755,297.754 488.788,297.066 C488.822,296.377 488.722,295.782 488.567,295.736 L488.099,295.599 L487.151,295.302 L485.705,294.813 L483.733,294.115 L481.719,293.416 L480.699,293.082 C480.699,293.082 480.699,293.082 480.699,293.082 C480.544,293.031 480.39,293.548 480.356,294.236 C480.321,294.924 480.419,295.523 480.575,295.574 L480.575,295.574"
       fill="#000000"
       id="path16239" />
    <path
       d="M480.755,298.889 L481.142,299.072 L481.941,299.414 L483.177,299.866 L484.855,300.386 L486.51,300.85 L487.309,301.074 L487.309,301.074 C487.465,301.118 487.618,300.595 487.651,299.907 C487.684,299.218 487.584,298.624 487.428,298.58 C487.428,298.58 487.428,298.58 487.428,298.58 L486.629,298.356 L484.978,297.893 L483.307,297.376 L482.078,296.927 L481.285,296.588 L480.898,296.404 C480.898,296.404 480.898,296.404 480.898,296.404 C480.744,296.331 480.587,296.828 480.547,297.514 C480.508,298.2 480.601,298.816 480.755,298.889 L480.755,298.889"
       fill="#000000"
       id="path16241" />
    <path
       d="M480.195,301.831 L481.143,302.149 L483.031,302.807 L484.905,303.493 L486.761,304.21 L487.681,304.579 L487.681,304.579 C487.836,304.642 487.991,304.135 488.028,303.448 C488.065,302.761 487.97,302.153 487.815,302.091 L486.893,301.72 L485.034,301.003 L483.158,300.316 L481.269,299.658 L480.32,299.34 C480.165,299.288 480.011,299.804 479.976,300.492 C479.942,301.18 480.04,301.779 480.195,301.831 L480.195,301.831"
       fill="#000000"
       id="path16243" />
    <path
       d="M479.062,305.151 L480.096,305.426 L482.187,306.028 L484.273,306.694 L486.313,307.419 L487.303,307.803 L487.303,307.803 C487.458,307.864 487.613,307.355 487.649,306.668 C487.686,305.981 487.59,305.375 487.435,305.314 L486.442,304.929 L484.397,304.202 L482.307,303.535 L480.213,302.932 L479.178,302.657 C479.178,302.657 479.178,302.657 479.178,302.657 C479.022,302.616 478.87,303.141 478.838,303.829 C478.806,304.518 478.906,305.11 479.062,305.151 L479.062,305.151"
       fill="#000000"
       id="path16245" />
    <path
       d="M490.963,320.031 L491.016,320.005 L491.169,319.984 L491.418,319.988 L491.746,320.018 L492.14,320.075 L492.588,320.154 L493.081,320.254 L493.608,320.372 L494.44,320.577 L495.572,320.89 L496.656,321.229 L497.389,321.488 L497.82,321.657 L498.014,321.74 L498.014,321.74 C498.169,321.806 498.325,321.303 498.363,320.616 C498.401,319.93 498.306,319.319 498.151,319.253 L497.953,319.169 L497.517,318.997 L496.779,318.737 L495.69,318.396 L494.554,318.082 L493.72,317.877 L493.19,317.758 L492.694,317.657 L492.241,317.577 L491.841,317.52 L491.502,317.489 L491.231,317.487 L491.033,317.522 L490.98,317.549 C490.821,317.628 490.688,318.248 490.684,318.933 C490.679,319.618 490.804,320.11 490.963,320.031 L490.963,320.031"
       fill="#000000"
       id="path16247" />
    <path
       d="M489.786,323.547 L490.572,323.625 L492.153,323.837 L493.731,324.095 L495.282,324.365 L496.039,324.494 L496.039,324.494 C496.196,324.521 496.346,323.984 496.375,323.295 C496.404,322.605 496.301,322.025 496.144,321.998 C496.144,321.998 496.144,321.998 496.144,321.998 L495.387,321.869 L493.835,321.599 L492.254,321.34 L490.668,321.128 L489.882,321.049 C489.882,321.049 489.882,321.049 489.882,321.049 C489.725,321.033 489.576,321.58 489.55,322.27 C489.523,322.96 489.629,323.531 489.786,323.547 L489.786,323.547"
       fill="#000000"
       id="path16249" />
    <path
       d="M489.776,326.484 L490.837,326.759 L492.98,327.263 L495.129,327.739 L497.259,328.221 L498.31,328.476 L498.31,328.476 C498.466,328.514 498.618,327.986 498.65,327.297 C498.681,326.608 498.58,326.019 498.424,325.981 C498.424,325.981 498.424,325.981 498.424,325.981 L497.371,325.726 L495.24,325.244 L493.093,324.768 L490.953,324.264 L489.892,323.99 C489.736,323.95 489.584,324.476 489.552,325.164 C489.52,325.853 489.62,326.444 489.776,326.484 L489.776,326.484"
       fill="#000000"
       id="path16251" />
    <path
       d="M490.241,329.99 L490.699,330.172 L491.627,330.516 L493.042,330.985 L494.955,331.539 L496.878,332.035 L497.836,332.268 L497.836,332.268 C497.992,332.306 498.144,331.779 498.176,331.09 C498.207,330.401 498.106,329.812 497.95,329.773 L496.994,329.54 L495.075,329.046 L493.167,328.493 L491.757,328.026 L490.832,327.683 L490.375,327.501 C490.22,327.439 490.064,327.947 490.028,328.634 C489.991,329.321 490.087,329.928 490.241,329.99 L490.241,329.99"
       fill="#000000"
       id="path16253" />
    <path
       d="M490.517,334.442 L490.859,334.625 L491.561,334.943 L492.277,335.201 L493.002,335.411 L494.103,335.659 L495.584,335.928 L496.323,336.062 L496.323,336.062 C496.48,336.09 496.63,335.554 496.659,334.865 C496.689,334.175 496.586,333.593 496.429,333.565 C496.429,333.565 496.429,333.565 496.429,333.565 L495.69,333.432 L494.215,333.164 L493.122,332.918 L492.405,332.711 L491.701,332.457 L491.01,332.144 L490.668,331.961 C490.514,331.879 490.356,332.368 490.314,333.053 C490.273,333.738 490.364,334.36 490.517,334.442 L490.517,334.442"
       fill="#000000"
       id="path16255" />
    <path
       d="M479.693,316.132 L479.935,316.326 L480.442,316.668 L480.968,316.947 L481.51,317.174 L482.347,317.442 L483.5,317.723 L484.089,317.857 L484.089,317.857 C484.245,317.892 484.397,317.363 484.428,316.674 C484.459,315.985 484.357,315.397 484.201,315.362 C484.201,315.362 484.201,315.362 484.201,315.362 L483.614,315.228 L482.47,314.949 L481.646,314.686 L481.118,314.466 L480.608,314.197 L480.117,313.867 L479.874,313.673 C479.723,313.552 479.56,314.004 479.51,314.683 C479.46,315.363 479.542,316.011 479.693,316.132 L479.693,316.132"
       fill="#000000"
       id="path16257" />
    <path
       d="M480.891,320.607 L481.028,320.584 L481.273,320.586 L481.495,320.64 L481.707,320.731 L482.015,320.911 L482.429,321.163 L482.653,321.265 L482.653,321.265 C482.807,321.335 482.964,320.836 483.002,320.15 C483.041,319.463 482.948,318.85 482.793,318.78 L482.588,318.687 L482.171,318.433 L481.843,318.243 L481.608,318.145 L481.356,318.088 L481.088,318.087 L480.951,318.11 C480.793,318.138 480.651,318.719 480.635,319.408 C480.618,320.098 480.733,320.634 480.891,320.607 L480.891,320.607"
       fill="#000000"
       id="path16259" />
    <path
       d="M481.294,324.276 L481.436,324.419 L481.578,324.561 L481.578,324.561 C481.727,324.71 481.893,324.284 481.949,323.611 C482.006,322.937 481.931,322.27 481.782,322.121 L481.64,321.979 L481.497,321.837 C481.349,321.688 481.182,322.113 481.126,322.787 C481.07,323.461 481.145,324.127 481.294,324.276 L481.294,324.276"
       fill="#000000"
       id="path16261" />
    <path
       d="M479.663,327.148 L479.788,327.119 L480.014,327.116 L480.222,327.168 L480.422,327.26 L480.718,327.445 L481.113,327.703 L481.323,327.806 L481.323,327.806 C481.478,327.882 481.635,327.386 481.675,326.7 C481.714,326.015 481.622,325.398 481.468,325.323 C481.468,325.323 481.468,325.323 481.468,325.323 L481.278,325.231 L480.879,324.97 L480.562,324.774 L480.335,324.673 L480.094,324.618 L479.841,324.624 L479.715,324.653 C479.556,324.69 479.416,325.278 479.402,325.967 C479.387,326.656 479.504,327.185 479.663,327.148 L479.663,327.148"
       fill="#000000"
       id="path16263" />
    <path
       d="M475.944,329.615 L476.43,329.662 L477.392,329.794 L478.825,330.061 L480.728,330.479 L482.164,330.785 L483.131,330.962 L483.62,331.037 L483.62,331.037 C483.776,331.061 483.926,330.522 483.955,329.832 C483.983,329.143 483.879,328.564 483.722,328.54 L483.238,328.465 L482.274,328.29 L480.839,327.984 L478.931,327.564 L477.493,327.297 L476.525,327.164 L476.039,327.117 C476.039,327.117 476.039,327.117 476.039,327.117 C475.882,327.102 475.733,327.649 475.707,328.338 C475.681,329.028 475.787,329.6 475.944,329.615 L475.944,329.615"
       fill="#000000"
       id="path16265" />
    <path
       d="M476.112,332.928 L476.484,333.089 L477.239,333.382 L478.388,333.761 L479.939,334.182 L481.504,334.553 L482.287,334.734 L482.287,334.734 C482.444,334.77 482.595,334.241 482.626,333.552 C482.657,332.863 482.556,332.275 482.4,332.238 C482.4,332.238 482.4,332.238 482.4,332.238 L481.617,332.058 L480.057,331.689 L478.513,331.269 L477.372,330.893 L476.622,330.602 L476.249,330.441 C476.249,330.441 476.249,330.441 476.249,330.441 C476.095,330.374 475.939,330.877 475.901,331.564 C475.863,332.251 475.957,332.861 476.112,332.928 L476.112,332.928"
       fill="#000000"
       id="path16267" />
    <path
       d="M478.873,312.233 L479.424,312.475 L480.541,312.939 L482.241,313.583 L484.546,314.353 L486.881,315.035 L489.232,315.641 L491.585,316.185 L493.929,316.681 L496.249,317.142 L497.395,317.364 L497.395,317.364 C497.739,317.431 498.071,316.256 498.137,314.739 C498.202,313.223 497.976,311.939 497.632,311.872 C497.632,311.872 497.632,311.872 497.632,311.872 L496.487,311.651 L494.171,311.191 L491.833,310.696 L489.487,310.153 L487.145,309.55 L484.822,308.872 L482.53,308.106 L480.839,307.466 L479.729,307.005 L479.177,306.763 C478.837,306.614 478.494,307.717 478.41,309.228 C478.326,310.738 478.533,312.084 478.873,312.233 L478.873,312.233"
       fill="#000000"
       id="path16269" />
    <path
       d="M398.947,310.257 C398.604,327.576 395.565,349.498 403.829,366.027"
       fill-opacity="0"
       stroke="#000000"
       stroke-width="4"
       stroke-linecap="round"
       stroke-linejoin="round"
       id="path16271" />
    <path
       d="M431.267,309.498 C430.605,304.003 424.485,297.646 419.377,295.604"
       fill-opacity="0"
       stroke="#000000"
       stroke-width="4"
       stroke-linecap="round"
       stroke-linejoin="round"
       id="path16273" />
    <path
       d="M419.377,295.604 C413.011,295.151 400.76,291.173 399.415,300.586"
       fill-opacity="0"
       stroke="#000000"
       stroke-width="4"
       stroke-linecap="round"
       stroke-linejoin="round"
       id="path16275" />
    <path
       d="M394.25,426.004 C396.747,417.97 397.325,408.917 399.996,400.904 C403.72,389.732 397.868,320.104 395.46,309.27 C393.501,300.453 387.419,292.596 377.315,295.964 C371.81,297.799 377.617,315.039 377.617,318.948 C377.617,348.519 379.999,379.427 383.666,408.767 C384.26,413.518 389.848,429.668 394.25,420.863"
       fill-opacity="0"
       stroke="#000000"
       stroke-width="4"
       stroke-linecap="round"
       stroke-linejoin="round"
       id="path16277" />
    <path
       d="M419.574,292.937 C425.737,288.099 430.92,290.909 430.92,280.859"
       fill-opacity="0"
       stroke="#000000"
       stroke-width="4"
       stroke-linecap="round"
       stroke-linejoin="round"
       id="path16279" />
    <path
       d="M429.942,280.595 C426.886,281.169 425.067,279.961 422.92,278.887"
       fill-opacity="0"
       stroke="#000000"
       stroke-width="4"
       stroke-linecap="round"
       stroke-linejoin="round"
       id="path16281" />
    <path
       d="M431.443,280.249 C431.101,276.757 432.022,276.874 435.144,276.874"
       fill-opacity="0"
       stroke="#000000"
       stroke-width="4"
       stroke-linecap="round"
       stroke-linejoin="round"
       id="path16283" />
    <path
       d="M435.659,276.553 C434.32,269.697 431.956,268.672 429.942,262.841"
       fill-opacity="0"
       stroke="#000000"
       stroke-width="4"
       stroke-linecap="round"
       stroke-linejoin="round"
       id="path16285" />
    <path
       d="M430.143,261.974 C428.146,261.913 426.244,261.252 424.39,260.634"
       fill-opacity="0"
       stroke="#000000"
       stroke-width="4"
       stroke-linecap="round"
       stroke-linejoin="round"
       id="path16287" />
    <path
       d="M429.197,256.458 C429.625,257.681 429.252,258.917 429.04,260.083"
       fill-opacity="0"
       stroke="#000000"
       stroke-width="4"
       stroke-linecap="round"
       stroke-linejoin="round"
       id="path16289" />
    <path
       d="M429.67,254.96 C427.469,255.909 425.301,257.191 422.893,258.034"
       fill-opacity="0"
       stroke="#000000"
       stroke-width="4"
       stroke-linecap="round"
       stroke-linejoin="round"
       id="path16291" />
    <path
       d="M428.481,253.463 C429.393,250.075 429.706,246.925 425.992,245.996"
       fill-opacity="0"
       stroke="#000000"
       stroke-width="4"
       stroke-linecap="round"
       stroke-linejoin="round"
       id="path16293" />
    <path
       d="M429.005,244.686 C429.998,239.617 423.24,238.007 420.228,241.018"
       fill-opacity="0"
       stroke="#000000"
       stroke-width="4"
       stroke-linecap="round"
       stroke-linejoin="round"
       id="path16295" />
    <path
       d="M423.11,242.983 C421.322,238.071 416.586,237.303 412.761,240.363"
       fill-opacity="0"
       stroke="#000000"
       stroke-width="4"
       stroke-linecap="round"
       stroke-linejoin="round"
       id="path16297" />
    <path
       d="M417.608,241.935 C414.631,237.617 409.279,237.437 405.163,239.97"
       fill-opacity="0"
       stroke="#000000"
       stroke-width="4"
       stroke-linecap="round"
       stroke-linejoin="round"
       id="path16299" />
    <path
       d="M410.141,241.411 C407.225,238.556 403.85,239.344 401.495,241.935"
       fill-opacity="0"
       stroke="#000000"
       stroke-width="4"
       stroke-linecap="round"
       stroke-linejoin="round"
       id="path16301" />
    <path
       d="M405.949,243.638 C401.7,242.019 398.196,241.454 395.862,245.734"
       fill-opacity="0"
       stroke="#000000"
       stroke-width="4"
       stroke-linecap="round"
       stroke-linejoin="round"
       id="path16303" />
    <path
       d="M407.783,247.961 C404.017,245.535 398.686,245.348 395.862,248.878"
       fill-opacity="0"
       stroke="#000000"
       stroke-width="4"
       stroke-linecap="round"
       stroke-linejoin="round"
       id="path16305" />
    <path
       d="M413.809,248.747 C411.938,243.893 405.214,243.571 402.674,247.699"
       fill-opacity="0"
       stroke="#000000"
       stroke-width="4"
       stroke-linecap="round"
       stroke-linejoin="round"
       id="path16307" />
    <path
       d="M405.032,250.843 C399.45,248.898 392.681,248.733 394.421,255.69"
       fill-opacity="0"
       stroke="#000000"
       stroke-width="4"
       stroke-linecap="round"
       stroke-linejoin="round"
       id="path16309" />
    <path
       d="M403.591,255.297 C398.85,254.043 396.654,255.518 395.993,260.144"
       fill-opacity="0"
       stroke="#000000"
       stroke-width="4"
       stroke-linecap="round"
       stroke-linejoin="round"
       id="path16311" />
    <path
       d="M405.294,260.406 C399.228,259.28 394.825,260.033 396.255,266.826"
       fill-opacity="0"
       stroke="#000000"
       stroke-width="4"
       stroke-linecap="round"
       stroke-linejoin="round"
       id="path16313" />
    <path
       d="M402.412,264.598 C396.748,262.534 392.405,267.937 395.6,272.197"
       fill-opacity="0"
       stroke="#000000"
       stroke-width="4"
       stroke-linecap="round"
       stroke-linejoin="round"
       id="path16315" />
    <path
       d="M402.543,269.052 C397.828,269.131 397.535,274.171 399.792,277.044"
       fill-opacity="0"
       stroke="#000000"
       stroke-width="4"
       stroke-linecap="round"
       stroke-linejoin="round"
       id="path16317" />
    <path
       d="M398.875,273.245 C390.644,274.56 401.015,279.328 404.901,279.926"
       fill-opacity="0"
       stroke="#000000"
       stroke-width="4"
       stroke-linecap="round"
       stroke-linejoin="round"
       id="path16319" />
    <path
       d="M404.246,270.494 C402.998,273.965 404.657,276.276 407.259,278.878"
       fill-opacity="0"
       stroke="#000000"
       stroke-width="4"
       stroke-linecap="round"
       stroke-linejoin="round"
       id="path16321" />
    <path
       d="M412.63,262.895 C407.222,262.454 403.666,268.134 407.39,272.197"
       fill-opacity="0"
       stroke="#000000"
       stroke-width="4"
       stroke-linecap="round"
       stroke-linejoin="round"
       id="path16323" />
    <path
       d="M410.91,257.051 C406.008,256.186 404.703,258.644 405.711,263.078"
       fill-opacity="0"
       stroke="#000000"
       stroke-width="4"
       stroke-linecap="round"
       stroke-linejoin="round"
       id="path16325" />
    <path
       d="M413.156,253.86 C409.201,251.191 404.644,252.257 407.129,257.642"
       fill-opacity="0"
       stroke="#000000"
       stroke-width="4"
       stroke-linecap="round"
       stroke-linejoin="round"
       id="path16327" />
    <path
       d="M412.683,260.95 C406.225,260.205 407.469,264.668 408.783,269.341"
       fill-opacity="0"
       stroke="#000000"
       stroke-width="4"
       stroke-linecap="round"
       stroke-linejoin="round"
       id="path16329" />
    <path
       d="M412.683,268.041 C407.553,270.425 408.666,274.359 411.028,278.558"
       fill-opacity="0"
       stroke="#000000"
       stroke-width="4"
       stroke-linecap="round"
       stroke-linejoin="round"
       id="path16331" />
    <path
       d="M401.257,281.699 C403.404,284.912 403.315,288.598 403.722,292.264"
       fill-opacity="0"
       stroke="#000000"
       stroke-width="4"
       stroke-linecap="round"
       stroke-linejoin="round"
       id="path16333" />
    <path
       d="M383.649,293.848 C383.487,290.436 383.808,286.96 384.177,283.636"
       fill-opacity="0"
       stroke="#000000"
       stroke-width="4"
       stroke-linecap="round"
       stroke-linejoin="round"
       id="path16335" />
    <path
       d="M377.31,282.227 C381.007,281.52 388.247,284.545 391.573,282.051 C405.445,271.647 380.978,232.573 375.901,263.034 C375.458,265.695 375.373,268.424 375.373,271.134 C375.373,274.118 375.901,279.056 376.43,281.699"
       fill-opacity="0"
       stroke="#000000"
       stroke-width="4"
       stroke-linecap="round"
       stroke-linejoin="round"
       id="path16337" />
    <path
       d="M460.466,441.811 C459.08,448.402 455.466,456.632 461.049,462.215"
       fill-opacity="0"
       stroke="#000000"
       stroke-width="4"
       stroke-linecap="round"
       stroke-linejoin="round"
       id="path16339" />
    <path
       d="M414.994,443.56 C417.073,450.293 417.326,456.823 417.326,463.964"
       fill-opacity="0"
       stroke="#000000"
       stroke-width="4"
       stroke-linecap="round"
       stroke-linejoin="round"
       id="path16341" />
    <path
       d="M386.23,462.236 C481.379,454.323 612.956,516.377 603.481,393.198"
       fill-opacity="0"
       stroke="#000000"
       stroke-width="4"
       stroke-linecap="round"
       stroke-linejoin="round"
       id="path16343" />
    <path
       d="M602.214,390.664 C577.911,383.545 548.377,383.08 548.377,351.394 C548.377,345.764 547.281,338.212 549.01,333.026 C551.141,326.632 607.18,330.346 614.249,331.759"
       fill-opacity="0"
       stroke="#000000"
       stroke-width="4"
       stroke-linecap="round"
       stroke-linejoin="round"
       id="path16345" />
    <path
       d="M612.348,328.593 C599.59,315.538 584.881,303.257 565.478,303.257"
       fill-opacity="0"
       stroke="#000000"
       stroke-width="4"
       stroke-linecap="round"
       stroke-linejoin="round"
       id="path16347" />
    <path
       d="M563.578,306.424 C563.711,314.163 565.478,321.524 565.478,329.226"
       fill-opacity="0"
       stroke="#000000"
       stroke-width="4"
       stroke-linecap="round"
       stroke-linejoin="round"
       id="path16349" />
    <path
       d="M548.035,356.441 C539.821,353.709 538.537,352.72 531.909,351.394"
       fill-opacity="0"
       stroke="#FF0000"
       stroke-width="4"
       stroke-linecap="round"
       stroke-linejoin="round"
       id="path16351"
       style="stroke:#8f123e;stroke-opacity:1" />
    <path
       d="M548.035,342.125 C540.914,339.83 539.384,339.72 533.807,337.753"
       fill-opacity="0"
       stroke="#FF0000"
       stroke-width="4"
       stroke-linecap="round"
       stroke-linejoin="round"
       id="path16353"
       style="stroke:#8f123e;stroke-opacity:1" />
    <path
       d="M533.789,314.902 C530.696,331.685 530.013,349.197 530.651,363.218"
       fill-opacity="0"
       stroke="#FF0000"
       stroke-width="4"
       stroke-linecap="round"
       stroke-linejoin="round"
       id="path16355"
       style="stroke:#8f123e;stroke-opacity:1" />
    <path
       d="M530.651,364.307 C531.458,374.471 523.48,374.01 523.872,365.113"
       fill-opacity="0"
       stroke="#FF0000"
       stroke-width="4"
       stroke-linecap="round"
       stroke-linejoin="round"
       id="path16357"
       style="stroke:#8f123e;stroke-opacity:1" />
    <path
       d="M533.715,316.618 C534.649,307.154 526.427,307.128 526.032,315.337"
       fill-opacity="0"
       stroke="#FF0000"
       stroke-width="4"
       stroke-linecap="round"
       stroke-linejoin="round"
       id="path16359"
       style="stroke:#8f123e;stroke-opacity:1" />
    <path
       d="M526.032,314 C526.032,327.228 524.526,356.441 523.872,365.112"
       fill-opacity="0"
       stroke="#FF0000"
       stroke-width="4"
       stroke-linecap="round"
       stroke-linejoin="round"
       id="path16361"
       style="stroke:#8f123e;stroke-opacity:1" />
    <path
       d="M572.794,463.467 L572.794,463.467"
       fill-opacity="0"
       stroke="#000000"
       stroke-width="4"
       stroke-linecap="round"
       stroke-linejoin="round"
       id="path16363" />
    <path
       d="M573.166,457.889 C576.568,446.816 586.53,429.584 597.709,424.793"
       fill-opacity="0"
       stroke="#FF0000"
       stroke-width="4"
       stroke-linecap="round"
       stroke-linejoin="round"
       id="path16365"
       style="stroke:#8f123e;stroke-opacity:1" />
    <path
       d="M573.166,457.145 C573.04,458.351 572.931,459.261 572.794,460.492"
       fill-opacity="0"
       stroke="#FF0000"
       stroke-width="4"
       stroke-linecap="round"
       stroke-linejoin="round"
       id="path16367"
       style="stroke:#8f123e;stroke-opacity:1" />
    <path
       d="M401.539,193.56 C420.26,193.56 438.981,193.56 457.702,193.56 C486.809,193.56 521.274,194.112 545.457,210.234 C558.312,218.804 564.988,232.397 575.293,242.703 C598.403,265.813 642.089,321.708 673.579,329.58 C700.225,336.242 789.623,341.043 804.333,353.274 C832.122,376.379 818.232,474.472 785.905,489.294 C779.278,492.332 763.466,494.559 756.068,494.559"
       fill-opacity="0"
       stroke="#000000"
       stroke-width="4"
       stroke-linecap="round"
       stroke-linejoin="round"
       id="path16369" />
    <path
       d="M741.407,483.587 C741.841,460.492 732.967,436.639 703.646,433.238 C671.527,429.514 651.127,451.468 654.599,490.532 C658.15,530.478 740.539,529.595 741.841,482.285"
       fill-opacity="0"
       stroke="#000000"
       stroke-width="4"
       stroke-linecap="round"
       stroke-linejoin="round"
       id="path16371" />
    <path
       d="M631.456,502.457 C548.396,502.888 465.819,502.457 383.111,502.457"
       fill-opacity="0"
       stroke="#000000"
       stroke-width="4"
       stroke-linecap="round"
       stroke-linejoin="round"
       id="path16373" />
    <path
       d="M833.689,418.267 C834.484,425.267 832.126,431.723 832.126,438.589"
       fill-opacity="0"
       stroke="#FF0000"
       stroke-width="4"
       stroke-linecap="round"
       stroke-linejoin="round"
       id="path16375"
       style="stroke:#8f123e;stroke-opacity:1" />
    <path
       d="M833.689,418.267 C827.677,419.165 824.388,421.259 819.239,422.547"
       fill-opacity="0"
       stroke="#FF0000"
       stroke-width="4"
       stroke-linecap="round"
       stroke-linejoin="round"
       id="path16377"
       style="stroke:#8f123e;stroke-opacity:1" />
    <path
       d="M832.126,438.589 C828.618,436.677 821.196,432.424 817.738,431.272"
       fill-opacity="0"
       stroke="#FF0000"
       stroke-width="4"
       stroke-linecap="round"
       stroke-linejoin="round"
       id="path16379"
       style="stroke:#8f123e;stroke-opacity:1" />
    <path
       d="M817.738,413.401 C809.678,411.787 801.679,411.327 793.537,410.422"
       fill-opacity="0"
       stroke="#FF0000"
       stroke-width="4"
       stroke-linecap="round"
       stroke-linejoin="round"
       id="path16381"
       style="stroke:#8f123e;stroke-opacity:1" />
    <path
       d="M792.048,411.539 C792.256,416.597 791.995,423.827 791.303,428.666"
       fill-opacity="0"
       stroke="#FF0000"
       stroke-width="4"
       stroke-linecap="round"
       stroke-linejoin="round"
       id="path16383"
       style="stroke:#8f123e;stroke-opacity:1" />
    <path
       d="M791.303,431.272 C798.403,430.683 807.318,432.816 813.642,434.623"
       fill-opacity="0"
       stroke="#FF0000"
       stroke-width="4"
       stroke-linecap="round"
       stroke-linejoin="round"
       id="path16385"
       style="stroke:#8f123e;stroke-opacity:1" />
    <path
       d="M818.657,413.653 C818.224,420.809 817.03,427.781 815.435,434.69"
       fill-opacity="0"
       stroke="#FF0000"
       stroke-width="4"
       stroke-linecap="round"
       stroke-linejoin="round"
       id="path16387"
       style="stroke:#8f123e;stroke-opacity:1" />
    <path
       d="M730.462,360.995 C716.539,359.627 701.967,360.644 688.237,358.356"
       fill-opacity="0"
       stroke="#FF0000"
       stroke-width="4"
       stroke-linecap="round"
       stroke-linejoin="round"
       id="path16389"
       style="stroke:#8f123e;stroke-opacity:1" />
    <path
       d="M728.879,365.217 C728.362,374.3 726.24,382.686 726.24,391.608"
       fill-opacity="0"
       stroke="#FF0000"
       stroke-width="4"
       stroke-linecap="round"
       stroke-linejoin="round"
       id="path16391"
       style="stroke:#8f123e;stroke-opacity:1" />
    <path
       d="M725.184,390.552 C712.145,391.453 699.532,386.33 686.654,386.33"
       fill-opacity="0"
       stroke="#FF0000"
       stroke-width="4"
       stroke-linecap="round"
       stroke-linejoin="round"
       id="path16393"
       style="stroke:#8f123e;stroke-opacity:1" />
    <path
       d="M687.182,359.939 C687.388,368.837 686.654,377.459 686.654,386.33"
       fill-opacity="0"
       stroke="#FF0000"
       stroke-width="4"
       stroke-linecap="round"
       stroke-linejoin="round"
       id="path16395"
       style="stroke:#8f123e;stroke-opacity:1" />
    <path
       d="M791.688,421.165 C765.821,432.945 733.599,376.301 727.823,376.301"
       fill-opacity="0"
       stroke="#FF0000"
       stroke-width="4"
       stroke-linecap="round"
       stroke-linejoin="round"
       id="path16397"
       style="stroke:#8f123e;stroke-opacity:1" />
    <path
       d="M687.182,370.495 C652.703,356.08 614.94,359.771 578.453,355.717 C568.717,354.635 559.044,349.09 549.951,347.272"
       fill-opacity="0"
       stroke="#FF0000"
       stroke-width="4"
       stroke-linecap="round"
       stroke-linejoin="round"
       id="path16399"
       style="stroke:#8f123e;stroke-opacity:1" />
    <path
       d="M700.377,386.857 C679.401,424.232 624.49,451.25 582.675,451.25"
       fill-opacity="0"
       stroke="#FF0000"
       stroke-width="4"
       stroke-linecap="round"
       stroke-linejoin="round"
       id="path16401"
       style="stroke:#8f123e;stroke-opacity:1" />
  </g>
</svg>
