<?xml version="1.0" encoding="UTF-8" standalone="no"?>
<svg
   xmlns:dc="http://purl.org/dc/elements/1.1/"
   xmlns:cc="http://creativecommons.org/ns#"
   xmlns:rdf="http://www.w3.org/1999/02/22-rdf-syntax-ns#"
   xmlns:svg="http://www.w3.org/2000/svg"
   xmlns="http://www.w3.org/2000/svg"
   xmlns:sodipodi="http://sodipodi.sourceforge.net/DTD/sodipodi-0.dtd"
   xmlns:inkscape="http://www.inkscape.org/namespaces/inkscape"
   version="1.1"
   x="0"
   y="0"
   width="944"
   height="704"
   viewBox="0, 0, 944, 704"
   id="svg22124"
   sodipodi:docname="ACO.svg"
   inkscape:export-filename="X:\07-Administration\04-CoC\CoC-ML\intern\Präsentationen\Fachliche Szenarien\ML Poster Sketches\ML Poster\ACO.png"
   inkscape:export-xdpi="96"
   inkscape:export-ydpi="96"
   inkscape:version="0.92.1 r15371">
  <metadata
     id="metadata22130">
    <rdf:RDF>
      <cc:Work
         rdf:about="">
        <dc:format>image/svg+xml</dc:format>
        <dc:type
           rdf:resource="http://purl.org/dc/dcmitype/StillImage" />
      </cc:Work>
    </rdf:RDF>
  </metadata>
  <defs
     id="defs22128" />
  <sodipodi:namedview
     pagecolor="#ffffff"
     bordercolor="#666666"
     borderopacity="1"
     objecttolerance="10"
     gridtolerance="10"
     guidetolerance="10"
     inkscape:pageopacity="0"
     inkscape:pageshadow="2"
     inkscape:window-width="1920"
     inkscape:window-height="1027"
     id="namedview22126"
     showgrid="false"
     inkscape:zoom="1.3409091"
     inkscape:cx="192.84923"
     inkscape:cy="418.72119"
     inkscape:window-x="-8"
     inkscape:window-y="-8"
     inkscape:window-maximized="1"
     inkscape:current-layer="Layer_1" />
  <g
     id="Layer_1">
    <path
       d="M635.185,113.658 C351.586,101.933 330.117,109.096 316.467,105.683"
       fill-opacity="0"
       stroke="#000000"
       stroke-width="4"
       stroke-linecap="round"
       stroke-linejoin="round"
       id="path22027" />
    <path
       d="M315.467,110.683 C314.404,124.481 316.467,138.021 316.467,151.683"
       fill-opacity="0"
       stroke="#000000"
       stroke-width="4"
       stroke-linecap="round"
       stroke-linejoin="round"
       id="path22029" />
    <path
       d="M635.185,113.658 C636.569,126.052 632.913,148.54 635.917,160.559"
       fill-opacity="0"
       stroke="#000000"
       stroke-width="4"
       stroke-linecap="round"
       stroke-linejoin="round"
       id="path22031" />
    <path
       d="M629.467,162.683 C526.266,159.565 422.87,153.683 319.467,153.683"
       fill-opacity="0"
       stroke="#000000"
       stroke-width="4"
       stroke-linecap="round"
       stroke-linejoin="round"
       id="path22033" />
    <path
       d="M607.373,147.076 C601.892,141.854 597.299,135.392 592.702,129.875"
       fill-opacity="0"
       stroke="#000000"
       stroke-width="4"
       stroke-linecap="round"
       stroke-linejoin="round"
       id="path22035" />
    <path
       d="M606.867,145.052 C609.53,140.766 611.943,135.623 615.467,131.393"
       fill-opacity="0"
       stroke="#000000"
       stroke-width="4"
       stroke-linecap="round"
       stroke-linejoin="round"
       id="path22037" />
    <path
       d="M613.95,128.358 C607.373,128.358 600.796,128.358 594.22,128.358"
       fill-opacity="0"
       stroke="#000000"
       stroke-width="4"
       stroke-linecap="round"
       stroke-linejoin="round"
       id="path22039" />
    <path
       d="M635.917,160.559 C635.314,205.485 635.185,250.36 635.185,295.396"
       fill-opacity="0"
       stroke="#000000"
       stroke-width="4"
       stroke-linecap="round"
       stroke-linejoin="round"
       id="path22041" />
    <path
       d="M635.185,296.129 C531.834,288.385 410.277,294.122 309.083,281.473"
       fill-opacity="0"
       stroke="#000000"
       stroke-width="4"
       stroke-linecap="round"
       stroke-linejoin="round"
       id="path22043" />
    <path
       d="M317.876,152.498 C308.033,193.835 321.67,239.789 313.479,280.74"
       fill-opacity="0"
       stroke="#000000"
       stroke-width="4"
       stroke-linecap="round"
       stroke-linejoin="round"
       id="path22045" />
    <path
       d="M335.779,142.818 L336.781,142.711 L338.773,142.529 L340.755,142.39 L342.735,142.29 L344.711,142.226 L346.684,142.197 L349.641,142.213 L353.57,142.333 L357.484,142.548 L361.387,142.839 L365.278,143.188 L371.096,143.776 L376.89,144.386 L380.74,144.772 L384.583,145.12 L388.417,145.41 L392.243,145.623 L396.062,145.739 L397.974,145.754 L397.974,145.754 C399.895,145.772 401.682,138.962 401.964,130.545 C402.247,122.127 400.919,115.29 398.998,115.272 C398.998,115.272 398.998,115.272 398.998,115.272 L397.12,115.257 L393.341,115.143 L389.547,114.932 L385.737,114.644 L381.91,114.298 L378.066,113.912 L372.267,113.302 L366.43,112.712 L362.515,112.361 L358.582,112.068 L354.629,111.851 L350.66,111.73 L347.671,111.715 L345.67,111.744 L343.664,111.809 L341.653,111.911 L339.636,112.053 L337.62,112.237 L336.615,112.345 C334.687,112.554 332.937,119.545 332.706,127.96 C332.475,136.375 333.851,143.027 335.779,142.818 L335.779,142.818"
       fill="#000000"
       id="path22047" />
    <path
       d="M337.194,189.722 L338.989,189.641 L342.567,189.514 L346.138,189.43 L349.704,189.387 L353.265,189.382 L356.822,189.412 L362.152,189.519 L369.246,189.762 L376.328,190.1 L383.401,190.512 L390.469,190.978 L401.069,191.73 L411.671,192.485 L418.747,192.954 L425.831,193.371 L432.928,193.716 L440.037,193.967 L445.383,194.08 L448.953,194.115 L450.741,194.12 L450.741,194.12 C452.663,194.127 454.447,187.308 454.727,178.891 C455.008,170.473 453.677,163.644 451.756,163.638 L449.979,163.633 L446.427,163.598 L441.103,163.485 L434.014,163.236 L426.935,162.892 L419.862,162.475 L412.794,162.007 L402.192,161.252 L391.584,160.499 L384.504,160.033 L377.413,159.619 L370.311,159.28 L363.194,159.037 L357.846,158.93 L354.273,158.899 L350.695,158.904 L347.111,158.948 L343.521,159.032 L339.927,159.161 L338.13,159.242 C336.206,159.33 334.436,166.225 334.178,174.642 C333.919,183.059 335.27,189.811 337.194,189.722 L337.194,189.722"
       fill="#FF0000"
       id="path22049"
       style="fill:#8f123e;fill-opacity:1" />
    <path
       d="M337.151,227.097 L339.842,227.123 L345.252,227.14 L353.405,227.103 L364.31,227.014 L372.486,226.982 L377.921,227.004 L383.339,227.077 L388.733,227.218 L394.095,227.439 L398.092,227.667 L400.742,227.851 L403.382,228.064 L406.011,228.307 L408.627,228.582 L411.228,228.891 L413.816,229.235 L416.388,229.617 L418.944,230.038 L421.483,230.5 L422.743,230.746 L422.743,230.746 C424.65,231.119 426.492,224.605 426.855,216.196 C427.219,207.786 425.967,200.667 424.06,200.293 C424.06,200.293 424.06,200.293 424.06,200.293 L422.78,200.043 L420.214,199.577 L417.632,199.152 L415.036,198.767 L412.427,198.42 L409.803,198.109 L407.168,197.832 L404.52,197.587 L401.862,197.372 L399.192,197.187 L395.171,196.958 L389.784,196.736 L384.37,196.595 L378.937,196.521 L373.489,196.499 L365.307,196.532 L354.408,196.62 L346.268,196.657 L340.868,196.641 L338.174,196.614 C338.174,196.614 338.174,196.614 338.174,196.614 C336.253,196.597 334.466,203.407 334.184,211.825 C333.901,220.242 335.23,227.08 337.151,227.097 L337.151,227.097"
       fill="#FF0000"
       id="path22051"
       style="fill:#8f123e;fill-opacity:1" />
    <path
       d="M338.53,268.129 L339.206,268.209 L340.661,268.361 L342.233,268.502 L343.915,268.629 L345.703,268.746 L347.593,268.851 L349.581,268.946 L351.663,269.031 L353.836,269.107 L356.094,269.174 L358.435,269.232 L360.853,269.283 L363.345,269.326 L365.905,269.363 L368.532,269.393 L371.22,269.418 L373.964,269.437 L376.762,269.452 L379.607,269.462 L382.498,269.469 L386.907,269.474 L392.903,269.471 L399.001,269.463 L405.168,269.453 L411.37,269.446 L417.573,269.445 L423.744,269.455 L429.85,269.479 L434.365,269.51 L437.337,269.537 L440.274,269.57 L443.171,269.609 L446.025,269.655 L448.83,269.709 L451.583,269.771 L454.28,269.841 L456.916,269.921 L459.487,270.009 L461.989,270.108 L464.418,270.217 L466.768,270.338 L469.038,270.469 L471.219,270.613 L473.311,270.769 L475.308,270.938 L477.205,271.121 L478.999,271.317 L480.685,271.527 L482.257,271.753 L483.712,271.993 L485.044,272.248 L486.248,272.518 L487.318,272.803 L488.021,273.023 L488.441,273.172 L488.828,273.325 L489.174,273.479 L489.477,273.632 L489.734,273.781 L489.827,273.842 L489.827,273.842 C491.689,275.038 493.644,269.252 494.193,260.92 C494.742,252.588 493.676,244.864 491.814,243.669 L491.622,243.548 L491.258,243.341 L490.867,243.147 L490.449,242.963 L490.002,242.787 L489.519,242.617 L488.743,242.375 L487.61,242.075 L486.355,241.794 L484.982,241.532 L483.493,241.287 L481.892,241.058 L480.183,240.844 L478.368,240.646 L476.452,240.462 L474.44,240.291 L472.334,240.134 L470.139,239.99 L467.859,239.857 L465.499,239.737 L463.062,239.627 L460.552,239.528 L457.974,239.439 L455.332,239.36 L452.629,239.289 L449.871,239.227 L447.061,239.173 L444.203,239.127 L441.302,239.087 L438.362,239.054 L435.386,239.027 L430.866,238.997 L424.757,238.972 L418.583,238.963 L412.378,238.963 L406.176,238.971 L400.009,238.98 L393.913,238.989 L387.919,238.991 L383.512,238.987 L380.624,238.98 L377.78,238.97 L374.986,238.955 L372.245,238.936 L369.561,238.911 L366.939,238.881 L364.382,238.844 L361.897,238.801 L359.484,238.75 L357.152,238.692 L354.901,238.625 L352.739,238.55 L350.667,238.466 L348.692,238.371 L346.816,238.267 L345.046,238.152 L343.384,238.026 L341.837,237.888 L340.404,237.738 L339.725,237.657 C337.812,237.432 335.993,244.071 335.663,252.485 C335.333,260.899 336.617,267.903 338.53,268.129 L338.53,268.129"
       fill="#FF0000"
       id="path22053"
       style="fill:#8f123e;fill-opacity:1" />
    <path
       d="M397.944,145.753 L399.141,145.811 L401.503,145.913 L403.818,145.997 L406.088,146.065 L408.315,146.118 L410.504,146.156 L412.657,146.181 L414.779,146.192 L417.909,146.188 L422.002,146.148 L426.029,146.073 L430.018,145.972 L435.983,145.788 L442.012,145.588 L446.11,145.457 L450.306,145.338 L453.53,145.26 L455.724,145.216 L457.958,145.178 L460.233,145.149 L462.556,145.129 L464.929,145.118 L466.133,145.117 L466.133,145.117 C468.055,145.116 469.839,138.291 470.117,129.874 C470.395,121.456 469.063,114.633 467.142,114.634 C467.142,114.634 467.142,114.634 467.142,114.634 L465.931,114.636 L463.552,114.646 L461.224,114.667 L458.941,114.696 L456.702,114.734 L454.502,114.778 L451.27,114.856 L447.07,114.975 L442.969,115.106 L436.943,115.307 L430.987,115.49 L427.011,115.591 L422.997,115.665 L418.917,115.706 L415.799,115.71 L413.686,115.698 L411.541,115.674 L409.363,115.636 L407.145,115.584 L404.886,115.516 L402.582,115.432 L400.227,115.331 L399.028,115.273 C397.109,115.182 395.311,121.932 395.012,130.349 C394.713,138.766 396.025,145.663 397.944,145.753 L397.944,145.753"
       fill="#FF0000"
       id="path22055"
       style="fill:#8f123e;fill-opacity:1" />
    <path
       d="M368.496,317.755 C353.357,317.755 338.217,317.755 323.077,317.755"
       fill-opacity="0"
       stroke="#000000"
       stroke-width="4"
       stroke-linecap="round"
       stroke-linejoin="round"
       id="path22057" />
    <path
       d="M367.808,322.572 C367.194,334.034 369.222,345.82 366.432,356.98"
       fill-opacity="0"
       stroke="#000000"
       stroke-width="4"
       stroke-linecap="round"
       stroke-linejoin="round"
       id="path22059" />
    <path
       d="M371.249,356.292 C354.981,355.886 338.903,356.98 323.077,356.98"
       fill-opacity="0"
       stroke="#000000"
       stroke-width="4"
       stroke-linecap="round"
       stroke-linejoin="round"
       id="path22061" />
    <path
       d="M323.766,355.604 C324.475,343.648 328.152,330.657 323.077,320.507"
       fill-opacity="0"
       stroke="#000000"
       stroke-width="4"
       stroke-linecap="round"
       stroke-linejoin="round"
       id="path22063" />
    <path
       d="M369.845,377.625 C356.399,377.373 338.835,379.345 325.415,379.345"
       fill-opacity="0"
       stroke="#000000"
       stroke-width="4"
       stroke-linecap="round"
       stroke-linejoin="round"
       id="path22065" />
    <path
       d="M369.845,377.625 C368.117,387.134 369.838,408.033 368.496,417.427"
       fill-opacity="0"
       stroke="#000000"
       stroke-width="4"
       stroke-linecap="round"
       stroke-linejoin="round"
       id="path22067" />
    <path
       d="M368.496,417.427 C355.958,416.84 337.603,416.711 325.336,414.959"
       fill-opacity="0"
       stroke="#000000"
       stroke-width="4"
       stroke-linecap="round"
       stroke-linejoin="round"
       id="path22069" />
    <path
       d="M325.415,379.345 C325.085,388.057 326.558,406.408 325.336,414.959"
       fill-opacity="0"
       stroke="#000000"
       stroke-width="4"
       stroke-linecap="round"
       stroke-linejoin="round"
       id="path22071" />
    <path
       d="M633.399,446.486 C609.889,446.689 586.571,444.479 563.074,443.36 C523.502,441.476 483.924,435.532 444.302,433.202 C402.127,430.721 354.02,438.275 313.029,430.076"
       fill-opacity="0"
       stroke="#000000"
       stroke-width="4"
       stroke-linecap="round"
       stroke-linejoin="round"
       id="path22073" />
    <path
       d="M635.743,448.83 C635.108,462.424 634.905,477.074 628.711,489.462"
       fill-opacity="0"
       stroke="#000000"
       stroke-width="4"
       stroke-linecap="round"
       stroke-linejoin="round"
       id="path22075" />
    <path
       d="M627.148,493.369 C524.967,492.369 422.861,478.523 320.842,478.523"
       fill-opacity="0"
       stroke="#000000"
       stroke-width="4"
       stroke-linecap="round"
       stroke-linejoin="round"
       id="path22077" />
    <path
       d="M312.247,433.983 C312.503,448.938 311.466,463.591 311.466,478.523"
       fill-opacity="0"
       stroke="#000000"
       stroke-width="4"
       stroke-linecap="round"
       stroke-linejoin="round"
       id="path22079" />
    <path
       d="M333.286,507.284 C327.895,506.806 324.056,507.784 321.6,510.241 C298.964,532.877 342.908,550.039 342.908,516.885 C342.908,510.062 338.916,507.919 333.232,507.208"
       fill-opacity="0"
       stroke="#000000"
       stroke-width="4"
       stroke-linecap="round"
       stroke-linejoin="round"
       id="path22081" />
    <path
       d="M332.157,553.159 C328.143,552.919 324.779,553.084 321.405,554.771 C306.7,562.124 320.769,580.966 334.845,576.274 C350.15,571.172 341.901,552.621 327.856,552.621"
       fill-opacity="0"
       stroke="#000000"
       stroke-width="4"
       stroke-linecap="round"
       stroke-linejoin="round"
       id="path22083" />
    <path
       d="M330.297,594.137 C326.327,594.26 320.237,597.048 317.479,600.24 C299.667,620.856 347.375,635.04 343.074,603.512 C342.339,598.117 335.079,594.997 330.71,594.373"
       fill-opacity="0"
       stroke="#000000"
       stroke-width="4"
       stroke-linecap="round"
       stroke-linejoin="round"
       id="path22085" />
    <path
       d="M331.096,514.528 C316.872,516.565 333.32,535.616 334.544,519.7 C334.154,516.015 333.184,516.75 329.947,516.252"
       fill-opacity="0"
       stroke="#FF0000"
       stroke-width="4"
       stroke-linecap="round"
       stroke-linejoin="round"
       id="path22087"
       style="stroke:#8f123e;stroke-opacity:1" />
    <path
       d="M332.245,520.275 L332.245,520.275"
       fill-opacity="0"
       stroke="#FF0000"
       stroke-width="4"
       stroke-linecap="round"
       stroke-linejoin="round"
       id="path22089"
       style="stroke:#8f123e;stroke-opacity:1" />
    <path
       d="M330.234,520.562 L330.234,520.562"
       fill-opacity="0"
       stroke="#FF0000"
       stroke-width="4"
       stroke-linecap="round"
       stroke-linejoin="round"
       id="path22091"
       style="stroke:#8f123e;stroke-opacity:1" />
    <path
       d="M328.223,524.01 L328.223,524.01"
       fill-opacity="0"
       stroke="#FF0000"
       stroke-width="4"
       stroke-linecap="round"
       stroke-linejoin="round"
       id="path22093"
       style="stroke:#8f123e;stroke-opacity:1" />
    <path
       d="M331.958,520.562 C331.862,519.987 331.767,519.413 331.671,518.838"
       fill-opacity="0"
       stroke="#FF0000"
       stroke-width="4"
       stroke-linecap="round"
       stroke-linejoin="round"
       id="path22095"
       style="stroke:#8f123e;stroke-opacity:1" />
    <path
       d="M329.372,520.562 C329.372,522.19 329.372,523.819 329.372,525.447"
       fill-opacity="0"
       stroke="#FF0000"
       stroke-width="4"
       stroke-linecap="round"
       stroke-linejoin="round"
       id="path22097"
       style="stroke:#8f123e;stroke-opacity:1" />
    <path
       d="M329.947,519.413 C329.845,521.534 330.259,523.637 330.521,525.734"
       fill-opacity="0"
       stroke="#FF0000"
       stroke-width="4"
       stroke-linecap="round"
       stroke-linejoin="round"
       id="path22099"
       style="stroke:#8f123e;stroke-opacity:1" />
    <path
       d="M328.797,517.976 C328.196,519.115 328.989,520.083 329.085,521.137"
       fill-opacity="0"
       stroke="#FF0000"
       stroke-width="4"
       stroke-linecap="round"
       stroke-linejoin="round"
       id="path22101"
       style="stroke:#8f123e;stroke-opacity:1" />
    <path
       d="M330.887,470.931 L332.921,471.198 L337.001,471.698 L341.086,472.15 L345.175,472.558 L349.267,472.923 L353.361,473.247 L357.459,473.532 L361.559,473.78 L367.712,474.088 L375.925,474.39 L384.147,474.581 L392.375,474.68 L400.61,474.702 L408.848,474.663 L421.211,474.529 L437.7,474.292 L450.066,474.144 L458.305,474.09 L462.422,474.082 L462.422,474.082 C464.344,474.08 466.127,467.255 466.405,458.838 C466.684,450.42 465.351,443.598 463.429,443.6 L459.304,443.607 L451.057,443.662 L438.688,443.81 L422.204,444.047 L409.852,444.181 L401.624,444.219 L393.405,444.198 L385.194,444.099 L376.993,443.908 L368.801,443.608 L362.665,443.301 L358.579,443.053 L354.497,442.769 L350.418,442.447 L346.343,442.084 L342.272,441.678 L338.204,441.227 L334.138,440.73 L332.102,440.462 C330.19,440.212 328.367,446.83 328.032,455.244 C327.696,463.658 328.975,470.681 330.887,470.931 L330.887,470.931"
       fill="#FF0000"
       id="path22103"
       style="fill:#8f123e;fill-opacity:1" />
    <path
       d="M330.866,331.812 C334.696,340.73 336.584,345.135 338.412,348.791 C338.975,349.916 341.06,349.354 342.185,348.791 C363.888,331.116 364.683,326.781 367.339,326.781"
       fill-opacity="0"
       stroke="#FF0000"
       stroke-width="4"
       stroke-linecap="round"
       stroke-linejoin="round"
       id="path22105"
       style="stroke:#8f123e;stroke-opacity:1" />
    <path
       d="M389.28,346.587 L392.545,346.667 L399.054,346.875 L405.539,347.136 L412.007,347.443 L421.688,347.965 L434.576,348.726 L447.473,349.491 L457.174,350.019 L463.664,350.332 L470.175,350.602 L476.713,350.819 L483.282,350.973 L489.885,351.055 L493.205,351.066 L493.205,351.066 C495.126,351.073 496.911,344.254 497.191,335.837 C497.471,327.419 496.141,320.59 494.22,320.583 C494.22,320.583 494.22,320.583 494.22,320.583 L490.916,320.573 L484.329,320.491 L477.776,320.337 L471.252,320.121 L464.751,319.852 L458.271,319.539 L448.577,319.011 L435.679,318.246 L422.784,317.485 L413.092,316.962 L406.613,316.655 L400.115,316.393 L393.595,316.185 L390.327,316.105 C388.406,316.059 386.615,322.845 386.326,331.263 C386.037,339.68 387.359,346.541 389.28,346.587 L389.28,346.587"
       fill="#000000"
       id="path22107" />
    <path
       d="M526.224,348.368 L527.817,348.626 L531.031,349.08 L534.26,349.46 L537.495,349.776 L542.35,350.162 L548.82,350.579 L555.266,350.98 L560.065,351.332 L563.241,351.615 L566.399,351.952 L569.534,352.355 L572.643,352.838 L575.722,353.411 L577.242,353.735 L577.242,353.735 C579.148,354.143 580.994,347.658 581.365,339.25 C581.737,330.842 580.493,323.696 578.587,323.289 C578.587,323.289 578.587,323.289 578.587,323.289 L577.025,322.956 L573.897,322.374 L570.747,321.886 L567.578,321.479 L564.392,321.139 L561.191,320.854 L556.374,320.501 L549.933,320.1 L543.486,319.685 L538.66,319.302 L535.456,318.988 L532.264,318.614 L529.082,318.164 L527.487,317.906 C525.577,317.599 523.745,324.169 523.397,332.581 C523.048,340.993 524.314,348.061 526.224,348.368 L526.224,348.368"
       fill="#000000"
       id="path22109" />
    <path
       d="M396.434,407.499 L401.001,407.681 L410.158,408.091 L419.339,408.532 L428.536,408.976 L437.743,409.392 L446.95,409.749 L456.148,410.018 L463.037,410.142 L467.624,410.181 L469.916,410.186 L469.916,410.186 C471.837,410.192 473.622,403.372 473.901,394.954 C474.181,386.537 472.85,379.709 470.929,379.704 C470.929,379.704 470.929,379.704 470.929,379.704 L468.647,379.699 L464.076,379.66 L457.204,379.536 L448.021,379.268 L438.825,378.911 L429.623,378.496 L420.425,378.052 L411.239,377.61 L402.075,377.2 L397.505,377.017 C395.586,376.942 393.79,383.705 393.494,392.122 C393.198,400.539 394.514,407.423 396.434,407.499 L396.434,407.499"
       fill="#000000"
       id="path22111" />
    <path
       d="M500.503,411.968 L501.337,411.834 L502.985,411.605 L504.62,411.424 L506.25,411.286 L507.873,411.189 L509.492,411.13 L511.105,411.108 L512.714,411.118 L515.121,411.192 L518.315,411.382 L521.491,411.66 L524.656,412.004 L529.388,412.6 L535.674,413.432 L540.385,413.995 L543.531,414.3 L546.679,414.525 L549.835,414.648 L551.424,414.665 L551.424,414.665 C553.345,414.687 555.132,407.88 555.415,399.463 C555.699,391.045 554.371,384.204 552.451,384.183 C552.451,384.183 552.451,384.183 552.451,384.183 L550.907,384.167 L547.803,384.047 L544.695,383.825 L541.583,383.523 L536.893,382.964 L530.597,382.13 L525.838,381.531 L522.64,381.183 L519.42,380.903 L516.18,380.71 L513.734,380.636 L512.093,380.625 L510.444,380.649 L508.789,380.709 L507.125,380.809 L505.453,380.951 L503.773,381.138 L502.091,381.372 L501.254,381.506 C499.323,381.817 497.59,388.888 497.382,397.3 C497.175,405.712 498.572,412.279 500.503,411.968 L500.503,411.968"
       fill="#000000"
       id="path22113" />
    <path
       d="M585.409,411.975 L585.907,412.016 L586.946,412.076 L588.012,412.11 L589.099,412.121 L590.761,412.101 L593.03,412.023 L595.345,411.911 L597.685,411.791 L600.031,411.688 L602.365,411.628 L604.667,411.637 L606.358,411.703 L607.462,411.78 L608.551,411.889 L609.62,412.031 L610.664,412.209 L611.681,412.427 L612.668,412.686 L613.622,412.989 L614.542,413.339 L615.423,413.737 L616.262,414.184 L617.057,414.683 L617.803,415.231 L618.497,415.83 L618.798,416.123 L618.798,416.123 C620.62,417.875 622.641,412.621 623.314,404.388 C623.987,396.155 623.055,388.06 621.233,386.308 L620.786,385.882 L619.918,385.146 L619.018,384.493 L618.088,383.916 L617.128,383.41 L616.141,382.968 L615.127,382.585 L614.087,382.257 L613.025,381.98 L611.941,381.75 L610.839,381.562 L609.719,381.414 L608.583,381.302 L607.429,381.222 L605.684,381.155 L603.334,381.147 L600.972,381.207 L598.613,381.31 L596.278,381.43 L593.985,381.541 L591.751,381.618 L590.125,381.639 L589.073,381.629 L588.047,381.597 L587.045,381.539 L586.545,381.498 C584.628,381.344 582.82,388.042 582.507,396.458 C582.193,404.875 583.492,411.822 585.409,411.975 L585.409,411.975"
       fill="#000000"
       id="path22115" />
    <path
       d="M373.116,537.383 L387.508,538.47 L416.339,540.613 L437.994,542.158 L452.442,543.143 L466.898,544.081 L481.359,544.964 L495.825,545.784 L510.293,546.531 L524.761,547.197 L539.229,547.774 L553.694,548.253 L568.156,548.625 L582.611,548.881 L597.058,549.013 L604.28,549.031 L604.28,549.031 C606.202,549.037 607.986,542.219 608.267,533.801 C608.547,525.384 607.216,518.555 605.295,518.548 L598.083,518.531 L583.649,518.399 L569.206,518.143 L554.757,517.771 L540.303,517.293 L525.845,516.717 L511.385,516.051 L496.925,515.304 L482.466,514.485 L468.011,513.602 L453.56,512.664 L439.117,511.68 L417.467,510.135 L388.638,507.992 L374.243,506.905 C372.326,506.762 370.52,513.469 370.209,521.886 C369.897,530.302 371.199,537.24 373.116,537.383 L373.116,537.383"
       fill="#000000"
       id="path22117" />
    <path
       d="M375.788,576.796 L386.769,577.837 L408.798,579.922 L425.369,581.449 L436.438,582.432 L447.522,583.374 L458.618,584.267 L469.725,585.099 L480.842,585.862 L491.967,586.546 L503.098,587.14 L514.234,587.635 L525.372,588.021 L536.511,588.288 L547.65,588.427 L553.221,588.444 L553.221,588.444 C555.143,588.451 556.928,581.633 557.208,573.216 C557.488,564.798 556.158,557.969 554.236,557.962 C554.236,557.962 554.236,557.962 554.236,557.962 L548.68,557.944 L537.56,557.806 L526.437,557.54 L515.315,557.154 L504.193,556.66 L493.075,556.067 L481.961,555.384 L470.854,554.621 L459.755,553.789 L448.666,552.898 L437.589,551.956 L426.525,550.974 L409.957,549.447 L387.929,547.362 L376.945,546.32 C376.945,546.32 376.945,546.32 376.945,546.32 C375.03,546.141 373.218,552.817 372.898,561.233 C372.579,569.648 373.872,576.616 375.788,576.796 L375.788,576.796"
       fill="#000000"
       id="path22119" />
    <path
       d="M379.294,620.678 L379.962,620.806 L381.361,621.052 L382.829,621.284 L384.36,621.5 L385.951,621.702 L387.601,621.889 L389.307,622.063 L391.068,622.225 L392.88,622.374 L394.742,622.512 L396.653,622.639 L398.608,622.755 L400.606,622.862 L402.646,622.959 L404.724,623.048 L406.84,623.128 L408.989,623.201 L411.17,623.268 L414.497,623.355 L419.023,623.452 L423.638,623.532 L428.322,623.599 L433.057,623.658 L440.216,623.739 L447.387,623.826 L452.145,623.896 L456.862,623.979 L461.521,624.08 L466.104,624.205 L470.591,624.357 L473.882,624.492 L476.037,624.593 L478.159,624.703 L480.244,624.823 L482.29,624.954 L484.295,625.095 L486.257,625.249 L488.174,625.414 L490.042,625.592 L491.86,625.784 L493.625,625.988 L495.335,626.208 L496.987,626.442 L498.579,626.692 L500.11,626.957 L501.575,627.238 L502.972,627.536 L504.3,627.852 L505.555,628.184 L506.734,628.534 L507.287,628.713 L507.287,628.713 C509.183,629.329 511.059,623.022 511.478,614.627 C511.896,606.232 510.698,598.928 508.802,598.312 L508.207,598.12 L506.979,597.757 L505.682,597.413 L504.317,597.09 L502.887,596.785 L501.392,596.498 L499.836,596.229 L498.22,595.976 L496.547,595.739 L494.818,595.517 L493.036,595.31 L491.203,595.117 L489.32,594.938 L487.391,594.771 L485.418,594.617 L483.401,594.475 L481.345,594.343 L479.251,594.223 L477.122,594.112 L474.958,594.011 L471.655,593.876 L467.157,593.723 L462.566,593.599 L457.9,593.497 L453.177,593.413 L448.417,593.344 L441.244,593.257 L434.087,593.175 L429.355,593.117 L424.676,593.05 L420.068,592.97 L415.548,592.873 L412.229,592.786 L410.053,592.72 L407.91,592.647 L405.803,592.567 L403.732,592.479 L401.701,592.382 L399.713,592.276 L397.767,592.16 L395.87,592.034 L394.021,591.897 L392.223,591.749 L390.479,591.589 L388.791,591.417 L387.161,591.232 L385.592,591.033 L384.088,590.821 L382.648,590.595 L381.273,590.352 L380.605,590.224 C378.697,589.859 376.857,596.38 376.495,604.789 C376.133,613.199 377.387,620.312 379.294,620.678 L379.294,620.678"
       fill="#000000"
       id="path22121" />
  </g>
</svg>
