<?xml version="1.0" encoding="UTF-8" standalone="no"?>
<svg
   xmlns:dc="http://purl.org/dc/elements/1.1/"
   xmlns:cc="http://creativecommons.org/ns#"
   xmlns:rdf="http://www.w3.org/1999/02/22-rdf-syntax-ns#"
   xmlns:svg="http://www.w3.org/2000/svg"
   xmlns="http://www.w3.org/2000/svg"
   xmlns:sodipodi="http://sodipodi.sourceforge.net/DTD/sodipodi-0.dtd"
   xmlns:inkscape="http://www.inkscape.org/namespaces/inkscape"
   version="1.1"
   x="0"
   y="0"
   width="944"
   height="704"
   viewBox="0, 0, 944, 704"
   id="svg4737"
   sodipodi:docname="ACR.svg"
   inkscape:version="0.92.1 r15371"
   inkscape:export-filename="X:\07-Administration\04-CoC\CoC-ML\intern\Präsentationen\Fachliche Szenarien\ML Poster Sketches\ML Poster\ACR.png"
   inkscape:export-xdpi="96"
   inkscape:export-ydpi="96">
  <metadata
     id="metadata4743">
    <rdf:RDF>
      <cc:Work
         rdf:about="">
        <dc:format>image/svg+xml</dc:format>
        <dc:type
           rdf:resource="http://purl.org/dc/dcmitype/StillImage" />
      </cc:Work>
    </rdf:RDF>
  </metadata>
  <defs
     id="defs4741" />
  <sodipodi:namedview
     pagecolor="#ffffff"
     bordercolor="#666666"
     borderopacity="1"
     objecttolerance="10"
     gridtolerance="10"
     guidetolerance="10"
     inkscape:pageopacity="0"
     inkscape:pageshadow="2"
     inkscape:window-width="1920"
     inkscape:window-height="1027"
     id="namedview4739"
     showgrid="false"
     inkscape:zoom="0.33522727"
     inkscape:cx="472"
     inkscape:cy="352"
     inkscape:window-x="-8"
     inkscape:window-y="-8"
     inkscape:window-maximized="1"
     inkscape:current-layer="Layer_1" />
  <g
     id="Layer_1">
    <path
       d="M524.572,329.79 C472.86,302.983 440.196,245.271 390.24,203.299 C360.654,178.443 313.193,168.136 272.832,141.803"
       id="path4548"
       stroke-linejoin="round"
       stroke-linecap="round"
       stroke-width="4"
       stroke="#000000"
       fill-opacity="0" />
    <path
       d="M517.215,330.867 C513.96,336.874 508.569,340.517 504.603,345.933"
       fill-opacity="0"
       stroke="#000000"
       stroke-width="4"
       stroke-linecap="round"
       stroke-linejoin="round"
       id="path4550" />
    <path
       d="M272.832,141.803 C331.03,180.454 312.924,198.04 366.542,240.025 C399.206,265.601 470.939,310.852 507.162,352.48"
       fill-opacity="0"
       stroke="#000000"
       stroke-width="4"
       stroke-linecap="round"
       stroke-linejoin="round"
       id="path4552" />
    <path
       d="M521.049,329.071 C543.744,341.063 553.26,368.635 573.538,385.938"
       fill-opacity="0"
       stroke="#000000"
       stroke-width="4"
       stroke-linecap="round"
       stroke-linejoin="round"
       id="path4554" />
    <path
       d="M504.455,348.836 C519.222,375.581 547.801,368.947 570.49,385.938"
       fill-opacity="0"
       stroke="#000000"
       stroke-width="4"
       stroke-linecap="round"
       stroke-linejoin="round"
       id="path4556" />
    <path
       d="M572.86,389.059 C554.956,369.33 526.32,365.032 509.873,343.981"
       fill-opacity="0"
       stroke="#000000"
       stroke-width="4"
       stroke-linecap="round"
       stroke-linejoin="round"
       id="path4558" />
    <path
       d="M566.765,382.471 C547.248,369.864 529.035,354.239 512.921,337.74"
       fill-opacity="0"
       stroke="#000000"
       stroke-width="4"
       stroke-linecap="round"
       stroke-linejoin="round"
       id="path4560" />
    <path
       d="M563.717,379.35 C542.044,357.851 537.642,345.933 514.276,332.538"
       fill-opacity="0"
       stroke="#000000"
       stroke-width="4"
       stroke-linecap="round"
       stroke-linejoin="round"
       id="path4562" />
    <path
       d="M425.198,284.989 C420.931,283.831 417.778,294.325 414.719,293.803 C414.02,293.684 370.557,262.199 370.557,261.613 C370.557,259.737 376.571,253.923 378.042,252.416"
       fill-opacity="0"
       stroke="#FF0000"
       stroke-width="4"
       stroke-linecap="round"
       stroke-linejoin="round"
       id="path4564"
       style="stroke:#8f123e;stroke-opacity:1" />
    <path
       d="M442.04,253.182 C444.045,250.232 445.673,246.891 447.279,243.602 C447.94,242.248 452.977,236.592 452.144,235.171 C444.871,222.759 425.109,218.962 416.216,207.579 C415.419,206.559 412.077,202.986 410.602,203.364 C409.275,203.703 406.627,209.856 405.737,211.028"
       fill-opacity="0"
       stroke="#FF0000"
       stroke-width="4"
       stroke-linecap="round"
       stroke-linejoin="round"
       id="path4566"
       style="stroke:#8f123e;stroke-opacity:1" />
    <path
       d="M401.792,287.204 C380.47,319.199 357.856,286.656 376.888,267.168"
       fill-opacity="0"
       stroke="#FF0000"
       stroke-width="4"
       stroke-linecap="round"
       stroke-linejoin="round"
       id="path4568"
       style="stroke:#8f123e;stroke-opacity:1" />
    <path
       d="M374.889,268.791 C328.102,275.649 283.023,293.831 236.745,303.308"
       fill-opacity="0"
       stroke="#FF0000"
       stroke-width="4"
       stroke-linecap="round"
       stroke-linejoin="round"
       id="path4570"
       style="stroke:#8f123e;stroke-opacity:1" />
    <path
       d="M385.465,299.924 C339.537,313.362 289.063,314.102 243.355,329.704"
       fill-opacity="0"
       stroke="#FF0000"
       stroke-width="4"
       stroke-linecap="round"
       stroke-linejoin="round"
       id="path4572"
       style="stroke:#8f123e;stroke-opacity:1" />
    <path
       d="M236.745,303.308 C204.605,312.263 219.565,340.062 244.421,329.071"
       fill-opacity="0"
       stroke="#FF0000"
       stroke-width="4"
       stroke-linecap="round"
       stroke-linejoin="round"
       id="path4574"
       style="stroke:#8f123e;stroke-opacity:1" />
    <path
       d="M233.374,317.91 L233.374,317.91"
       fill-opacity="0"
       stroke="#FF0000"
       stroke-width="4"
       stroke-linecap="round"
       stroke-linejoin="round"
       id="path4576"
       style="stroke:#8f123e;stroke-opacity:1" />
    <path
       d="M243.73,299.057 C225.478,279.74 198.659,302.706 206.216,325.922 C213.165,347.265 248.586,351.404 251.325,326.158"
       fill-opacity="0"
       stroke="#FF0000"
       stroke-width="4"
       stroke-linecap="round"
       stroke-linejoin="round"
       id="path4578"
       style="stroke:#8f123e;stroke-opacity:1" />
    <path
       d="M244.651,295.993 C244.651,292.301 244.651,288.609 244.651,284.917"
       fill-opacity="0"
       stroke="#FF0000"
       stroke-width="4"
       stroke-linecap="round"
       stroke-linejoin="round"
       id="path4580"
       style="stroke:#8f123e;stroke-opacity:1" />
    <path
       d="M242.349,284.446 C239.686,286.288 237.151,288.59 235.215,290.573"
       fill-opacity="0"
       stroke="#FF0000"
       stroke-width="4"
       stroke-linecap="round"
       stroke-linejoin="round"
       id="path4582"
       style="stroke:#8f123e;stroke-opacity:1" />
    <path
       d="M234.064,289.63 C233.83,285.895 231.481,282.673 230.152,279.497"
       fill-opacity="0"
       stroke="#FF0000"
       stroke-width="4"
       stroke-linecap="round"
       stroke-linejoin="round"
       id="path4584"
       style="stroke:#8f123e;stroke-opacity:1" />
    <path
       d="M229.691,279.026 C227.245,282.559 225.033,286.49 223.017,290.102"
       fill-opacity="0"
       stroke="#FF0000"
       stroke-width="4"
       stroke-linecap="round"
       stroke-linejoin="round"
       id="path4586"
       style="stroke:#8f123e;stroke-opacity:1" />
    <path
       d="M223.247,290.102 C220.395,287.239 217.659,283.716 214.732,281.147"
       fill-opacity="0"
       stroke="#FF0000"
       stroke-width="4"
       stroke-linecap="round"
       stroke-linejoin="round"
       id="path4588"
       style="stroke:#8f123e;stroke-opacity:1" />
    <path
       d="M214.732,282.796 C214.594,286.891 214.502,290.93 214.502,295.051"
       fill-opacity="0"
       stroke="#FF0000"
       stroke-width="4"
       stroke-linecap="round"
       stroke-linejoin="round"
       id="path4590"
       style="stroke:#8f123e;stroke-opacity:1" />
    <path
       d="M213.811,293.165 C210.882,291.04 207.424,289.004 204.145,287.745"
       fill-opacity="0"
       stroke="#FF0000"
       stroke-width="4"
       stroke-linecap="round"
       stroke-linejoin="round"
       id="path4592"
       style="stroke:#8f123e;stroke-opacity:1" />
    <path
       d="M204.145,287.745 C205.443,292.191 206.177,297.654 208.518,301.649"
       fill-opacity="0"
       stroke="#FF0000"
       stroke-width="4"
       stroke-linecap="round"
       stroke-linejoin="round"
       id="path4594"
       style="stroke:#8f123e;stroke-opacity:1" />
    <path
       d="M207.827,300.706 C203.45,302.098 198.529,302.464 194.479,304.241"
       fill-opacity="0"
       stroke="#FF0000"
       stroke-width="4"
       stroke-linecap="round"
       stroke-linejoin="round"
       id="path4596"
       style="stroke:#8f123e;stroke-opacity:1" />
    <path
       d="M195.4,305.42 C197.764,308.526 200.89,310.513 203.915,312.725"
       fill-opacity="0"
       stroke="#FF0000"
       stroke-width="4"
       stroke-linecap="round"
       stroke-linejoin="round"
       id="path4598"
       style="stroke:#8f123e;stroke-opacity:1" />
    <path
       d="M203.915,312.018 C199.723,313.678 196.503,317.055 192.408,318.852"
       fill-opacity="0"
       stroke="#FF0000"
       stroke-width="4"
       stroke-linecap="round"
       stroke-linejoin="round"
       id="path4600"
       style="stroke:#8f123e;stroke-opacity:1" />
    <path
       d="M192.408,318.852 C195.466,321.396 201.284,322.664 205.066,323.094"
       fill-opacity="0"
       stroke="#FF0000"
       stroke-width="4"
       stroke-linecap="round"
       stroke-linejoin="round"
       id="path4602"
       style="stroke:#8f123e;stroke-opacity:1" />
    <path
       d="M204.145,324.272 C201.736,326.601 198.882,331.311 196.55,333.699"
       fill-opacity="0"
       stroke="#FF0000"
       stroke-width="4"
       stroke-linecap="round"
       stroke-linejoin="round"
       id="path4604"
       style="stroke:#8f123e;stroke-opacity:1" />
    <path
       d="M196.55,333.699 C201.48,333.753 206.523,332.658 211.28,332.049"
       fill-opacity="0"
       stroke="#FF0000"
       stroke-width="4"
       stroke-linecap="round"
       stroke-linejoin="round"
       id="path4606"
       style="stroke:#8f123e;stroke-opacity:1" />
    <path
       d="M209.439,334.877 C210.168,338.497 209.228,343.995 209.669,347.603"
       fill-opacity="0"
       stroke="#FF0000"
       stroke-width="4"
       stroke-linecap="round"
       stroke-linejoin="round"
       id="path4608"
       style="stroke:#8f123e;stroke-opacity:1" />
    <path
       d="M209.669,347.603 C212.395,346.033 218.189,342.887 220.946,341.475"
       fill-opacity="0"
       stroke="#FF0000"
       stroke-width="4"
       stroke-linecap="round"
       stroke-linejoin="round"
       id="path4610"
       style="stroke:#8f123e;stroke-opacity:1" />
    <path
       d="M219.335,343.125 C219.591,346.335 222.226,351.411 223.247,354.201"
       fill-opacity="0"
       stroke="#FF0000"
       stroke-width="4"
       stroke-linecap="round"
       stroke-linejoin="round"
       id="path4612"
       style="stroke:#8f123e;stroke-opacity:1" />
    <path
       d="M223.247,354.201 C226.264,351.479 230.337,345.999 233.144,343.125"
       fill-opacity="0"
       stroke="#FF0000"
       stroke-width="4"
       stroke-linecap="round"
       stroke-linejoin="round"
       id="path4614"
       style="stroke:#8f123e;stroke-opacity:1" />
    <path
       d="M233.834,344.539 C235.956,347.548 240.468,350.223 242.58,351.844"
       fill-opacity="0"
       stroke="#FF0000"
       stroke-width="4"
       stroke-linecap="round"
       stroke-linejoin="round"
       id="path4616"
       style="stroke:#8f123e;stroke-opacity:1" />
    <path
       d="M242.58,351.844 C242.58,348.938 243.96,344.853 243.96,341.947"
       fill-opacity="0"
       stroke="#FF0000"
       stroke-width="4"
       stroke-linecap="round"
       stroke-linejoin="round"
       id="path4618"
       style="stroke:#8f123e;stroke-opacity:1" />
    <path
       d="M246.262,342.889 C248.986,343.418 251.799,343.551 254.547,343.832"
       fill-opacity="0"
       stroke="#FF0000"
       stroke-width="4"
       stroke-linecap="round"
       stroke-linejoin="round"
       id="path4620"
       style="stroke:#8f123e;stroke-opacity:1" />
    <path
       d="M254.777,342.654 C253.604,339.614 252.03,336.793 250.635,333.934"
       fill-opacity="0"
       stroke="#FF0000"
       stroke-width="4"
       stroke-linecap="round"
       stroke-linejoin="round"
       id="path4622"
       style="stroke:#8f123e;stroke-opacity:1" />
    <path
       d="M253.396,332.992 C256.634,333.099 259.628,331.813 262.832,331.813"
       fill-opacity="0"
       stroke="#FF0000"
       stroke-width="4"
       stroke-linecap="round"
       stroke-linejoin="round"
       id="path4624"
       style="stroke:#8f123e;stroke-opacity:1" />
    <path
       d="M261.452,329.928 C259.844,328.563 258.239,327.11 256.849,325.686"
       fill-opacity="0"
       stroke="#FF0000"
       stroke-width="4"
       stroke-linecap="round"
       stroke-linejoin="round"
       id="path4626"
       style="stroke:#8f123e;stroke-opacity:1" />
    <path
       d="M244.191,294.815 C247.314,294.744 250.527,292.454 252.936,291.044"
       fill-opacity="0"
       stroke="#FF0000"
       stroke-width="4"
       stroke-linecap="round"
       stroke-linejoin="round"
       id="path4628"
       style="stroke:#8f123e;stroke-opacity:1" />
    <path
       d="M252.476,292.694 C252.476,294.658 252.476,296.622 252.476,298.585"
       fill-opacity="0"
       stroke="#FF0000"
       stroke-width="4"
       stroke-linecap="round"
       stroke-linejoin="round"
       id="path4630"
       style="stroke:#8f123e;stroke-opacity:1" />
    <path
       d="M219.105,360.093 C222.323,360.056 226.636,359.779 229.001,362.685 C235.583,370.773 220.864,379.462 216.343,373.289 C211.442,366.599 218.125,357.186 225.549,360.564"
       fill-opacity="0"
       stroke="#FF0000"
       stroke-width="4"
       stroke-linecap="round"
       stroke-linejoin="round"
       id="path4632"
       style="stroke:#8f123e;stroke-opacity:1" />
    <path
       d="M222.957,357.999 C220.635,355.291 218.675,352.341 216.388,349.639"
       fill-opacity="0"
       stroke="#FF0000"
       stroke-width="4"
       stroke-linecap="round"
       stroke-linejoin="round"
       id="path4634"
       style="stroke:#8f123e;stroke-opacity:1" />
    <path
       d="M215.543,349.927 C215.877,353.519 215.667,357.186 216.388,360.69"
       fill-opacity="0"
       stroke="#FF0000"
       stroke-width="4"
       stroke-linecap="round"
       stroke-linejoin="round"
       id="path4636"
       style="stroke:#8f123e;stroke-opacity:1" />
    <path
       d="M215.825,361.651 C212.469,360.297 209.205,359.721 205.689,359.152"
       fill-opacity="0"
       stroke="#FF0000"
       stroke-width="4"
       stroke-linecap="round"
       stroke-linejoin="round"
       id="path4638"
       style="stroke:#8f123e;stroke-opacity:1" />
    <path
       d="M205.314,359.248 C207.492,362.922 210.714,365.667 213.666,368.473"
       fill-opacity="0"
       stroke="#FF0000"
       stroke-width="4"
       stroke-linecap="round"
       stroke-linejoin="round"
       id="path4640"
       style="stroke:#8f123e;stroke-opacity:1" />
    <path
       d="M212.915,367.801 C210.254,369.133 207.555,371.086 205.032,372.606"
       fill-opacity="0"
       stroke="#FF0000"
       stroke-width="4"
       stroke-linecap="round"
       stroke-linejoin="round"
       id="path4642"
       style="stroke:#8f123e;stroke-opacity:1" />
    <path
       d="M205.501,373.759 C209.421,375.047 213.655,374.636 217.702,374.816"
       fill-opacity="0"
       stroke="#FF0000"
       stroke-width="4"
       stroke-linecap="round"
       stroke-linejoin="round"
       id="path4644"
       style="stroke:#8f123e;stroke-opacity:1" />
    <path
       d="M215.543,374.72 C215.286,377.673 215.364,380.538 215.825,383.368"
       fill-opacity="0"
       stroke="#FF0000"
       stroke-width="4"
       stroke-linecap="round"
       stroke-linejoin="round"
       id="path4646"
       style="stroke:#8f123e;stroke-opacity:1" />
    <path
       d="M216.575,383.08 C218.139,380.948 219.968,379.039 221.362,376.834"
       fill-opacity="0"
       stroke="#FF0000"
       stroke-width="4"
       stroke-linecap="round"
       stroke-linejoin="round"
       id="path4648"
       style="stroke:#8f123e;stroke-opacity:1" />
    <path
       d="M221.831,376.065 C223.698,379.121 226.39,381.295 229.151,383.368"
       fill-opacity="0"
       stroke="#FF0000"
       stroke-width="4"
       stroke-linecap="round"
       stroke-linejoin="round"
       id="path4650"
       style="stroke:#8f123e;stroke-opacity:1" />
    <path
       d="M229.808,382.984 C229.402,379.868 228.516,376.861 227.743,373.855"
       fill-opacity="0"
       stroke="#FF0000"
       stroke-width="4"
       stroke-linecap="round"
       stroke-linejoin="round"
       id="path4652"
       style="stroke:#8f123e;stroke-opacity:1" />
    <path
       d="M227.743,372.99 C231.193,374.956 234.795,376.324 238.629,376.738"
       fill-opacity="0"
       stroke="#FF0000"
       stroke-width="4"
       stroke-linecap="round"
       stroke-linejoin="round"
       id="path4654"
       style="stroke:#8f123e;stroke-opacity:1" />
    <path
       d="M238.348,375.2 C236.112,372.116 232.781,369.797 230.089,367.224"
       fill-opacity="0"
       stroke="#FF0000"
       stroke-width="4"
       stroke-linecap="round"
       stroke-linejoin="round"
       id="path4656"
       style="stroke:#8f123e;stroke-opacity:1" />
    <path
       d="M231.966,366.84 C235.493,366.368 238.416,364.352 241.633,362.996"
       fill-opacity="0"
       stroke="#FF0000"
       stroke-width="4"
       stroke-linecap="round"
       stroke-linejoin="round"
       id="path4658"
       style="stroke:#8f123e;stroke-opacity:1" />
    <path
       d="M242.102,361.459 C237.927,361.095 233.709,361.086 229.526,360.882"
       fill-opacity="0"
       stroke="#FF0000"
       stroke-width="4"
       stroke-linecap="round"
       stroke-linejoin="round"
       id="path4660"
       style="stroke:#8f123e;stroke-opacity:1" />
    <path
       d="M230.089,359.825 C230.958,356.143 232.308,352.369 233.186,348.774"
       fill-opacity="0"
       stroke="#FF0000"
       stroke-width="4"
       stroke-linecap="round"
       stroke-linejoin="round"
       id="path4662"
       style="stroke:#8f123e;stroke-opacity:1" />
    <path
       d="M232.999,348.197 C229.344,351.016 226.477,355.199 223.614,358.864"
       fill-opacity="0"
       stroke="#FF0000"
       stroke-width="4"
       stroke-linecap="round"
       stroke-linejoin="round"
       id="path4664"
       style="stroke:#8f123e;stroke-opacity:1" />
    <path
       d="M262.832,289.63 C262.832,247.208 189.687,239.561 189.687,279.026 C189.687,279.026 189.753,338.968 189.827,353.076 C190.015,389.059 195.4,542.342 195.4,579.212"
       fill-opacity="0"
       stroke="#FF0000"
       stroke-width="4"
       stroke-linecap="round"
       stroke-linejoin="round"
       id="path4666"
       style="stroke:#8f123e;stroke-opacity:1" />
    <path
       d="M260.636,338.429 C260.116,370.578 262.832,532.523 262.832,579.212"
       fill-opacity="0"
       stroke="#FF0000"
       stroke-width="4"
       stroke-linecap="round"
       stroke-linejoin="round"
       id="path4668"
       style="stroke:#8f123e;stroke-opacity:1" />
    <path
       d="M382.022,283.433 L382.022,283.433"
       fill-opacity="0"
       stroke="#FF0000"
       stroke-width="4"
       stroke-linecap="round"
       stroke-linejoin="round"
       id="path4670"
       style="stroke:#8f123e;stroke-opacity:1" />
    <path
       d="M709.938,520.383 C565.217,521.024 421.11,518.989 276.47,518.989"
       fill-opacity="0"
       stroke="#000000"
       stroke-width="4"
       stroke-linecap="round"
       stroke-linejoin="round"
       id="path4672" />
    <path
       d="M707.151,500.87 C710.073,400.917 704.363,300.521 704.363,201.205"
       fill-opacity="0"
       stroke="#000000"
       stroke-width="4"
       stroke-linecap="round"
       stroke-linejoin="round"
       id="path4674" />
    <path
       d="M675.094,192.843 C584.376,194.914 493.664,192.843 403.305,192.843"
       fill-opacity="0"
       stroke="#000000"
       stroke-width="4"
       stroke-linecap="round"
       stroke-linejoin="round"
       id="path4676" />
    <path
       d="M310.925,195.63 C298.116,196.183 276.562,194.237 263.926,194.237"
       fill-opacity="0"
       stroke="#000000"
       stroke-width="4"
       stroke-linecap="round"
       stroke-linejoin="round"
       id="path4678" />
    <path
       d="M254.169,195.63 C255.283,214.035 252.776,231.875 252.776,249.988"
       fill-opacity="0"
       stroke="#000000"
       stroke-width="4"
       stroke-linecap="round"
       stroke-linejoin="round"
       id="path4680" />
    <path
       d="M351.89,589.45 C273.164,586.228 202.586,587.69 123.678,587.69"
       fill-opacity="0"
       stroke="#FF0000"
       stroke-width="4"
       stroke-linecap="round"
       stroke-linejoin="round"
       id="path4682"
       style="stroke:#8f123e;stroke-opacity:1" />
    <path
       d="M355.19,590.275 C358.608,602.103 367.606,610.472 376.636,617.495"
       fill-opacity="0"
       stroke="#FF0000"
       stroke-width="4"
       stroke-linecap="round"
       stroke-linejoin="round"
       id="path4684"
       style="stroke:#8f123e;stroke-opacity:1" />
    <path
       d="M123.678,587.359 C118.122,598.303 107.548,604.791 98.108,610.455"
       fill-opacity="0"
       stroke="#FF0000"
       stroke-width="4"
       stroke-linecap="round"
       stroke-linejoin="round"
       id="path4686"
       style="stroke:#8f123e;stroke-opacity:1" />
    <path
       d="M323.02,666.162 C305.253,666.162 290.851,651.943 290.851,634.404 C290.851,616.866 305.253,602.647 323.02,602.647 C340.787,602.647 355.19,616.866 355.19,634.404 C355.19,651.943 340.787,666.162 323.02,666.162 z"
       fill-opacity="0"
       stroke="#FF0000"
       stroke-width="4"
       id="path4688"
       style="stroke:#8f123e;stroke-opacity:1" />
    <path
       d="M140.879,666.162 C123.831,666.162 110.011,651.944 110.011,634.405 C110.011,616.866 123.831,602.648 140.879,602.648 C157.927,602.648 171.747,616.866 171.747,634.405 C171.747,651.944 157.927,666.162 140.879,666.162 z"
       fill-opacity="0"
       stroke="#FF0000"
       stroke-width="4"
       id="path4690"
       style="stroke:#8f123e;stroke-opacity:1" />
    <path
       d="M319.344,602.647 C256.849,605.629 203.915,606.227 140.879,602.648"
       fill-opacity="0"
       stroke="#FF0000"
       stroke-width="4"
       stroke-linecap="round"
       stroke-linejoin="round"
       id="path4692"
       style="stroke:#8f123e;stroke-opacity:1" />
    <path
       d="M319.344,666.162 C265.334,661.262 199.618,666.162 144.009,666.162"
       fill-opacity="0"
       stroke="#FF0000"
       stroke-width="4"
       stroke-linecap="round"
       stroke-linejoin="round"
       id="path4694"
       style="stroke:#8f123e;stroke-opacity:1" />
    <path
       d="M744.312,431.517 C745.679,406.611 754.264,385.552 760.321,361.323 C767.124,334.112 743.08,261.289 743.08,224.629 C743.08,204.806 767.477,145.698 740.617,132.268 C712.842,118.38 653.602,141.091 624.859,148.277 C580.442,159.381 522.555,142.405 482.007,132.268 C439.098,121.541 355.19,151.274 304.392,145.806"
       fill-opacity="0"
       stroke="#000000"
       stroke-width="4"
       stroke-linecap="round"
       stroke-linejoin="round"
       id="path4696" />
    <path
       d="M744.292,428.56 C747.315,471.224 780.345,513.188 749.238,554.664 C714.118,601.49 655.436,568.193 611.312,564.516 C573.206,561.341 526.08,606.361 474.618,582.988 C418.5,557.5 354.126,561.418 298.517,566.979"
       fill-opacity="0"
       stroke="#000000"
       stroke-width="4"
       stroke-linecap="round"
       stroke-linejoin="round"
       id="path4698" />
    <path
       d="M219.335,230.177 C192.218,185.515 186.429,111.432 261.573,138.425"
       fill-opacity="0"
       stroke="#000000"
       stroke-width="4"
       stroke-linecap="round"
       stroke-linejoin="round"
       id="path4700" />
    <path
       d="M570.322,389.932 C575.3,418.703 573.49,448.543 575.097,477.474"
       fill-opacity="0"
       stroke="#000000"
       stroke-width="4"
       stroke-linecap="round"
       stroke-linejoin="round"
       id="path4702" />
    <path
       d="M576.689,480.127 C608.207,479.902 640.067,480.065 670.068,486.494"
       fill-opacity="0"
       stroke="#000000"
       stroke-width="4"
       stroke-linecap="round"
       stroke-linejoin="round"
       id="path4704" />
    <path
       d="M671.659,475.352 C668.442,436.404 667.415,397.366 667.415,358.098"
       fill-opacity="0"
       stroke="#000000"
       stroke-width="4"
       stroke-linecap="round"
       stroke-linejoin="round"
       id="path4706" />
    <path
       d="M675.373,362.343 C653.522,345.516 631.588,326.687 611.706,308.225"
       fill-opacity="0"
       stroke="#000000"
       stroke-width="4"
       stroke-linecap="round"
       stroke-linejoin="round"
       id="path4708" />
    <path
       d="M610.114,470.577 C609.858,458.36 609.584,446.208 609.584,433.968"
       fill-opacity="0"
       stroke="#000000"
       stroke-width="4"
       stroke-linecap="round"
       stroke-linejoin="round"
       id="path4710" />
    <path
       d="M608.87,431.661 C601.814,433.01 594.803,433.514 587.553,433.514"
       fill-opacity="0"
       stroke="#000000"
       stroke-width="4"
       stroke-linecap="round"
       stroke-linejoin="round"
       id="path4712" />
    <path
       d="M586.812,433.144 C586.972,447.364 586.84,461.858 585.514,475.778"
       fill-opacity="0"
       stroke="#000000"
       stroke-width="4"
       stroke-linecap="round"
       stroke-linejoin="round"
       id="path4714" />
    <path
       d="M653.541,432.231 C646.785,432.112 635.628,433.122 629.042,433.592"
       fill-opacity="0"
       stroke="#000000"
       stroke-width="4"
       stroke-linecap="round"
       stroke-linejoin="round"
       id="path4716" />
    <path
       d="M626.864,433.514 C626.864,439.866 626.319,444.39 626.319,450.742"
       fill-opacity="0"
       stroke="#000000"
       stroke-width="4"
       stroke-linecap="round"
       stroke-linejoin="round"
       id="path4718" />
    <path
       d="M626.319,450.742 C635.567,451.583 644.294,450.527 653.541,450.197"
       fill-opacity="0"
       stroke="#000000"
       stroke-width="4"
       stroke-linecap="round"
       stroke-linejoin="round"
       id="path4720" />
    <path
       d="M654.085,448.292 C654.085,442.938 654.085,437.585 654.085,432.231"
       fill-opacity="0"
       stroke="#000000"
       stroke-width="4"
       stroke-linecap="round"
       stroke-linejoin="round"
       id="path4722" />
    <path
       d="M570.338,431.485 C500.947,409.093 418.863,390.347 347.632,417.059"
       fill-opacity="0"
       stroke="#000000"
       stroke-width="4"
       stroke-linecap="round"
       stroke-linejoin="round"
       id="path4724" />
    <path
       d="M408.944,451.321 C365.722,422.331 315.533,412.551 263.78,412.551"
       fill-opacity="0"
       stroke="#000000"
       stroke-width="4"
       stroke-linecap="round"
       stroke-linejoin="round"
       id="path4726" />
    <path
       d="M621.731,197.96 C627.636,231.923 664.068,245.747 694.765,245.747"
       fill-opacity="0"
       stroke="#000000"
       stroke-width="4"
       stroke-linecap="round"
       stroke-linejoin="round"
       id="path4728" />
    <path
       d="M626.24,216.894 C603.012,235.563 572.655,241.6 548.698,258.37"
       fill-opacity="0"
       stroke="#000000"
       stroke-width="4"
       stroke-linecap="round"
       stroke-linejoin="round"
       id="path4730" />
    <path
       d="M637.059,243.042 C627.196,255.86 619.359,270.1 610.912,283.616"
       fill-opacity="0"
       stroke="#000000"
       stroke-width="4"
       stroke-linecap="round"
       stroke-linejoin="round"
       id="path4732" />
    <path
       d="M676.732,250.255 C670.302,267.994 664.15,287.084 658.699,305.255"
       fill-opacity="0"
       stroke="#000000"
       stroke-width="4"
       stroke-linecap="round"
       stroke-linejoin="round"
       id="path4734" />
  </g>
</svg>
