<?xml version="1.0" encoding="UTF-8" standalone="no"?>
<svg
   xmlns:dc="http://purl.org/dc/elements/1.1/"
   xmlns:cc="http://creativecommons.org/ns#"
   xmlns:rdf="http://www.w3.org/1999/02/22-rdf-syntax-ns#"
   xmlns:svg="http://www.w3.org/2000/svg"
   xmlns="http://www.w3.org/2000/svg"
   xmlns:sodipodi="http://sodipodi.sourceforge.net/DTD/sodipodi-0.dtd"
   xmlns:inkscape="http://www.inkscape.org/namespaces/inkscape"
   version="1.1"
   x="0"
   y="0"
   width="944"
   height="704"
   viewBox="0, 0, 944, 704"
   id="svg21461"
   sodipodi:docname="ADI.svg"
   inkscape:export-filename="X:\07-Administration\04-CoC\CoC-ML\intern\Präsentationen\Fachliche Szenarien\ML Poster Sketches\ML Poster\ADI.png"
   inkscape:export-xdpi="96"
   inkscape:export-ydpi="96"
   inkscape:version="0.92.1 r15371">
  <metadata
     id="metadata21467">
    <rdf:RDF>
      <cc:Work
         rdf:about="">
        <dc:format>image/svg+xml</dc:format>
        <dc:type
           rdf:resource="http://purl.org/dc/dcmitype/StillImage" />
      </cc:Work>
    </rdf:RDF>
  </metadata>
  <defs
     id="defs21465" />
  <sodipodi:namedview
     pagecolor="#ffffff"
     bordercolor="#666666"
     borderopacity="1"
     objecttolerance="10"
     gridtolerance="10"
     guidetolerance="10"
     inkscape:pageopacity="0"
     inkscape:pageshadow="2"
     inkscape:window-width="1920"
     inkscape:window-height="1027"
     id="namedview21463"
     showgrid="false"
     inkscape:zoom="0.16761364"
     inkscape:cx="333.49982"
     inkscape:cy="-235.54396"
     inkscape:window-x="-8"
     inkscape:window-y="-8"
     inkscape:window-maximized="1"
     inkscape:current-layer="Layer_1" />
  <g
     id="Layer_1">
    <path
       d="M769.233,90.329 C650.149,62.253 590.845,266.982 712.233,297.329 C736.411,303.374 763.917,301.329 789.233,301.329"
       fill-opacity="0"
       stroke="#000000"
       stroke-width="4"
       stroke-linecap="round"
       stroke-linejoin="round"
       id="path21372" />
    <path
       d="M643.233,206.329 C505.976,198.037 363.958,214.576 229.233,195.329"
       fill-opacity="0"
       stroke="#000000"
       stroke-width="4"
       stroke-linecap="round"
       stroke-linejoin="round"
       id="path21374" />
    <path
       d="M227.518,195.329 C205.518,189.837 211.145,130.067 202.233,103.329"
       fill-opacity="0"
       stroke="#000000"
       stroke-width="4"
       stroke-linecap="round"
       stroke-linejoin="round"
       id="path21376" />
    <path
       d="M648.233,172.31 C515.902,179.357 378.393,188.136 233.743,180.697"
       fill-opacity="0"
       stroke="#000000"
       stroke-width="4"
       stroke-linecap="round"
       stroke-linejoin="round"
       id="path21378" />
    <path
       d="M233.743,180.697 C205.58,170.431 218.775,120.288 202.233,100.437"
       fill-opacity="0"
       stroke="#000000"
       stroke-width="4"
       stroke-linecap="round"
       stroke-linejoin="round"
       id="path21380" />
    <path
       d="M484.72,203.911 C472.887,209.675 468.001,224.971 464.745,236.91"
       fill-opacity="0"
       stroke="#000000"
       stroke-width="4"
       stroke-linecap="round"
       stroke-linejoin="round"
       id="path21382" />
    <path
       d="M433.958,206.026 C439.224,211.528 440.52,229.825 441.308,236.91"
       fill-opacity="0"
       stroke="#000000"
       stroke-width="4"
       stroke-linecap="round"
       stroke-linejoin="round"
       id="path21384" />
    <path
       d="M454.273,338.794 C470.999,339.516 489.737,328.576 499.651,315.357 C528.447,276.962 476.214,227.177 433.958,238.564 C390.56,250.258 377.63,339.293 452.278,339.293"
       fill-opacity="0"
       stroke="#000000"
       stroke-width="4"
       stroke-linecap="round"
       stroke-linejoin="round"
       id="path21386" />
    <path
       d="M454.142,332.621 C468.422,333.256 484.419,323.647 492.883,312.038 C517.468,278.318 472.874,234.596 436.798,244.596 C399.748,254.866 388.709,333.059 452.439,333.059"
       fill-opacity="0"
       stroke="#000000"
       stroke-width="4"
       stroke-linecap="round"
       stroke-linejoin="round"
       id="path21388" />
    <path
       d="M450.752,283.424 C448.817,283.277 447.015,283.553 445.391,284.635 C439.627,288.477 445.126,298.027 451.444,296.222 C457.401,294.52 457.233,284.462 449.887,284.462"
       fill-opacity="0"
       stroke="#000000"
       stroke-width="4"
       stroke-linecap="round"
       stroke-linejoin="round"
       id="path21390" />
    <path
       d="M442.624,288.094 C432.773,287.437 423.053,284.862 413.225,283.77 C411.355,283.562 409.619,282.56 407.864,282.56"
       fill-opacity="0"
       stroke="#000000"
       stroke-width="4"
       stroke-linecap="round"
       stroke-linejoin="round"
       id="path21392" />
    <path
       d="M444.872,293.973 C439.173,295.765 418.245,310.402 414.263,310.402"
       fill-opacity="0"
       stroke="#000000"
       stroke-width="4"
       stroke-linecap="round"
       stroke-linejoin="round"
       id="path21394" />
    <path
       d="M449.541,295.357 C448.541,306.817 445.218,318.212 445.218,329.771"
       fill-opacity="0"
       stroke="#000000"
       stroke-width="4"
       stroke-linecap="round"
       stroke-linejoin="round"
       id="path21396" />
    <path
       d="M455.421,291.898 C456.115,292.518 456.365,293.446 456.977,294.146 C459.081,296.55 465.398,301.43 467.181,303.658 C469.808,306.942 478.706,317.226 482.399,318.703"
       fill-opacity="0"
       stroke="#000000"
       stroke-width="4"
       stroke-linecap="round"
       stroke-linejoin="round"
       id="path21398" />
    <path
       d="M455.075,287.402 C466.264,287.856 477.355,286.336 488.452,285.327 C490.16,285.171 491.938,285.539 493.64,285.327 C494.876,285.172 496.297,284.635 497.444,284.635"
       fill-opacity="0"
       stroke="#000000"
       stroke-width="4"
       stroke-linecap="round"
       stroke-linejoin="round"
       id="path21400" />
    <path
       d="M453.865,282.387 C460.3,276.922 473.85,263.514 477.557,256.101"
       fill-opacity="0"
       stroke="#000000"
       stroke-width="4"
       stroke-linecap="round"
       stroke-linejoin="round"
       id="path21402" />
    <path
       d="M448.158,281.003 C447.324,271.874 448.998,252.716 446.947,244.514"
       fill-opacity="0"
       stroke="#000000"
       stroke-width="4"
       stroke-linecap="round"
       stroke-linejoin="round"
       id="path21404" />
    <path
       d="M444.526,283.943 C422.371,266.996 419.593,265.956 415.3,262.499"
       fill-opacity="0"
       stroke="#000000"
       stroke-width="4"
       stroke-linecap="round"
       stroke-linejoin="round"
       id="path21406" />
    <path
       d="M452.308,296.222 C454.777,307.463 461.459,318.854 467.699,328.215"
       fill-opacity="0"
       stroke="#000000"
       stroke-width="4"
       stroke-linecap="round"
       stroke-linejoin="round"
       id="path21408" />
    <path
       d="M457.842,290.861 C467.749,294.643 477.781,298.364 487.933,301.41 C490.448,302.164 493.343,302.363 495.715,303.312"
       fill-opacity="0"
       stroke="#000000"
       stroke-width="4"
       stroke-linecap="round"
       stroke-linejoin="round"
       id="path21410" />
    <path
       d="M454.038,285.5 C463.724,283.207 473.382,277.443 482.226,272.53 C484.9,271.044 487.135,268.565 489.489,266.996"
       fill-opacity="0"
       stroke="#000000"
       stroke-width="4"
       stroke-linecap="round"
       stroke-linejoin="round"
       id="path21412" />
    <path
       d="M452.827,281.695 C455.206,275.387 464.241,253.193 464.241,247.108"
       fill-opacity="0"
       stroke="#000000"
       stroke-width="4"
       stroke-linecap="round"
       stroke-linejoin="round"
       id="path21414" />
    <path
       d="M448.504,283.597 C437.486,266.397 431.91,256.708 426.904,249.427"
       fill-opacity="0"
       stroke="#000000"
       stroke-width="4"
       stroke-linecap="round"
       stroke-linejoin="round"
       id="path21416" />
    <path
       d="M407.156,297.955 C416.951,294.688 427.34,292.515 437.563,290.812 C439.347,290.514 440.687,289.573 442.325,289.163"
       fill-opacity="0"
       stroke="#000000"
       stroke-width="4"
       stroke-linecap="round"
       stroke-linejoin="round"
       id="path21418" />
    <path
       d="M425.84,323.416 C430.808,315.048 435.553,305.827 442.508,298.871 C444.023,297.356 444.823,295.274 446.355,293.742"
       fill-opacity="0"
       stroke="#000000"
       stroke-width="4"
       stroke-linecap="round"
       stroke-linejoin="round"
       id="path21420" />
    <path
       d="M762.482,255.044 C749.253,255.654 736.184,256.143 722.898,256.143"
       fill-opacity="0"
       stroke="#FF0000"
       stroke-width="4"
       stroke-linecap="round"
       stroke-linejoin="round"
       id="path21422"
       style="stroke:#8f123e;stroke-opacity:1" />
    <path
       d="M766.33,257.792 C766.33,264.206 766.33,270.62 766.33,277.034"
       fill-opacity="0"
       stroke="#FF0000"
       stroke-width="4"
       stroke-linecap="round"
       stroke-linejoin="round"
       id="path21424"
       style="stroke:#8f123e;stroke-opacity:1" />
    <path
       d="M767.429,276.485 C753.378,275.657 739.561,277.584 725.647,277.584"
       fill-opacity="0"
       stroke="#FF0000"
       stroke-width="4"
       stroke-linecap="round"
       stroke-linejoin="round"
       id="path21426"
       style="stroke:#8f123e;stroke-opacity:1" />
    <path
       d="M725.647,255.593 C725.647,262.924 725.647,270.254 725.647,277.584"
       fill-opacity="0"
       stroke="#FF0000"
       stroke-width="4"
       stroke-linecap="round"
       stroke-linejoin="round"
       id="path21428"
       style="stroke:#8f123e;stroke-opacity:1" />
    <path
       d="M742.405,252.798 C670.427,267.666 670.015,207.573 648.314,200.34 C621.661,191.456 491.354,180.357 470.123,194.511 C454.046,205.229 455.407,222.005 450.139,237.81"
       fill-opacity="0"
       stroke="#FF0000"
       stroke-width="4"
       stroke-linecap="round"
       stroke-linejoin="round"
       id="path21430"
       style="stroke:#8f123e;stroke-opacity:1" />
    <path
       d="M714.568,597.525 C596.113,596.224 477.65,592.156 359.145,592.156 C327.531,592.156 287.728,596.986 258.209,591.082"
       fill-opacity="0"
       stroke="#000000"
       stroke-width="4"
       stroke-linecap="round"
       stroke-linejoin="round"
       id="path21432" />
    <path
       d="M712.42,581.418 C742.787,612.544 722.743,613.343 688.797,619.001"
       fill-opacity="0"
       stroke="#000000"
       stroke-width="4"
       stroke-linecap="round"
       stroke-linejoin="round"
       id="path21434" />
    <path
       d="M267.873,603.968 C264.11,506.837 265.725,409.239 265.725,311.898"
       fill-opacity="0"
       stroke="#000000"
       stroke-width="4"
       stroke-linecap="round"
       stroke-linejoin="round"
       id="path21436" />
    <path
       d="M277.452,316.863 C268.199,296.718 263.041,297.637 254.238,315.243"
       fill-opacity="0"
       stroke="#000000"
       stroke-width="4"
       stroke-linecap="round"
       stroke-linejoin="round"
       id="path21442" />
    <path
       d="M257.654,521.773 C261.539,521.046 259.412,528.302 262.476,530.345 C265.636,532.451 267.622,519.381 274.798,521.773 C277.113,522.545 275.156,526.776 275.869,528.202 C277.407,531.278 281.763,535.241 281.763,529.273 C281.763,525.827 288.027,514.108 292.477,518.559 C296.061,522.142 292.701,533.671 297.835,536.238 C303.591,539.117 300.347,508.07 310.157,510.523 C313.285,511.305 314.546,545.634 321.407,541.06 C329.169,535.885 323.461,514.898 330.515,507.844 C334.348,504.011 338.797,533.487 343.372,534.631 C345.217,535.092 347.506,519.438 351.408,517.487 C358.445,513.969 355.879,531.952 361.052,531.952 C368.326,531.952 365.711,518.74 375.517,520.702 C379.716,521.542 381.17,533.172 385.16,535.167 C390.864,538.019 392.348,512.1 399.625,516.952 C402.002,518.537 403.613,540.445 408.197,538.917 C412.486,537.487 412.731,519.177 420.519,521.773 C423.861,522.887 425.529,539.626 431.233,536.774 C439.465,532.658 440.849,475.827 453.199,478.914 C457.221,479.92 455.34,561.283 466.592,564.096 C470.012,564.952 472.58,551.838 473.021,549.632 C477.817,525.652 479.889,501.412 484.272,477.307 C484.722,474.831 486.204,456.093 491.772,457.485 C496.262,458.607 494.451,477.97 494.451,481.057 C494.451,491.872 497.713,578.586 505.165,582.312 C506.445,582.952 510.209,561.678 510.523,559.275 C514.93,525.487 511.82,491.94 520.166,458.556 C520.521,457.138 524.36,443.346 526.595,444.091 C530.409,445.363 530.214,466.27 530.345,469.807 C531.624,504.34 527.977,543.403 537.845,576.954 C543.391,595.809 549.882,576.677 551.775,567.847 C554.693,554.227 553.208,482.976 563.025,480.521 C565.901,479.802 566.47,547.048 575.883,539.988 C585.84,532.52 576.602,504.568 592.491,499.272 C596.933,497.791 596.179,529.463 603.741,532.488 C610.44,535.167 608.157,501.415 625.706,501.415 C632.849,501.415 633.736,521.231 639.1,526.595 C642.434,529.929 646.169,508.808 653.029,510.523 C655.213,511.069 659.036,521.018 661.601,519.094 C663.423,517.728 668.168,504.098 672.851,507.844 C675.491,509.956 676.462,525.213 678.744,524.452 C685.749,522.117 684.861,507.52 694.281,505.165 C698.45,504.123 700.276,520.753 704.46,522.845 C708.155,524.693 724.352,497.014 728.032,519.094"
       fill-opacity="0"
       stroke="#FF0000"
       stroke-width="4"
       stroke-linecap="round"
       stroke-linejoin="round"
       id="path21444"
       style="stroke:#8f123e;stroke-opacity:1" />
    <path
       d="M250.154,437.127 C273.099,443.776 286.797,422.083 308.014,417.84 C337.011,412.04 368.405,433.061 383.553,424.805 C441.308,393.324 491.603,331.489 537.845,341.765 C573.183,349.618 590.888,389.315 616.063,408.197 C648.493,432.519 687.666,432.305 726.961,432.305"
       fill-opacity="0"
       stroke="#FF0000"
       stroke-width="4"
       stroke-linecap="round"
       stroke-linejoin="round"
       id="path21446"
       style="stroke:#8f123e;stroke-opacity:1" />
    <text
       id="text21450"
       x="362.04468"
       y="519.87299">
      <tspan
         x="61.000671"
         y="534.37299"
         font-size="40"
         id="tspan21448"
         style="font-style:normal;font-variant:normal;font-weight:normal;font-stretch:normal;font-size:40px;font-family:'msg Text Heavy';-inkscape-font-specification:'msg Text Heavy, ';fill:#000000">Vibrations</tspan>
    </text>
    <text
       transform="matrix(1, 0, 0, 1, 380.497, 445.836)"
       id="text21454">
      <tspan
         x="-172.62"
         y="3.44"
         font-family="ArialRoundedMTBold"
         font-size="40"
         fill="#000000"
         id="tspan21452"
         style="-inkscape-font-specification:'msg Text Heavy, ';font-family:'msg Text Heavy';font-weight:normal;font-style:normal;font-stretch:normal;font-variant:normal">C</tspan>
    </text>
    <text
       id="text21458"
       x="415.66473"
       y="429.9028">
      <tspan
         x="233.21373"
         y="427.4028"
         font-size="22"
         id="tspan21456"
         style="font-style:normal;font-variant:normal;font-weight:normal;font-stretch:normal;font-size:22px;font-family:'msg Text Heavy';-inkscape-font-specification:'msg Text Heavy, ';fill:#000000">o</tspan>
    </text>
    <text
       xml:space="preserve"
       style="font-style:normal;font-variant:normal;font-weight:normal;font-stretch:normal;font-size:40px;line-height:1.25;font-family:'msg Text Heavy';-inkscape-font-specification:'msg Text Heavy, ';letter-spacing:0px;word-spacing:0px;fill:#000000;fill-opacity:1;stroke:none"
       x="715.06476"
       y="644.9386"
       id="text22014"
       inkscape:export-xdpi="96"
       inkscape:export-ydpi="96"><tspan
         sodipodi:role="line"
         id="tspan22012"
         x="715.06476"
         y="644.9386"
         style="font-size:40px">t</tspan></text>
    <flowRoot
       xml:space="preserve"
       id="flowRoot22016"
       style="fill:black;fill-opacity:1;stroke:none;font-family:'msg Text Heavy';font-style:normal;font-weight:normal;font-size:26.66666667px;line-height:1.25;letter-spacing:0px;word-spacing:0px;-inkscape-font-specification:'msg Text Heavy, ';font-stretch:normal;font-variant:normal"><flowRegion
         id="flowRegion22018"><rect
           id="rect22020"
           width="16539.299"
           height="157.14549"
           x="508.34985"
           y="486.73843" /></flowRegion><flowPara
         id="flowPara22022"></flowPara></flowRoot>  </g>
</svg>
