<?xml version="1.0" encoding="UTF-8" standalone="no"?>
<svg
   xmlns:dc="http://purl.org/dc/elements/1.1/"
   xmlns:cc="http://creativecommons.org/ns#"
   xmlns:rdf="http://www.w3.org/1999/02/22-rdf-syntax-ns#"
   xmlns:svg="http://www.w3.org/2000/svg"
   xmlns="http://www.w3.org/2000/svg"
   xmlns:sodipodi="http://sodipodi.sourceforge.net/DTD/sodipodi-0.dtd"
   xmlns:inkscape="http://www.inkscape.org/namespaces/inkscape"
   version="1.1"
   x="0"
   y="0"
   width="944"
   height="704"
   viewBox="0, 0, 944, 704"
   id="svg19130"
   sodipodi:docname="ADT.svg"
   inkscape:export-filename="X:\07-Administration\04-CoC\CoC-ML\intern\Präsentationen\Fachliche Szenarien\ML Poster Sketches\ML Poster\ADT.png"
   inkscape:export-xdpi="96"
   inkscape:export-ydpi="96"
   inkscape:version="0.92.1 r15371">
  <metadata
     id="metadata19136">
    <rdf:RDF>
      <cc:Work
         rdf:about="">
        <dc:format>image/svg+xml</dc:format>
        <dc:type
           rdf:resource="http://purl.org/dc/dcmitype/StillImage" />
      </cc:Work>
    </rdf:RDF>
  </metadata>
  <defs
     id="defs19134" />
  <sodipodi:namedview
     pagecolor="#ffffff"
     bordercolor="#666666"
     borderopacity="1"
     objecttolerance="10"
     gridtolerance="10"
     guidetolerance="10"
     inkscape:pageopacity="0"
     inkscape:pageshadow="2"
     inkscape:window-width="1920"
     inkscape:window-height="1027"
     id="namedview19132"
     showgrid="false"
     inkscape:zoom="0.94816591"
     inkscape:cx="404.09092"
     inkscape:cy="284.34071"
     inkscape:window-x="-8"
     inkscape:window-y="-8"
     inkscape:window-maximized="1"
     inkscape:current-layer="Layer_1" />
  <g
     id="Layer_1">
    <path
       d="M134.973,576.5 C128.115,432.841 138.614,288.349 138.614,145.6"
       fill-opacity="0"
       stroke="#000000"
       stroke-width="4"
       stroke-linecap="round"
       stroke-linejoin="round"
       id="path18985" />
    <path
       d="M163.323,164.55 C139.263,108.147 139.284,124.281 116.254,154.989"
       fill-opacity="0"
       stroke="#000000"
       stroke-width="4"
       stroke-linecap="round"
       stroke-linejoin="round"
       id="path18987" />
    <path
       d="M104.423,556.715 C334.696,545.45 565.237,561.199 794.996,561.199"
       fill-opacity="0"
       stroke="#000000"
       stroke-width="4"
       stroke-linecap="round"
       stroke-linejoin="round"
       id="path18989" />
    <path
       d="M798.359,544.383 C829.727,564.602 810.656,569.335 784.906,575.773"
       fill-opacity="0"
       stroke="#000000"
       stroke-width="4"
       stroke-linecap="round"
       stroke-linejoin="round"
       id="path18991" />
    <path
       d="M174.62,435.569 L174.62,435.569"
       fill-opacity="0"
       stroke="#000000"
       stroke-width="10"
       stroke-linecap="round"
       stroke-linejoin="round"
       id="path18993" />
    <path
       d="M206.278,453.509 L206.278,453.509"
       fill-opacity="0"
       stroke="#000000"
       stroke-width="10"
       stroke-linecap="round"
       stroke-linejoin="round"
       id="path18995" />
    <path
       d="M231.605,421.851 L231.605,421.851"
       fill-opacity="0"
       stroke="#000000"
       stroke-width="10"
       stroke-linecap="round"
       stroke-linejoin="round"
       id="path18997" />
    <path
       d="M248.489,436.625 L248.489,436.625"
       fill-opacity="0"
       stroke="#000000"
       stroke-width="10"
       stroke-linecap="round"
       stroke-linejoin="round"
       id="path18999" />
    <path
       d="M267.484,401.801 L267.484,401.801"
       fill-opacity="0"
       stroke="#000000"
       stroke-width="10"
       stroke-linecap="round"
       stroke-linejoin="round"
       id="path19001" />
    <path
       d="M293.866,421.851 L293.866,421.851"
       fill-opacity="0"
       stroke="#000000"
       stroke-width="10"
       stroke-linecap="round"
       stroke-linejoin="round"
       id="path19003" />
    <path
       d="M312.861,369.087 L312.861,369.087"
       fill-opacity="0"
       stroke="#000000"
       stroke-width="10"
       stroke-linecap="round"
       stroke-linejoin="round"
       id="path19005" />
    <path
       d="M328.69,418.685 L328.69,418.685"
       fill-opacity="0"
       stroke="#000000"
       stroke-width="10"
       stroke-linecap="round"
       stroke-linejoin="round"
       id="path19007" />
    <path
       d="M463.766,333.207 L463.766,333.207"
       fill-opacity="0"
       stroke="#000000"
       stroke-width="10"
       stroke-linecap="round"
       stroke-linejoin="round"
       id="path19009" />
    <path
       d="M484.871,306.826 L484.871,306.826"
       fill-opacity="0"
       stroke="#000000"
       stroke-width="10"
       stroke-linecap="round"
       stroke-linejoin="round"
       id="path19011" />
    <path
       d="M501.756,340.594 L501.756,340.594"
       fill-opacity="0"
       stroke="#000000"
       stroke-width="10"
       stroke-linecap="round"
       stroke-linejoin="round"
       id="path19013" />
    <path
       d="M518.64,302.604 L518.64,302.604"
       fill-opacity="0"
       stroke="#000000"
       stroke-width="10"
       stroke-linecap="round"
       stroke-linejoin="round"
       id="path19015" />
    <path
       d="M538.691,341.65 L538.691,341.65"
       fill-opacity="0"
       stroke="#000000"
       stroke-width="10"
       stroke-linecap="round"
       stroke-linejoin="round"
       id="path19017" />
    <path
       d="M567.183,288.886 L567.183,288.886"
       fill-opacity="0"
       stroke="#000000"
       stroke-width="10"
       stroke-linecap="round"
       stroke-linejoin="round"
       id="path19019" />
    <path
       d="M560.851,336.373 L560.851,336.373"
       fill-opacity="0"
       stroke="#000000"
       stroke-width="10"
       stroke-linecap="round"
       stroke-linejoin="round"
       id="path19021" />
    <path
       d="M610.449,289.941 L610.449,289.941"
       fill-opacity="0"
       stroke="#000000"
       stroke-width="10"
       stroke-linecap="round"
       stroke-linejoin="round"
       id="path19023" />
    <path
       d="M607.284,314.212 L607.284,314.212"
       fill-opacity="0"
       stroke="#000000"
       stroke-width="10"
       stroke-linecap="round"
       stroke-linejoin="round"
       id="path19025" />
    <path
       d="M273.5,375.5 L273.5,375.5"
       fill-opacity="0"
       stroke="#000000"
       stroke-width="10"
       stroke-linecap="round"
       stroke-linejoin="round"
       id="path19027" />
    <path
       d="M233.5,393.5 L233.5,393.5"
       fill-opacity="0"
       stroke="#000000"
       stroke-width="10"
       stroke-linecap="round"
       stroke-linejoin="round"
       id="path19029" />
    <path
       d="M175.5,461.5 L175.5,461.5"
       fill-opacity="0"
       stroke="#000000"
       stroke-width="10"
       stroke-linecap="round"
       stroke-linejoin="round"
       id="path19031" />
    <path
       d="M202.5,417.5 L202.5,417.5"
       fill-opacity="0"
       stroke="#000000"
       stroke-width="10"
       stroke-linecap="round"
       stroke-linejoin="round"
       id="path19033" />
    <path
       d="M558.5,306.5 L558.5,306.5"
       fill-opacity="0"
       stroke="#000000"
       stroke-width="10"
       stroke-linecap="round"
       stroke-linejoin="round"
       id="path19035" />
    <path
       d="M563.5,262.5 L563.5,262.5"
       fill-opacity="0"
       stroke="#000000"
       stroke-width="10"
       stroke-linecap="round"
       stroke-linejoin="round"
       id="path19037" />
    <path
       d="M530.5,274.5 L530.5,274.5"
       fill-opacity="0"
       stroke="#000000"
       stroke-width="10"
       stroke-linecap="round"
       stroke-linejoin="round"
       id="path19039" />
    <path
       d="M636.5,307.5 L636.5,307.5"
       fill-opacity="0"
       stroke="#000000"
       stroke-width="10"
       stroke-linecap="round"
       stroke-linejoin="round"
       id="path19041" />
    <path
       d="M631.5,261.5 L631.5,261.5"
       fill-opacity="0"
       stroke="#000000"
       stroke-width="10"
       stroke-linecap="round"
       stroke-linejoin="round"
       id="path19043" />
    <path
       d="M600.5,244.5 L600.5,244.5"
       fill-opacity="0"
       stroke="#000000"
       stroke-width="10"
       stroke-linecap="round"
       stroke-linejoin="round"
       id="path19045" />
    <path
       d="M648.5,243.5 L648.5,243.5"
       fill-opacity="0"
       stroke="#000000"
       stroke-width="10"
       stroke-linecap="round"
       stroke-linejoin="round"
       id="path19047" />
    <path
       d="M663.5,275.5 L663.5,275.5"
       fill-opacity="0"
       stroke="#000000"
       stroke-width="10"
       stroke-linecap="round"
       stroke-linejoin="round"
       id="path19049" />
    <path
       d="M687.5,262.5 L687.5,262.5"
       fill-opacity="0"
       stroke="#000000"
       stroke-width="10"
       stroke-linecap="round"
       stroke-linejoin="round"
       id="path19051" />
    <path
       d="M685.5,244.5 L685.5,244.5"
       fill-opacity="0"
       stroke="#000000"
       stroke-width="10"
       stroke-linecap="round"
       stroke-linejoin="round"
       id="path19053" />
    <path
       d="M706.5,233.5 L706.5,233.5"
       fill-opacity="0"
       stroke="#000000"
       stroke-width="10"
       stroke-linecap="round"
       stroke-linejoin="round"
       id="path19055" />
    <path
       d="M651.5,290.5 L651.5,290.5"
       fill-opacity="0"
       stroke="#000000"
       stroke-width="10"
       stroke-linecap="round"
       stroke-linejoin="round"
       id="path19057" />
    <path
       d="M665.5,241.5 L665.5,241.5"
       fill-opacity="0"
       stroke="#000000"
       stroke-width="10"
       stroke-linecap="round"
       stroke-linejoin="round"
       id="path19059" />
    <path
       d="M625.5,242.5 L625.5,242.5"
       fill-opacity="0"
       stroke="#000000"
       stroke-width="10"
       stroke-linecap="round"
       stroke-linejoin="round"
       id="path19061" />
    <path
       d="M600.5,269.5 L600.5,269.5"
       fill-opacity="0"
       stroke="#000000"
       stroke-width="10"
       stroke-linecap="round"
       stroke-linejoin="round"
       id="path19063" />
    <path
       d="M705.5,244.5 L705.5,244.5"
       fill-opacity="0"
       stroke="#000000"
       stroke-width="10"
       stroke-linecap="round"
       stroke-linejoin="round"
       id="path19065" />
    <path
       d="M329.5,382.5 L329.5,382.5"
       fill-opacity="0"
       stroke="#000000"
       stroke-width="10"
       stroke-linecap="round"
       stroke-linejoin="round"
       id="path19067" />
    <path
       d="M308.5,396.5 L308.5,396.5"
       fill-opacity="0"
       stroke="#000000"
       stroke-width="10"
       stroke-linecap="round"
       stroke-linejoin="round"
       id="path19069" />
    <path
       d="M351.5,378.5 L351.5,378.5"
       fill-opacity="0"
       stroke="#000000"
       stroke-width="10"
       stroke-linecap="round"
       stroke-linejoin="round"
       id="path19071" />
    <path
       d="M339.5,353.5 L339.5,353.5"
       fill-opacity="0"
       stroke="#000000"
       stroke-width="10"
       stroke-linecap="round"
       stroke-linejoin="round"
       id="path19073" />
    <path
       d="M338.5,390.5 L338.5,390.5"
       fill-opacity="0"
       stroke="#000000"
       stroke-width="10"
       stroke-linecap="round"
       stroke-linejoin="round"
       id="path19075" />
    <path
       d="M154.5,458.5 L154.5,458.5"
       fill-opacity="0"
       stroke="#000000"
       stroke-width="10"
       stroke-linecap="round"
       stroke-linejoin="round"
       id="path19077" />
    <path
       d="M592.5,125.5 L592.5,125.5"
       fill-opacity="0"
       stroke="#000000"
       stroke-width="10"
       stroke-linecap="round"
       stroke-linejoin="round"
       id="path19079" />
    <path
       d="M492.5,118.5 L492.5,118.5"
       fill-opacity="0"
       stroke="#000000"
       stroke-width="10"
       stroke-linecap="round"
       stroke-linejoin="round"
       id="path19081" />
    <path
       d="M511.5,175.5 L511.5,175.5"
       fill-opacity="0"
       stroke="#000000"
       stroke-width="10"
       stroke-linecap="round"
       stroke-linejoin="round"
       id="path19083" />
    <path
       d="M645.5,454.5 L645.5,454.5"
       fill-opacity="0"
       stroke="#000000"
       stroke-width="10"
       stroke-linecap="round"
       stroke-linejoin="round"
       id="path19085" />
    <path
       d="M540.5,430.5 L540.5,430.5"
       fill-opacity="0"
       stroke="#000000"
       stroke-width="10"
       stroke-linecap="round"
       stroke-linejoin="round"
       id="path19087" />
    <path
       d="M250.5,250.5 L250.5,250.5"
       fill-opacity="0"
       stroke="#000000"
       stroke-width="10"
       stroke-linecap="round"
       stroke-linejoin="round"
       id="path19089" />
    <path
       d="M124.5,476.5 C284.737,382.26 462.29,322.903 637.5,264.5 C701.111,243.296 771.446,240.145 834.5,216.5"
       fill-opacity="0"
       stroke="#FF0000"
       stroke-width="4"
       stroke-linecap="round"
       stroke-linejoin="round"
       id="path19091"
       style="stroke:#8f123e;stroke-opacity:1" />
    <path
       d="M140.5,454.5 C150.738,420.33 190.724,395.366 220.5,377.5 C245.845,362.293 274.589,350.925 303.5,344.5 C476.658,306.02 354.601,503.943 197.5,481.5 C174.036,478.148 157.962,474.539 142.5,456.5"
       fill-opacity="0"
       stroke="#FF0000"
       stroke-width="4"
       stroke-linecap="round"
       stroke-linejoin="round"
       id="path19093"
       style="stroke:#8f123e;stroke-opacity:1" />
    <path
       d="M442.5,322.5 C452.864,277.619 504.07,254.434 542.5,236.5 C563.229,226.827 581.011,220.469 603.5,216.5 C624.119,212.861 644.538,205.997 665.5,204.5 C696.329,202.298 755.48,218.785 730.5,262.5 C696.152,322.608 508.713,403.555 449.5,332.5"
       fill-opacity="0"
       stroke="#FF0000"
       stroke-width="4"
       stroke-linecap="round"
       stroke-linejoin="round"
       id="path19095"
       style="stroke:#8f123e;stroke-opacity:1" />
    <path
       d="M355.922,127.057 C346.341,154.557 325.323,191.855 312.5,217.5"
       fill-opacity="0"
       stroke="#FF0000"
       stroke-width="4"
       stroke-linecap="round"
       stroke-linejoin="round"
       id="path19097"
       style="stroke:#8f123e;stroke-opacity:1" />
    <path
       d="M314.108,217.731 C346.776,216.85 376.84,212.121 409.465,212.121"
       fill-opacity="0"
       stroke="#FF0000"
       stroke-width="4"
       stroke-linecap="round"
       stroke-linejoin="round"
       id="path19099"
       style="stroke:#8f123e;stroke-opacity:1" />
    <path
       d="M355.922,127.057 C371.73,154.593 394.404,186.303 409.465,212.121"
       fill-opacity="0"
       stroke="#FF0000"
       stroke-width="4"
       stroke-linecap="round"
       stroke-linejoin="round"
       id="path19101"
       style="stroke:#8f123e;stroke-opacity:1" />
    <path
       d="M361.921,191.31 C355.417,191.994 357.193,201.903 364.085,199.606 C367.883,198.34 365.796,191.671 362.282,191.671"
       fill-opacity="0"
       stroke="#FF0000"
       stroke-width="4"
       stroke-linecap="round"
       stroke-linejoin="round"
       id="path19103"
       style="stroke:#8f123e;stroke-opacity:1" />
    <path
       d="M360.177,181.661 C359.24,177.854 350.907,160.269 351.172,160.004 C351.48,159.696 353.558,160.004 354.008,160.004 C357.852,160.004 364.109,158.802 367.714,160.004 C367.724,160.008 366.104,163.414 365.114,166.384 C363.658,170.754 360.787,176.988 360.787,181.661"
       fill-opacity="0"
       stroke="#FF0000"
       stroke-width="4"
       stroke-linecap="round"
       stroke-linejoin="round"
       id="path19105"
       style="stroke:#8f123e;stroke-opacity:1" />
    <path
       d="M312.368,215.9 C293.868,226.002 274.442,234.118 256.866,245.303"
       fill-opacity="0"
       stroke="#FF0000"
       stroke-width="4"
       stroke-linecap="round"
       stroke-linejoin="round"
       id="path19107"
       style="stroke:#8f123e;stroke-opacity:1" />
    <path
       d="M388.795,168.954 C422.032,157.446 452.345,133.991 485.386,122.977"
       fill-opacity="0"
       stroke="#FF0000"
       stroke-width="4"
       stroke-linecap="round"
       stroke-linejoin="round"
       id="path19109"
       style="stroke:#8f123e;stroke-opacity:1" />
    <path
       d="M398.068,182.091 C458.249,159.445 521.537,141.037 583.909,126.068"
       fill-opacity="0"
       stroke="#FF0000"
       stroke-width="4"
       stroke-linecap="round"
       stroke-linejoin="round"
       id="path19111"
       style="stroke:#8f123e;stroke-opacity:1" />
    <path
       d="M406.954,192.909 C438.228,185.6 472.003,183.822 502.772,178.227"
       fill-opacity="0"
       stroke="#FF0000"
       stroke-width="4"
       stroke-linecap="round"
       stroke-linejoin="round"
       id="path19113"
       style="stroke:#8f123e;stroke-opacity:1" />
    <path
       d="M585.949,439.925 C574.498,466.701 550.964,502.464 536.407,527.166"
       fill-opacity="0"
       stroke="#FF0000"
       stroke-width="4"
       stroke-linecap="round"
       stroke-linejoin="round"
       id="path19115"
       style="stroke:#8f123e;stroke-opacity:1" />
    <path
       d="M537.995,527.507 C570.646,528.876 600.964,526.228 633.512,528.472"
       fill-opacity="0"
       stroke="#FF0000"
       stroke-width="4"
       stroke-linecap="round"
       stroke-linejoin="round"
       id="path19117"
       style="stroke:#8f123e;stroke-opacity:1" />
    <path
       d="M585.949,439.925 C599.825,468.484 620.263,501.679 633.512,528.472"
       fill-opacity="0"
       stroke="#FF0000"
       stroke-width="4"
       stroke-linecap="round"
       stroke-linejoin="round"
       id="path19119"
       style="stroke:#8f123e;stroke-opacity:1" />
    <path
       d="M587.513,504.439 C580.977,504.674 582.067,514.682 589.101,512.864 C592.977,511.862 591.354,505.065 587.848,504.824"
       fill-opacity="0"
       stroke="#FF0000"
       stroke-width="4"
       stroke-linecap="round"
       stroke-linejoin="round"
       id="path19121"
       style="stroke:#8f123e;stroke-opacity:1" />
    <path
       d="M586.436,494.693 C585.764,490.83 578.661,472.714 578.944,472.467 C579.272,472.181 581.323,472.632 581.773,472.663 C585.608,472.927 591.932,472.159 595.446,473.606 C595.456,473.61 593.606,476.897 592.414,479.792 C590.66,484.051 587.367,490.072 587.046,494.735"
       fill-opacity="0"
       stroke="#FF0000"
       stroke-width="4"
       stroke-linecap="round"
       stroke-linejoin="round"
       id="path19123"
       style="stroke:#8f123e;stroke-opacity:1" />
    <path
       d="M564.817,458.696 C558.712,452.137 552.903,444.765 547.521,437.589"
       fill-opacity="0"
       stroke="#FF0000"
       stroke-width="4"
       stroke-linecap="round"
       stroke-linejoin="round"
       id="path19125"
       style="stroke:#8f123e;stroke-opacity:1" />
    <path
       d="M607.911,467.198 C613.438,464.735 628.478,458.766 638.105,456.058"
       fill-opacity="0"
       stroke="#FF0000"
       stroke-width="4"
       stroke-linecap="round"
       stroke-linejoin="round"
       id="path19127"
       style="stroke:#8f123e;stroke-opacity:1" />
  </g>
</svg>
