<?xml version="1.0" encoding="UTF-8" standalone="no"?>
<svg
   xmlns:dc="http://purl.org/dc/elements/1.1/"
   xmlns:cc="http://creativecommons.org/ns#"
   xmlns:rdf="http://www.w3.org/1999/02/22-rdf-syntax-ns#"
   xmlns:svg="http://www.w3.org/2000/svg"
   xmlns="http://www.w3.org/2000/svg"
   xmlns:sodipodi="http://sodipodi.sourceforge.net/DTD/sodipodi-0.dtd"
   xmlns:inkscape="http://www.inkscape.org/namespaces/inkscape"
   version="1.1"
   x="0"
   y="0"
   width="944"
   height="704"
   viewBox="0, 0, 944, 704"
   id="svg8172"
   sodipodi:docname="APL.svg"
   inkscape:version="0.92.1 r15371"
   inkscape:export-filename="X:\07-Administration\04-CoC\CoC-ML\intern\Präsentationen\Fachliche Szenarien\ML Poster Sketches\ML Poster\APL.png"
   inkscape:export-xdpi="96"
   inkscape:export-ydpi="96">
  <metadata
     id="metadata8178">
    <rdf:RDF>
      <cc:Work
         rdf:about="">
        <dc:format>image/svg+xml</dc:format>
        <dc:type
           rdf:resource="http://purl.org/dc/dcmitype/StillImage" />
      </cc:Work>
    </rdf:RDF>
  </metadata>
  <defs
     id="defs8176" />
  <sodipodi:namedview
     pagecolor="#ffffff"
     bordercolor="#666666"
     borderopacity="1"
     objecttolerance="10"
     gridtolerance="10"
     guidetolerance="10"
     inkscape:pageopacity="0"
     inkscape:pageshadow="2"
     inkscape:window-width="1920"
     inkscape:window-height="1027"
     id="namedview8174"
     showgrid="false"
     inkscape:zoom="0.33522727"
     inkscape:cx="472"
     inkscape:cy="352"
     inkscape:window-x="-8"
     inkscape:window-y="-8"
     inkscape:window-maximized="1"
     inkscape:current-layer="Layer_1" />
  <g
     id="Layer_1">
    <path
       d="M132.661,273.621 C105.132,274.785 85.376,271.621 58.375,271.621"
       fill-opacity="0"
       stroke="#000000"
       stroke-width="4"
       stroke-linecap="round"
       stroke-linejoin="round"
       id="path8037" />
    <path
       d="M131.38,275.685 C131.808,297.903 131.38,316.949 131.38,338.997"
       fill-opacity="0"
       stroke="#000000"
       stroke-width="4"
       stroke-linecap="round"
       stroke-linejoin="round"
       id="path8039" />
    <path
       d="M130.298,338.615 C102.631,338.615 83.663,338.615 55.996,338.615"
       fill-opacity="0"
       stroke="#000000"
       stroke-width="4"
       stroke-linecap="round"
       stroke-linejoin="round"
       id="path8041" />
    <path
       d="M53.375,337.621 C53.838,316.237 55.375,295.072 55.375,273.621"
       fill-opacity="0"
       stroke="#000000"
       stroke-width="4"
       stroke-linecap="round"
       stroke-linejoin="round"
       id="path8043" />
    <path
       d="M80.375,323.621 C102.362,255.771 84.969,300.863 106.375,327.621"
       fill-opacity="0"
       stroke="#000000"
       stroke-width="4"
       stroke-linecap="round"
       stroke-linejoin="round"
       id="path8045" />
    <path
       d="M91.375,317.621 C89.042,317.621 86.709,317.621 84.375,317.621"
       fill-opacity="0"
       stroke="#000000"
       stroke-width="4"
       stroke-linecap="round"
       stroke-linejoin="round"
       id="path8047" />
    <path
       d="M227.5,274.5 C203.523,275.388 179.576,275.5 155.5,275.5"
       fill-opacity="0"
       stroke="#000000"
       stroke-width="4"
       stroke-linecap="round"
       stroke-linejoin="round"
       id="path8049" />
    <path
       d="M148.5,280.5 C146.289,297.201 146.5,314.468 146.5,331.5"
       fill-opacity="0"
       stroke="#000000"
       stroke-width="4"
       stroke-linecap="round"
       stroke-linejoin="round"
       id="path8051" />
    <path
       d="M146.495,338.729 C169.394,335.804 200.291,337.5 223.5,337.5"
       fill-opacity="0"
       stroke="#000000"
       stroke-width="4"
       stroke-linecap="round"
       stroke-linejoin="round"
       id="path8053" />
    <path
       d="M222.5,330.5 C223.21,310.49 223.5,290.559 223.5,270.5"
       fill-opacity="0"
       stroke="#000000"
       stroke-width="4"
       stroke-linecap="round"
       stroke-linejoin="round"
       id="path8055" />
    <path
       d="M172.98,291.977 C172.4,302.355 172.468,312.764 172.468,323.183"
       fill-opacity="0"
       stroke="#000000"
       stroke-width="4"
       stroke-linecap="round"
       stroke-linejoin="round"
       id="path8057" />
    <path
       d="M172.123,289.547 C197.598,279.761 196.97,309.593 174.392,309.593 C171.788,309.593 191.84,303.831 194.249,311.862 C197.379,322.296 181.239,323.966 174.014,323.966"
       fill-opacity="0"
       stroke="#000000"
       stroke-width="4"
       stroke-linecap="round"
       stroke-linejoin="round"
       id="path8059" />
    <path
       d="M318.626,271.386 C293.703,272.015 268.587,273.003 243.676,273.003"
       fill-opacity="0"
       stroke="#000000"
       stroke-width="4"
       stroke-linecap="round"
       stroke-linejoin="round"
       id="path8061" />
    <path
       d="M320.243,271.386 C318.221,291.962 321.526,313.63 318.626,333.934"
       fill-opacity="0"
       stroke="#000000"
       stroke-width="4"
       stroke-linecap="round"
       stroke-linejoin="round"
       id="path8063" />
    <path
       d="M318.086,337.169 C293.413,338.23 267.815,336.416 243.676,339.865"
       fill-opacity="0"
       stroke="#000000"
       stroke-width="4"
       stroke-linecap="round"
       stroke-linejoin="round"
       id="path8065" />
    <path
       d="M242.058,272.464 C238.32,294.801 239.362,317.729 239.362,340.404"
       fill-opacity="0"
       stroke="#000000"
       stroke-width="4"
       stroke-linecap="round"
       stroke-linejoin="round"
       id="path8067" />
    <path
       d="M288.43,286.483 C249.745,277.834 241.535,328.988 286.273,321.532"
       fill-opacity="0"
       stroke="#000000"
       stroke-width="4"
       stroke-linecap="round"
       stroke-linejoin="round"
       id="path8069" />
    <path
       d="M200.252,270.221 C195.251,242.792 176.949,251.775 176.949,274.882"
       fill-opacity="0"
       stroke="#000000"
       stroke-width="4"
       stroke-linecap="round"
       stroke-linejoin="round"
       id="path8071" />
    <path
       d="M111.011,272.41 C111.176,249.633 86.759,248.78 83.98,271.012"
       fill-opacity="0"
       stroke="#000000"
       stroke-width="4"
       stroke-linecap="round"
       stroke-linejoin="round"
       id="path8073" />
    <path
       d="M291.58,268.661 C288.855,246.25 273.26,250.097 270.608,268.661"
       fill-opacity="0"
       stroke="#000000"
       stroke-width="4"
       stroke-linecap="round"
       stroke-linejoin="round"
       id="path8075" />
    <path
       d="M193.905,47.056 C194.382,82.998 193.12,118.606 193.12,154.475"
       fill-opacity="0"
       stroke="#FF0000"
       stroke-width="4"
       stroke-linecap="round"
       stroke-linejoin="round"
       id="path8077"
       style="stroke:#8f123e;stroke-opacity:1" />
    <path
       d="M201.317,154.357 C171.732,152.127 192.024,157.769 186.138,166.598 C184.173,169.545 179.579,170.115 178.303,173.943 C171.056,195.685 202.176,218.494 208.662,192.55 C209.747,188.209 201.953,179.183 197.889,183.247 C196.255,184.882 200.235,189.664 196.42,191.571 C190.185,194.689 182.803,185.416 184.669,179.819 C188.762,167.539 209.06,173.76 199.358,154.357"
       fill-opacity="0"
       stroke="#FF0000"
       stroke-width="4"
       stroke-linecap="round"
       stroke-linejoin="round"
       id="path8079"
       style="stroke:#8f123e;stroke-opacity:1" />
    <path
       d="M441.918,270.228 C414.389,271.392 394.632,268.228 367.632,268.228"
       fill-opacity="0"
       stroke="#000000"
       stroke-width="4"
       stroke-linecap="round"
       stroke-linejoin="round"
       id="path8081" />
    <path
       d="M440.636,272.292 C441.065,294.51 440.636,313.556 440.636,335.604"
       fill-opacity="0"
       stroke="#000000"
       stroke-width="4"
       stroke-linecap="round"
       stroke-linejoin="round"
       id="path8083" />
    <path
       d="M439.554,335.222 C411.888,335.222 392.919,335.222 365.253,335.222"
       fill-opacity="0"
       stroke="#000000"
       stroke-width="4"
       stroke-linecap="round"
       stroke-linejoin="round"
       id="path8085" />
    <path
       d="M362.632,334.228 C363.095,312.844 364.632,291.679 364.632,270.228"
       fill-opacity="0"
       stroke="#000000"
       stroke-width="4"
       stroke-linecap="round"
       stroke-linejoin="round"
       id="path8087" />
    <path
       d="M389.632,320.228 C411.619,252.378 394.225,297.47 415.632,324.228"
       fill-opacity="0"
       stroke="#000000"
       stroke-width="4"
       stroke-linecap="round"
       stroke-linejoin="round"
       id="path8089" />
    <path
       d="M400.632,314.228 C398.299,314.228 395.965,314.228 393.632,314.228"
       fill-opacity="0"
       stroke="#000000"
       stroke-width="4"
       stroke-linecap="round"
       stroke-linejoin="round"
       id="path8091" />
    <path
       d="M587.286,168.075 C563.309,168.963 539.362,169.075 515.286,169.075"
       fill-opacity="0"
       stroke="#000000"
       stroke-width="4"
       stroke-linecap="round"
       stroke-linejoin="round"
       id="path8093"
       style="stroke:#000000;stroke-opacity:1" />
    <path
       d="M511.552,169.075 C509.341,185.776 509.552,203.043 509.552,220.075"
       fill-opacity="0"
       stroke="#000000"
       stroke-width="4"
       stroke-linecap="round"
       stroke-linejoin="round"
       id="path8095" />
    <path
       d="M506.281,232.304 C529.18,229.379 560.077,231.075 583.286,231.075"
       fill-opacity="0"
       stroke="#000000"
       stroke-width="4"
       stroke-linecap="round"
       stroke-linejoin="round"
       id="path8097" />
    <path
       d="M582.286,224.075 C582.996,204.065 583.286,184.133 583.286,164.075"
       fill-opacity="0"
       stroke="#000000"
       stroke-width="4"
       stroke-linecap="round"
       stroke-linejoin="round"
       id="path8099" />
    <path
       d="M532.766,185.552 C532.186,195.93 532.255,206.338 532.255,216.758"
       fill-opacity="0"
       stroke="#000000"
       stroke-width="4"
       stroke-linecap="round"
       stroke-linejoin="round"
       id="path8101" />
    <path
       d="M531.909,183.122 C557.384,173.336 556.756,203.168 534.179,203.168 C531.575,203.168 551.626,197.406 554.036,205.437 C557.165,215.871 541.025,217.54 533.8,217.54"
       fill-opacity="0"
       stroke="#000000"
       stroke-width="4"
       stroke-linecap="round"
       stroke-linejoin="round"
       id="path8103" />
    <path
       d="M627.882,267.993 C602.96,268.622 577.843,269.61 552.933,269.61"
       fill-opacity="0"
       stroke="#000000"
       stroke-width="4"
       stroke-linecap="round"
       stroke-linejoin="round"
       id="path8105" />
    <path
       d="M629.5,267.993 C627.478,288.569 630.783,310.237 627.882,330.541"
       fill-opacity="0"
       stroke="#000000"
       stroke-width="4"
       stroke-linecap="round"
       stroke-linejoin="round"
       id="path8107" />
    <path
       d="M627.343,333.776 C602.67,334.837 577.072,333.023 552.933,336.472"
       fill-opacity="0"
       stroke="#000000"
       stroke-width="4"
       stroke-linecap="round"
       stroke-linejoin="round"
       id="path8109" />
    <path
       d="M551.315,269.071 C547.577,291.408 548.619,314.336 548.619,337.011"
       fill-opacity="0"
       stroke="#000000"
       stroke-width="4"
       stroke-linecap="round"
       stroke-linejoin="round"
       id="path8111" />
    <path
       d="M597.687,283.09 C559.001,274.441 550.791,325.595 595.53,318.139"
       fill-opacity="0"
       stroke="#000000"
       stroke-width="4"
       stroke-linecap="round"
       stroke-linejoin="round"
       id="path8113" />
    <path
       d="M420.268,269.017 C420.433,246.24 396.016,245.387 393.237,267.619"
       fill-opacity="0"
       stroke="#000000"
       stroke-width="4"
       stroke-linecap="round"
       stroke-linejoin="round"
       id="path8115" />
    <path
       d="M600.837,265.268 C598.111,242.857 582.516,246.704 579.864,265.268"
       fill-opacity="0"
       stroke="#000000"
       stroke-width="4"
       stroke-linecap="round"
       stroke-linejoin="round"
       id="path8117" />
    <path
       d="M545.545,49.159 C545.545,84.075 544.425,79.288 544.425,115.158"
       fill-opacity="0"
       stroke="#FF0000"
       stroke-width="4"
       stroke-linecap="round"
       stroke-linejoin="round"
       id="path8119"
       style="stroke:#8f123e;stroke-opacity:1" />
    <path
       d="M552.622,115.039 C523.037,112.809 543.328,118.452 537.442,127.281 C535.478,130.228 530.884,130.798 529.608,134.626 C522.36,156.368 553.481,179.177 559.966,153.233 C561.052,148.891 553.257,139.866 549.194,143.929 C547.559,145.564 551.54,150.346 547.725,152.254 C541.489,155.371 534.107,146.099 535.973,140.502 C540.067,128.222 560.365,134.443 550.663,115.039"
       fill-opacity="0"
       stroke="#FF0000"
       stroke-width="4"
       stroke-linecap="round"
       stroke-linejoin="round"
       id="path8121"
       style="stroke:#8f123e;stroke-opacity:1" />
    <path
       d="M534.16,165.31 C536.43,158.679 539.534,152.639 545.545,148.814"
       fill-opacity="0"
       stroke="#000000"
       stroke-width="4"
       stroke-linecap="round"
       stroke-linejoin="round"
       id="path8123"
       style="stroke:#8f123e;stroke-opacity:1" />
    <path
       d="M560.878,158.804 C561.756,161.278 561.908,163.689 562.272,166.239"
       fill-opacity="0"
       stroke="#000000"
       stroke-width="4"
       stroke-linecap="round"
       stroke-linejoin="round"
       id="path8125"
       style="stroke:#8f123e;stroke-opacity:1" />
    <path
       d="M921.072,140.872 C893.542,142.036 873.786,138.872 846.786,138.872"
       fill-opacity="0"
       stroke="#000000"
       stroke-width="4"
       stroke-linecap="round"
       stroke-linejoin="round"
       id="path8127" />
    <path
       d="M919.79,142.936 C920.219,165.154 919.79,184.2 919.79,206.248"
       fill-opacity="0"
       stroke="#000000"
       stroke-width="4"
       stroke-linecap="round"
       stroke-linejoin="round"
       id="path8129" />
    <path
       d="M918.708,205.866 C891.042,205.866 872.073,205.866 844.407,205.866"
       fill-opacity="0"
       stroke="#000000"
       stroke-width="4"
       stroke-linecap="round"
       stroke-linejoin="round"
       id="path8131" />
    <path
       d="M841.786,204.872 C842.249,183.488 843.786,162.323 843.786,140.872"
       fill-opacity="0"
       stroke="#000000"
       stroke-width="4"
       stroke-linecap="round"
       stroke-linejoin="round"
       id="path8133" />
    <path
       d="M868.786,190.872 C890.773,123.022 873.379,168.114 894.786,194.872"
       fill-opacity="0"
       stroke="#000000"
       stroke-width="4"
       stroke-linecap="round"
       stroke-linejoin="round"
       id="path8135" />
    <path
       d="M879.786,184.872 C877.453,184.872 875.119,184.872 872.786,184.872"
       fill-opacity="0"
       stroke="#000000"
       stroke-width="4"
       stroke-linecap="round"
       stroke-linejoin="round"
       id="path8137" />
    <path
       d="M921.072,206.248 C897.09,206.989 873.143,206.954 849.067,206.806"
       fill-opacity="0"
       stroke="#000000"
       stroke-width="4"
       stroke-linecap="round"
       stroke-linejoin="round"
       id="path8139" />
    <path
       d="M842.037,211.763 C839.723,228.45 839.828,245.718 839.723,262.75"
       fill-opacity="0"
       stroke="#000000"
       stroke-width="4"
       stroke-linecap="round"
       stroke-linejoin="round"
       id="path8141" />
    <path
       d="M839.674,269.979 C862.59,267.194 893.476,269.08 916.685,269.223"
       fill-opacity="0"
       stroke="#000000"
       stroke-width="4"
       stroke-linecap="round"
       stroke-linejoin="round"
       id="path8143" />
    <path
       d="M915.728,262.217 C916.561,242.211 916.974,222.282 917.097,202.224"
       fill-opacity="0"
       stroke="#000000"
       stroke-width="4"
       stroke-linecap="round"
       stroke-linejoin="round"
       id="path8145" />
    <path
       d="M866.446,223.39 C865.802,233.764 865.806,244.173 865.742,254.592"
       fill-opacity="0"
       stroke="#000000"
       stroke-width="4"
       stroke-linecap="round"
       stroke-linejoin="round"
       id="path8147" />
    <path
       d="M865.604,220.955 C891.138,211.326 890.327,241.153 867.75,241.015 C865.146,240.999 885.232,235.36 887.592,243.406 C890.658,253.858 874.508,255.429 867.283,255.385"
       fill-opacity="0"
       stroke="#000000"
       stroke-width="4"
       stroke-linecap="round"
       stroke-linejoin="round"
       id="path8149" />
    <path
       d="M914.832,269.553 C889.91,270.182 864.793,271.171 839.882,271.171"
       fill-opacity="0"
       stroke="#000000"
       stroke-width="4"
       stroke-linecap="round"
       stroke-linejoin="round"
       id="path8151" />
    <path
       d="M916.45,269.553 C914.428,290.129 917.732,311.797 914.832,332.101"
       fill-opacity="0"
       stroke="#000000"
       stroke-width="4"
       stroke-linecap="round"
       stroke-linejoin="round"
       id="path8153" />
    <path
       d="M914.293,335.336 C889.619,336.397 864.021,334.584 839.882,338.032"
       fill-opacity="0"
       stroke="#000000"
       stroke-width="4"
       stroke-linecap="round"
       stroke-linejoin="round"
       id="path8155" />
    <path
       d="M838.265,270.631 C834.526,292.968 835.569,315.896 835.569,338.571"
       fill-opacity="0"
       stroke="#000000"
       stroke-width="4"
       stroke-linecap="round"
       stroke-linejoin="round"
       id="path8157" />
    <path
       d="M884.636,284.651 C845.951,276.002 837.741,327.156 882.48,319.699"
       fill-opacity="0"
       stroke="#000000"
       stroke-width="4"
       stroke-linecap="round"
       stroke-linejoin="round"
       id="path8159" />
    <path
       d="M899.422,139.661 C899.587,116.884 875.17,116.031 872.391,138.263"
       fill-opacity="0"
       stroke="#000000"
       stroke-width="4"
       stroke-linecap="round"
       stroke-linejoin="round"
       id="path8161" />
    <path
       d="M886.15,44.761 C886.034,60.432 886.06,53.714 886.037,64.914"
       fill-opacity="0"
       stroke="#FF0000"
       stroke-width="4"
       stroke-linecap="round"
       stroke-linejoin="round"
       id="path8163"
       style="stroke:#8f123e;stroke-opacity:1" />
    <path
       d="M894.234,64.796 C864.649,62.566 884.94,68.208 879.054,77.037 C877.089,79.984 872.496,80.554 871.22,84.382 C863.972,106.124 895.093,128.933 901.578,102.989 C902.664,98.648 894.869,89.622 890.806,93.686 C889.171,95.321 893.152,100.102 889.337,102.01 C883.101,105.128 875.719,95.855 877.585,90.258 C881.679,77.978 901.977,84.199 892.275,64.796"
       fill-opacity="0"
       stroke="#FF0000"
       stroke-width="4"
       stroke-linecap="round"
       stroke-linejoin="round"
       id="path8165"
       style="stroke:#8f123e;stroke-opacity:1" />
    <path
       d="M192.208,419.862 C399.093,413.783 606.248,427.85 812.598,427.85"
       fill-opacity="0"
       stroke="#FF0000"
       stroke-width="4"
       stroke-linecap="round"
       stroke-linejoin="round"
       id="path8167"
       style="stroke:#8f123e;stroke-opacity:1" />
    <path
       d="M797.954,379.923 C871.499,439.029 878.674,444.722 769.996,466.458"
       fill-opacity="0"
       stroke="#FF0000"
       stroke-width="4"
       stroke-linecap="round"
       stroke-linejoin="round"
       id="path8169"
       style="stroke:#8f123e;stroke-opacity:1" />
  </g>
</svg>
