<?xml version="1.0" encoding="UTF-8" standalone="no"?>
<svg
   xmlns:dc="http://purl.org/dc/elements/1.1/"
   xmlns:cc="http://creativecommons.org/ns#"
   xmlns:rdf="http://www.w3.org/1999/02/22-rdf-syntax-ns#"
   xmlns:svg="http://www.w3.org/2000/svg"
   xmlns="http://www.w3.org/2000/svg"
   xmlns:sodipodi="http://sodipodi.sourceforge.net/DTD/sodipodi-0.dtd"
   xmlns:inkscape="http://www.inkscape.org/namespaces/inkscape"
   version="1.1"
   x="0"
   y="0"
   width="944"
   height="704"
   viewBox="0, 0, 944, 704"
   id="svg8881"
   sodipodi:docname="CBF.svg"
   inkscape:version="0.92.1 r15371"
   inkscape:export-filename="X:\07-Administration\04-CoC\CoC-ML\intern\Präsentationen\Fachliche Szenarien\ML Poster Sketches\ML Poster\CBF.png"
   inkscape:export-xdpi="96"
   inkscape:export-ydpi="96">
  <metadata
     id="metadata8887">
    <rdf:RDF>
      <cc:Work
         rdf:about="">
        <dc:format>image/svg+xml</dc:format>
        <dc:type
           rdf:resource="http://purl.org/dc/dcmitype/StillImage" />
      </cc:Work>
    </rdf:RDF>
  </metadata>
  <defs
     id="defs8885" />
  <sodipodi:namedview
     pagecolor="#ffffff"
     bordercolor="#666666"
     borderopacity="1"
     objecttolerance="10"
     gridtolerance="10"
     guidetolerance="10"
     inkscape:pageopacity="0"
     inkscape:pageshadow="2"
     inkscape:window-width="1920"
     inkscape:window-height="1027"
     id="namedview8883"
     showgrid="false"
     inkscape:zoom="0.33522727"
     inkscape:cx="472"
     inkscape:cy="352"
     inkscape:window-x="-8"
     inkscape:window-y="-8"
     inkscape:window-maximized="1"
     inkscape:current-layer="Layer_1" />
  <g
     id="Layer_1">
    <path
       d="M62.242,133.422 C26.193,133.034 31.992,186.554 63.211,187.109 C95.966,187.69 96.534,133.388 62.039,133.388"
       fill-opacity="0"
       stroke="#000000"
       stroke-width="4"
       stroke-linecap="round"
       stroke-linejoin="round"
       id="path8726" />
    <path
       d="M43.198,180.457 C27.398,201.157 34.506,225.996 51.542,243.033"
       fill-opacity="0"
       stroke="#000000"
       stroke-width="4"
       stroke-linecap="round"
       stroke-linejoin="round"
       id="path8728" />
    <path
       d="M88.624,179.066 C101.579,198.75 99.077,219.553 92.332,239.788"
       fill-opacity="0"
       stroke="#000000"
       stroke-width="4"
       stroke-linecap="round"
       stroke-linejoin="round"
       id="path8730" />
    <path
       d="M44.848,433.79 C43.233,469.806 96.92,465.833 98.537,434.65 C100.233,401.934 45.982,399.518 44.807,433.993"
       fill-opacity="0"
       stroke="#000000"
       stroke-width="4"
       stroke-linecap="round"
       stroke-linejoin="round"
       id="path8732" />
    <path
       d="M52.051,456.392 L52.051,456.392"
       fill-opacity="0"
       stroke="#000000"
       stroke-width="4"
       stroke-linecap="round"
       stroke-linejoin="round"
       id="path8734" />
    <path
       d="M51.438,456.392 C47.049,472.216 55.975,489.187 48.069,503.563"
       fill-opacity="0"
       stroke="#000000"
       stroke-width="4"
       stroke-linecap="round"
       stroke-linejoin="round"
       id="path8736" />
    <path
       d="M90.951,453.635 C101.643,468.983 92.256,487.727 98.609,503.256"
       fill-opacity="0"
       stroke="#000000"
       stroke-width="4"
       stroke-linecap="round"
       stroke-linejoin="round"
       id="path8738" />
    <path
       d="M67.978,404.933 C44.818,377.307 39.322,429.693 31.528,441.383 C29.32,444.696 20.501,441.996 20.501,445.978 C20.501,448.231 44.943,446.878 47.15,446.59"
       fill-opacity="0"
       stroke="#000000"
       stroke-width="4"
       stroke-linecap="round"
       stroke-linejoin="round"
       id="path8740" />
    <path
       d="M66.625,406.388 C94.01,359.43 107.217,442.043 128.41,443.052"
       fill-opacity="0"
       stroke="#000000"
       stroke-width="4"
       stroke-linecap="round"
       stroke-linejoin="round"
       id="path8742" />
    <path
       d="M125.695,442.373 C117.521,448.512 107.494,448.003 98.197,444.749"
       fill-opacity="0"
       stroke="#000000"
       stroke-width="4"
       stroke-linecap="round"
       stroke-linejoin="round"
       id="path8744" />
    <path
       d="M45.804,284.171 C38.663,297.998 41.765,315.182 56.166,322.768 C79.354,334.095 99.934,305.618 89.592,284.44"
       fill-opacity="0"
       stroke="#000000"
       stroke-width="4"
       stroke-linecap="round"
       stroke-linejoin="round"
       id="path8746" />
    <path
       d="M90.669,282.415 C81.913,256.596 48.995,253.201 42.09,280.817"
       fill-opacity="0"
       stroke="#000000"
       stroke-width="4"
       stroke-linecap="round"
       stroke-linejoin="round"
       id="path8748" />
    <path
       d="M87.473,283.374 C64.826,283.118 41.13,280.162 19.719,275.064"
       fill-opacity="0"
       stroke="#000000"
       stroke-width="4"
       stroke-linecap="round"
       stroke-linejoin="round"
       id="path8750" />
    <path
       d="M46.868,317.849 C33.005,331.054 37.486,351.617 46.868,365.69"
       fill-opacity="0"
       stroke="#000000"
       stroke-width="4"
       stroke-linecap="round"
       stroke-linejoin="round"
       id="path8752" />
    <path
       d="M88.645,312.458 C102.658,328.542 109.249,351.814 103.469,371.081"
       fill-opacity="0"
       stroke="#000000"
       stroke-width="4"
       stroke-linecap="round"
       stroke-linejoin="round"
       id="path8754" />
    <path
       d="M74.057,525.545 C38.008,525.158 43.807,578.678 75.027,579.232 C107.781,579.813 108.349,525.511 73.854,525.511"
       fill-opacity="0"
       stroke="#000000"
       stroke-width="4"
       stroke-linecap="round"
       stroke-linejoin="round"
       id="path8756" />
    <path
       d="M55.27,569.716 C37.027,585.065 42.902,611.781 54.488,629.16"
       fill-opacity="0"
       stroke="#000000"
       stroke-width="4"
       stroke-linecap="round"
       stroke-linejoin="round"
       id="path8758" />
    <path
       d="M99.072,570.889 C112.08,589.319 112.372,612.335 104.156,632.289"
       fill-opacity="0"
       stroke="#000000"
       stroke-width="4"
       stroke-linecap="round"
       stroke-linejoin="round"
       id="path8760" />
    <path
       d="M75.48,578.816 C77.774,578.949 80.61,578.525 82.674,579.816 C91.289,585.2 78.69,592.343 72.682,589.108 C65.701,585.349 70.549,579.893 76.379,579.616"
       fill-opacity="0"
       stroke="#000000"
       stroke-width="4"
       stroke-linecap="round"
       stroke-linejoin="round"
       id="path8762" />
    <path
       d="M82.275,589.408 C79.548,594.396 88.93,611.749 87.97,615.587 C87.63,616.949 85.26,618.497 84.273,619.484 C78.747,625.01 81.353,623.466 75.38,619.484 C73.094,617.96 69.235,616.736 67.387,614.888 C66.902,614.403 71.383,595.869 71.383,590.107"
       fill-opacity="0"
       stroke="#000000"
       stroke-width="4"
       stroke-linecap="round"
       stroke-linejoin="round"
       id="path8764" />
    <path
       d="M186.308,96.413 C183.242,96.465 180.088,96.277 177.382,97.9 C164.234,105.789 174.426,121.119 191.762,118.23 C204.168,116.162 204.045,96.413 184.82,96.413"
       fill-opacity="0"
       stroke="#000000"
       stroke-width="4"
       stroke-linecap="round"
       stroke-linejoin="round"
       id="path8766" />
    <path
       d="M268.121,96.909 C262.794,97.147 256.821,95.847 252.254,98.892 C243.182,104.94 251.887,121.668 269.608,117.238 C280.673,114.472 275.732,91.907 259.691,95.917"
       fill-opacity="0"
       stroke="#000000"
       stroke-width="4"
       stroke-linecap="round"
       stroke-linejoin="round"
       id="path8768" />
    <path
       d="M162.507,103.85 C147.891,106.774 138.435,87.692 150.607,78.563 C158.126,72.924 170.841,77.223 179.366,75.092 C191.624,72.027 195.721,56.507 202.67,47.821 C209.204,39.653 233.472,39.407 243.329,41.871 C251.578,43.933 259.29,61.405 269.112,64.679 C279.087,68.004 291.888,65.627 299.358,75.588 C302.025,79.144 301.837,83.289 301.837,87.488 C301.837,102.408 295.816,105.338 281.508,105.338"
       fill-opacity="0"
       stroke="#000000"
       stroke-width="4"
       stroke-linecap="round"
       stroke-linejoin="round"
       id="path8770" />
    <path
       d="M242.299,112.433 C232.097,113.088 222.188,111.442 212.053,111.442"
       fill-opacity="0"
       stroke="#000000"
       stroke-width="4"
       stroke-linecap="round"
       stroke-linejoin="round"
       id="path8772" />
    <path
       d="M580.151,84.743 C559.609,85.702 562.058,115.535 582.994,114.487 C600.234,113.623 599.684,84.839 580.348,84.912"
       fill-opacity="0"
       stroke="#000000"
       stroke-width="4"
       stroke-linecap="round"
       stroke-linejoin="round"
       id="path8774" />
    <path
       d="M656.147,83.843 C635.606,84.802 638.054,114.635 658.99,113.587 C676.231,112.723 675.68,83.939 656.344,84.012"
       fill-opacity="0"
       stroke="#000000"
       stroke-width="4"
       stroke-linecap="round"
       stroke-linejoin="round"
       id="path8776" />
    <path
       d="M603.286,105.036 C609.735,103.829 618.916,106.913 625.012,103.484 C629.038,101.22 629.238,101.334 631.736,97.277 C635.183,91.681 634.856,86.169 640.53,83.052 C662.016,71.246 669.483,74.516 678.809,74.516"
       fill-opacity="0"
       stroke="#000000"
       stroke-width="4"
       stroke-linecap="round"
       stroke-linejoin="round"
       id="path8778" />
    <path
       d="M679.844,73.482 C679.278,71.28 679.861,68.205 678.551,66.24 C674.334,59.914 645.579,63.436 638.72,65.722 C634.518,67.123 630.731,72.131 622.684,73.74 C612.585,75.76 612.071,70.441 604.579,68.568 C593.481,68.309 590.007,67.879 589.06,68.826 C587.043,70.843 580.265,79.992 579.298,81.925"
       fill-opacity="0"
       stroke="#000000"
       stroke-width="4"
       stroke-linecap="round"
       stroke-linejoin="round"
       id="path8780" />
    <path
       d="M577.978,80.559 C570.194,66.319 570.883,52.233 585.505,43.459 C587.032,42.543 588.643,41.069 590.345,40.502"
       fill-opacity="0"
       stroke="#000000"
       stroke-width="4"
       stroke-linecap="round"
       stroke-linejoin="round"
       id="path8782" />
    <path
       d="M656.702,97.717 L656.702,97.717"
       fill-opacity="0"
       stroke="#000000"
       stroke-width="4"
       stroke-linecap="round"
       stroke-linejoin="round"
       id="path8784" />
    <path
       d="M580.368,98.509 L580.368,98.509"
       fill-opacity="0"
       stroke="#000000"
       stroke-width="4"
       stroke-linecap="round"
       stroke-linejoin="round"
       id="path8786" />
    <path
       d="M415.977,94.75 C413.706,115.188 443.554,117.445 445.799,96.603 C447.648,79.44 419.133,75.473 416.175,94.583"
       fill-opacity="0"
       stroke="#000000"
       stroke-width="4"
       stroke-linecap="round"
       stroke-linejoin="round"
       id="path8788" />
    <path
       d="M495.051,78.994 C485.117,80.761 463.876,82.467 454.837,86.341"
       fill-opacity="0"
       stroke="#000000"
       stroke-width="4"
       stroke-linecap="round"
       stroke-linejoin="round"
       id="path8790" />
    <path
       d="M403.797,97.554 C385.265,101.494 367.792,108.699 350.05,112.248"
       fill-opacity="0"
       stroke="#000000"
       stroke-width="4"
       stroke-linecap="round"
       stroke-linejoin="round"
       id="path8792" />
    <path
       d="M380.983,100.261 C380.598,91.466 378.688,81.411 376.73,73.581"
       fill-opacity="0"
       stroke="#000000"
       stroke-width="4"
       stroke-linecap="round"
       stroke-linejoin="round"
       id="path8794" />
    <path
       d="M377.117,72.034 C412.441,60.46 449.778,55.672 485.771,47.674"
       fill-opacity="0"
       stroke="#000000"
       stroke-width="4"
       stroke-linecap="round"
       stroke-linejoin="round"
       id="path8796" />
    <path
       d="M487.318,48.447 C488.592,58.857 493.861,68.285 495.051,78.994"
       fill-opacity="0"
       stroke="#000000"
       stroke-width="4"
       stroke-linecap="round"
       stroke-linejoin="round"
       id="path8798" />
    <path
       d="M293.103,105.113 C300.17,117.072 315.904,113.535 315.904,99.301"
       fill-opacity="0"
       stroke="#000000"
       stroke-width="4"
       stroke-linecap="round"
       stroke-linejoin="round"
       id="path8800" />
    <path
       d="M861.687,102.463 C901.745,48.138 799.697,-3.414 790.213,62.977"
       fill-opacity="0"
       stroke="#000000"
       stroke-width="4"
       stroke-linecap="round"
       stroke-linejoin="round"
       id="path8802" />
    <path
       d="M838.695,68.975 C821.87,65.129 804.243,63.477 786.714,63.477"
       fill-opacity="0"
       stroke="#000000"
       stroke-width="4"
       stroke-linecap="round"
       stroke-linejoin="round"
       id="path8804" />
    <path
       d="M786.215,64.977 C786.847,73.381 784.924,82.45 787.214,90.467"
       fill-opacity="0"
       stroke="#000000"
       stroke-width="4"
       stroke-linecap="round"
       stroke-linejoin="round"
       id="path8806" />
    <path
       d="M792.212,92.467 C806.422,92.866 820.963,92.926 833.697,87.468"
       fill-opacity="0"
       stroke="#000000"
       stroke-width="4"
       stroke-linecap="round"
       stroke-linejoin="round"
       id="path8808" />
    <path
       d="M839.195,85.969 C844.125,78.88 844.971,74.121 838.196,68.475"
       fill-opacity="0"
       stroke="#000000"
       stroke-width="4"
       stroke-linecap="round"
       stroke-linejoin="round"
       id="path8810" />
    <path
       d="M795.211,96.965 C794.951,102.572 798.08,105.332 801.709,108.961"
       fill-opacity="0"
       stroke="#000000"
       stroke-width="4"
       stroke-linecap="round"
       stroke-linejoin="round"
       id="path8812" />
    <path
       d="M206.514,187.539 C194.515,190.494 181.694,184.828 171.275,184.828"
       fill-opacity="0"
       stroke="#000000"
       stroke-width="4"
       stroke-linecap="round"
       stroke-linejoin="round"
       id="path8814" />
    <path
       d="M184.828,172.63 C186.515,183.129 183.473,193.764 183.473,203.803"
       fill-opacity="0"
       stroke="#000000"
       stroke-width="4"
       stroke-linecap="round"
       stroke-linejoin="round"
       id="path8816" />
    <path
       d="M279.703,182.117 C262.535,182.117 245.367,182.117 228.199,182.117"
       fill-opacity="0"
       stroke="#000000"
       stroke-width="4"
       stroke-linecap="round"
       stroke-linejoin="round"
       id="path8818" />
    <path
       d="M259.373,165.853 C257.662,177.568 258.699,199.047 256.662,205.158"
       fill-opacity="0"
       stroke="#000000"
       stroke-width="4"
       stroke-linecap="round"
       stroke-linejoin="round"
       id="path8820" />
    <path
       d="M603.632,295.967 C591.886,295.967 580.14,295.967 568.393,295.967"
       fill-opacity="0"
       stroke="#000000"
       stroke-width="4"
       stroke-linecap="round"
       stroke-linejoin="round"
       id="path8822" />
    <path
       d="M586.013,278.347 C586.013,292.353 586.013,306.358 586.013,320.363"
       fill-opacity="0"
       stroke="#000000"
       stroke-width="4"
       stroke-linecap="round"
       stroke-linejoin="round"
       id="path8824" />
    <path
       d="M657.846,295.967 C647.455,295.967 637.064,295.967 626.673,295.967"
       fill-opacity="0"
       stroke="#000000"
       stroke-width="4"
       stroke-linecap="round"
       stroke-linejoin="round"
       id="path8826" />
    <path
       d="M637.516,271.571 C637.516,283.284 637.516,307.519 637.516,314.942"
       fill-opacity="0"
       stroke="#000000"
       stroke-width="4"
       stroke-linecap="round"
       stroke-linejoin="round"
       id="path8828" />
    <path
       d="M443.701,572.459 C425.629,572.459 407.558,572.459 389.486,572.459"
       fill-opacity="0"
       stroke="#000000"
       stroke-width="4"
       stroke-linecap="round"
       stroke-linejoin="round"
       id="path8830" />
    <path
       d="M416.594,556.195 C416.064,570.671 415.238,585.071 415.238,599.566"
       fill-opacity="0"
       stroke="#000000"
       stroke-width="4"
       stroke-linecap="round"
       stroke-linejoin="round"
       id="path8832" />
    <path
       d="M236.332,443.701 C219.616,443.701 202.899,443.701 186.183,443.701"
       fill-opacity="0"
       stroke="#000000"
       stroke-width="4"
       stroke-linecap="round"
       stroke-linejoin="round"
       id="path8834" />
    <path
       d="M210.58,427.436 C213.38,436.565 204.093,465.935 214.646,469.452"
       fill-opacity="0"
       stroke="#000000"
       stroke-width="4"
       stroke-linecap="round"
       stroke-linejoin="round"
       id="path8836" />
    <path
       d="M300.033,445.056 C284.762,445.333 266.256,446.465 255.306,440.99"
       fill-opacity="0"
       stroke="#000000"
       stroke-width="4"
       stroke-linecap="round"
       stroke-linejoin="round"
       id="path8838" />
    <path
       d="M275.637,428.792 C275.637,444.152 275.637,459.513 275.637,474.874"
       fill-opacity="0"
       stroke="#000000"
       stroke-width="4"
       stroke-linecap="round"
       stroke-linejoin="round"
       id="path8840" />
    <path
       d="M760.853,294.612 C774.859,294.612 788.864,294.612 802.869,294.612"
       fill-opacity="0"
       stroke="#FF0000"
       stroke-width="4"
       stroke-linecap="round"
       stroke-linejoin="round"
       id="path8842"
       style="stroke:#8f123e;stroke-opacity:1" />
    <path
       d="M782.539,279.703 C782.539,291.901 782.539,304.099 782.539,316.297"
       fill-opacity="0"
       stroke="#FF0000"
       stroke-width="4"
       stroke-linecap="round"
       stroke-linejoin="round"
       id="path8844"
       style="stroke:#8f123e;stroke-opacity:1" />
    <path
       d="M844.885,293.256 C855.276,293.256 865.667,293.256 876.058,293.256"
       fill-opacity="0"
       stroke="#FF0000"
       stroke-width="4"
       stroke-linecap="round"
       stroke-linejoin="round"
       id="path8846"
       style="stroke:#8f123e;stroke-opacity:1" />
    <path
       d="M858.439,270.215 C858.439,284.672 858.439,299.13 858.439,313.587"
       fill-opacity="0"
       stroke="#FF0000"
       stroke-width="4"
       stroke-linecap="round"
       stroke-linejoin="round"
       id="path8848"
       style="stroke:#8f123e;stroke-opacity:1" />
    <path
       d="M689.02,294.612 C703.29,297.894 723.202,289.34 736.457,295.967"
       fill-opacity="0"
       stroke="#FF0000"
       stroke-width="4"
       stroke-linecap="round"
       stroke-linejoin="round"
       id="path8850"
       style="stroke:#8f123e;stroke-opacity:1" />
    <path
       d="M729.68,281.058 C740.209,304.05 755.281,296.043 722.903,312.231"
       fill-opacity="0"
       stroke="#FF0000"
       stroke-width="4"
       stroke-linecap="round"
       stroke-linejoin="round"
       id="path8852"
       style="stroke:#8f123e;stroke-opacity:1" />
    <path
       d="M454.837,181.395 C437.935,182.357 421.499,180.04 404.689,180.04"
       fill-opacity="0"
       stroke="#FF0000"
       stroke-width="4"
       stroke-linecap="round"
       stroke-linejoin="round"
       id="path8854"
       style="stroke:#8f123e;stroke-opacity:1" />
    <path
       d="M433.152,162.42 C433.245,176.473 427.913,196.563 426.375,205.791"
       fill-opacity="0"
       stroke="#FF0000"
       stroke-width="4"
       stroke-linecap="round"
       stroke-linejoin="round"
       id="path8856"
       style="stroke:#8f123e;stroke-opacity:1" />
    <path
       d="M302.744,183.473 C317.698,183.571 332.713,182.72 347.471,184.828"
       fill-opacity="0"
       stroke="#FF0000"
       stroke-width="4"
       stroke-linecap="round"
       stroke-linejoin="round"
       id="path8858"
       style="stroke:#8f123e;stroke-opacity:1" />
    <path
       d="M348.826,178.051 C368.744,194.944 348.332,198.382 332.562,198.382"
       fill-opacity="0"
       stroke="#FF0000"
       stroke-width="4"
       stroke-linecap="round"
       stroke-linejoin="round"
       id="path8860"
       style="stroke:#8f123e;stroke-opacity:1" />
    <path
       d="M370.512,577.881 C354.395,580.263 338.832,575.17 323.074,575.17"
       fill-opacity="0"
       stroke="#FF0000"
       stroke-width="4"
       stroke-linecap="round"
       stroke-linejoin="round"
       id="path8862"
       style="stroke:#8f123e;stroke-opacity:1" />
    <path
       d="M333.917,558.906 C294.293,569.458 308.833,575.838 329.851,596.856"
       fill-opacity="0"
       stroke="#FF0000"
       stroke-width="4"
       stroke-linecap="round"
       stroke-linejoin="round"
       id="path8864"
       style="stroke:#8f123e;stroke-opacity:1" />
    <path
       d="M293.103,575.17 C276.497,574.036 259.302,577.084 242.955,573.815"
       fill-opacity="0"
       stroke="#FF0000"
       stroke-width="4"
       stroke-linecap="round"
       stroke-linejoin="round"
       id="path8866"
       style="stroke:#8f123e;stroke-opacity:1" />
    <path
       d="M270.062,554.84 C267.924,568.54 264.641,582.845 264.641,596.856"
       fill-opacity="0"
       stroke="#FF0000"
       stroke-width="4"
       stroke-linecap="round"
       stroke-linejoin="round"
       id="path8868"
       style="stroke:#8f123e;stroke-opacity:1" />
    <path
       d="M228.047,572.459 C213.342,571.887 188.22,569.749 177.898,569.749"
       fill-opacity="0"
       stroke="#FF0000"
       stroke-width="4"
       stroke-linecap="round"
       stroke-linejoin="round"
       id="path8870"
       style="stroke:#8f123e;stroke-opacity:1" />
    <path
       d="M213.138,552.129 C210.567,566.501 215.712,586.286 209.072,599.566"
       fill-opacity="0"
       stroke="#FF0000"
       stroke-width="4"
       stroke-linecap="round"
       stroke-linejoin="round"
       id="path8872"
       style="stroke:#8f123e;stroke-opacity:1" />
    <path
       d="M148.031,511.274 C144.247,475.061 159.753,427.536 134.512,397.246 C116.512,375.646 25.252,363.024 11.668,390.193 C-1.407,416.342 6.196,604.049 19.309,627.653 C38.472,662.146 130.111,658.203 143.916,630.592 C157.421,603.581 155.513,530.305 150.382,499.518"
       fill-opacity="0"
       stroke="#FF0000"
       stroke-width="4"
       stroke-linecap="round"
       stroke-linejoin="round"
       id="path8874"
       style="stroke:#8f123e;stroke-opacity:1" />
    <path
       d="M383.221,8.881 C396.258,8.881 409.295,8.881 422.331,8.881 C452.006,8.881 482.313,6.581 506.139,25.642 C519.129,36.035 523.59,107.288 513.588,120.624 C510.409,124.863 495.442,136.606 490.308,138.317 C452.035,151.075 344.704,138.317 297.551,138.317 C269.842,138.317 151.247,146.236 135.523,139.248 C100.688,123.766 100.931,23.49 120.624,11.674 C146.486,-3.843 244.706,4.181 275.202,6.087 C314.469,8.541 355.144,9.812 394.395,9.812"
       fill-opacity="0"
       stroke="#FF0000"
       stroke-width="4"
       stroke-linecap="round"
       stroke-linejoin="round"
       id="path8876"
       style="stroke:#8f123e;stroke-opacity:1" />
    <path
       d="M700.419,13.25 C751.7,15.515 811.766,3.124 860.803,23.316 C868.697,26.567 887.292,35.104 891.001,43.448 C898.918,61.262 888.381,119.365 875.566,135.384 C855.089,160.979 724.798,146.647 693.037,144.779 C652.684,142.405 607.186,148.68 567.548,140.752 C533.069,133.856 531.644,45.128 551.443,25.329 C574.249,2.524 674.336,6.648 706.458,11.237"
       fill-opacity="0"
       stroke="#FF0000"
       stroke-width="4"
       stroke-linecap="round"
       stroke-linejoin="round"
       id="path8878"
       style="stroke:#8f123e;stroke-opacity:1" />
  </g>
</svg>
