<?xml version="1.0" encoding="UTF-8" standalone="no"?>
<svg
   xmlns:dc="http://purl.org/dc/elements/1.1/"
   xmlns:cc="http://creativecommons.org/ns#"
   xmlns:rdf="http://www.w3.org/1999/02/22-rdf-syntax-ns#"
   xmlns:svg="http://www.w3.org/2000/svg"
   xmlns="http://www.w3.org/2000/svg"
   xmlns:sodipodi="http://sodipodi.sourceforge.net/DTD/sodipodi-0.dtd"
   xmlns:inkscape="http://www.inkscape.org/namespaces/inkscape"
   version="1.1"
   x="0"
   y="0"
   width="944"
   height="704"
   viewBox="0, 0, 944, 704"
   id="svg150"
   sodipodi:docname="CVI.svg"
   inkscape:version="0.92.1 r15371"
   inkscape:export-filename="X:\07-Administration\04-CoC\CoC-ML\intern\Präsentationen\Fachliche Szenarien\ML Poster Sketches\ML Poster\CVI.png"
   inkscape:export-xdpi="96"
   inkscape:export-ydpi="96">
  <metadata
     id="metadata156">
    <rdf:RDF>
      <cc:Work
         rdf:about="">
        <dc:format>image/svg+xml</dc:format>
        <dc:type
           rdf:resource="http://purl.org/dc/dcmitype/StillImage" />
        <dc:title></dc:title>
      </cc:Work>
    </rdf:RDF>
  </metadata>
  <defs
     id="defs154" />
  <sodipodi:namedview
     pagecolor="#ffffff"
     bordercolor="#666666"
     borderopacity="1"
     objecttolerance="10"
     gridtolerance="10"
     guidetolerance="10"
     inkscape:pageopacity="0"
     inkscape:pageshadow="2"
     inkscape:window-width="1920"
     inkscape:window-height="1027"
     id="namedview152"
     showgrid="false"
     inkscape:zoom="0.86178639"
     inkscape:cx="176.87757"
     inkscape:cy="179.79565"
     inkscape:window-x="-8"
     inkscape:window-y="-8"
     inkscape:window-maximized="1"
     inkscape:current-layer="g143"
     inkscape:pagecheckerboard="true" />
  <g
     id="Background"
     transform="translate(-47.575595,0.58019018)" />
  <g
     id="Layer_1">
    <path
       d="M615.228,580.48 C628.914,591.25 656.47,609.455 670.903,592.951 C701.704,557.731 642.273,548.424 631.873,532.569 C617.696,510.954 627.765,479.487 613.506,457.748 C604.182,443.533 553.214,425.314 536.593,417.712 C527.294,413.458 509.754,431.66 498.711,433.464 C471.983,437.83 447.978,395.652 422.372,424.931 C412.514,436.204 405.727,463.655 441.314,478.75"
       id="path13"
       stroke-linejoin="round"
       stroke-linecap="round"
       stroke-width="4"
       stroke="#000000"
       fill-opacity="0" />
    <path
       d="M610.636,583.762 C625.188,511.919 570.147,536.452 587.677,576.543 C591.986,586.396 610.362,600.049 612.358,581.793"
       id="path15"
       stroke-linejoin="round"
       stroke-linecap="round"
       stroke-width="4"
       stroke="#000000"
       fill-opacity="0" />
    <path
       d="M483.788,491.877 C483.197,485.59 484.702,476.747 481.492,470.874 C466.881,444.142 453.71,473.622 456.237,493.846 C459.496,519.929 486.084,528.833 486.084,484.001"
       id="path17"
       stroke-linejoin="round"
       stroke-linecap="round"
       stroke-width="4"
       stroke="#000000"
       fill-opacity="0" />
    <path
       d="M571.606,554.228 C545.755,546.114 524.477,523.137 499.285,513.535"
       id="path19"
       stroke-linejoin="round"
       stroke-linecap="round"
       stroke-width="4"
       stroke="#000000"
       fill-opacity="0" />
    <path
       d="M603.174,504.347 C630.592,463.655 551.072,424.566 526.836,431.495 C518.427,433.899 505.468,449.227 514.782,457.748 C523.533,465.753 540.024,469.232 557.814,478.75 C576.153,488.562 589.224,497.565 603.748,505.869"
       id="path21"
       stroke-linejoin="round"
       stroke-linecap="round"
       stroke-width="4"
       stroke="#000000"
       fill-opacity="0" />
    <path
       d="M566.544,439.847 C564.009,449.689 560.126,468.568 560.126,478.75"
       id="path23"
       stroke-linejoin="round"
       stroke-linecap="round"
       stroke-width="4"
       stroke="#000000"
       fill-opacity="0" />
    <path
       d="M754.49,558.099 C785.291,522.879 725.859,513.572 715.46,497.717 C701.283,476.103 711.352,444.635 697.093,422.896 C687.769,408.681 636.801,390.462 620.18,382.86 C610.881,378.607 593.341,396.808 582.298,398.612 C555.57,402.978 547.499,365.862 514.782,382.927"
       id="path25"
       stroke-linejoin="round"
       stroke-linecap="round"
       stroke-width="4"
       stroke="#000000"
       fill-opacity="0" />
    <path
       d="M754.704,564.072 C729.194,576.066 697.298,580.861 673.773,596.232"
       id="path27"
       stroke-linejoin="round"
       stroke-linecap="round"
       stroke-width="4"
       stroke="#000000"
       fill-opacity="0" />
    <path
       d="M521.096,380.301 C491.715,395.465 466.314,398.248 437.87,414.511"
       id="path29"
       stroke-linejoin="round"
       stroke-linecap="round"
       stroke-width="4"
       stroke="#000000"
       fill-opacity="0" />
    <path
       d="M617.524,382.927 C590.805,397.147 559.592,402.497 534.297,419.024"
       id="path31"
       stroke-linejoin="round"
       stroke-linecap="round"
       stroke-width="4"
       stroke="#000000"
       fill-opacity="0" />
    <path
       d="M698.454,428.869 C672.349,432.369 641.042,452.129 617.524,463.655"
       id="path33"
       stroke-linejoin="round"
       stroke-linecap="round"
       stroke-width="4"
       stroke="#000000"
       fill-opacity="0" />
    <path
       d="M677.747,494.176 C684.436,490.92 695.591,490.03 698.033,480.259 C699.48,474.466 700.606,449.733 696.258,445.755 C688.929,439.051 639.002,459.024 632.865,467.211 C629.174,472.135 630.781,479.715 632.105,485.768 C638.875,516.736 654.33,505.189 676.733,495.336"
       id="path35"
       stroke-linejoin="round"
       stroke-linecap="round"
       stroke-width="4"
       stroke="#000000"
       fill-opacity="0" />
    <path
       d="M722.455,564.908 C729.223,562.494 735.43,559.218 741.595,555.693 C744.813,553.853 747.643,543.535 744.281,542.254 C735.172,538.781 712.044,551.981 703.314,555.309 C691.112,559.96 687.595,580.485 724.134,565.292"
       id="path37"
       stroke-linejoin="round"
       stroke-linecap="round"
       stroke-width="4"
       stroke="#000000"
       fill-opacity="0" />
    <path
       d="M706.498,565.24 C707.502,564.222 705.276,559.983 705.826,559.353 C706.201,558.925 707.475,559.004 708.065,558.329 C708.315,558.043 708.4,556.773 708.4,557.178 C708.4,560.016 708.504,562.884 709.52,565.496"
       id="path39"
       stroke-linejoin="round"
       stroke-linecap="round"
       stroke-width="4"
       stroke="#000000"
       fill-opacity="0" />
    <path
       d="M717.018,554.618 C709.771,561.316 726.607,559.924 713.996,562.808"
       id="path41"
       stroke-linejoin="round"
       stroke-linecap="round"
       stroke-width="4"
       stroke="#000000"
       fill-opacity="0" />
    <path
       d="M723.621,553.85 C726.486,546.884 725.044,553.978 726.531,557.945"
       id="path43"
       stroke-linejoin="round"
       stroke-linecap="round"
       stroke-width="4"
       stroke="#000000"
       fill-opacity="0" />
    <path
       d="M732.239,548.603 C727.777,550.222 732.672,558.649 733.917,552.955 C734.21,551.617 734.32,550.291 733.805,549.115"
       id="path45"
       stroke-linejoin="round"
       stroke-linecap="round"
       stroke-width="4"
       stroke="#000000"
       fill-opacity="0" />
    <path
       d="M737.834,547.708 C740.328,542.1 739.13,550.664 739.737,553.211"
       id="path47"
       stroke-linejoin="round"
       stroke-linecap="round"
       stroke-width="4"
       stroke="#000000"
       fill-opacity="0" />
    <path
       d="M548.903,352.477 C513.687,325.229 253.588,222.244 428.462,222.244"
       id="path49"
       stroke-linejoin="round"
       stroke-linecap="round"
       stroke-width="4"
       stroke="#000000"
       fill-opacity="0" />
    <path
       d="M431.998,249.155 C431.685,127.444 423.071,82.25 294.614,82.25"
       id="path51"
       stroke-linejoin="round"
       stroke-linecap="round"
       stroke-width="4"
       stroke="#000000"
       fill-opacity="0" />
    <path
       d="M576.153,344.529 C575.432,313.09 573.882,280.601 573.882,249.155"
       id="path53"
       stroke-linejoin="round"
       stroke-linecap="round"
       stroke-width="4"
       stroke="#000000"
       fill-opacity="0" />
    <path
       d="M299.3,141.117 C299.3,113.713 299.3,86.309 299.3,58.905"
       id="path55"
       stroke-linejoin="round"
       stroke-linecap="round"
       stroke-width="4"
       stroke="#000000"
       fill-opacity="0" />
    <path
       d="M293.767,54.162 C284.611,54.927 275.301,54.823 266.099,55.743"
       id="path57"
       stroke-linejoin="round"
       stroke-linecap="round"
       stroke-width="4"
       stroke="#000000"
       fill-opacity="0" />
    <path
       d="M260.566,51.79 C257.673,80.638 259.775,109.984 259.775,138.745"
       id="path59"
       stroke-linejoin="round"
       stroke-linecap="round"
       stroke-width="4"
       stroke="#000000"
       fill-opacity="0" />
    <path
       d="M291.395,139.536 C281.382,139.536 271.369,139.536 261.356,139.536"
       id="path61"
       stroke-linejoin="round"
       stroke-linecap="round"
       stroke-width="4"
       stroke="#000000"
       fill-opacity="0" />
    <path
       d="M287.798,65.093 C285.479,61.78 278.941,61.71 275.478,64.307 C259.284,76.452 289.633,93.505 289.633,71.909 C289.633,66.399 288.844,65.259 283.866,62.996"
       id="path63"
       stroke-linejoin="round"
       stroke-linecap="round"
       stroke-width="4"
       stroke="#000000"
       fill-opacity="0" />
    <path
       d="M288.06,95.763 C287.709,90.29 278.913,85.913 274.167,89.472 C258.586,101.158 288.99,116.996 286.75,92.355"
       id="path65"
       stroke-linejoin="round"
       stroke-linecap="round"
       stroke-width="4"
       stroke="#000000"
       fill-opacity="0" />
    <path
       d="M284.128,113.064 C282.14,110.961 278.897,111.174 276.002,111.753 C269.468,113.06 268.288,128.371 275.216,130.103 C290.333,133.882 293.331,116.556 280.458,110.705"
       id="path67"
       stroke-linejoin="round"
       stroke-linecap="round"
       stroke-width="4"
       stroke="#000000"
       fill-opacity="0" />
    <path
       d="M265.255,64.045 C258.978,61.069 251.831,59.477 245.595,56.705"
       id="path69"
       stroke-linejoin="round"
       stroke-linecap="round"
       stroke-width="4"
       stroke="#000000"
       fill-opacity="0" />
    <path
       d="M263.158,73.22 C257.836,73.125 252.418,73.482 247.167,72.957"
       id="path71"
       stroke-linejoin="round"
       stroke-linecap="round"
       stroke-width="4"
       stroke="#000000"
       fill-opacity="0" />
    <path
       d="M264.206,80.297 C260.677,84.038 255.919,86.12 252.148,89.472"
       id="path73"
       stroke-linejoin="round"
       stroke-linecap="round"
       stroke-width="4"
       stroke="#000000"
       fill-opacity="0" />
    <path
       d="M276.789,55.132 C274.731,51.438 274.198,47.44 273.905,43.336"
       id="path75"
       stroke-linejoin="round"
       stroke-linecap="round"
       stroke-width="4"
       stroke="#000000"
       fill-opacity="0" />
    <path
       d="M292.779,57.754 C296.685,52.51 301.47,48.001 305.361,42.812"
       id="path77"
       stroke-linejoin="round"
       stroke-linecap="round"
       stroke-width="4"
       stroke="#000000"
       fill-opacity="0" />
    <path
       d="M294.614,68.239 C300.201,67.696 305.844,68.306 311.39,67.453"
       id="path79"
       stroke-linejoin="round"
       stroke-linecap="round"
       stroke-width="4"
       stroke="#000000"
       fill-opacity="0" />
    <path
       d="M293.827,81.084 C299.439,84.573 305.146,88.002 311.128,90.52"
       id="path81"
       stroke-linejoin="round"
       stroke-linecap="round"
       stroke-width="4"
       stroke="#000000"
       fill-opacity="0" />
    <path
       d="M443.12,249.155 C439.443,119.608 427.758,72.957 299.3,72.957"
       id="path83"
       stroke-linejoin="round"
       stroke-linecap="round"
       stroke-width="4"
       stroke="#000000"
       fill-opacity="0" />
    <path
       d="M588.39,347.375 C587.663,314.046 586.143,279.399 584.093,246.593"
       id="path85"
       stroke-linejoin="round"
       stroke-linecap="round"
       stroke-width="4"
       stroke="#000000"
       fill-opacity="0" />
    <path
       d="M578.624,235.656 C591.275,236.882 601.84,228.843 599.327,213 C596.117,192.762 560.12,185.409 557.921,213.781 C556.761,228.749 565.09,233.654 579.406,236.047"
       id="path87"
       stroke-linejoin="round"
       stroke-linecap="round"
       stroke-width="4"
       stroke="#000000"
       fill-opacity="0" />
    <path
       d="M566.544,207.123 C576.674,202.159 580.921,215.638 568.793,215.638 C568.547,215.638 576.791,213.566 577.951,218.209 C579.487,224.35 572.173,223.351 568.15,223.351"
       id="path89"
       stroke-linejoin="round"
       stroke-linecap="round"
       stroke-width="4"
       stroke="#000000"
       fill-opacity="0" />
    <path
       d="M589.038,205.837 C582.416,206.02 583.665,224.231 590.162,222.065 C595.936,220.141 593.107,207.377 588.234,206.159"
       id="path91"
       stroke-linejoin="round"
       stroke-linecap="round"
       stroke-width="4"
       stroke="#000000"
       fill-opacity="0" />
    <path
       d="M579.357,245.188 C629.955,243.523 610.261,167.098 564.715,185.318 C536.522,196.595 542.33,240.436 579.194,245.351"
       id="path93"
       stroke-linejoin="round"
       stroke-linecap="round"
       stroke-width="4"
       stroke="#000000"
       fill-opacity="0" />
    <path
       d="M736.5,451.5 C795.322,475.396 842.338,522.419 898.5,550.5"
       id="path95"
       stroke-linejoin="round"
       stroke-linecap="round"
       stroke-width="4"
       stroke="#000000"
       fill-opacity="0" />
    <path
       d="M391.5,288.5 C378.06,284.279 365.884,272.917 355.5,265.5"
       id="path97"
       stroke-linejoin="round"
       stroke-linecap="round"
       stroke-width="4"
       stroke="#000000"
       fill-opacity="0" />
    <path
       d="M354.5,264.5 C322.818,279.079 290.822,289.089 245.595,305.283"
       id="path99"
       stroke-linejoin="round"
       stroke-linecap="round"
       stroke-width="4"
       stroke="#000000"
       fill-opacity="0" />
    <path
       d="M391.5,288.5 C357.819,298.128 310.164,316.168 279.5,331.5"
       id="path101"
       stroke-linejoin="round"
       stroke-linecap="round"
       stroke-width="4"
       stroke="#000000"
       fill-opacity="0" />
    <path
       d="M277.11,331.92 C261.585,320.651 256.2,314.123 244.839,306.82"
       id="path103"
       stroke-linejoin="round"
       stroke-linecap="round"
       stroke-width="4"
       stroke="#000000"
       fill-opacity="0" />
    <path
       d="M204.375,337.949 C221.66,351.851 242.369,361.882 257.805,377.318"
       id="path105"
       stroke-linejoin="round"
       stroke-linecap="round"
       stroke-width="4"
       stroke="#000000"
       fill-opacity="0" />
    <path
       d="M292.956,406.845 C313.376,419.166 328.121,438.487 349.197,449.026"
       id="path107"
       stroke-linejoin="round"
       stroke-linecap="round"
       stroke-width="4"
       stroke="#000000"
       fill-opacity="0" />
    <path
       d="M392.784,474.334 C404.988,485.136 419.285,492.804 432.153,502.455"
       id="path109"
       stroke-linejoin="round"
       stroke-linecap="round"
       stroke-width="4"
       stroke="#000000"
       fill-opacity="0" />
    <path
       d="M489.801,537.606 C506.803,549.538 523.932,562.173 540.418,574.163"
       id="path111"
       stroke-linejoin="round"
       stroke-linecap="round"
       stroke-width="4"
       stroke="#000000"
       fill-opacity="0" />
    <path
       d="M584.005,600.878 C606.538,615.237 628.464,628.607 650.089,644.465"
       id="path113"
       stroke-linejoin="round"
       stroke-linecap="round"
       stroke-width="4"
       stroke="#000000"
       fill-opacity="0" />
    <text
       transform="matrix(1, 0, 0, 1, 588.511, 139.036)"
       id="text125">
      <tspan
         x="-57.098"
         y="-2.581"
         font-size="18"
         id="tspan123"
         font-family="ArialRoundedMTBold"
         fill="#FF0000"
         style="font-size:26.66666667px;-inkscape-font-specification:'msg Text Heavy, ';font-family:'msg Text Heavy';font-weight:normal;font-style:normal;font-stretch:normal;font-variant:normal;fill:#8f123e;fill-opacity:1">max. 30 km/h</tspan>
    </text>
    <path
       d="M588.39,141.117 L582.146,180.188"
       id="path127"
       stroke-width="4"
       stroke="#FF0000"
       fill-opacity="0"
       style="stroke:#8f123e;stroke-opacity:1" />
    <path
       d="M 777.96129,603.19428 730.398,562.808"
       id="path129"
       inkscape:connector-curvature="0"
       style="fill-opacity:0;stroke:#8f123e;stroke-width:4;stroke-opacity:1"
       sodipodi:nodetypes="cc" />
    <text
       id="text133"
       x="31.887669"
       y="75.800949">
      <tspan
         x="-44.568333"
         y="72.483948"
         font-size="18"
         id="tspan131"
         style="font-style:normal;font-variant:normal;font-weight:normal;font-stretch:normal;font-size:26.66666667px;line-height:1.25;font-family:'msg Text Heavy';-inkscape-font-specification:'msg Text Heavy, ';letter-spacing:0px;word-spacing:0px;fill:#8f123e;fill-opacity:1">The traffic light is red</tspan>
    </text>
    <path
       d="M214.227,64.045 L269.705,68.239"
       id="path135"
       stroke-width="4"
       stroke="#FF0000"
       fill-opacity="0"
       style="stroke:#8f123e;stroke-opacity:1" />
    <g
       id="g143">
      <path
         d="M349.153,472.378 L238.022,392.498"
         id="path137"
         stroke-width="4"
         stroke="#FF0000"
         fill-opacity="0"
         style="stroke:#8f123e;stroke-opacity:1" />
      <path
         d="M346.352,476.275 L359.547,479.848 L351.955,468.48 z"
         id="path139"
         stroke-opacity="1"
         stroke-width="4"
         stroke="#FF0000"
         fill-opacity="1"
         fill="#FF0000"
         style="stroke:#8f123e;stroke-opacity:1;fill:#8f123e;fill-opacity:1" />
      <path
         d="M240.823,388.601 L227.628,385.028 L235.22,396.396 z"
         id="path141"
         stroke-opacity="1"
         stroke-width="4"
         stroke="#FF0000"
         fill-opacity="1"
         fill="#FF0000"
         style="stroke:#8f123e;stroke-opacity:1;fill:#8f123e;fill-opacity:1" />
    </g>
    <text
       id="text147"
       x="121.82313"
       y="459.47604">
      <tspan
         x="102.86213"
         y="457.61206"
         font-size="20"
         id="tspan145"
         style="font-style:normal;font-variant:normal;font-weight:normal;font-stretch:normal;font-size:26.66666603px;font-family:'msg Text Heavy';-inkscape-font-specification:'msg Text Heavy, ';fill:#8f123e;fill-opacity:1">3m to stop line</tspan>
    </text>
    <text
       xml:space="preserve"
       style="font-style:normal;font-weight:normal;font-size:40px;line-height:0.30000001;font-family:sans-serif;letter-spacing:0px;word-spacing:0px;fill:#000000;fill-opacity:1;stroke:none"
       x="677.74567"
       y="624.39819"
       id="text210"><tspan
         sodipodi:role="line"
         x="677.74567"
         y="624.39819"
         style="font-style:normal;font-variant:normal;font-weight:normal;font-stretch:normal;font-size:21.33333397px;line-height:0.80000001;font-family:'msg Text Heavy';-inkscape-font-specification:'msg Text Heavy, ';fill:#8f123e;fill-opacity:1"
         id="tspan1025">License plate: M S 101</tspan><tspan
         sodipodi:role="line"
         x="677.74567"
         y="645.09143"
         style="font-style:normal;font-variant:normal;font-weight:normal;font-stretch:normal;font-size:21.33333397px;line-height:0.80000001;font-family:'msg Text Heavy';-inkscape-font-specification:'msg Text Heavy, ';fill:#8f123e;fill-opacity:1"
         id="tspan1036">Country: Germany</tspan><tspan
         sodipodi:role="line"
         x="677.74567"
         y="665.78461"
         style="font-style:normal;font-variant:normal;font-weight:normal;font-stretch:normal;font-size:21.33333397px;line-height:0.80000001;font-family:'msg Text Heavy';-inkscape-font-specification:'msg Text Heavy, ';fill:#8f123e;fill-opacity:1"
         id="tspan1043">MOT until: 11/2022</tspan><tspan
         sodipodi:role="line"
         x="677.74567"
         y="686.47784"
         style="font-style:normal;font-variant:normal;font-weight:normal;font-stretch:normal;font-size:21.33333397px;line-height:0.30000001;font-family:'msg Text Heavy';-inkscape-font-specification:'msg Text Heavy, ';fill:#ff0000;fill-opacity:1"
         id="tspan1029" /></text>
  </g>
</svg>
