<?xml version="1.0" encoding="UTF-8" standalone="no"?>
<svg
   xmlns:dc="http://purl.org/dc/elements/1.1/"
   xmlns:cc="http://creativecommons.org/ns#"
   xmlns:rdf="http://www.w3.org/1999/02/22-rdf-syntax-ns#"
   xmlns:svg="http://www.w3.org/2000/svg"
   xmlns="http://www.w3.org/2000/svg"
   xmlns:sodipodi="http://sodipodi.sourceforge.net/DTD/sodipodi-0.dtd"
   xmlns:inkscape="http://www.inkscape.org/namespaces/inkscape"
   version="1.1"
   x="0"
   y="0"
   width="944"
   height="704"
   viewBox="0, 0, 944, 704"
   id="svg149"
   sodipodi:docname="FAR.svg"
   inkscape:version="0.92.1 r15371"
   inkscape:export-filename="X:\07-Administration\04-CoC\CoC-ML\intern\Präsentationen\Fachliche Szenarien\ML Poster Sketches\ML Poster\FAR.png"
   inkscape:export-xdpi="96"
   inkscape:export-ydpi="96">
  <metadata
     id="metadata155">
    <rdf:RDF>
      <cc:Work
         rdf:about="">
        <dc:format>image/svg+xml</dc:format>
        <dc:type
           rdf:resource="http://purl.org/dc/dcmitype/StillImage" />
      </cc:Work>
    </rdf:RDF>
  </metadata>
  <defs
     id="defs153" />
  <sodipodi:namedview
     pagecolor="#ffffff"
     bordercolor="#666666"
     borderopacity="1"
     objecttolerance="10"
     gridtolerance="10"
     guidetolerance="10"
     inkscape:pageopacity="0"
     inkscape:pageshadow="2"
     inkscape:window-width="1920"
     inkscape:window-height="1027"
     id="namedview151"
     showgrid="false"
     inkscape:zoom="1.3409091"
     inkscape:cx="475.83712"
     inkscape:cy="260.36901"
     inkscape:window-x="-8"
     inkscape:window-y="-8"
     inkscape:window-maximized="1"
     inkscape:current-layer="Layer_2" />
  <g
     id="Layer_1">
    <path
       d="M367.537,210.983 C384.005,204.376 395.346,199.374 412.139,202.826 C416.352,203.692 430.827,212.688 434.655,214.655"
       fill-opacity="0"
       stroke="#000000"
       stroke-width="4"
       stroke-linecap="round"
       stroke-linejoin="round"
       id="path5" />
    <path
       d="M367.537,213.14 C370.981,213.398 379.523,221.926 384.262,225.173 C396.981,233.887 426.429,230.181 433.325,216.005"
       fill-opacity="0"
       stroke="#000000"
       stroke-width="4"
       stroke-linecap="round"
       stroke-linejoin="round"
       id="path7" />
    <path
       d="M400.244,201.868 C404.492,201.659 408.252,202.913 411.248,205.993 C421.357,216.382 410.712,234.274 394.029,227.416 C380.615,221.901 391.318,201.409 403.351,202.533"
       fill-opacity="0"
       stroke="#000000"
       stroke-width="4"
       stroke-linecap="round"
       stroke-linejoin="round"
       id="path9" />
    <path
       d="M401.668,211.981 C402.712,211.937 404.12,212.012 404.646,212.912 C406.361,215.851 404.28,221.091 400.244,219.432 C396.765,218.002 398.433,212.646 402.315,212.646"
       fill-opacity="0"
       stroke="#000000"
       stroke-width="4"
       stroke-linecap="round"
       stroke-linejoin="round"
       id="path11" />
    <path
       d="M402.564,214.91 L402.564,214.91"
       fill-opacity="0"
       stroke="#000000"
       stroke-width="4"
       stroke-linecap="round"
       stroke-linejoin="round"
       id="path13" />
    <path
       d="M401.107,216.782 L401.107,216.782"
       fill-opacity="0"
       stroke="#000000"
       stroke-width="4"
       stroke-linecap="round"
       stroke-linejoin="round"
       id="path15" />
    <path
       d="M402.746,216.22 L402.746,216.22"
       fill-opacity="0"
       stroke="#000000"
       stroke-width="4"
       stroke-linecap="round"
       stroke-linejoin="round"
       id="path17" />
    <path
       d="M403.839,217.156 L403.839,217.156"
       fill-opacity="0"
       stroke="#000000"
       stroke-width="4"
       stroke-linecap="round"
       stroke-linejoin="round"
       id="path19" />
    <path
       d="M402.2,217.343 L402.2,217.343"
       fill-opacity="0"
       stroke="#000000"
       stroke-width="4"
       stroke-linecap="round"
       stroke-linejoin="round"
       id="path21" />
    <path
       d="M400.561,215.097 L400.561,215.097"
       fill-opacity="0"
       stroke="#000000"
       stroke-width="4"
       stroke-linecap="round"
       stroke-linejoin="round"
       id="path23" />
    <path
       d="M352.115,214.458 C349.192,223.29 354.711,236.009 350.541,244.349 C346.379,252.674 281.264,299.412 353.688,299.412"
       fill-opacity="0"
       stroke="#000000"
       stroke-width="4"
       stroke-linecap="round"
       stroke-linejoin="round"
       id="path25" />
    <path
       d="M423.563,322.909 C362.154,351.815 332.204,345.159 272.534,325.268"
       fill-opacity="0"
       stroke="#000000"
       stroke-width="4"
       stroke-linecap="round"
       stroke-linejoin="round"
       id="path27" />
    <path
       d="M272.534,312.772 C271.507,321.023 271.27,327.339 264.955,330.695"
       fill-opacity="0"
       stroke="#000000"
       stroke-width="4"
       stroke-linecap="round"
       stroke-linejoin="round"
       id="path29" />
    <path
       d="M422.59,309.801 C421.147,318.156 425.552,322.017 428.883,328.679"
       fill-opacity="0"
       stroke="#000000"
       stroke-width="4"
       stroke-linecap="round"
       stroke-linejoin="round"
       id="path31" />
    <path
       d="M243.972,237.425 C243.161,233.021 245.246,227.626 243.66,223.397 C239.014,211.008 226.836,211.692 220.591,220.279 C210.615,233.996 225.003,243.178 227.45,250.519 C229.129,255.557 230.195,282.95 242.413,268.288"
       fill-opacity="0"
       stroke="#000000"
       stroke-width="4"
       stroke-linecap="round"
       stroke-linejoin="round"
       id="path33" />
    <path
       d="M459.22,236.952 C460.031,232.548 457.946,227.153 459.532,222.924 C464.178,210.534 476.356,211.219 482.601,219.806 C492.577,233.523 478.189,242.705 475.742,250.045 C474.063,255.084 472.997,282.477 460.779,267.815"
       fill-opacity="0"
       stroke="#000000"
       stroke-width="4"
       stroke-linecap="round"
       stroke-linejoin="round"
       id="path35" />
    <path
       d="M461.202,270.732 C457.04,304.029 470.904,356.091 451.189,382.378 C436.93,401.391 407.823,387.747 387.105,391.89 C374.482,394.415 369.134,402.44 349.056,400.902 C335.982,399.901 325.369,393.478 315.011,390.889 C294.086,385.658 261.943,400.674 246.718,380.375 C232.208,361.028 244.914,292.057 244.914,268.228"
       fill-opacity="0"
       stroke="#000000"
       stroke-width="4"
       stroke-linecap="round"
       stroke-linejoin="round"
       id="path37" />
    <path
       d="M467.788,196.441 C469.121,197.012 470.453,197.583 471.786,198.155"
       fill-opacity="0"
       stroke="#000000"
       stroke-width="4"
       stroke-linecap="round"
       stroke-linejoin="round"
       id="path39" />
    <path
       d="M466.074,186.73 C469.144,189.8 467.435,188.46 471.215,190.728"
       fill-opacity="0"
       stroke="#000000"
       stroke-width="4"
       stroke-linecap="round"
       stroke-linejoin="round"
       id="path41" />
    <path
       d="M462.075,174.162 C465.886,178.612 469.338,179.058 475.214,181.017"
       fill-opacity="0"
       stroke="#000000"
       stroke-width="4"
       stroke-linecap="round"
       stroke-linejoin="round"
       id="path43" />
    <path
       d="M458.076,161.023 C460.49,166.035 464.584,169.189 468.93,172.448"
       fill-opacity="0"
       stroke="#000000"
       stroke-width="4"
       stroke-linecap="round"
       stroke-linejoin="round"
       id="path45" />
    <path
       d="M434.655,122.749 C435.574,135.398 441.583,150.98 452.364,158.167"
       fill-opacity="0"
       stroke="#000000"
       stroke-width="4"
       stroke-linecap="round"
       stroke-linejoin="round"
       id="path47" />
    <path
       d="M416.946,116.465 C415.394,131.484 422.098,142.757 430.656,154.168"
       fill-opacity="0"
       stroke="#000000"
       stroke-width="4"
       stroke-linecap="round"
       stroke-linejoin="round"
       id="path49" />
    <path
       d="M390.668,113.609 C389.982,133.63 404.872,144.963 418.66,156.453"
       fill-opacity="0"
       stroke="#000000"
       stroke-width="4"
       stroke-linecap="round"
       stroke-linejoin="round"
       id="path51" />
    <path
       d="M371.245,114.751 C372.518,127.939 383.203,140.903 391.81,150.74"
       fill-opacity="0"
       stroke="#000000"
       stroke-width="4"
       stroke-linecap="round"
       stroke-linejoin="round"
       id="path53" />
    <path
       d="M348.395,117.036 C350.004,135.081 359.94,146.506 374.673,155.882"
       fill-opacity="0"
       stroke="#000000"
       stroke-width="4"
       stroke-linecap="round"
       stroke-linejoin="round"
       id="path55" />
    <path
       d="M327.83,121.035 C328.181,137.96 343.113,152.228 357.535,158.167"
       fill-opacity="0"
       stroke="#000000"
       stroke-width="4"
       stroke-linecap="round"
       stroke-linejoin="round"
       id="path57" />
    <path
       d="M306.693,115.323 C312.029,131.203 320.109,144.215 332.971,154.739"
       fill-opacity="0"
       stroke="#000000"
       stroke-width="4"
       stroke-linecap="round"
       stroke-linejoin="round"
       id="path59" />
    <path
       d="M290.127,121.035 C293.01,137.279 307.379,147.351 320.403,155.31"
       fill-opacity="0"
       stroke="#000000"
       stroke-width="4"
       stroke-linecap="round"
       stroke-linejoin="round"
       id="path61" />
    <path
       d="M274.132,121.606 C275.845,136.66 289.605,150.276 300.409,159.88"
       fill-opacity="0"
       stroke="#000000"
       stroke-width="4"
       stroke-linecap="round"
       stroke-linejoin="round"
       id="path63" />
    <path
       d="M254.709,127.319 C255.633,141.292 272.526,152.943 282.701,159.88"
       fill-opacity="0"
       stroke="#000000"
       stroke-width="4"
       stroke-linecap="round"
       stroke-linejoin="round"
       id="path65" />
    <path
       d="M239.285,135.316 C241.425,143.214 246.724,152.176 253.567,156.453"
       fill-opacity="0"
       stroke="#000000"
       stroke-width="4"
       stroke-linecap="round"
       stroke-linejoin="round"
       id="path67" />
    <path
       d="M233.001,158.738 C235.579,161.461 238.623,162.135 242.141,163.308"
       fill-opacity="0"
       stroke="#000000"
       stroke-width="4"
       stroke-linecap="round"
       stroke-linejoin="round"
       id="path69" />
    <path
       d="M235.858,171.306 C230.121,169.667 239.002,171.949 231.859,170.163"
       fill-opacity="0"
       stroke="#000000"
       stroke-width="4"
       stroke-linecap="round"
       stroke-linejoin="round"
       id="path71" />
    <path
       d="M238.714,183.302 C237.242,182.925 236.02,183.612 234.715,183.873"
       fill-opacity="0"
       stroke="#000000"
       stroke-width="4"
       stroke-linecap="round"
       stroke-linejoin="round"
       id="path73" />
    <path
       d="M240.428,197.583 C240.526,199.796 239.657,201.409 238.714,203.296"
       fill-opacity="0"
       stroke="#000000"
       stroke-width="4"
       stroke-linecap="round"
       stroke-linejoin="round"
       id="path75" />
    <path
       d="M338.824,210.602 C322.356,203.995 311.014,198.993 294.222,202.445 C290.009,203.311 275.534,212.308 271.706,214.274"
       fill-opacity="0"
       stroke="#000000"
       stroke-width="4"
       stroke-linecap="round"
       stroke-linejoin="round"
       id="path77" />
    <path
       d="M338.824,212.759 C335.38,213.018 326.838,221.545 322.098,224.792 C309.38,233.507 279.932,229.8 273.036,215.624"
       fill-opacity="0"
       stroke="#000000"
       stroke-width="4"
       stroke-linecap="round"
       stroke-linejoin="round"
       id="path79" />
    <path
       d="M306.117,201.487 C301.869,201.278 298.109,202.533 295.112,205.612 C285.004,216.001 295.649,233.893 312.331,227.035 C325.746,221.52 315.043,201.028 303.01,202.153"
       fill-opacity="0"
       stroke="#000000"
       stroke-width="4"
       stroke-linecap="round"
       stroke-linejoin="round"
       id="path81" />
    <path
       d="M304.693,211.6 C303.649,211.557 302.241,211.631 301.715,212.531 C300,215.47 302.08,220.711 306.117,219.051 C309.596,217.621 307.928,212.265 304.046,212.265"
       fill-opacity="0"
       stroke="#000000"
       stroke-width="4"
       stroke-linecap="round"
       stroke-linejoin="round"
       id="path83" />
    <path
       d="M303.797,214.529 L303.797,214.529"
       fill-opacity="0"
       stroke="#000000"
       stroke-width="4"
       stroke-linecap="round"
       stroke-linejoin="round"
       id="path85" />
    <path
       d="M305.254,216.401 L305.254,216.401"
       fill-opacity="0"
       stroke="#000000"
       stroke-width="4"
       stroke-linecap="round"
       stroke-linejoin="round"
       id="path87" />
    <path
       d="M303.614,215.839 L303.614,215.839"
       fill-opacity="0"
       stroke="#000000"
       stroke-width="4"
       stroke-linecap="round"
       stroke-linejoin="round"
       id="path89" />
    <path
       d="M302.522,216.775 L302.522,216.775"
       fill-opacity="0"
       stroke="#000000"
       stroke-width="4"
       stroke-linecap="round"
       stroke-linejoin="round"
       id="path91" />
    <path
       d="M304.161,216.962 L304.161,216.962"
       fill-opacity="0"
       stroke="#000000"
       stroke-width="4"
       stroke-linecap="round"
       stroke-linejoin="round"
       id="path93" />
    <path
       d="M305.8,214.716 L305.8,214.716"
       fill-opacity="0"
       stroke="#000000"
       stroke-width="4"
       stroke-linecap="round"
       stroke-linejoin="round"
       id="path95" />
  </g>
  <g
     id="Layer_2">
    <path
       d="M644.551,228.682 C637.713,228.682 632.17,223.062 632.17,216.131 C632.17,209.199 637.713,203.58 644.551,203.58 C651.39,203.58 656.933,209.199 656.933,216.131 C656.933,223.062 651.39,228.682 644.551,228.682 z"
       fill-opacity="0"
       stroke="#FF0000"
       stroke-width="4"
       id="path98"
       style="stroke:#8f123e;stroke-opacity:1" />
    <path
       d="M740.42,229.805 C733.582,229.805 728.038,224.186 728.038,217.254 C728.038,210.322 733.582,204.703 740.42,204.703 C747.258,204.703 752.802,210.322 752.802,217.254 C752.802,224.186 747.258,229.805 740.42,229.805 z"
       fill-opacity="0"
       stroke="#FF0000"
       stroke-width="4"
       id="path100"
       style="stroke:#8f123e;stroke-opacity:1" />
    <path
       d="M692.309,213.793 L690.09,295.551"
       fill-opacity="0"
       stroke="#FF0000"
       stroke-width="4"
       id="path102"
       style="stroke:#8f123e;stroke-opacity:1" />
    <path
       d="M761.395,324.258 C696.157,355.281 651.197,340.001 609.062,326.574"
       fill-opacity="0"
       stroke="#FF0000"
       stroke-width="4"
       stroke-linecap="round"
       stroke-linejoin="round"
       id="path104"
       style="stroke:#8f123e;stroke-opacity:1" />
    <path
       d="M579.057,220.783 L579.057,259.899"
       fill-opacity="0"
       stroke="#FF0000"
       stroke-width="4"
       id="path106"
       style="stroke:#8f123e;stroke-opacity:1" />
    <path
       d="M797.539,220.783 L797.539,257.584"
       fill-opacity="0"
       stroke="#FF0000"
       stroke-width="4"
       id="path108"
       style="stroke:#8f123e;stroke-opacity:1" />
    <path
       d="M692.309,213.793 L656.933,216.131"
       fill-opacity="0"
       stroke="#FF0000"
       stroke-width="4"
       stroke-dasharray="4,4"
       id="path110"
       style="stroke:#8f123e;stroke-opacity:1" />
    <path
       d="M692.662,213.154 L728.038,215.492"
       fill-opacity="0"
       stroke="#FF0000"
       stroke-width="4"
       stroke-dasharray="4,4"
       id="path112"
       style="stroke:#8f123e;stroke-opacity:1" />
    <path
       d="M762.184,321.603 L690.09,295.551"
       fill-opacity="0"
       stroke="#FF0000"
       stroke-width="4"
       stroke-dasharray="4,4"
       id="path114"
       style="stroke:#8f123e;stroke-opacity:1" />
    <path
       d="M610.328,321.603 L690.09,295.551"
       fill-opacity="0"
       stroke="#FF0000"
       stroke-width="4"
       stroke-dasharray="4,4"
       id="path116"
       style="stroke:#8f123e;stroke-opacity:1" />
    <path
       d="M797.539,239.988 L762.184,321.603"
       fill-opacity="0"
       stroke="#FF0000"
       stroke-width="4"
       stroke-dasharray="4,4"
       id="path118"
       style="stroke:#8f123e;stroke-opacity:1" />
    <path
       d="M580.763,239.988 L610.328,321.603"
       fill-opacity="0"
       stroke="#FF0000"
       stroke-width="4"
       stroke-dasharray="4,4"
       id="path120"
       style="stroke:#8f123e;stroke-opacity:1" />
    <path
       d="M580.763,239.988 L632.17,216.131"
       fill-opacity="0"
       stroke="#FF0000"
       stroke-width="4"
       stroke-dasharray="4,4"
       id="path122"
       style="stroke:#8f123e;stroke-opacity:1" />
    <path
       d="M752.802,214.979 L797.841,237.986"
       fill-opacity="0"
       stroke="#FF0000"
       stroke-width="4"
       stroke-dasharray="4,4"
       id="path124"
       style="stroke:#8f123e;stroke-opacity:1" />
    <path
       d="M497.337,265.559 C506.834,264.663 516.222,264.37 525.863,264.37"
       fill-opacity="0"
       stroke="#FF0000"
       stroke-width="4"
       stroke-linecap="round"
       stroke-linejoin="round"
       id="path126"
       style="stroke:#8f123e;stroke-opacity:1" />
    <path
       d="M526.297,261.994 C525.926,254.27 526.042,246.504 526.042,238.756"
       fill-opacity="0"
       stroke="#FF0000"
       stroke-width="4"
       stroke-linecap="round"
       stroke-linejoin="round"
       id="path128"
       style="stroke:#8f123e;stroke-opacity:1" />
    <path
       d="M525.531,237.99 C532.616,249.997 543.146,263.631 552.855,271.953"
       fill-opacity="0"
       stroke="#FF0000"
       stroke-width="4"
       stroke-linecap="round"
       stroke-linejoin="round"
       id="path130"
       style="stroke:#8f123e;stroke-opacity:1" />
    <path
       d="M551.068,272.209 C544.71,282.431 536.395,293.52 528.851,301.065"
       fill-opacity="0"
       stroke="#FF0000"
       stroke-width="4"
       stroke-linecap="round"
       stroke-linejoin="round"
       id="path132"
       style="stroke:#8f123e;stroke-opacity:1" />
    <path
       d="M527.574,299.788 C526.507,293.761 528.96,287.496 528.34,281.913"
       fill-opacity="0"
       stroke="#FF0000"
       stroke-width="4"
       stroke-linecap="round"
       stroke-linejoin="round"
       id="path134"
       style="stroke:#8f123e;stroke-opacity:1" />
    <path
       d="M524.765,281.402 C516.168,281.402 507.57,281.402 498.973,281.402"
       fill-opacity="0"
       stroke="#FF0000"
       stroke-width="4"
       stroke-linecap="round"
       stroke-linejoin="round"
       id="path136"
       style="stroke:#8f123e;stroke-opacity:1" />
    <path
       d="M497.951,277.827 C497.951,273.315 497.951,268.804 497.951,264.292"
       fill-opacity="0"
       stroke="#FF0000"
       stroke-width="4"
       stroke-linecap="round"
       stroke-linejoin="round"
       id="path138"
       style="stroke:#8f123e;stroke-opacity:1" />
    <text
       id="text142"
       style="fill:#8f123e;fill-opacity:1"
       x="695.92035"
       y="388.51248">
      <tspan
         x="653.95734"
         y="403.01248"
         font-size="40"
         id="tspan140"
         style="font-style:normal;font-variant:normal;font-weight:normal;font-stretch:normal;font-size:40px;font-family:'msg Text Heavy';-inkscape-font-specification:'msg Text Heavy, ';fill:#8f123e;fill-opacity:1">Paul</tspan>
    </text>
    <text
       id="text146"
       style="fill:#8f123e;fill-opacity:1"
       x="699.64917"
       y="139.81453">
      <tspan
         x="652.41315"
         y="154.31453"
         font-size="40"
         id="tspan144"
         style="font-style:normal;font-variant:normal;font-weight:normal;font-stretch:normal;font-size:40px;font-family:'msg Text Heavy';-inkscape-font-specification:'msg Text Heavy, ';fill:#8f123e;fill-opacity:1">Face</tspan>
    </text>
  </g>
</svg>
