<?xml version="1.0" encoding="UTF-8" standalone="no"?>
<svg
   xmlns:dc="http://purl.org/dc/elements/1.1/"
   xmlns:cc="http://creativecommons.org/ns#"
   xmlns:rdf="http://www.w3.org/1999/02/22-rdf-syntax-ns#"
   xmlns:svg="http://www.w3.org/2000/svg"
   xmlns="http://www.w3.org/2000/svg"
   xmlns:sodipodi="http://sodipodi.sourceforge.net/DTD/sodipodi-0.dtd"
   xmlns:inkscape="http://www.inkscape.org/namespaces/inkscape"
   version="1.1"
   x="0"
   y="0"
   width="944"
   height="704"
   viewBox="0, 0, 944, 704"
   id="svg42"
   sodipodi:docname="GER.svg"
   inkscape:version="0.92.1 r15371"
   inkscape:export-filename="X:\07-Administration\04-CoC\CoC-ML\intern\Präsentationen\Fachliche Szenarien\ML Poster Sketches\ML Poster\GER.png"
   inkscape:export-xdpi="96"
   inkscape:export-ydpi="96">
  <metadata
     id="metadata48">
    <rdf:RDF>
      <cc:Work
         rdf:about="">
        <dc:format>image/svg+xml</dc:format>
        <dc:type
           rdf:resource="http://purl.org/dc/dcmitype/StillImage" />
      </cc:Work>
    </rdf:RDF>
  </metadata>
  <defs
     id="defs46" />
  <sodipodi:namedview
     pagecolor="#ffffff"
     bordercolor="#666666"
     borderopacity="1"
     objecttolerance="10"
     gridtolerance="10"
     guidetolerance="10"
     inkscape:pageopacity="0"
     inkscape:pageshadow="2"
     inkscape:window-width="1920"
     inkscape:window-height="1027"
     id="namedview44"
     showgrid="false"
     inkscape:zoom="0.33522727"
     inkscape:cx="-179.79661"
     inkscape:cy="352"
     inkscape:window-x="-8"
     inkscape:window-y="-8"
     inkscape:window-maximized="1"
     inkscape:current-layer="Layer_1" />
  <g
     id="Layer_1">
    <path
       d="M173.5,539.5 C176.203,525.762 188.638,517.225 194.5,505.5 C208.966,476.567 233.413,421.458 270.781,436.336 C281.413,440.569 294.108,452.045 296.492,452.641 C299.537,453.402 334.65,490.047 338.309,481.339 C348.276,457.617 336.389,436.917 310.5,417.5 C285.757,398.943 257.263,398.167 265.748,355.743 C335.587,197.718 351.158,183.353 339.164,176.345 C317.703,163.805 285.27,232.424 272.819,257.326 C253.008,298.758 247.156,314.5 243.5,314.5 C242.009,314.5 244.833,311.833 245.5,310.5 C261.243,279.013 272.521,257.624 254.048,251.963 C222.005,242.143 215.152,300.297 215.152,300.062 C215.134,286.178 239.872,248.456 217.383,239.511 C199.925,232.567 183.562,304.51 185.844,288.914 C189.686,262.653 213.879,234.737 191.337,232.278 C173.178,230.297 155.236,303.621 147.842,339.754 C130.5,424.5 150.835,398.816 131.961,457.053 C128.273,468.434 101.968,496.316 95.049,510.155"
       fill-opacity="0"
       stroke="#000000"
       stroke-width="4"
       stroke-linecap="round"
       stroke-linejoin="round"
       id="path5" />
    <path
       d="M775.083,539.5 C772.38,525.762 759.945,517.225 754.083,505.5 C739.616,476.567 715.17,421.458 677.802,436.336 C667.169,440.569 654.475,452.045 652.091,452.641 C649.045,453.402 613.932,490.047 610.274,481.339 C600.307,457.617 612.194,436.917 638.083,417.5 C662.825,398.943 691.32,398.167 682.835,355.743 C612.995,197.718 597.425,183.353 609.418,176.345 C630.88,163.805 663.313,232.424 675.764,257.326 C695.575,298.758 701.427,314.5 705.083,314.5 C706.573,314.5 703.749,311.833 703.083,310.5 C687.339,279.013 676.062,257.624 694.534,251.963 C726.578,242.143 733.431,300.297 733.431,300.062 C733.448,286.178 708.711,248.456 731.2,239.511 C748.658,232.567 765.02,304.51 762.739,288.914 C758.897,262.653 734.703,234.737 757.246,232.278 C775.405,230.297 793.346,303.621 800.741,339.754 C818.083,424.5 797.748,398.816 816.622,457.053 C820.31,468.434 846.615,496.316 853.534,510.155"
       fill-opacity="0"
       stroke="#000000"
       stroke-width="4"
       stroke-linecap="round"
       stroke-linejoin="round"
       id="path7" />
    <path
       d="M579.164,211.78 C504.611,211.586 430.366,210.434 355.773,210.434"
       fill-opacity="0"
       stroke="#000000"
       stroke-width="4"
       stroke-linecap="round"
       stroke-linejoin="round"
       id="path9" />
    <path
       d="M593.967,210.434 C601.732,274.147 596.659,339.816 596.659,404.219"
       fill-opacity="0"
       stroke="#000000"
       stroke-width="4"
       stroke-linecap="round"
       stroke-linejoin="round"
       id="path11" />
    <path
       d="M583.201,412.293 C503.938,408.8 424.242,405.565 345.007,405.565"
       fill-opacity="0"
       stroke="#000000"
       stroke-width="4"
       stroke-linecap="round"
       stroke-linejoin="round"
       id="path13" />
    <path
       d="M350.39,211.78 C351.837,252.639 349.044,293.614 349.044,334.241 C349.044,345.447 351.239,359.603 349.044,370.576 C347.146,380.068 345.007,388.82 345.007,398.836"
       fill-opacity="0"
       stroke="#000000"
       stroke-width="4"
       stroke-linecap="round"
       stroke-linejoin="round"
       id="path15" />
    <path
       d="M575.127,345.007 C555.122,339.824 504.383,349.238 487.654,343.661 C482.085,341.805 476.516,339.624 470.16,339.624"
       fill-opacity="0"
       stroke="#000000"
       stroke-width="4"
       stroke-linecap="round"
       stroke-linejoin="round"
       id="path17" />
    <path
       d="M468.814,328.858 C468.207,318.294 470.16,308.405 470.16,297.906"
       fill-opacity="0"
       stroke="#000000"
       stroke-width="4"
       stroke-linecap="round"
       stroke-linejoin="round"
       id="path19" />
    <path
       d="M456.703,292.523 C443.245,292.523 429.788,292.523 416.331,292.523"
       fill-opacity="0"
       stroke="#000000"
       stroke-width="4"
       stroke-linecap="round"
       stroke-linejoin="round"
       id="path21" />
    <path
       d="M423.059,300.598 C421.46,312.267 416.331,323.813 416.331,335.587"
       fill-opacity="0"
       stroke="#000000"
       stroke-width="4"
       stroke-linecap="round"
       stroke-linejoin="round"
       id="path23" />
    <path
       d="M463.431,335.587 C446.834,335.587 430.237,335.587 413.639,335.587"
       fill-opacity="0"
       stroke="#000000"
       stroke-width="4"
       stroke-linecap="round"
       stroke-linejoin="round"
       id="path25" />
    <path
       d="M398.836,336.933 C382.709,330.826 372.122,351.163 357.119,343.661"
       fill-opacity="0"
       stroke="#000000"
       stroke-width="4"
       stroke-linecap="round"
       stroke-linejoin="round"
       id="path27" />
    <path
       d="M478.234,292.523 C476.263,285.396 453.218,247.93 448.628,249.46 C447.279,249.91 415.829,283.605 409.602,289.832"
       fill-opacity="0"
       stroke="#000000"
       stroke-width="4"
       stroke-linecap="round"
       stroke-linejoin="round"
       id="path29" />
    <path
       d="M530.718,330.204 C533.03,323.679 536.101,317.984 536.101,311.364"
       fill-opacity="0"
       stroke="#000000"
       stroke-width="4"
       stroke-linecap="round"
       stroke-linejoin="round"
       id="path31" />
    <path
       d="M556.287,327.512 C553.909,320.001 553.595,312.556 553.595,304.635"
       fill-opacity="0"
       stroke="#000000"
       stroke-width="4"
       stroke-linecap="round"
       stroke-linejoin="round"
       id="path33" />
    <path
       d="M533.409,307.327 C518.082,309.576 526.305,298.501 522.643,291.178 C519.984,285.858 504.825,294.242 502.457,287.141 C498.497,275.261 508.427,270.698 515.915,266.955 C516.609,266.608 515.538,262.513 515.915,261.572 C517.183,258.4 518.424,255.207 519.952,252.152 C522.413,247.229 532.619,245.159 537.446,246.769 C540.871,247.91 537.135,253.186 538.792,254.843 C540.061,256.112 550.963,249.499 554.941,252.152 C560.238,255.683 557.077,268.3 550.904,268.3 C546.842,268.3 561.199,266.013 563.015,269.646 C564.205,272.026 565.193,280.607 564.361,283.103 C563.85,284.638 560.324,284.177 560.324,285.795 C560.324,286.154 573.886,284.659 575.127,287.141 C579.29,295.467 570.491,299.252 564.361,299.252"
       fill-opacity="0"
       stroke="#000000"
       stroke-width="4"
       stroke-linecap="round"
       stroke-linejoin="round"
       id="path35" />
    <text
       transform="matrix(1, 0, 0, 1, 472, 560.576)"
       id="text39"
       style="fill:#8f123e;fill-opacity:1;"
       inkscape:export-xdpi="96"
       inkscape:export-ydpi="96">
      <tspan
         x="-104.117"
         y="23.5"
         font-family="ArialRoundedMTBold"
         font-size="65"
         fill="#FF0000"
         id="tspan37"
         style="fill:#8f123e;fill-opacity:1;-inkscape-font-specification:'msg Text Heavy, ';font-family:'msg Text Heavy';font-weight:normal;font-style:normal;font-stretch:normal;font-variant:normal;font-size:74.66666667px">Resize</tspan>
    </text>
  </g>
</svg>
