<?xml version="1.0" encoding="UTF-8" standalone="no"?>
<svg
   xmlns:dc="http://purl.org/dc/elements/1.1/"
   xmlns:cc="http://creativecommons.org/ns#"
   xmlns:rdf="http://www.w3.org/1999/02/22-rdf-syntax-ns#"
   xmlns:svg="http://www.w3.org/2000/svg"
   xmlns="http://www.w3.org/2000/svg"
   xmlns:sodipodi="http://sodipodi.sourceforge.net/DTD/sodipodi-0.dtd"
   xmlns:inkscape="http://www.inkscape.org/namespaces/inkscape"
   version="1.1"
   x="0"
   y="0"
   width="944"
   height="704"
   viewBox="0, 0, 944, 704"
   id="svg10245"
   sodipodi:docname="IFI.svg"
   inkscape:export-filename="X:\07-Administration\04-CoC\CoC-ML\intern\Präsentationen\Fachliche Szenarien\ML Poster Sketches\ML Poster\IFI.png"
   inkscape:export-xdpi="96"
   inkscape:export-ydpi="96"
   inkscape:version="0.92.1 r15371">
  <metadata
     id="metadata10251">
    <rdf:RDF>
      <cc:Work
         rdf:about="">
        <dc:format>image/svg+xml</dc:format>
        <dc:type
           rdf:resource="http://purl.org/dc/dcmitype/StillImage" />
      </cc:Work>
    </rdf:RDF>
  </metadata>
  <defs
     id="defs10249" />
  <sodipodi:namedview
     pagecolor="#ffffff"
     bordercolor="#666666"
     borderopacity="1"
     objecttolerance="10"
     gridtolerance="10"
     guidetolerance="10"
     inkscape:pageopacity="0"
     inkscape:pageshadow="2"
     inkscape:window-width="1920"
     inkscape:window-height="1027"
     id="namedview10247"
     showgrid="false"
     inkscape:zoom="1"
     inkscape:cx="424.72067"
     inkscape:cy="584.20672"
     inkscape:window-x="-8"
     inkscape:window-y="-8"
     inkscape:window-maximized="1"
     inkscape:current-layer="Layer_1" />
  <g
     id="Layer_1">
    <g
       id="g10190"
       style="stroke:#8f123e;stroke-opacity:1">
      <path
         d="M270,454.5 C250.394,454.5 234.5,388.238 234.5,306.5 C234.5,224.762 250.394,158.5 270,158.5 C289.606,158.5 305.5,224.762 305.5,306.5 C305.5,388.238 289.606,454.5 270,454.5 z"
         fill="#FFFFFF"
         id="path10186"
         style="stroke:#8f123e;stroke-opacity:1" />
      <path
         d="M270,454.5 C250.394,454.5 234.5,388.238 234.5,306.5 C234.5,224.762 250.394,158.5 270,158.5 C289.606,158.5 305.5,224.762 305.5,306.5 C305.5,388.238 289.606,454.5 270,454.5 z"
         fill-opacity="0"
         stroke="#FF0000"
         stroke-width="4"
         id="path10188"
         style="stroke:#8f123e;stroke-opacity:1" />
    </g>
    <path
       d="M274.254,160.239 C338.308,188.525 404.511,236.966 473.178,254.132"
       fill-opacity="0"
       stroke="#FF0000"
       stroke-width="4"
       stroke-linecap="round"
       stroke-linejoin="round"
       id="path10192"
       style="stroke:#8f123e;stroke-opacity:1" />
    <path
       d="M274.254,452.912 C339.198,424.959 403.738,378.395 473.178,361.035"
       fill-opacity="0"
       stroke="#FF0000"
       stroke-width="4"
       stroke-linecap="round"
       stroke-linejoin="round"
       id="path10194"
       style="stroke:#8f123e;stroke-opacity:1" />
    <path
       d="M473.178,254.132 C508.289,254.656 534.587,255.399 562.5,258.5"
       fill-opacity="0"
       stroke="#FF0000"
       stroke-width="4"
       stroke-linecap="round"
       stroke-linejoin="round"
       id="path10196"
       style="stroke:#8f123e;stroke-opacity:1" />
    <path
       d="M473.178,361.035 C502.224,361.282 531.539,365.752 560.692,365.752"
       fill-opacity="0"
       stroke="#FF0000"
       stroke-width="4"
       stroke-linecap="round"
       stroke-linejoin="round"
       id="path10198"
       style="stroke:#8f123e;stroke-opacity:1" />
    <path
       d="M564.884,258.325 C588.12,293.031 579.594,329.975 561.74,363.131"
       fill-opacity="0"
       stroke="#FF0000"
       stroke-width="4"
       stroke-linecap="round"
       stroke-linejoin="round"
       id="path10200"
       style="stroke:#8f123e;stroke-opacity:1" />
    <path
       d="M137.509,131.292 L137.051,131.506 L136.105,131.964 L135.135,132.454 L134.146,132.972 L133.14,133.518 L132.116,134.09 L131.075,134.688 L130.02,135.309 L128.41,136.283 L126.215,137.656 L123.966,139.109 L121.674,140.63 L119.344,142.212 L116.982,143.846 L114.593,145.523 L112.185,147.235 L108.55,149.848 L103.688,153.376 L100.059,156.015 L97.66,157.756 L95.284,159.471 L92.937,161.151 L90.627,162.79 L88.359,164.377 L86.138,165.904 L83.973,167.363 L81.868,168.745 L80.337,169.724 L79.339,170.347 L78.358,170.948 L77.397,171.523 L76.457,172.072 L75.538,172.594 L74.642,173.087 L73.769,173.55 L72.92,173.983 L72.096,174.384 L71.299,174.753 L70.528,175.087 L69.786,175.387 L69.073,175.651 L68.734,175.767 L68.734,175.767 C66.987,176.364 65.479,182.982 65.364,190.548 C65.25,198.114 66.574,203.763 68.321,203.166 C68.321,203.166 68.321,203.166 68.321,203.166 L68.701,203.035 L69.464,202.752 L70.251,202.434 L71.062,202.081 L71.896,201.695 L72.754,201.277 L73.634,200.828 L74.535,200.349 L75.457,199.842 L76.399,199.307 L77.362,198.744 L78.343,198.157 L79.342,197.545 L80.361,196.908 L81.919,195.912 L84.048,194.514 L86.234,193.041 L88.471,191.502 L90.754,189.905 L93.075,188.259 L95.43,186.572 L97.811,184.853 L100.213,183.111 L103.84,180.473 L108.691,176.953 L112.315,174.348 L114.711,172.645 L117.083,170.979 L119.427,169.358 L121.735,167.791 L124.001,166.286 L126.219,164.853 L128.384,163.498 L129.969,162.539 L131.004,161.93 L132.021,161.346 L133.02,160.787 L134,160.256 L134.96,159.752 L135.9,159.277 L136.821,158.831 L137.282,158.616 C137.282,158.616 137.282,158.616 137.282,158.616 C139.032,157.797 140.501,151.016 140.564,143.471 C140.626,135.926 139.259,130.473 137.509,131.292 L137.509,131.292"
       fill="#000000"
       id="path10202" />
    <path
       d="M191.627,205.959 L190.662,205.923 L188.742,205.81 L186.825,205.646 L184.906,205.433 L182.987,205.173 L181.068,204.869 L179.149,204.523 L177.23,204.137 L174.352,203.49 L170.525,202.511 L166.717,201.421 L162.928,200.236 L159.165,198.978 L155.43,197.666 L151.73,196.32 L148.07,194.961 L144.454,193.607 L140.886,192.278 L137.373,190.996 L134.774,190.076 L133.06,189.488 L132.208,189.201 L132.208,189.201 C130.499,188.626 128.805,194.294 128.423,201.861 C128.041,209.429 129.116,216.031 130.825,216.606 C130.825,216.606 130.825,216.606 130.825,216.606 L131.667,216.889 L133.367,217.473 L135.95,218.387 L139.454,219.666 L143.018,220.993 L146.638,222.348 L150.309,223.712 L154.026,225.064 L157.784,226.384 L161.578,227.652 L165.402,228.847 L169.253,229.949 L173.123,230.938 L176.035,231.593 L177.982,231.984 L179.932,232.335 L181.885,232.644 L183.838,232.909 L185.793,233.125 L187.748,233.292 L189.697,233.406 L190.665,233.442 C192.395,233.506 194.013,227.405 194.279,219.816 C194.545,212.227 193.357,206.023 191.627,205.959 L191.627,205.959"
       fill="#000000"
       id="path10204" />
    <path
       d="M214.464,153.913 L213.049,153.536 L210.161,152.84 L207.227,152.217 L204.261,151.655 L201.268,151.142 L198.257,150.665 L193.725,149.99 L187.685,149.098 L183.195,148.38 L180.236,147.856 L177.311,147.28 L174.429,146.641 L171.598,145.925 L169.516,145.333 L168.15,144.908 L167.475,144.687 L167.475,144.687 C165.766,144.127 164.074,149.808 163.695,157.377 C163.317,164.946 164.395,171.536 166.105,172.096 C166.105,172.096 166.105,172.096 166.105,172.096 L166.802,172.324 L168.204,172.76 L170.33,173.364 L173.205,174.09 L176.122,174.737 L179.074,175.318 L182.057,175.846 L186.564,176.566 L192.603,177.458 L197.122,178.131 L200.114,178.605 L203.081,179.113 L206.016,179.669 L208.911,180.283 L211.762,180.97 L213.18,181.347 C214.894,181.802 216.572,176.029 216.926,168.454 C217.281,160.878 216.178,154.368 214.464,153.913 L214.464,153.913"
       fill="#000000"
       id="path10206" />
    <path
       d="M161.802,275.802 L161.391,275.541 L160.523,275.005 L159.613,274.46 L158.664,273.907 L157.677,273.346 L156.654,272.778 L155.597,272.203 L154.506,271.62 L153.383,271.03 L152.23,270.433 L150.448,269.525 L147.977,268.289 L145.411,267.027 L142.762,265.74 L140.041,264.428 L137.261,263.093 L134.435,261.737 L130.133,259.665 L124.347,256.839 L120.024,254.679 L117.174,253.222 L114.361,251.751 L111.6,250.271 L108.903,248.781 L106.28,247.283 L103.748,245.779 L101.316,244.27 L98.998,242.759 L96.807,241.248 L94.757,239.738 L93.324,238.614 L92.423,237.869 L91.56,237.123 L90.742,236.381 L89.972,235.645 L89.251,234.914 L88.582,234.191 L87.967,233.479 L87.41,232.782 L86.915,232.104 L86.71,231.802 L86.71,231.802 C85.135,229.499 83.239,233.495 82.473,240.727 C81.708,247.959 82.365,255.688 83.939,257.99 C83.939,257.99 83.939,257.99 83.939,257.99 L84.254,258.447 L84.876,259.291 L85.54,260.116 L86.245,260.929 L86.993,261.734 L87.782,262.532 L88.613,263.326 L89.484,264.114 L90.394,264.9 L91.348,265.687 L92.843,266.86 L94.952,268.411 L97.192,269.956 L99.551,271.493 L102.017,273.022 L104.581,274.544 L107.227,276.056 L109.946,277.557 L112.726,279.048 L115.554,280.526 L118.419,281.991 L122.757,284.159 L128.553,286.99 L132.857,289.063 L135.683,290.418 L138.46,291.751 L141.175,293.06 L143.817,294.344 L146.372,295.601 L148.829,296.83 L150.601,297.733 L151.744,298.325 L152.855,298.909 L153.933,299.484 L154.976,300.052 L155.982,300.61 L156.949,301.159 L157.876,301.699 L158.762,302.23 L159.608,302.752 L160.021,303.014 C161.701,304.079 163.462,298.85 163.954,291.336 C164.446,283.821 163.482,276.867 161.802,275.802 L161.802,275.802"
       fill="#000000"
       id="path10208" />
    <path
       d="M80.809,285.748 L79.936,285.663 L78.183,285.563 L76.449,285.555 L74.743,285.634 L73.064,285.796 L71.411,286.036 L69.782,286.347 L68.176,286.725 L66.59,287.166 L65.024,287.662 L63.477,288.21 L61.946,288.804 L60.431,289.438 L58.931,290.108 L56.706,291.166 L53.773,292.652 L50.865,294.188 L47.975,295.73 L45.09,297.24 L42.197,298.676 L40.019,299.68 L38.56,300.306 L37.087,300.893 L35.603,301.436 L34.107,301.93 L32.595,302.37 L31.841,302.566 L31.841,302.566 C30.097,303.019 28.563,309.527 28.416,317.103 C28.268,324.679 29.563,330.454 31.308,330.001 C31.308,330.001 31.308,330.001 31.308,330.001 L32.107,329.792 L33.675,329.335 L35.225,328.823 L36.757,328.261 L38.274,327.656 L39.779,327.009 L42.011,325.98 L44.943,324.524 L47.843,323.006 L50.726,321.468 L53.602,319.948 L56.489,318.484 L58.67,317.447 L60.13,316.795 L61.6,316.179 L63.08,315.603 L64.574,315.073 L66.082,314.594 L67.606,314.17 L69.148,313.805 L70.71,313.505 L72.294,313.274 L73.9,313.117 L75.532,313.039 L77.19,313.045 L78.887,313.141 L79.762,313.225 C79.762,313.225 79.762,313.225 79.762,313.225 C81.489,313.391 83.123,307.374 83.412,299.786 C83.701,292.198 82.536,285.913 80.809,285.748 L80.809,285.748"
       fill="#000000"
       id="path10210" />
    <path
       d="M171.921,313.55 L169.949,314.53 L165.979,316.444 L161.967,318.303 L157.917,320.112 L153.831,321.873 L149.714,323.588 L145.571,325.262 L141.405,326.895 L137.22,328.491 L133.022,330.052 L126.707,332.335 L118.28,335.282 L109.876,338.136 L105.693,339.535 L105.693,339.535 C103.946,340.12 102.435,346.727 102.318,354.294 C102.201,361.861 103.522,367.522 105.269,366.938 C105.269,366.938 105.269,366.938 105.269,366.938 L109.458,365.537 L117.877,362.677 L126.322,359.724 L132.653,357.436 L136.864,355.869 L141.064,354.267 L145.247,352.627 L149.41,350.946 L153.548,349.221 L157.657,347.45 L161.732,345.63 L165.77,343.758 L169.763,341.834 L171.738,340.853 C171.738,340.853 171.738,340.853 171.738,340.853 C173.488,339.981 174.947,333.163 174.998,325.623 C175.049,318.084 173.671,312.679 171.921,313.55 L171.921,313.55"
       fill="#000000"
       id="path10212" />
    <path
       d="M198.391,390.729 L197.475,390.636 L195.662,390.419 L193.861,390.16 L192.07,389.863 L190.285,389.528 L188.508,389.158 L185.852,388.541 L182.332,387.616 L178.835,386.589 L175.354,385.478 L171.884,384.299 L166.688,382.438 L159.766,379.882 L154.558,377.982 L151.067,376.755 L147.562,375.582 L144.034,374.479 L142.256,373.959 L142.256,373.959 C140.544,373.456 138.86,379.188 138.494,386.76 C138.129,394.333 139.221,400.88 140.933,401.382 L142.684,401.895 L146.181,402.988 L149.664,404.153 L153.136,405.373 L158.337,407.271 L165.275,409.833 L170.495,411.702 L173.994,412.89 L177.511,414.013 L181.05,415.051 L184.613,415.987 L187.302,416.611 L189.108,416.987 L190.923,417.327 L192.747,417.63 L194.581,417.893 L196.42,418.113 L197.338,418.206 C199.064,418.38 200.7,412.37 200.991,404.783 C201.282,397.195 200.118,390.903 198.391,390.729 L198.391,390.729"
       fill="#000000"
       id="path10214" />
    <path
       d="M92.294,386.555 L90.551,387.047 L87.065,388.074 L83.589,389.15 L80.126,390.266 L74.95,391.995 L68.066,394.363 L61.187,396.741 L56.019,398.491 L52.568,399.626 L49.106,400.726 L45.632,401.784 L42.144,402.791 L38.64,403.738 L36.884,404.187 L36.884,404.187 C35.14,404.63 33.604,411.132 33.455,418.709 C33.306,426.285 34.598,432.068 36.343,431.624 C36.343,431.624 36.343,431.624 36.343,431.624 L38.121,431.17 L41.652,430.215 L45.163,429.201 L48.656,428.137 L52.134,427.032 L55.6,425.892 L60.777,424.139 L67.655,421.762 L74.524,419.398 L79.684,417.674 L83.128,416.564 L86.581,415.495 L90.049,414.473 L91.793,413.981 C91.793,413.981 91.793,413.981 91.793,413.981 C93.539,413.489 95.066,406.95 95.204,399.376 C95.342,391.803 94.039,386.063 92.294,386.555 L92.294,386.555"
       fill="#000000"
       id="path10216" />
    <path
       d="M256.535,304.271 L255.564,303.903 L253.583,303.188 L251.564,302.506 L249.515,301.854 L247.44,301.231 L245.34,300.631 L242.153,299.771 L237.842,298.678 L233.481,297.623 L229.092,296.581 L224.7,295.526 L220.325,294.433 L215.989,293.277 L212.779,292.354 L210.666,291.707 L208.572,291.029 L206.504,290.318 L204.464,289.571 L202.455,288.785 L200.48,287.957 L198.543,287.084 L196.645,286.163 L194.79,285.192 L192.982,284.167 L191.222,283.086 L190.37,282.529 L190.37,282.529 C188.692,281.432 186.927,286.63 186.428,294.139 C185.928,301.649 186.884,308.627 188.562,309.725 C188.562,309.725 188.562,309.725 188.562,309.725 L189.465,310.314 L191.288,311.432 L193.154,312.488 L195.06,313.485 L197.004,314.428 L198.984,315.319 L200.997,316.163 L203.039,316.961 L205.11,317.719 L207.206,318.439 L209.323,319.125 L211.464,319.78 L214.703,320.711 L219.061,321.873 L223.449,322.969 L227.846,324.025 L232.227,325.065 L236.573,326.116 L240.861,327.204 L244.027,328.058 L246.106,328.651 L248.157,329.268 L250.178,329.91 L252.166,330.581 L254.122,331.287 L255.094,331.655 C255.094,331.655 255.094,331.655 255.094,331.655 C256.799,332.301 258.504,326.695 258.901,319.133 C259.299,311.571 258.24,304.917 256.535,304.271 L256.535,304.271"
       fill="#000000"
       id="path10218" />
    <path
       d="M473.178,254.132 C486.391,288.285 485.13,327.571 473.178,361.035"
       fill-opacity="0"
       stroke="#FF0000"
       stroke-width="4"
       stroke-linecap="round"
       stroke-linejoin="round"
       id="path10220"
       style="stroke:#8f123e;stroke-opacity:1" />
    <path
       d="M685.046,226.108 L686.127,226.106 L688.218,226.111 L690.219,226.123 L692.135,226.143 L693.966,226.171 L695.717,226.206 L697.391,226.249 L698.991,226.298 L700.519,226.354 L701.978,226.416 L703.371,226.485 L704.701,226.559 L705.971,226.638 L707.184,226.723 L708.342,226.813 L709.45,226.907 L710.509,227.006 L711.523,227.109 L712.494,227.216 L713.426,227.327 L714.757,227.499 L716.421,227.738 L717.98,227.988 L719.457,228.245 L721.577,228.642 L724.341,229.179 L726.472,229.579 L727.966,229.841 L729.542,230.096 L731.224,230.342 L732.57,230.519 L733.513,230.633 L734.494,230.743 L735.517,230.849 L736.584,230.951 L737.7,231.049 L738.867,231.142 L740.087,231.23 L741.363,231.313 L742.699,231.39 L744.097,231.462 L745.561,231.528 L747.093,231.588 L748.695,231.641 L750.372,231.687 L752.126,231.726 L753.96,231.758 L755.876,231.782 L757.878,231.799 L759.969,231.807 L761.05,231.808 L761.05,231.808 C762.782,231.811 764.391,225.66 764.643,218.071 C764.895,210.481 763.694,204.327 761.962,204.324 C761.962,204.324 761.962,204.324 761.962,204.324 L760.886,204.323 L758.801,204.314 L756.806,204.298 L754.896,204.274 L753.069,204.242 L751.323,204.203 L749.654,204.157 L748.059,204.105 L746.536,204.045 L745.081,203.98 L743.693,203.909 L742.367,203.832 L741.1,203.75 L739.891,203.662 L738.736,203.57 L737.632,203.474 L736.576,203.373 L735.565,203.268 L734.596,203.159 L733.668,203.047 L732.342,202.873 L730.682,202.631 L729.125,202.379 L727.649,202.12 L725.527,201.721 L722.753,201.182 L720.615,200.783 L719.118,200.522 L717.538,200.269 L715.852,200.027 L714.505,199.852 L713.561,199.741 L712.578,199.632 L711.553,199.528 L710.482,199.428 L709.364,199.333 L708.194,199.242 L706.971,199.157 L705.691,199.077 L704.351,199.002 L702.949,198.934 L701.482,198.871 L699.946,198.815 L698.339,198.765 L696.657,198.723 L694.899,198.687 L693.06,198.659 L691.139,198.639 L689.131,198.626 L687.035,198.622 L685.954,198.623 C685.954,198.623 685.954,198.623 685.954,198.623 C684.221,198.626 682.613,204.781 682.363,212.37 C682.112,219.96 683.313,226.11 685.046,226.108 L685.046,226.108"
       fill="#FF0000"
       id="path10234"
       style="fill:#8f123e;fill-opacity:1" />
    <path
       d="M685.079,272.408 L686.088,272.362 L688.071,272.278 L690.007,272.206 L691.899,272.145 L693.748,272.094 L695.557,272.054 L697.325,272.024 L699.056,272.004 L700.749,271.993 L702.407,271.992 L704.032,271.999 L705.624,272.015 L707.956,272.053 L710.966,272.132 L713.873,272.238 L716.69,272.369 L719.429,272.524 L722.101,272.699 L724.718,272.891 L727.294,273.099 L731.105,273.433 L736.148,273.907 L741.237,274.395 L745.141,274.758 L747.808,274.993 L750.538,275.22 L753.345,275.436 L756.24,275.639 L759.235,275.825 L762.342,275.992 L764.753,276.104 L766.401,276.172 L768.084,276.233 L769.802,276.287 L771.558,276.335 L773.353,276.376 L775.187,276.409 L777.065,276.434 L778.985,276.451 L780.95,276.46 L781.951,276.461 L781.951,276.461 C783.683,276.465 785.292,270.315 785.544,262.726 C785.796,255.136 784.596,248.981 782.864,248.977 L781.868,248.976 L779.909,248.967 L777.995,248.95 L776.125,248.925 L774.296,248.892 L772.508,248.851 L770.758,248.804 L769.047,248.75 L767.371,248.689 L765.73,248.622 L763.33,248.51 L760.235,248.344 L757.251,248.158 L754.366,247.956 L751.567,247.741 L748.844,247.515 L746.184,247.28 L742.284,246.918 L737.194,246.429 L732.141,245.954 L728.319,245.619 L725.734,245.411 L723.104,245.218 L720.419,245.042 L717.668,244.887 L714.836,244.755 L711.914,244.648 L708.891,244.569 L706.549,244.531 L704.949,244.515 L703.317,244.508 L701.651,244.509 L699.95,244.52 L698.212,244.54 L696.436,244.57 L694.62,244.611 L692.763,244.661 L690.864,244.723 L688.921,244.795 L686.933,244.879 L685.921,244.926 C685.921,244.926 685.921,244.926 685.921,244.926 C684.186,245.007 682.591,251.224 682.358,258.814 C682.125,266.403 683.343,272.489 685.079,272.408 L685.079,272.408"
       fill="#FF0000"
       id="path10236"
       style="fill:#8f123e;fill-opacity:1" />
    <path
       d="M685.013,319.291 L689.237,319.485 L697.675,319.855 L706.1,320.196 L714.52,320.499 L722.939,320.757 L731.365,320.962 L739.803,321.106 L748.259,321.182 L752.498,321.192 L752.498,321.192 C754.231,321.197 755.84,315.049 756.092,307.459 C756.344,299.87 755.144,293.713 753.412,293.708 C753.412,293.708 753.412,293.708 753.412,293.708 L749.183,293.698 L740.738,293.622 L732.31,293.478 L723.894,293.274 L715.482,293.016 L707.069,292.713 L698.648,292.373 L690.213,292.003 L685.987,291.809 C685.987,291.809 685.987,291.809 685.987,291.809 C684.257,291.731 682.637,297.82 682.368,305.409 C682.099,312.998 683.283,319.213 685.013,319.291 L685.013,319.291"
       fill="#FF0000"
       id="path10238"
       style="fill:#8f123e;fill-opacity:1" />
    <path
       d="M685.057,365.349 L688.437,365.294 L695.165,365.233 L701.858,365.23 L708.523,365.277 L715.164,365.368 L721.786,365.493 L731.696,365.73 L744.891,366.097 L758.099,366.464 L768.04,366.703 L774.693,366.83 L781.372,366.922 L788.082,366.972 L791.451,366.979 L791.451,366.979 C793.184,366.983 794.792,360.834 795.045,353.245 C795.297,345.655 794.097,339.499 792.364,339.495 L789.003,339.488 L782.302,339.438 L775.632,339.346 L768.985,339.219 L759.05,338.981 L745.841,338.613 L732.642,338.247 L722.724,338.01 L716.093,337.884 L709.443,337.793 L702.768,337.746 L696.063,337.749 L689.325,337.81 L685.943,337.865 C685.943,337.865 685.943,337.865 685.943,337.865 C684.209,337.894 682.605,344.071 682.361,351.66 C682.116,359.25 683.324,365.378 685.057,365.349 L685.057,365.349"
       fill="#FF0000"
       id="path10240"
       style="fill:#8f123e;fill-opacity:1" />
    <path
       d="M685.085,417.561 L685.967,417.512 L687.688,417.427 L689.357,417.356 L690.974,417.301 L692.543,417.261 L694.065,417.234 L695.541,417.221 L696.974,417.221 L698.364,417.233 L699.715,417.258 L701.027,417.295 L702.302,417.342 L703.541,417.401 L704.747,417.47 L705.922,417.549 L707.066,417.637 L708.732,417.786 L710.863,418.014 L712.904,418.271 L714.869,418.555 L716.771,418.861 L718.627,419.186 L721.353,419.703 L724.947,420.425 L727.672,420.977 L729.53,421.343 L731.435,421.702 L733.402,422.053 L735.442,422.389 L737.57,422.709 L739.797,423.008 L741.544,423.216 L742.747,423.347 L743.98,423.47 L745.249,423.585 L746.553,423.692 L747.894,423.79 L749.275,423.88 L750.696,423.959 L752.161,424.029 L753.669,424.088 L755.222,424.136 L756.825,424.173 L758.475,424.198 L760.177,424.211 L761.049,424.212 L761.049,424.212 C762.781,424.217 764.39,418.068 764.643,410.479 C764.895,402.889 763.695,396.733 761.962,396.728 C761.962,396.728 761.962,396.728 761.962,396.728 L761.099,396.727 L759.408,396.714 L757.768,396.689 L756.178,396.653 L754.635,396.605 L753.139,396.546 L751.688,396.477 L750.278,396.398 L748.91,396.31 L747.581,396.213 L746.289,396.107 L745.034,395.993 L743.812,395.871 L742.624,395.742 L740.899,395.537 L738.694,395.241 L736.587,394.925 L734.565,394.591 L732.614,394.244 L730.72,393.886 L728.87,393.522 L726.142,392.97 L722.532,392.244 L719.787,391.724 L717.911,391.396 L715.984,391.086 L713.994,390.799 L711.927,390.538 L709.77,390.308 L708.087,390.157 L706.929,390.068 L705.74,389.988 L704.52,389.918 L703.266,389.859 L701.977,389.811 L700.652,389.774 L699.289,389.749 L697.885,389.737 L696.44,389.737 L694.95,389.75 L693.417,389.777 L691.836,389.818 L690.207,389.874 L688.528,389.944 L686.799,390.03 L685.915,390.079 C684.179,390.176 682.586,396.407 682.357,403.996 C682.128,411.585 683.35,417.658 685.085,417.561 L685.085,417.561"
       fill="#FF0000"
       id="path10242"
       style="fill:#8f123e;fill-opacity:1" />
    <text
       xml:space="preserve"
       style="font-style:normal;font-variant:normal;font-weight:normal;font-stretch:normal;font-size:40px;line-height:1.25;font-family:'msg Text Heavy';-inkscape-font-specification:'msg Text Heavy, ';letter-spacing:0px;word-spacing:0px;fill:#000000;fill-opacity:1;stroke:none"
       x="636"
       y="219"
       id="text10798"><tspan
         sodipodi:role="line"
         id="tspan10796"
         x="636"
         y="219"
         style="fill:#8f123e;fill-opacity:1">1.</tspan><tspan
         sodipodi:role="line"
         x="636"
         y="269"
         id="tspan10800"
         style="fill:#8f123e;fill-opacity:1">2.</tspan><tspan
         sodipodi:role="line"
         x="636"
         y="319"
         id="tspan10802"
         style="fill:#8f123e;fill-opacity:1">3.</tspan><tspan
         sodipodi:role="line"
         x="636"
         y="369"
         id="tspan10804"
         style="fill:#8f123e;fill-opacity:1">4.</tspan><tspan
         sodipodi:role="line"
         x="636"
         y="419"
         id="tspan10808"
         style="fill:#8f123e;fill-opacity:1">5.</tspan></text>
  </g>
</svg>
