<?xml version="1.0" encoding="UTF-8" standalone="no"?>
<svg
   xmlns:dc="http://purl.org/dc/elements/1.1/"
   xmlns:cc="http://creativecommons.org/ns#"
   xmlns:rdf="http://www.w3.org/1999/02/22-rdf-syntax-ns#"
   xmlns:svg="http://www.w3.org/2000/svg"
   xmlns="http://www.w3.org/2000/svg"
   xmlns:sodipodi="http://sodipodi.sourceforge.net/DTD/sodipodi-0.dtd"
   xmlns:inkscape="http://www.inkscape.org/namespaces/inkscape"
   version="1.1"
   x="0"
   y="0"
   width="944"
   height="704"
   viewBox="0, 0, 944, 704"
   id="svg6111"
   sodipodi:docname="KRE 2.svg"
   inkscape:export-filename="X:\07-Administration\04-CoC\CoC-ML\intern\Präsentationen\Fachliche Szenarien\ML Poster Sketches\ML Poster\KRE 2.png"
   inkscape:export-xdpi="96"
   inkscape:export-ydpi="96"
   inkscape:version="0.92.1 r15371">
  <metadata
     id="metadata6117">
    <rdf:RDF>
      <cc:Work
         rdf:about="">
        <dc:format>image/svg+xml</dc:format>
        <dc:type
           rdf:resource="http://purl.org/dc/dcmitype/StillImage" />
      </cc:Work>
    </rdf:RDF>
  </metadata>
  <defs
     id="defs6115" />
  <sodipodi:namedview
     pagecolor="#ffffff"
     bordercolor="#666666"
     borderopacity="1"
     objecttolerance="10"
     gridtolerance="10"
     guidetolerance="10"
     inkscape:pageopacity="0"
     inkscape:pageshadow="2"
     inkscape:window-width="1920"
     inkscape:window-height="1027"
     id="namedview6113"
     showgrid="false"
     inkscape:zoom="0.94816591"
     inkscape:cx="394.43561"
     inkscape:cy="510.1392"
     inkscape:window-x="-8"
     inkscape:window-y="-8"
     inkscape:window-maximized="1"
     inkscape:current-layer="Layer_2" />
  <g
     id="Background" />
  <g
     id="Layer_1">
    <path
       d="M467.182,161.207 L467.182,200.752"
       fill-opacity="0"
       stroke="#FF0000"
       stroke-width="4"
       id="path6005"
       style="stroke:#8f123e;stroke-opacity:1" />
    <path
       d="M663.278,198.239 L58.328,200.752"
       fill-opacity="0"
       stroke="#FF0000"
       stroke-width="4"
       id="path6007"
       style="stroke:#8f123e;stroke-opacity:1" />
    <path
       d="M661.326,197.504 L662.169,273.246"
       fill-opacity="0"
       stroke="#FF0000"
       stroke-width="4"
       id="path6009"
       style="stroke:#8f123e;stroke-opacity:1" />
    <path
       d="M663.278,271.443 L688.596,271.443"
       fill-opacity="0"
       stroke="#FF0000"
       stroke-width="4"
       id="path6011"
       style="stroke:#8f123e;stroke-opacity:1" />
    <path
       d="M354.713,199.411 L355.767,473.106"
       fill-opacity="0"
       stroke="#FF0000"
       stroke-width="4"
       id="path6013"
       style="stroke:#8f123e;stroke-opacity:1" />
    <path
       d="M357.005,470.774 L394.037,470.997"
       fill-opacity="0"
       stroke="#FF0000"
       stroke-width="4"
       id="path6015"
       style="stroke:#8f123e;stroke-opacity:1" />
    <path
       d="M392.639,375.077 L357.005,375.077"
       fill-opacity="0"
       stroke="#FF0000"
       stroke-width="4"
       id="path6017"
       style="stroke:#8f123e;stroke-opacity:1" />
    <path
       d="M394.038,282.456 L354.713,282.232"
       fill-opacity="0"
       stroke="#FF0000"
       stroke-width="4"
       id="path6019"
       style="stroke:#8f123e;stroke-opacity:1" />
    <path
       d="M60.41,200.752 L60.285,475.85"
       fill-opacity="0"
       stroke="#FF0000"
       stroke-width="4"
       id="path6021"
       style="stroke:#8f123e;stroke-opacity:1" />
    <path
       d="M87.524,275.917 L60.285,275.917"
       fill-opacity="0"
       stroke="#FF0000"
       stroke-width="4"
       id="path6023"
       style="stroke:#8f123e;stroke-opacity:1" />
    <path
       d="M91.1,377.744 L60.285,377.744"
       fill-opacity="0"
       stroke="#FF0000"
       stroke-width="4"
       id="path6025"
       style="stroke:#8f123e;stroke-opacity:1" />
    <path
       d="M88.155,473.715 L60.916,473.715"
       fill-opacity="0"
       stroke="#FF0000"
       stroke-width="4"
       id="path6027"
       style="stroke:#8f123e;stroke-opacity:1" />
  </g>
  <g
     id="Layer_2">
    <path
       d="M477.973,86.909 C310.697,87.241 302.154,82.01 292.229,88.627 C280.746,96.284 283.106,111.181 282.692,117.695 C281.865,130.723 280.435,141.055 291.757,150.098 C299.237,156.072 363.197,153.439 383.295,154.037 C463.455,156.424 489.075,157.345 502.904,156.902 C627.134,156.843 643.949,160.757 655.005,149.917 C663.735,141.358 662.627,127.286 662.783,120.78 C662.967,113.098 663.318,98.098 656.307,92.569 C648.326,86.275 602.563,86.909 586.603,86.909 C549.799,86.909 512.995,86.909 476.192,86.909"
       fill-opacity="0"
       stroke="#000000"
       stroke-width="4"
       stroke-linecap="round"
       stroke-linejoin="round"
       id="path6030" />
    <path
       d="M198.341,245.728 C105.411,246.038 100.665,241.147 95.151,247.334 C88.772,254.492 90.083,268.421 89.853,274.511 C89.393,286.693 88.599,296.353 94.889,304.808 C99.044,310.394 134.577,307.931 145.743,308.491 C190.276,310.722 204.509,311.583 212.192,311.169 C281.208,311.114 290.549,314.774 296.691,304.639 C301.541,296.636 300.926,283.479 301.012,277.396 C301.115,270.214 301.31,256.189 297.415,251.02 C292.981,245.135 267.557,245.728 258.691,245.728 C238.244,245.728 217.798,245.728 197.352,245.728"
       fill-opacity="0"
       stroke="#000000"
       stroke-width="4"
       stroke-linecap="round"
       stroke-linejoin="round"
       id="path6032" />
    <path
       d="M192.26,343.191 C285.191,343.501 289.936,338.61 295.45,344.797 C301.83,351.955 300.519,365.884 300.749,371.974 C301.208,384.155 302.003,393.816 295.713,402.271 C291.557,407.857 256.024,405.394 244.858,405.954 C200.326,408.185 186.092,409.046 178.41,408.632 C109.394,408.577 100.052,412.237 93.91,402.101 C89.06,394.099 89.676,380.941 89.589,374.859 C89.487,367.677 89.292,353.652 93.187,348.483 C97.62,342.598 123.044,343.191 131.911,343.191 C152.357,343.191 172.804,343.191 193.25,343.191"
       fill-opacity="0"
       stroke="#000000"
       stroke-width="4"
       stroke-linecap="round"
       stroke-linejoin="round"
       id="path6034" />
    <path
       d="M198.341,445.191 C105.411,445.501 100.665,440.61 95.151,446.797 C88.772,453.955 90.083,467.884 89.853,473.974 C89.394,486.155 88.599,495.816 94.889,504.271 C99.044,509.857 134.577,507.394 145.743,507.954 C190.276,510.185 204.509,511.046 212.192,510.632 C281.208,510.577 290.549,514.237 296.691,504.101 C301.541,496.099 300.926,482.942 301.012,476.859 C301.115,469.677 301.31,455.652 297.415,450.483 C292.981,444.598 267.557,445.191 258.691,445.191 C238.244,445.191 217.798,445.191 197.352,445.191"
       fill-opacity="0"
       stroke="#000000"
       stroke-width="4"
       stroke-linecap="round"
       stroke-linejoin="round"
       id="path6036" />
    <path
       d="M502.829,345.459 C409.899,345.77 405.153,340.878 399.64,347.065 C393.26,354.224 394.571,368.153 394.341,374.243 C393.882,386.424 393.087,396.084 399.377,404.539 C403.533,410.125 439.066,407.663 450.231,408.222 C494.764,410.454 508.997,411.315 516.68,410.9 C585.696,410.846 595.037,414.505 601.18,404.37 C606.03,396.367 605.414,383.21 605.501,377.128 C605.603,369.945 605.798,355.921 601.903,350.751 C597.469,344.867 572.046,345.459 563.179,345.459 C542.733,345.459 522.286,345.459 501.84,345.459"
       fill-opacity="0"
       stroke="#000000"
       stroke-width="4"
       stroke-linecap="round"
       stroke-linejoin="round"
       id="path6038" />
    <path
       d="M502.829,312.494 C409.899,312.183 405.153,317.075 399.64,310.888 C393.26,303.729 394.571,289.8 394.341,283.71 C393.882,271.529 393.087,261.869 399.377,253.413 C403.533,247.828 439.065,250.29 450.231,249.731 C494.764,247.499 508.997,246.638 516.68,247.053 C585.696,247.107 595.037,243.448 601.18,253.583 C606.029,261.586 605.414,274.743 605.501,280.825 C605.603,288.008 605.798,302.032 601.903,307.202 C597.469,313.086 572.046,312.494 563.179,312.494 C542.732,312.494 522.286,312.494 501.84,312.494"
       fill-opacity="0"
       stroke="#000000"
       stroke-width="4"
       stroke-linecap="round"
       stroke-linejoin="round"
       id="path6040" />
    <path
       d="M797.839,245.728 C704.909,246.038 700.163,241.147 694.649,247.334 C688.27,254.492 689.58,268.422 689.351,274.512 C688.891,286.693 688.096,296.353 694.386,304.808 C698.542,310.394 734.075,307.931 745.241,308.491 C789.774,310.723 804.007,311.583 811.689,311.169 C880.705,311.114 890.047,314.774 896.189,304.639 C901.039,296.636 900.424,283.479 900.51,277.396 C900.612,270.214 900.807,256.189 896.912,251.02 C892.479,245.135 867.055,245.728 858.188,245.728 C837.742,245.728 817.296,245.728 796.849,245.728"
       fill-opacity="0"
       stroke="#000000"
       stroke-width="4"
       stroke-linecap="round"
       stroke-linejoin="round"
       id="path6042" />
    <path
       d="M496.749,447.459 C589.679,447.77 594.425,442.878 599.938,449.065 C606.318,456.224 605.007,470.153 605.237,476.243 C605.696,488.424 606.491,498.084 600.201,506.54 C596.045,512.125 560.512,509.663 549.347,510.222 C504.814,512.454 490.58,513.315 482.898,512.9 C413.882,512.846 404.54,516.505 398.398,506.37 C393.548,498.367 394.164,485.21 394.077,479.128 C393.975,471.945 393.78,457.921 397.675,452.751 C402.108,446.867 427.532,447.459 436.399,447.459 C456.845,447.459 477.292,447.459 497.738,447.459"
       fill-opacity="0"
       stroke="#000000"
       stroke-width="4"
       stroke-linecap="round"
       stroke-linejoin="round"
       id="path6044" />
    <path
       d="m 167.93435,295.39434 3.738,-0.094 7.466,-0.133 7.459,-0.065 7.454,-0.007 7.449,0.044 7.446,0.085 11.162,0.19 14.872,0.322 14.863,0.34 14.858,0.293 11.144,0.148 7.431,0.049 3.716,0.007 v 0 c 2.426,0.007 4.678,-8.601 5.032,-19.226 0.353,-10.625 -1.327,-19.245 -3.752,-19.252 l -3.707,-0.006 -7.417,-0.049 -11.132,-0.148 -14.852,-0.293 -14.865,-0.341 -14.881,-0.322 -11.174,-0.189 -7.456,-0.086 -7.463,-0.044 -7.47,0.007 -7.476,0.066 -7.482,0.132 -3.741,0.094 c -2.428,0.063 -4.669,8.727 -5.007,19.352 -0.337,10.625 1.357,19.188 3.785,19.126 v 0"
       id="path6046"
       inkscape:connector-curvature="0"
       style="fill:#000000" />
    <path
       d="m 172.23967,389.966 3.481,0.274 6.972,0.507 6.972,0.453 6.97,0.402 6.97,0.355 6.974,0.309 6.977,0.268 6.982,0.228 6.989,0.191 6.998,0.158 7.008,0.126 7.019,0.099 10.555,0.101 14.128,0.063 7.093,0.007 v 0 c 2.425,0.004 4.677,-8.606 5.03,-19.231 0.353,-10.625 -1.327,-19.243 -3.753,-19.247 0,0 0,0 0,0 l -7.086,-0.007 -14.118,-0.063 -10.545,-0.101 -7.011,-0.098 -7,-0.127 -6.988,-0.157 -6.978,-0.191 -6.972,-0.228 -6.964,-0.266 -6.96,-0.309 -6.958,-0.354 -6.955,-0.402 -6.956,-0.452 -6.959,-0.505 -3.487,-0.274 c -2.419,-0.187 -4.7,8.273 -5.094,18.897 -0.395,10.624 1.247,19.387 3.666,19.574 v 0"
       id="path6048"
       inkscape:connector-curvature="0"
       style="fill:#000000" />
    <path
       d="m 173.24801,493.97666 h 34.781 34.782 v 0 c 2.426,0.003 4.678,-8.608 5.03,-19.234 0.353,-10.625 -1.328,-19.241 -3.754,-19.243 0,0 0,0 0,0 h -34.782 -34.785 c 0,0 0,0 0,0 -2.426,0.002 -4.677,8.618 -5.029,19.243 -0.351,10.625 1.331,19.237 3.757,19.234 v 0"
       id="path6050"
       inkscape:connector-curvature="0"
       style="fill:#000000" />
    <path
       d="m 484.89463,296.821 3.2384,0.184 6.48308,0.299 6.47412,0.215 6.46334,0.14 6.45168,0.075 6.44271,0.017 6.43104,-0.03 6.42297,-0.069 9.6147,-0.155 12.79299,-0.254 12.76429,-0.242 9.55368,-0.129 6.36106,-0.044 3.17738,-0.006 v 0 c 2.17688,-0.002 4.19673,-8.617 4.51169,-19.242 0.31495,-10.625 -1.19343,-19.237 -3.37031,-19.236 l -3.18636,0.006 -6.37002,0.044 -9.56356,0.13 -12.76428,0.242 -12.78671,0.254 -9.60753,0.154 -6.4122,0.069 -6.42117,0.03 -6.42655,-0.017 -6.43643,-0.074 -6.4445,-0.139 -6.45257,-0.215 -6.46604,-0.298 -3.24289,-0.184 c -2.1733,-0.121 -4.21019,8.395 -4.55117,19.02 -0.34009,10.624 1.14587,19.335 3.31916,19.455 v 0"
       id="path6052"
       inkscape:connector-curvature="0"
       style="fill:#000000;stroke-width:0.94726604" />
    <path
       d="M478.569,395.179 L481.981,395.181 L488.789,395.244 L495.583,395.379 L502.369,395.574 L509.146,395.819 L515.917,396.102 L526.067,396.577 L539.591,397.245 L553.118,397.875 L563.274,398.271 L570.054,398.478 L576.84,398.626 L583.635,398.706 L587.04,398.716 L587.04,398.716 C589.465,398.726 591.718,390.121 592.072,379.496 C592.426,368.87 590.747,360.249 588.322,360.239 C588.322,360.239 588.322,360.239 588.322,360.239 L584.934,360.228 L578.159,360.149 L571.39,360.001 L564.627,359.795 L554.486,359.4 L540.965,358.77 L527.436,358.101 L517.277,357.626 L510.494,357.342 L503.702,357.097 L496.899,356.902 L490.084,356.767 L483.258,356.703 L479.842,356.701 C477.416,356.703 475.165,365.318 474.813,375.943 C474.462,386.569 476.144,395.181 478.569,395.179 L478.569,395.179"
       fill="#000000"
       id="path6054" />
    <path
       d="M484.986,498.535 L487.013,498.428 L491.058,498.276 L495.104,498.196 L499.156,498.18 L503.212,498.218 L507.271,498.303 L513.365,498.496 L521.487,498.831 L529.596,499.189 L535.667,499.43 L539.708,499.56 L543.741,499.656 L547.765,499.708 L549.777,499.715 L549.777,499.715 C552.202,499.726 554.456,491.122 554.81,480.496 C555.164,469.871 553.485,461.249 551.06,461.238 L549.067,461.231 L545.064,461.179 L541.049,461.083 L537.022,460.953 L530.96,460.713 L522.844,460.355 L514.704,460.019 L508.589,459.825 L504.507,459.741 L500.424,459.702 L496.341,459.719 L492.258,459.799 L488.182,459.953 L486.152,460.06 C486.152,460.06 486.152,460.06 486.152,460.06 C483.722,460.19 481.491,468.908 481.169,479.532 C480.847,490.157 482.556,498.664 484.986,498.535 L484.986,498.535"
       fill="#000000"
       id="path6056" />
    <path
       d="m 775.91289,293.285 6.20094,0.04 12.39055,0.129 18.56787,0.275 24.74993,0.404 18.58016,0.236 12.40565,0.084 6.21133,0.011 v 0 c 2.29017,0.006 4.41791,-8.603 4.75128,-19.228 0.33338,-10.626 -1.25322,-19.244 -3.54433,-19.25 0,0 0,0 0,0 l -6.20189,-0.011 -12.39432,-0.084 -18.57354,-0.235 -24.75277,-0.405 -18.57543,-0.275 -12.3981,-0.129 -6.20566,-0.04 c -2.29017,-0.011 -4.41791,8.593 -4.75317,19.218 -0.33432,10.626 1.25133,19.249 3.5415,19.26 v 0"
       id="path6058"
       inkscape:connector-curvature="0"
       style="fill:#000000;stroke-width:0.97180319" />
    <path
       d="M382.617,137.077 L382.871,137.135 L383.437,137.254 L384.05,137.37 L384.705,137.482 L385.4,137.59 L386.136,137.695 L386.913,137.796 L387.731,137.895 L388.587,137.99 L389.482,138.082 L390.416,138.171 L391.388,138.258 L392.396,138.342 L393.442,138.423 L395.074,138.54 L397.373,138.687 L399.804,138.825 L402.363,138.954 L405.042,139.074 L407.836,139.187 L410.739,139.291 L413.744,139.389 L416.846,139.479 L420.04,139.563 L423.317,139.641 L426.674,139.714 L430.103,139.781 L433.599,139.844 L437.155,139.903 L440.765,139.957 L444.424,140.008 L449.989,140.079 L457.523,140.166 L465.14,140.247 L472.793,140.324 L480.432,140.402 L488.01,140.484 L493.622,140.55 L497.319,140.597 L500.973,140.647 L504.579,140.7 L508.128,140.757 L511.617,140.818 L515.039,140.883 L518.386,140.953 L521.655,141.029 L524.837,141.11 L527.928,141.198 L530.922,141.292 L533.811,141.393 L536.589,141.502 L539.251,141.618 L541.791,141.743 L544.201,141.876 L546.476,142.019 L548.09,142.131 L549.12,142.21 L550.112,142.29 L551.068,142.374 L551.983,142.459 L552.858,142.548 L553.693,142.638 L554.487,142.732 L555.238,142.828 L555.944,142.927 L556.606,143.028 L557.223,143.132 L557.793,143.238 L558.313,143.346 L558.784,143.456 L559.202,143.567 L559.565,143.678 L559.869,143.787 L560.107,143.89 L560.27,143.979 L560.282,143.992 L560.282,143.992 C562.636,145.462 565.098,138.123 565.782,127.6 C566.466,117.077 565.113,107.354 562.759,105.884 C562.759,105.884 562.759,105.884 562.759,105.884 L562.555,105.762 L562.21,105.587 L561.841,105.433 L561.439,105.291 L561,105.159 L560.521,105.032 L560,104.911 L559.437,104.795 L558.833,104.682 L558.186,104.574 L557.498,104.469 L556.768,104.367 L555.997,104.268 L555.186,104.173 L554.336,104.08 L553.445,103.99 L552.516,103.903 L551.551,103.819 L550.546,103.738 L549.505,103.659 L547.878,103.545 L545.587,103.402 L543.164,103.268 L540.614,103.142 L537.943,103.026 L535.155,102.917 L532.259,102.815 L529.261,102.721 L526.164,102.633 L522.977,102.552 L519.704,102.476 L516.352,102.406 L512.927,102.34 L509.436,102.279 L505.883,102.223 L502.276,102.17 L498.62,102.12 L494.921,102.073 L489.306,102.007 L481.728,101.925 L474.089,101.847 L466.437,101.769 L458.82,101.689 L451.291,101.602 L445.727,101.531 L442.071,101.48 L438.463,101.425 L434.91,101.367 L431.418,101.304 L427.993,101.237 L424.641,101.164 L421.368,101.086 L418.18,101.002 L415.084,100.912 L412.086,100.815 L409.192,100.711 L406.407,100.599 L403.739,100.479 L401.193,100.351 L398.775,100.214 L396.492,100.067 L394.871,99.951 L393.838,99.871 L392.841,99.788 L391.883,99.703 L390.963,99.615 L390.084,99.524 L389.245,99.431 L388.449,99.336 L387.695,99.238 L386.985,99.137 L386.319,99.033 L385.701,98.928 L385.129,98.82 L384.601,98.709 L384.342,98.65 C381.938,98.102 379.602,106.26 379.126,116.871 C378.65,127.483 380.213,136.529 382.617,137.077 L382.617,137.077"
       fill="#000000"
       id="path6060" />
    <text
       transform="matrix(1, 0, 0, 1, 343.459, 117.89)"
       id="text6064"
       style="fill:#8f123e;fill-opacity:1;">
      <tspan
         x="-29.485"
         y="22.847"
         font-family="ArialRoundedMTBold"
         font-size="65"
         fill="#FF0000"
         id="tspan6062"
         style="fill:#8f123e;fill-opacity:1;-inkscape-font-specification:'msg Text Heavy, ';font-family:'msg Text Heavy';font-weight:normal;font-style:normal;font-stretch:normal;font-variant:normal">0.</tspan>
    </text>
    <text
       transform="matrix(1, 0, 0, 1, 127.27, 274.034)"
       id="text6068">
      <tspan
         x="-34.155"
         y="14.5"
         font-family="ArialRoundedMTBold"
         font-size="40"
         kerning="-7"
         fill="#FF0000"
         id="tspan6066"
         style="-inkscape-font-specification:'msg Text Heavy, ';font-family:'msg Text Heavy';font-weight:normal;font-style:normal;font-stretch:normal;font-variant:normal;fill:#8f123e;fill-opacity:1">1.1.</tspan>
    </text>
    <text
       transform="matrix(1, 0, 0, 1, 130.916, 371.998)"
       id="text6076">
      <tspan
         x="-34.155"
         y="14.5"
         font-family="ArialRoundedMTBold"
         font-size="40"
         kerning="-7"
         fill="#FF0000"
         id="tspan6070"
         style="-inkscape-font-specification:'msg Text Heavy, ';font-family:'msg Text Heavy';font-weight:normal;font-style:normal;font-stretch:normal;font-variant:normal;fill:#8f123e;fill-opacity:1">1.2.</tspan>
    </text>
    <text
       transform="matrix(1, 0, 0, 1, 130.916, 473.221)"
       id="text6082">
      <tspan
         x="-34.155"
         y="14.5"
         font-family="ArialRoundedMTBold"
         font-size="40"
         kerning="-7"
         fill="#FF0000"
         id="tspan6078"
         style="fill:#8f123e;fill-opacity:1;-inkscape-font-specification:'msg Text Heavy, ';font-family:'msg Text Heavy';font-weight:normal;font-style:normal;font-stretch:normal;font-variant:normal">1.3.</tspan>
    </text>
    <text
       transform="matrix(1, 0, 0, 1, 443.415, 277.476)"
       id="text6088">
      <tspan
         x="-34.155"
         y="14.5"
         font-family="ArialRoundedMTBold"
         font-size="40"
         kerning="-2"
         fill="#FF0000"
         id="tspan6084"
         style="fill:#8f123e;fill-opacity:1;-inkscape-font-specification:'msg Text Heavy, ';font-family:'msg Text Heavy';font-weight:normal;font-style:normal;font-stretch:normal;font-variant:normal">2.1.</tspan>
    </text>
    <text
       transform="matrix(1, 0, 0, 1, 735.783, 273.984)"
       id="text6094">
      <tspan
         x="-34.155"
         y="14.5"
         font-family="ArialRoundedMTBold"
         font-size="40"
         kerning="-4"
         fill="#FF0000"
         id="tspan6090"
         style="fill:#8f123e;fill-opacity:1;-inkscape-font-specification:'msg Text Heavy, ';font-family:'msg Text Heavy';font-weight:normal;font-style:normal;font-stretch:normal;font-variant:normal">3.1.</tspan>
    </text>
    <text
       transform="matrix(1, 0, 0, 1, 437.477, 371.999)"
       id="text6102">
      <tspan
         x="-34.155"
         y="14.5"
         font-family="ArialRoundedMTBold"
         font-size="40"
         kerning="-2"
         fill="#FF0000"
         id="tspan6096"
         style="fill:#8f123e;fill-opacity:1;-inkscape-font-specification:'msg Text Heavy, ';font-family:'msg Text Heavy';font-weight:normal;font-style:normal;font-stretch:normal;font-variant:normal">2.2.</tspan>
    </text>
    <text
       transform="matrix(1, 0, 0, 1, 443.415, 476.347)"
       id="text6108">
      <tspan
         x="-34.155"
         y="14.5"
         font-family="ArialRoundedMTBold"
         font-size="40"
         kerning="-2"
         fill="#FF0000"
         id="tspan6104"
         style="fill:#8f123e;fill-opacity:1;-inkscape-font-specification:'msg Text Heavy, ';font-family:'msg Text Heavy';font-weight:normal;font-style:normal;font-stretch:normal;font-variant:normal">2.3.</tspan>
    </text>
  </g>
</svg>
