<?xml version="1.0" encoding="UTF-8" standalone="no"?>
<svg
   xmlns:dc="http://purl.org/dc/elements/1.1/"
   xmlns:cc="http://creativecommons.org/ns#"
   xmlns:rdf="http://www.w3.org/1999/02/22-rdf-syntax-ns#"
   xmlns:svg="http://www.w3.org/2000/svg"
   xmlns="http://www.w3.org/2000/svg"
   xmlns:sodipodi="http://sodipodi.sourceforge.net/DTD/sodipodi-0.dtd"
   xmlns:inkscape="http://www.inkscape.org/namespaces/inkscape"
   version="1.1"
   x="0"
   y="0"
   width="944"
   height="704"
   viewBox="0, 0, 944, 704"
   id="svg17768"
   sodipodi:docname="NCO.svg"
   inkscape:export-filename="X:\07-Administration\04-CoC\CoC-ML\intern\Präsentationen\Fachliche Szenarien\ML Poster Sketches\ML Poster\NCO.png"
   inkscape:export-xdpi="96"
   inkscape:export-ydpi="96"
   inkscape:version="0.92.1 r15371">
  <metadata
     id="metadata17774">
    <rdf:RDF>
      <cc:Work
         rdf:about="">
        <dc:format>image/svg+xml</dc:format>
        <dc:type
           rdf:resource="http://purl.org/dc/dcmitype/StillImage" />
      </cc:Work>
    </rdf:RDF>
  </metadata>
  <defs
     id="defs17772" />
  <sodipodi:namedview
     pagecolor="#ffffff"
     bordercolor="#666666"
     borderopacity="1"
     objecttolerance="10"
     gridtolerance="10"
     guidetolerance="10"
     inkscape:pageopacity="0"
     inkscape:pageshadow="2"
     inkscape:window-width="1920"
     inkscape:window-height="1027"
     id="namedview17770"
     showgrid="false"
     inkscape:zoom="0.94816591"
     inkscape:cx="407.70627"
     inkscape:cy="218.04301"
     inkscape:window-x="-8"
     inkscape:window-y="-8"
     inkscape:window-maximized="1"
     inkscape:current-layer="Layer_1" />
  <g
     id="Layer_1">
    <path
       d="M772.934,416.813 C673.295,427.171 614.44,409.854 585.784,424.181 C581.137,426.504 577.679,440.779 577.679,445.549 C580.288,584.529 574.087,602.797 590.205,613.542 C749.245,612.821 814.896,621.84 839.247,615.752 C848.858,613.35 851.036,599.179 851.036,590.701 C851.036,557.305 860.327,453.078 848.826,430.076 C839.798,412.02 785.277,416.076 770.724,416.076"
       fill-opacity="0"
       stroke="#000000"
       stroke-width="4"
       stroke-linecap="round"
       stroke-linejoin="round"
       id="path17567" />
    <path
       d="M823.752,592.294 C817.617,562.149 830.054,457.616 821.852,437.11"
       fill-opacity="0"
       stroke="#000000"
       stroke-width="4"
       stroke-linecap="round"
       stroke-linejoin="round"
       id="path17569" />
    <path
       d="M792.082,585.96 C797.497,544.078 779.656,477.359 795.249,438.377"
       fill-opacity="0"
       stroke="#000000"
       stroke-width="4"
       stroke-linecap="round"
       stroke-linejoin="round"
       id="path17571" />
    <path
       d="M766.112,580.259 C769.135,534.086 761.678,481.217 761.678,437.11"
       fill-opacity="0"
       stroke="#000000"
       stroke-width="4"
       stroke-linecap="round"
       stroke-linejoin="round"
       id="path17573" />
    <path
       d="M738.242,582.16 C736.641,544.588 742.939,506.723 737.609,469.414 C736.08,458.714 739.603,446.986 736.976,436.477"
       fill-opacity="0"
       stroke="#000000"
       stroke-width="4"
       stroke-linecap="round"
       stroke-linejoin="round"
       id="path17575" />
    <path
       d="M711.639,584.06 C716.348,535.945 709.739,488.4 709.739,440.277"
       fill-opacity="0"
       stroke="#000000"
       stroke-width="4"
       stroke-linecap="round"
       stroke-linejoin="round"
       id="path17577" />
    <path
       d="M677.436,585.96 C681.771,536.306 681.869,486.153 681.869,437.11"
       fill-opacity="0"
       stroke="#000000"
       stroke-width="4"
       stroke-linecap="round"
       stroke-linejoin="round"
       id="path17579" />
    <path
       d="M645.132,584.06 C642.201,535.275 650.833,486.266 650.833,438.377"
       fill-opacity="0"
       stroke="#000000"
       stroke-width="4"
       stroke-linecap="round"
       stroke-linejoin="round"
       id="path17581" />
    <path
       d="M610.928,582.159 C612.716,542.989 604.07,500.957 609.662,461.813 C610.694,454.584 612.829,447.66 612.829,440.277"
       fill-opacity="0"
       stroke="#000000"
       stroke-width="4"
       stroke-linecap="round"
       stroke-linejoin="round"
       id="path17583" />
    <path
       d="M578.478,440.274 C573.94,440.274 569.401,440.274 564.863,440.274"
       fill-opacity="0"
       stroke="#000000"
       stroke-width="4"
       stroke-linecap="round"
       stroke-linejoin="round"
       id="path17585" />
    <path
       d="M577.83,451.296 C573.576,451.245 569.697,450.788 565.511,450.323"
       fill-opacity="0"
       stroke="#000000"
       stroke-width="4"
       stroke-linecap="round"
       stroke-linejoin="round"
       id="path17587" />
    <path
       d="M564.863,432.818 C564.504,440.255 563.89,447.366 563.89,454.862"
       fill-opacity="0"
       stroke="#FF0000"
       stroke-width="4"
       stroke-linecap="round"
       stroke-linejoin="round"
       id="path17589"
       style="stroke:#8f123e;stroke-opacity:1" />
    <path
       d="M561.945,429.252 C551.679,427.73 540.198,431.791 530.177,428.928"
       fill-opacity="0"
       stroke="#FF0000"
       stroke-width="4"
       stroke-linecap="round"
       stroke-linejoin="round"
       id="path17591"
       style="stroke:#8f123e;stroke-opacity:1" />
    <path
       d="M529.853,431.197 C529.383,438.8 530.177,446.48 530.177,453.889"
       fill-opacity="0"
       stroke="#FF0000"
       stroke-width="4"
       stroke-linecap="round"
       stroke-linejoin="round"
       id="path17593"
       style="stroke:#8f123e;stroke-opacity:1" />
    <path
       d="M561.945,454.213 C551.502,453.023 541.128,452.592 530.501,452.592"
       fill-opacity="0"
       stroke="#FF0000"
       stroke-width="4"
       stroke-linecap="round"
       stroke-linejoin="round"
       id="path17595"
       style="stroke:#8f123e;stroke-opacity:1" />
    <path
       d="M459.906,489.909 C459.906,479.849 460.677,463.949 460.677,453.889 C460.677,447.349 459.486,437.11 452.845,437.11 C445.012,437.11 444.4,446.507 444.142,454.862 C442.553,506.225 443.33,509.772 443.33,520.478 C443.33,526.463 445.4,530.997 445.514,536.792 C445.702,546.415 439.115,552.46 441.508,557.939 C444.128,563.937 457.352,566.204 460.907,559.943 C464.947,552.829 458.721,546.415 457.591,537.06 C456.606,528.903 459.581,524.339 459.581,516.166 C459.581,511.106 459.667,493.846 460.084,488.84"
       fill-opacity="0"
       stroke="#000000"
       stroke-width="4"
       stroke-linecap="round"
       stroke-linejoin="round"
       id="path17597" />
    <path
       d="M453.484,479.111 C451.536,496.307 454.333,515.296 451.518,532.183 C450.717,536.991 452.461,541.894 450.339,546.139 C449.174,548.468 446.441,553.99 449.159,556.164 C449.955,556.8 451.156,556.557 452.108,556.557 C457.171,556.557 452.868,545.89 451.715,543.584"
       fill-opacity="0"
       stroke="#000000"
       stroke-width="4"
       stroke-linecap="round"
       stroke-linejoin="round"
       id="path17599" />
    <path
       d="M450.339,553.019 C450.339,550.922 450.339,548.826 450.339,546.729"
       fill-opacity="0"
       stroke="#000000"
       stroke-width="4"
       stroke-linecap="round"
       stroke-linejoin="round"
       id="path17601" />
    <path
       d="M451.911,554.395 C451.953,552.871 451.863,551.253 451.518,549.874"
       fill-opacity="0"
       stroke="#000000"
       stroke-width="4"
       stroke-linecap="round"
       stroke-linejoin="round"
       id="path17603" />
    <path
       d="M464.801,528.343 C467.396,528.343 469.99,528.343 472.584,528.343"
       fill-opacity="0"
       stroke="#000000"
       stroke-width="4"
       stroke-linecap="round"
       stroke-linejoin="round"
       id="path17605" />
    <path
       d="M464.801,512.756 C467.09,512.824 470.455,512.502 472.584,512.928"
       fill-opacity="0"
       stroke="#000000"
       stroke-width="4"
       stroke-linecap="round"
       stroke-linejoin="round"
       id="path17607" />
    <path
       d="M465.803,498.339 C468.422,498.339 471.04,498.339 473.659,498.339"
       fill-opacity="0"
       stroke="#000000"
       stroke-width="4"
       stroke-linecap="round"
       stroke-linejoin="round"
       id="path17609" />
    <path
       d="M465.803,481.934 C468.497,482.532 471.461,482.193 474.121,482.858"
       fill-opacity="0"
       stroke="#000000"
       stroke-width="4"
       stroke-linecap="round"
       stroke-linejoin="round"
       id="path17611" />
    <path
       d="M467.189,469.189 C470.5,469.12 471.129,469.36 474.352,469.36"
       fill-opacity="0"
       stroke="#000000"
       stroke-width="4"
       stroke-linecap="round"
       stroke-linejoin="round"
       id="path17613" />
    <path
       d="M467.189,454.9 C469.621,454.785 472.042,454.9 474.352,455.362"
       fill-opacity="0"
       stroke="#000000"
       stroke-width="4"
       stroke-linecap="round"
       stroke-linejoin="round"
       id="path17615"
       style="stroke:#8f123e;stroke-opacity:1" />
    <path
       d="M126.493,202.489 C223.701,204.186 321.295,205.501 418.605,205.501"
       fill-opacity="0"
       stroke="#000000"
       stroke-width="4"
       stroke-linecap="round"
       stroke-linejoin="round"
       id="path17617" />
    <path
       d="M415.374,195.863 C432.261,203.478 427.71,206.422 416.02,215.138"
       fill-opacity="0"
       stroke="#000000"
       stroke-width="4"
       stroke-linecap="round"
       stroke-linejoin="round"
       id="path17619" />
    <path
       d="M135.371,214.854 C141.986,164.528 134.645,111.693 142.302,61.734"
       fill-opacity="0"
       stroke="#000000"
       stroke-width="4"
       stroke-linecap="round"
       stroke-linejoin="round"
       id="path17621" />
    <path
       d="M155.473,68.195 C137.915,54.661 139.157,45.332 130.518,69.487"
       fill-opacity="0"
       stroke="#000000"
       stroke-width="4"
       stroke-linecap="round"
       stroke-linejoin="round"
       id="path17623" />
    <path
       d="M133.291,163.814 C149.24,162.618 166.344,165.48 181.813,161.876 C207.684,155.847 216.4,124.43 240.734,115.358 C272.361,103.567 344.831,110.19 381.449,110.19"
       fill-opacity="0"
       stroke="#000000"
       stroke-width="4"
       stroke-linecap="round"
       stroke-linejoin="round"
       id="path17625" />
    <path
       d="M132.988,147.315 C153.416,145.757 175.83,143.732 180.71,125.282 C186.348,103.965 182.404,45.152 217.238,45.152 C236.68,45.152 245.715,63.855 279.236,79.477 C301.232,89.727 355.851,88.522 378.631,87.876"
       fill-opacity="0"
       stroke="#FF0000"
       stroke-width="4"
       stroke-linecap="round"
       stroke-linejoin="round"
       id="path17627"
       style="stroke:#8f123e;stroke-opacity:1" />
    <path
       d="M334.438,256.51 C266.945,255.594 199.96,252.51 132.438,252.51"
       fill-opacity="0"
       stroke="#000000"
       stroke-width="4"
       stroke-linecap="round"
       stroke-linejoin="round"
       id="path17629" />
    <path
       d="M135.438,251.51 C141.373,297.639 135.438,344.413 135.438,390.51"
       fill-opacity="0"
       stroke="#000000"
       stroke-width="4"
       stroke-linecap="round"
       stroke-linejoin="round"
       id="path17631" />
    <path
       d="M138.438,389.51 C205.949,388.983 272.996,390.51 340.438,390.51"
       fill-opacity="0"
       stroke="#000000"
       stroke-width="4"
       stroke-linecap="round"
       stroke-linejoin="round"
       id="path17633" />
    <path
       d="M337.438,250.51 C342.976,299.258 345.909,344.273 340.438,393.51"
       fill-opacity="0"
       stroke="#000000"
       stroke-width="4"
       stroke-linecap="round"
       stroke-linejoin="round"
       id="path17635" />
    <path
       d="M138.197,377.635 C152.474,378.208 166.415,377.635 180.71,377.635"
       fill-opacity="0"
       stroke="#000000"
       stroke-width="4"
       stroke-linecap="round"
       stroke-linejoin="round"
       id="path17637" />
    <path
       d="M178.705,374.026 C178.856,365.83 177.902,358.139 177.902,349.962"
       fill-opacity="0"
       stroke="#000000"
       stroke-width="4"
       stroke-linecap="round"
       stroke-linejoin="round"
       id="path17639" />
    <path
       d="M177.902,346.754 C165.232,347.301 151.376,346.861 139.401,348.358"
       fill-opacity="0"
       stroke="#000000"
       stroke-width="4"
       stroke-linecap="round"
       stroke-linejoin="round"
       id="path17641" />
    <path
       d="M136.593,331.915 C150.19,329.215 164.37,329.909 178.303,329.909"
       fill-opacity="0"
       stroke="#000000"
       stroke-width="4"
       stroke-linecap="round"
       stroke-linejoin="round"
       id="path17643" />
    <path
       d="M178.705,326.3 C178.14,317.858 179.818,309.771 180.309,301.434"
       fill-opacity="0"
       stroke="#000000"
       stroke-width="4"
       stroke-linecap="round"
       stroke-linejoin="round"
       id="path17645" />
    <path
       d="M177.902,300.231 C164.249,302.112 150.496,299.533 136.994,301.033"
       fill-opacity="0"
       stroke="#000000"
       stroke-width="4"
       stroke-linecap="round"
       stroke-linejoin="round"
       id="path17647" />
    <path
       d="M324.289,377.234 C283.282,375.265 241.939,376.031 200.763,376.031"
       fill-opacity="0"
       stroke="#000000"
       stroke-width="4"
       stroke-linecap="round"
       stroke-linejoin="round"
       id="path17649" />
    <path
       d="M199.961,373.224 C199.942,368.615 201.058,364.301 201.565,359.989"
       fill-opacity="0"
       stroke="#000000"
       stroke-width="4"
       stroke-linecap="round"
       stroke-linejoin="round"
       id="path17651" />
    <path
       d="M201.966,357.582 C242.595,359.994 284.433,360.39 325.091,360.39"
       fill-opacity="0"
       stroke="#000000"
       stroke-width="4"
       stroke-linecap="round"
       stroke-linejoin="round"
       id="path17653" />
    <path
       d="M327.097,364.802 C327.097,368.277 327.097,371.753 327.097,375.229"
       fill-opacity="0"
       stroke="#000000"
       stroke-width="4"
       stroke-linecap="round"
       stroke-linejoin="round"
       id="path17655" />
    <path
       d="M337.925,296.621 C332.374,295.867 327.363,297.498 322.284,298.627"
       fill-opacity="0"
       stroke="#000000"
       stroke-width="4"
       stroke-linecap="round"
       stroke-linejoin="round"
       id="path17657" />
    <path
       d="M321.883,302.236 C322.479,314.819 324.004,327.979 325.091,339.936"
       fill-opacity="0"
       stroke="#000000"
       stroke-width="4"
       stroke-linecap="round"
       stroke-linejoin="round"
       id="path17659" />
    <path
       d="M328.3,344.348 C334.583,344.348 340.866,344.348 347.15,344.348"
       fill-opacity="0"
       stroke="#000000"
       stroke-width="4"
       stroke-linecap="round"
       stroke-linejoin="round"
       id="path17661" />
    <path
       d="M266.938,258.922 C267.285,269.058 266.319,279.061 265.735,289.001"
       fill-opacity="0"
       stroke="#000000"
       stroke-width="4"
       stroke-linecap="round"
       stroke-linejoin="round"
       id="path17663" />
    <path
       d="M263.328,289.803 C249.512,290.774 236.431,287.798 222.821,287.798"
       fill-opacity="0"
       stroke="#000000"
       stroke-width="4"
       stroke-linecap="round"
       stroke-linejoin="round"
       id="path17665" />
    <path
       d="M220.014,281.782 C220.014,272.023 220.014,262.264 220.014,252.505"
       fill-opacity="0"
       stroke="#000000"
       stroke-width="4"
       stroke-linecap="round"
       stroke-linejoin="round"
       id="path17667" />
    <path
       d="M205.576,258.12 C205.981,266.558 205.262,274.977 204.372,282.985"
       fill-opacity="0"
       stroke="#000000"
       stroke-width="4"
       stroke-linecap="round"
       stroke-linejoin="round"
       id="path17669" />
    <path
       d="M203.169,283.386 C198.922,283.383 194.875,283.102 190.736,282.584"
       fill-opacity="0"
       stroke="#000000"
       stroke-width="4"
       stroke-linecap="round"
       stroke-linejoin="round"
       id="path17671" />
    <path
       d="M188.731,281.381 C188.869,270.994 190.603,260.744 192.341,250.901"
       fill-opacity="0"
       stroke="#000000"
       stroke-width="4"
       stroke-linecap="round"
       stroke-linejoin="round"
       id="path17673" />
    <path
       d="M299.023,312.263 C287.156,311.782 275.243,311.862 263.328,311.862"
       fill-opacity="0"
       stroke="#FF0000"
       stroke-width="4"
       stroke-linecap="round"
       stroke-linejoin="round"
       id="path17675"
       style="stroke:#8f123e;stroke-opacity:1" />
    <path
       d="M302.632,310.912 C303.115,320.634 305.277,334.571 303.033,343.545"
       fill-opacity="0"
       stroke="#FF0000"
       stroke-width="4"
       stroke-linecap="round"
       stroke-linejoin="round"
       id="path17677"
       style="stroke:#8f123e;stroke-opacity:1" />
    <path
       d="M302.632,343.144 C288.955,342.586 275.427,341.139 261.724,341.139"
       fill-opacity="0"
       stroke="#FF0000"
       stroke-width="4"
       stroke-linecap="round"
       stroke-linejoin="round"
       id="path17679"
       style="stroke:#8f123e;stroke-opacity:1" />
    <path
       d="M261.724,341.139 C261.348,332.379 261.963,320.394 263.328,311.862"
       fill-opacity="0"
       stroke="#FF0000"
       stroke-width="4"
       stroke-linecap="round"
       stroke-linejoin="round"
       id="path17681"
       style="stroke:#8f123e;stroke-opacity:1" />
    <path
       d="M320.908,364.622 L320.908,364.622"
       fill-opacity="0"
       stroke="#000000"
       stroke-width="4"
       stroke-linecap="round"
       stroke-linejoin="round"
       id="path17683" />
    <path
       d="M313.004,364.071 L313.004,364.071"
       fill-opacity="0"
       stroke="#000000"
       stroke-width="4"
       stroke-linecap="round"
       stroke-linejoin="round"
       id="path17685" />
    <path
       d="M305.468,364.071 L305.468,364.071"
       fill-opacity="0"
       stroke="#000000"
       stroke-width="4"
       stroke-linecap="round"
       stroke-linejoin="round"
       id="path17687" />
    <path
       d="M297.747,364.255 L297.747,364.255"
       fill-opacity="0"
       stroke="#000000"
       stroke-width="4"
       stroke-linecap="round"
       stroke-linejoin="round"
       id="path17689" />
    <path
       d="M292.601,364.438 L292.601,364.438"
       fill-opacity="0"
       stroke="#000000"
       stroke-width="4"
       stroke-linecap="round"
       stroke-linejoin="round"
       id="path17691" />
    <path
       d="M284.697,364.255 L284.697,364.255"
       fill-opacity="0"
       stroke="#000000"
       stroke-width="4"
       stroke-linecap="round"
       stroke-linejoin="round"
       id="path17693" />
    <path
       d="M277.16,364.438 L277.16,364.438"
       fill-opacity="0"
       stroke="#000000"
       stroke-width="4"
       stroke-linecap="round"
       stroke-linejoin="round"
       id="path17695" />
    <path
       d="M269.44,364.071 L269.44,364.071"
       fill-opacity="0"
       stroke="#000000"
       stroke-width="4"
       stroke-linecap="round"
       stroke-linejoin="round"
       id="path17697" />
    <path
       d="M260.617,363.887 L260.617,363.887"
       fill-opacity="0"
       stroke="#000000"
       stroke-width="4"
       stroke-linecap="round"
       stroke-linejoin="round"
       id="path17699" />
    <path
       d="M252.162,363.887 L252.162,363.887"
       fill-opacity="0"
       stroke="#000000"
       stroke-width="4"
       stroke-linecap="round"
       stroke-linejoin="round"
       id="path17701" />
    <path
       d="M244.258,363.152 L244.258,363.152"
       fill-opacity="0"
       stroke="#000000"
       stroke-width="4"
       stroke-linecap="round"
       stroke-linejoin="round"
       id="path17703" />
    <path
       d="M234.148,362.233 L234.148,362.233"
       fill-opacity="0"
       stroke="#000000"
       stroke-width="4"
       stroke-linecap="round"
       stroke-linejoin="round"
       id="path17705" />
    <path
       d="M226.244,362.784 L226.244,362.784"
       fill-opacity="0"
       stroke="#000000"
       stroke-width="4"
       stroke-linecap="round"
       stroke-linejoin="round"
       id="path17707" />
    <path
       d="M217.789,363.336 L217.789,363.336"
       fill-opacity="0"
       stroke="#000000"
       stroke-width="4"
       stroke-linecap="round"
       stroke-linejoin="round"
       id="path17709" />
    <path
       d="M207.863,363.703 L207.863,363.703"
       fill-opacity="0"
       stroke="#000000"
       stroke-width="4"
       stroke-linecap="round"
       stroke-linejoin="round"
       id="path17711" />
    <path
       d="M321.643,370.688 L321.643,370.688"
       fill-opacity="0"
       stroke="#000000"
       stroke-width="4"
       stroke-linecap="round"
       stroke-linejoin="round"
       id="path17713" />
    <path
       d="M313.372,370.32 L313.372,370.32"
       fill-opacity="0"
       stroke="#000000"
       stroke-width="4"
       stroke-linecap="round"
       stroke-linejoin="round"
       id="path17715" />
    <path
       d="M304.181,370.32 L304.181,370.32"
       fill-opacity="0"
       stroke="#000000"
       stroke-width="4"
       stroke-linecap="round"
       stroke-linejoin="round"
       id="path17717" />
    <path
       d="M297.747,369.769 L297.747,369.769"
       fill-opacity="0"
       stroke="#000000"
       stroke-width="4"
       stroke-linecap="round"
       stroke-linejoin="round"
       id="path17719" />
    <path
       d="M291.682,369.953 L291.682,369.953"
       fill-opacity="0"
       stroke="#000000"
       stroke-width="4"
       stroke-linecap="round"
       stroke-linejoin="round"
       id="path17721" />
    <path
       d="M284.881,369.953 L284.881,369.953"
       fill-opacity="0"
       stroke="#000000"
       stroke-width="4"
       stroke-linecap="round"
       stroke-linejoin="round"
       id="path17723" />
    <path
       d="M277.16,370.137 L277.16,370.137"
       fill-opacity="0"
       stroke="#000000"
       stroke-width="4"
       stroke-linecap="round"
       stroke-linejoin="round"
       id="path17725" />
    <path
       d="M269.44,369.218 L269.44,369.218"
       fill-opacity="0"
       stroke="#000000"
       stroke-width="4"
       stroke-linecap="round"
       stroke-linejoin="round"
       id="path17727" />
    <path
       d="M261.72,369.769 L261.72,369.769"
       fill-opacity="0"
       stroke="#000000"
       stroke-width="4"
       stroke-linecap="round"
       stroke-linejoin="round"
       id="path17729" />
    <path
       d="M251.794,368.666 L251.794,368.666"
       fill-opacity="0"
       stroke="#000000"
       stroke-width="4"
       stroke-linecap="round"
       stroke-linejoin="round"
       id="path17731" />
    <path
       d="M242.052,369.401 L242.052,369.401"
       fill-opacity="0"
       stroke="#000000"
       stroke-width="4"
       stroke-linecap="round"
       stroke-linejoin="round"
       id="path17733" />
    <path
       d="M234.148,367.747 L234.148,367.747"
       fill-opacity="0"
       stroke="#000000"
       stroke-width="4"
       stroke-linecap="round"
       stroke-linejoin="round"
       id="path17735" />
    <path
       d="M225.877,368.298 L225.877,368.298"
       fill-opacity="0"
       stroke="#000000"
       stroke-width="4"
       stroke-linecap="round"
       stroke-linejoin="round"
       id="path17737" />
    <path
       d="M217.238,369.034 L217.238,369.034"
       fill-opacity="0"
       stroke="#000000"
       stroke-width="4"
       stroke-linecap="round"
       stroke-linejoin="round"
       id="path17739" />
    <path
       d="M206.944,369.769 L206.944,369.769"
       fill-opacity="0"
       stroke="#000000"
       stroke-width="4"
       stroke-linecap="round"
       stroke-linejoin="round"
       id="path17741" />
    <path
       d="M304.181,370.32 C305.364,376.399 306.833,384.679 313.299,387.912 C392.102,427.313 483.347,350.208 547.182,430.001"
       fill-opacity="0"
       stroke="#FF0000"
       stroke-width="4"
       stroke-linecap="round"
       stroke-linejoin="round"
       id="path17743"
       style="stroke:#8f123e;stroke-opacity:1" />
    <path
       d="M291.682,369.953 C304.862,446.811 431.219,399.925 477.83,409.913 C499.063,414.463 512.008,429.679 527.094,443.393"
       fill-opacity="0"
       stroke="#FF0000"
       stroke-width="4"
       stroke-linecap="round"
       stroke-linejoin="round"
       id="path17745"
       style="stroke:#8f123e;stroke-opacity:1" />
    <path
       d="M217.238,369.034 C236.034,458.795 380.116,433.239 440.984,481.934"
       fill-opacity="0"
       stroke="#000000"
       stroke-width="4"
       stroke-linecap="round"
       stroke-linejoin="round"
       id="path17747" />
    <path
       d="M206.944,369.034 C210.918,493.272 381.82,449.258 442.915,510.354"
       fill-opacity="0"
       stroke="#000000"
       stroke-width="4"
       stroke-linecap="round"
       stroke-linejoin="round"
       id="path17749" />
    <path
       d="M611.315,393.439 C607.121,372.493 626.193,358.327 617.023,335.402"
       fill-opacity="0"
       stroke="#FF0000"
       stroke-width="4"
       stroke-linecap="round"
       stroke-linejoin="round"
       id="path17755"
       style="stroke:#8f123e;stroke-opacity:1" />
    <path
       d="M657.935,386.779 C644.747,371.266 664.097,351.531 653.178,329.693"
       fill-opacity="0"
       stroke="#FF0000"
       stroke-width="4"
       stroke-linecap="round"
       stroke-linejoin="round"
       id="path17757"
       style="stroke:#8f123e;stroke-opacity:1" />
    <path
       d="M695.992,389.633 C693.349,371.348 696.943,357.204 696.943,340.159"
       fill-opacity="0"
       stroke="#FF0000"
       stroke-width="4"
       stroke-linecap="round"
       stroke-linejoin="round"
       id="path17759"
       style="stroke:#8f123e;stroke-opacity:1" />
    <path
       d="M725.486,386.779 C733.977,367.407 738.829,350.695 732.146,330.644"
       fill-opacity="0"
       stroke="#FF0000"
       stroke-width="4"
       stroke-linecap="round"
       stroke-linejoin="round"
       id="path17761"
       style="stroke:#8f123e;stroke-opacity:1" />
    <path
       d="M769.251,377.264 C756.686,357.418 771.154,345.944 771.154,325.887"
       fill-opacity="0"
       stroke="#FF0000"
       stroke-width="4"
       stroke-linecap="round"
       stroke-linejoin="round"
       id="path17763"
       style="stroke:#8f123e;stroke-opacity:1" />
    <path
       d="M799.697,393.439 C817.86,373.642 803.503,358.04 803.503,335.402"
       fill-opacity="0"
       stroke="#FF0000"
       stroke-width="4"
       stroke-linecap="round"
       stroke-linejoin="round"
       id="path17765"
       style="stroke:#8f123e;stroke-opacity:1" />
    <text
       xml:space="preserve"
       style="font-style:normal;font-variant:normal;font-weight:normal;font-stretch:normal;font-size:40px;line-height:1.25;font-family:'msg Text Heavy';-inkscape-font-specification:'msg Text Heavy, ';letter-spacing:0px;word-spacing:0px;fill:#000000;fill-opacity:1;stroke:none"
       x="105.15254"
       y="58.542374"
       id="text18321"><tspan
         sodipodi:role="line"
         id="tspan18319"
         x="105.15254"
         y="58.542374"
         style="font-size:26.66666667px">C<tspan
   style="font-size:18.66666667px;baseline-shift:super"
   id="tspan18323">o</tspan></tspan></text>
    <text
       xml:space="preserve"
       style="font-style:normal;font-variant:normal;font-weight:normal;font-stretch:normal;font-size:26.66666603px;line-height:1.25;font-family:'msg Text Heavy';-inkscape-font-specification:'msg Text Heavy, ';letter-spacing:0px;word-spacing:0px;fill:#000000;fill-opacity:1;stroke:none"
       x="426.57629"
       y="232.30508"
       id="text18327"><tspan
         sodipodi:role="line"
         id="tspan18325"
         x="426.57629"
         y="232.30508">t</tspan></text>
  </g>
</svg>
