<?xml version="1.0" encoding="UTF-8" standalone="no"?>
<svg
   xmlns:dc="http://purl.org/dc/elements/1.1/"
   xmlns:cc="http://creativecommons.org/ns#"
   xmlns:rdf="http://www.w3.org/1999/02/22-rdf-syntax-ns#"
   xmlns:svg="http://www.w3.org/2000/svg"
   xmlns="http://www.w3.org/2000/svg"
   xmlns:sodipodi="http://sodipodi.sourceforge.net/DTD/sodipodi-0.dtd"
   xmlns:inkscape="http://www.inkscape.org/namespaces/inkscape"
   version="1.1"
   x="0"
   y="0"
   width="944"
   height="704"
   viewBox="0, 0, 944, 704"
   id="svg14827"
   sodipodi:docname="NLG.svg"
   inkscape:export-filename="X:\07-Administration\04-CoC\CoC-ML\intern\Präsentationen\Fachliche Szenarien\ML Poster Sketches\ML Poster\NLG.png"
   inkscape:export-xdpi="96"
   inkscape:export-ydpi="96"
   inkscape:version="0.92.1 r15371">
  <metadata
     id="metadata14833">
    <rdf:RDF>
      <cc:Work
         rdf:about="">
        <dc:format>image/svg+xml</dc:format>
        <dc:type
           rdf:resource="http://purl.org/dc/dcmitype/StillImage" />
      </cc:Work>
    </rdf:RDF>
  </metadata>
  <defs
     id="defs14831" />
  <sodipodi:namedview
     pagecolor="#ffffff"
     bordercolor="#666666"
     borderopacity="1"
     objecttolerance="10"
     gridtolerance="10"
     guidetolerance="10"
     inkscape:pageopacity="0"
     inkscape:pageshadow="2"
     inkscape:window-width="1920"
     inkscape:window-height="1027"
     id="namedview14829"
     showgrid="false"
     inkscape:zoom="0.94816591"
     inkscape:cx="511.99477"
     inkscape:cy="297.88329"
     inkscape:window-x="-8"
     inkscape:window-y="-8"
     inkscape:window-maximized="1"
     inkscape:current-layer="Layer_1" />
  <g
     id="Layer_1">
    <path
       d="M441.934,345.883 C440.268,343.897 439.226,344.5 438.645,346.752 C431.996,372.531 429.805,332.107 426.087,332.552 C424.393,332.754 423.233,363.605 420.405,363.561 C416.535,363.501 410.452,310.84 406.679,310.84 C403.027,310.84 406.248,354.982 403.062,371.966 C402.66,374.11 400.241,385.351 396.484,384.138 C393.327,383.118 393.272,373.757 392.896,371.386 C389.579,306.705 389.571,280.392 385.174,280.36 C379.449,280.318 381.437,397.933 375.254,398.048 C369.219,398.161 365.643,334.615 360.304,334.581 C358.506,334.569 356.811,356.066 354.024,356.316 C351.024,356.585 351.49,327.518 342.363,325.307 C337.876,324.219 338.781,355.736 335.485,355.736 C333.111,355.736 328.285,332.267 325.618,332.262 C323.315,332.258 321.063,345.707 319.04,345.014 C317.496,344.484 314.09,336.74 312.443,336.74 C310.734,336.74 303.37,341.536 298.109,341.536"
       fill-opacity="0"
       stroke="#000000"
       stroke-width="4"
       stroke-linecap="round"
       stroke-linejoin="round"
       id="path14776" />
    <path
       d="M462.821,313.155 C464.094,348.468 457.667,394.914 474.911,412.157 C483.437,420.683 521.948,417.884 533.449,417.884 C551.416,417.884 575.963,423.052 591.351,412.794 C609.404,400.758 608.532,231.456 598.986,212.365 C585.388,185.169 558.264,189.307 534.085,188.07 C514.048,187.044 480.163,188.579 467.276,207.911 C456.342,224.31 462.821,290.838 462.821,310.988"
       fill-opacity="0"
       stroke="#000000"
       stroke-width="4"
       stroke-linecap="round"
       stroke-linejoin="round"
       id="path14778" />
    <path
       d="M533.296,400.67 C503.25,400.67 478.894,376.587 478.894,346.879 C478.894,317.171 503.25,293.087 533.296,293.087 C563.341,293.087 587.698,317.17 587.698,346.879 C587.698,376.587 563.341,400.67 533.296,400.67 z"
       fill-opacity="0"
       stroke="#000000"
       stroke-width="4"
       id="path14780" />
    <path
       d="M536.312,262.452 C524.189,262.452 514.36,252.702 514.36,240.674 C514.36,228.647 524.189,218.896 536.312,218.896 C548.436,218.896 558.264,228.647 558.264,240.674 C558.264,252.702 548.436,262.452 536.312,262.452 z"
       fill-opacity="0"
       stroke="#000000"
       stroke-width="4"
       id="path14782" />
    <path
       d="M625.303,314.497 C639.228,329.366 639.642,344.733 627.21,360.273"
       fill-opacity="0"
       stroke="#000000"
       stroke-width="4"
       stroke-linecap="round"
       stroke-linejoin="round"
       id="path14784" />
    <path
       d="M636.159,301.781 C654.904,324.911 655.463,348.815 638.726,372.989"
       fill-opacity="0"
       stroke="#000000"
       stroke-width="4"
       stroke-linecap="round"
       stroke-linejoin="round"
       id="path14786" />
    <path
       d="M643.143,291.53 C670.93,321.32 671.758,352.106 646.949,383.24"
       fill-opacity="0"
       stroke="#000000"
       stroke-width="4"
       stroke-linecap="round"
       stroke-linejoin="round"
       id="path14788" />
    <path
       d="M718.236,257.554 C720.397,248.4 718.465,240.221 713.957,232.096 C695.903,199.555 662.686,225.994 664.913,254.951 C666.293,272.884 690.309,287.322 697.53,303.502 C703.825,317.605 691.48,337.959 712.577,341.542"
       fill-opacity="0"
       stroke="#000000"
       stroke-width="4"
       stroke-linecap="round"
       stroke-linejoin="round"
       id="path14790" />
    <path
       d="M691.232,265.059 C672.887,257.825 694.834,220.869 706.074,253.398"
       fill-opacity="0"
       stroke="#000000"
       stroke-width="4"
       stroke-linecap="round"
       stroke-linejoin="round"
       id="path14792" />
    <path
       d="M712.285,344.277 C710.484,393.651 732.247,406.952 765.235,406.952"
       fill-opacity="0"
       stroke="#000000"
       stroke-width="4"
       stroke-linecap="round"
       stroke-linejoin="round"
       id="path14794" />
    <path
       d="M765.235,254.218 C755.682,253.619 737.952,261.544 731.616,267.88"
       fill-opacity="0"
       stroke="#000000"
       stroke-width="4"
       stroke-linecap="round"
       stroke-linejoin="round"
       id="path14796" />
    <path
       d="M733.297,266.112 C739.643,274.498 753.403,276.198 763.554,276.198"
       fill-opacity="0"
       stroke="#000000"
       stroke-width="4"
       stroke-linecap="round"
       stroke-linejoin="round"
       id="path14798" />
    <path
       d="M773.29,348.601 C763.542,350.79 752.79,344.87 743.613,344.87"
       fill-opacity="0"
       stroke="#000000"
       stroke-width="4"
       stroke-linecap="round"
       stroke-linejoin="round"
       id="path14800" />
    <path
       d="M740.861,332.51 C742.718,340.705 741.529,345.966 737.499,352.682"
       fill-opacity="0"
       stroke="#000000"
       stroke-width="4"
       stroke-linecap="round"
       stroke-linejoin="round"
       id="path14802" />
    <path
       d="M721.955,228.49 C719.542,225.641 716.073,223.647 713.311,221.575"
       fill-opacity="0"
       stroke="#000000"
       stroke-width="4"
       stroke-linecap="round"
       stroke-linejoin="round"
       id="path14804" />
    <path
       d="M723.684,216.389 C720.54,212.398 715.359,210.011 711.582,207.745"
       fill-opacity="0"
       stroke="#000000"
       stroke-width="4"
       stroke-linecap="round"
       stroke-linejoin="round"
       id="path14806" />
    <path
       d="M725.989,204.288 C721.606,200.788 716.924,197.927 712.159,195.067"
       fill-opacity="0"
       stroke="#000000"
       stroke-width="4"
       stroke-linecap="round"
       stroke-linejoin="round"
       id="path14808" />
    <path
       d="M740.971,200.254 C735.193,191.289 724.126,184.842 715.04,181.814"
       fill-opacity="0"
       stroke="#000000"
       stroke-width="4"
       stroke-linecap="round"
       stroke-linejoin="round"
       id="path14810" />
    <path
       d="M753.073,201.406 C753.956,190.2 746.451,184.584 738.666,178.356"
       fill-opacity="0"
       stroke="#000000"
       stroke-width="4"
       stroke-linecap="round"
       stroke-linejoin="round"
       id="path14812" />
    <path
       d="M765.75,201.406 C767.893,187.747 763.386,181.927 755.954,172.017"
       fill-opacity="0"
       stroke="#000000"
       stroke-width="4"
       stroke-linecap="round"
       stroke-linejoin="round"
       id="path14814" />
    <g
       id="g14824"
       transform="translate(10.546677,4.218671)">
      <path
         d="M 166.404,517.922 695.182,515.56"
         id="path14820"
         inkscape:connector-curvature="0"
         style="fill-opacity:0;stroke:#8f123e;stroke-width:4;stroke-opacity:1" />
      <path
         d="m 695.204,520.36 12.778,-4.857 -12.821,-4.743 z"
         id="path14822"
         inkscape:connector-curvature="0"
         style="fill:#8f123e;fill-opacity:1;stroke:#8f123e;stroke-width:4;stroke-opacity:1" />
    </g>
    <text
       xml:space="preserve"
       style="font-style:normal;font-variant:normal;font-weight:normal;font-stretch:normal;font-size:40px;line-height:1.25;font-family:'msg Text Heavy';-inkscape-font-specification:'msg Text Heavy, ';letter-spacing:0px;word-spacing:0px;fill:#000000;fill-opacity:1;stroke:none"
       x="191.69078"
       y="299.05963"
       id="text13422"><tspan
         sodipodi:role="line"
         id="tspan13420"
         x="191.69078"
         y="299.05963"
         style="text-align:center;text-anchor:middle;fill:#8f123e;fill-opacity:1">Your</tspan><tspan
         sodipodi:role="line"
         x="191.69078"
         y="349.05963"
         id="tspan13424"
         style="text-align:center;text-anchor:middle;fill:#8f123e;fill-opacity:1">balance is</tspan><tspan
         sodipodi:role="line"
         x="191.69078"
         y="399.05963"
         id="tspan13426"
         style="text-align:center;text-anchor:middle;fill:#8f123e;fill-opacity:1">5,109.55€</tspan></text>
    <text
       xml:space="preserve"
       style="font-style:normal;font-variant:normal;font-weight:normal;font-stretch:normal;font-size:40px;line-height:1.25;font-family:'msg Text Heavy';-inkscape-font-specification:'msg Text Heavy, ';letter-spacing:0px;word-spacing:0px;fill:#000000;fill-opacity:1;stroke:none"
       x="149.76282"
       y="471.97311"
       id="text15404"><tspan
         sodipodi:role="line"
         id="tspan15402"
         x="149.76282"
         y="471.97311"
         style="fill:#8f123e;fill-opacity:1">Text      -       Wave           -            Speech</tspan></text>
  </g>
</svg>
