<?xml version="1.0" encoding="UTF-8" standalone="no"?>
<svg
   xmlns:dc="http://purl.org/dc/elements/1.1/"
   xmlns:cc="http://creativecommons.org/ns#"
   xmlns:rdf="http://www.w3.org/1999/02/22-rdf-syntax-ns#"
   xmlns:svg="http://www.w3.org/2000/svg"
   xmlns="http://www.w3.org/2000/svg"
   xmlns:sodipodi="http://sodipodi.sourceforge.net/DTD/sodipodi-0.dtd"
   xmlns:inkscape="http://www.inkscape.org/namespaces/inkscape"
   version="1.1"
   x="0"
   y="0"
   width="944"
   height="704"
   viewBox="0, 0, 944, 704"
   id="svg66"
   sodipodi:docname="OBR.svg"
   inkscape:export-filename="X:\07-Administration\04-CoC\CoC-ML\intern\Präsentationen\Fachliche Szenarien\ML Poster Sketches\ML Poster\OBR.png"
   inkscape:export-xdpi="96"
   inkscape:export-ydpi="96"
   inkscape:version="0.92.1 r15371">
  <metadata
     id="metadata72">
    <rdf:RDF>
      <cc:Work
         rdf:about="">
        <dc:format>image/svg+xml</dc:format>
        <dc:type
           rdf:resource="http://purl.org/dc/dcmitype/StillImage" />
        <dc:title />
      </cc:Work>
    </rdf:RDF>
  </metadata>
  <defs
     id="defs70" />
  <sodipodi:namedview
     pagecolor="#ffffff"
     bordercolor="#666666"
     borderopacity="1"
     objecttolerance="10"
     gridtolerance="10"
     guidetolerance="10"
     inkscape:pageopacity="0"
     inkscape:pageshadow="2"
     inkscape:window-width="1920"
     inkscape:window-height="1027"
     id="namedview68"
     showgrid="false"
     inkscape:pagecheckerboard="true"
     inkscape:zoom="1.3409091"
     inkscape:cx="449.50718"
     inkscape:cy="342.84665"
     inkscape:window-x="-8"
     inkscape:window-y="-8"
     inkscape:window-maximized="1"
     inkscape:current-layer="Layer_1" />
  <g
     id="Layer_1">
    <path
       d="M173.174,153.517 C162.988,154.008 162.13,153.64 153.5,158.5 C147.164,162.068 143.127,177.127 148.5,182.5 C154.61,188.61 175.232,192.303 183.727,189.472 C194.615,185.842 203.328,168.361 193.5,160.5 C185.077,153.763 182.009,153.763 173.174,153.517"
       fill-opacity="0"
       stroke="#000000"
       stroke-width="4"
       stroke-linecap="round"
       stroke-linejoin="round"
       id="path5" />
    <path
       d="M198.321,169.734 C198.321,211.905 196.202,238.614 196.202,262.101 C198.412,291.107 200.84,296.542 202.134,301.718 C205.097,313.572 208.09,322.149 225.183,346.712 C240.363,368.526 236.83,385.049 236.046,407.122 C235.194,431.145 234.889,442.797 235.13,474.947 C235.179,481.493 234.213,508.406 234.213,516.192 C234.213,520.03 235.9,529.316 234.213,532.69 C228.972,536.098 227.61,538.376 226.881,539.105 C221.183,544.803 198.013,548.362 189.302,550.104 C163.011,550.104 157.738,550.94 153.556,550.104 C141.748,547.742 102.478,537.521 95.813,530.856 C91.906,526.949 93.98,490.61 93.98,483.196 C93.98,447.327 90.355,418.709 97.069,370.491 C102.407,332.154 132.908,329.573 140.259,296.243 C148.256,259.98 146.499,232.328 146.224,214.645 C145.908,194.325 145.908,188.136 145.908,173.149"
       fill-opacity="0"
       stroke="#000000"
       stroke-width="4"
       stroke-linecap="round"
       stroke-linejoin="round"
       id="path7" />
    <path
       d="M211.494,383.822 C199.792,383.666 178.867,387.179 165.677,385.619 C145.439,383.225 123.979,375.288 121.344,375.288"
       fill-opacity="0"
       stroke="#000000"
       stroke-width="4"
       stroke-linecap="round"
       stroke-linejoin="round"
       id="path9" />
    <path
       d="M212.392,384.122 C212.392,413.277 211.494,453.466 211.494,482.621"
       fill-opacity="0"
       stroke="#000000"
       stroke-width="4"
       stroke-linecap="round"
       stroke-linejoin="round"
       id="path11" />
    <path
       d="M210.851,484.483 C189.611,486.878 135.272,489.367 121.344,475.439"
       fill-opacity="0"
       stroke="#000000"
       stroke-width="4"
       stroke-linecap="round"
       stroke-linejoin="round"
       id="path13" />
    <path
       d="M121.344,375.288 C125.495,455.362 121.344,467.427 121.344,475.439"
       fill-opacity="0"
       stroke="#000000"
       stroke-width="4"
       stroke-linecap="round"
       stroke-linejoin="round"
       id="path15" />
    <path
       d="M684.846,409.536 C656.935,381.82 621.181,334.842 594.306,341.561 C577.718,345.708 524.15,378.093 527.951,408.261 C531.105,433.29 639.763,535.258 665.307,548.03 C694.943,562.848 744.771,506.379 742.976,484.84 C741.338,465.18 715.081,440.328 685.562,410.022"
       fill-opacity="0"
       stroke="#000000"
       stroke-width="4"
       stroke-linecap="round"
       stroke-linejoin="round"
       id="path17" />
    <path
       d="M721.161,477.005 C702.624,492.709 686.694,510.135 668.144,526.035"
       fill-opacity="0"
       stroke="#000000"
       stroke-width="4"
       stroke-linecap="round"
       stroke-linejoin="round"
       id="path19" />
    <path
       d="M661.368,524.042 C630.071,493.876 579.067,427.41 546.165,406.847"
       fill-opacity="0"
       stroke="#000000"
       stroke-width="4"
       stroke-linecap="round"
       stroke-linejoin="round"
       id="path21" />
    <path
       d="M720.364,471.424 C679.574,434.006 639.407,393.257 600.777,354.627"
       fill-opacity="0"
       stroke="#000000"
       stroke-width="4"
       stroke-linecap="round"
       stroke-linejoin="round"
       id="path23" />
    <path
       d="M597.189,352.634 C579.947,367.812 565.143,386.356 545.767,399.273"
       fill-opacity="0"
       stroke="#000000"
       stroke-width="4"
       stroke-linecap="round"
       stroke-linejoin="round"
       id="path25" />
    <path
       d="M713.986,504.908 C710.803,503.596 706.912,501.196 703.223,502.118 C693.629,504.516 699.388,520.417 710.398,517.664 C718.63,515.606 718.515,502.74 710,501.321"
       fill-opacity="0"
       stroke="#000000"
       stroke-width="4"
       stroke-linecap="round"
       stroke-linejoin="round"
       id="path27" />
    <path
       d="M448.382,255.406 C444.62,279.44 456.887,313.714 443.118,334.368 C432.401,350.443 411.706,362.181 393.108,366.83 C386.217,368.553 378.783,367.219 372.052,369.462 C367.564,370.958 361.742,368.311 357.136,369.462 C350.43,371.139 335.013,372.616 328.184,370.34 C316.591,366.475 306.302,355.942 300.108,346.651 C285.708,325.051 291.335,291.09 291.335,265.056"
       fill-opacity="0"
       stroke="#000000"
       stroke-width="4"
       stroke-linecap="round"
       stroke-linejoin="round"
       id="path29" />
    <path
       d="M387.844,369.462 C380.477,376.554 382.525,464.822 385.212,478.255 C386.873,486.559 391.532,495.63 395.74,501.943"
       fill-opacity="0"
       stroke="#000000"
       stroke-width="4"
       stroke-linecap="round"
       stroke-linejoin="round"
       id="path31" />
    <path
       d="M355.377,372.847 C362.743,379.939 360.695,468.208 358.009,481.64 C356.348,489.944 351.689,499.016 347.481,505.329"
       fill-opacity="0"
       stroke="#000000"
       stroke-width="4"
       stroke-linecap="round"
       stroke-linejoin="round"
       id="path33" />
    <path
       d="M398.574,477.82 C426.922,471.484 460.457,502.609 433.546,527.838 C411.489,548.516 358.754,546.966 334.323,534.751 C300.114,517.646 316.319,480.564 350.183,484.326"
       fill-opacity="0"
       stroke="#000000"
       stroke-width="4"
       stroke-linecap="round"
       stroke-linejoin="round"
       id="path35" />
    <path
       d="M445.522,254.489 C440.983,282.47 387.419,275.764 366.828,277.823 C345.331,279.973 302.357,288.427 290.421,264.555"
       fill-opacity="0"
       stroke="#000000"
       stroke-width="4"
       stroke-linecap="round"
       stroke-linejoin="round"
       id="path37" />
    <path
       d="M445.98,253.117 C429.308,234.185 296.931,239.075 289.963,259.979"
       fill-opacity="0"
       stroke="#000000"
       stroke-width="4"
       stroke-linecap="round"
       stroke-linejoin="round"
       id="path39" />
    <text
       id="text43"
       style="fill:#8f123e;fill-opacity:1"
       x="176.31392"
       y="106.57305">
      <tspan
         x="118.38392"
         y="121.07305"
         font-size="40"
         id="tspan41"
         style="font-style:normal;font-variant:normal;font-weight:normal;font-stretch:normal;font-size:40px;font-family:'msg Text Heavy';-inkscape-font-specification:'msg Text Heavy, ';fill:#8f123e;fill-opacity:1">bottle</tspan>
    </text>
    <text
       id="text47"
       style="fill:#8f123e;fill-opacity:1"
       inkscape:export-xdpi="96"
       inkscape:export-ydpi="96"
       x="366.56494"
       y="216.90852">
      <tspan
         x="278.30295"
         y="208.72552"
         font-size="40"
         id="tspan45"
         style="font-style:normal;font-variant:normal;font-weight:normal;font-stretch:normal;font-size:40px;font-family:'msg Text Heavy';-inkscape-font-specification:'msg Text Heavy, ';fill:#8f123e;fill-opacity:1">wine glass</tspan>
    </text>
    <text
       id="text51"
       x="613.02203"
       y="295.71951">
      <tspan
         x="514.86804"
         y="287.53653"
         font-size="40"
         id="tspan49"
         style="font-style:normal;font-variant:normal;font-weight:normal;font-stretch:normal;font-size:40px;font-family:'msg Text Heavy';-inkscape-font-specification:'msg Text Heavy, ';fill:#8f123e;fill-opacity:1">cell phone</tspan>
    </text>
    <path
       d="M793.843,550.476 C793.895,544.632 795.267,537.755 797.192,532.626 C817.749,477.838 802.178,405.772 807.239,342.225"
       fill-opacity="0"
       stroke="#000000"
       stroke-width="4"
       stroke-linecap="round"
       stroke-linejoin="round"
       id="path53" />
    <path
       d="M793.843,550.476 C793.584,544.79 792.955,537.725 792.101,532.263 C790.667,523.093 787.224,510.053 786.029,500.496 C781.981,468.134 785.539,404.469 788.478,371.574 C788.954,366.251 787.584,339.476 790.079,335.486 C790.292,335.146 807.214,336.235 807.239,336.275 C807.63,336.9 807.239,341.326 807.239,342.225"
       fill-opacity="0"
       stroke="#000000"
       stroke-width="4"
       stroke-linecap="round"
       stroke-linejoin="round"
       id="path55" />
    <path
       d="M787.403,347.907 C786.32,348.849 779.505,345.332 779.217,346.717 C778.677,349.307 780.333,391.019 780.333,398.482 C780.333,399.944 779.589,409.192 780.333,410.382 C784.584,417.179 786.373,400.359 781.822,395.507"
       fill-opacity="0"
       stroke="#000000"
       stroke-width="4"
       stroke-linecap="round"
       stroke-linejoin="round"
       id="path57" />
    <path
       d="M798.045,526.175 C795.705,528.169 793.515,527.487 791.183,526.368"
       fill-opacity="0"
       stroke="#000000"
       stroke-width="4"
       stroke-linecap="round"
       stroke-linejoin="round"
       id="path59" />
    <text
       transform="translate(795.31,317.437)"
       id="text63">
      <tspan
         x="-36.542999"
         y="-8.1829996"
         font-size="40"
         id="tspan61"
         style="font-size:40px;font-family:'msg Text Heavy';fill:#8f123e;fill-opacity:1;-inkscape-font-specification:'msg Text Heavy, ';font-weight:normal;font-style:normal;font-stretch:normal;font-variant:normal">pen</tspan>
    </text>
  </g>
</svg>
