<?xml version="1.0" encoding="UTF-8" standalone="no"?>
<svg
   xmlns:dc="http://purl.org/dc/elements/1.1/"
   xmlns:cc="http://creativecommons.org/ns#"
   xmlns:rdf="http://www.w3.org/1999/02/22-rdf-syntax-ns#"
   xmlns:svg="http://www.w3.org/2000/svg"
   xmlns="http://www.w3.org/2000/svg"
   xmlns:sodipodi="http://sodipodi.sourceforge.net/DTD/sodipodi-0.dtd"
   xmlns:inkscape="http://www.inkscape.org/namespaces/inkscape"
   version="1.1"
   x="0"
   y="0"
   width="944"
   height="704"
   viewBox="0, 0, 944, 704"
   id="svg10871"
   sodipodi:docname="OMI.svg"
   inkscape:export-filename="X:\07-Administration\04-CoC\CoC-ML\intern\Präsentationen\Fachliche Szenarien\ML Poster Sketches\ML Poster\OMI.png"
   inkscape:export-xdpi="96"
   inkscape:export-ydpi="96"
   inkscape:version="0.92.1 r15371">
  <metadata
     id="metadata10877">
    <rdf:RDF>
      <cc:Work
         rdf:about="">
        <dc:format>image/svg+xml</dc:format>
        <dc:type
           rdf:resource="http://purl.org/dc/dcmitype/StillImage" />
      </cc:Work>
    </rdf:RDF>
  </metadata>
  <defs
     id="defs10875" />
  <sodipodi:namedview
     pagecolor="#ffffff"
     bordercolor="#666666"
     borderopacity="1"
     objecttolerance="10"
     gridtolerance="10"
     guidetolerance="10"
     inkscape:pageopacity="0"
     inkscape:pageshadow="2"
     inkscape:window-width="1920"
     inkscape:window-height="1027"
     id="namedview10873"
     showgrid="false"
     inkscape:zoom="0.67045455"
     inkscape:cx="687.87629"
     inkscape:cy="722.30777"
     inkscape:window-x="-8"
     inkscape:window-y="-8"
     inkscape:window-maximized="1"
     inkscape:current-layer="Layer_2" />
  <g
     id="Layer_1">
    <path
       d="M405.122,333.361 C403.507,346.897 395.35,352.747 384.122,358.361 C364.661,368.091 276.359,363.206 251.259,363.206 C215.311,363.206 175.349,369.917 141.122,361.361 C131.996,359.079 118.355,356.672 112.122,348.361 C99.001,330.867 104.668,283.832 104.668,261.665 C104.668,240.529 103.072,217.777 114.122,199.361 C120.415,188.871 133.726,186.959 144.122,184.361 C170.883,177.67 378.954,178.777 400.122,189.361 C421.298,199.949 409.254,270.309 409.254,290.086"
       fill-opacity="0"
       stroke="#000000"
       stroke-width="4"
       stroke-linecap="round"
       stroke-linejoin="round"
       id="path10815" />
    <path
       d="M404.711,332.595 C425.622,336.638 448.838,333.567 469.61,334.866"
       fill-opacity="0"
       stroke="#000000"
       stroke-width="4"
       stroke-linecap="round"
       stroke-linejoin="round"
       id="path10817" />
    <path
       d="M469.61,334.866 C450.184,320.351 427.443,308.403 409.254,292.033"
       fill-opacity="0"
       stroke="#000000"
       stroke-width="4"
       stroke-linecap="round"
       stroke-linejoin="round"
       id="path10819" />
    <path
       d="M138.788,238.061 L140.913,238.009 L145.158,237.948 L149.401,237.941 L153.645,237.98 L160.014,238.109 L168.505,238.377 L176.995,238.702 L185.484,239.03 L193.972,239.304 L200.335,239.44 L204.577,239.485 L206.7,239.491 L206.7,239.491 C208.432,239.497 210.041,233.35 210.294,225.76 C210.547,218.171 209.347,212.013 207.614,212.007 L205.504,212.001 L201.277,211.956 L194.928,211.82 L186.451,211.547 L177.961,211.219 L169.461,210.893 L160.954,210.625 L154.569,210.496 L150.31,210.457 L146.049,210.464 L141.789,210.525 L139.661,210.577 C137.927,210.621 136.326,216.809 136.085,224.399 C135.844,231.988 137.054,238.105 138.788,238.061 L138.788,238.061"
       fill="#000000"
       id="path10821" />
    <path
       d="M246.067,239.49 L247.343,239.428 L249.885,239.34 L253.698,239.287 L258.779,239.335 L263.86,239.48 L268.944,239.68 L274.033,239.893 L279.127,240.077 L284.228,240.19 L286.786,240.206 L286.786,240.206 C288.518,240.218 290.128,234.076 290.382,226.486 C290.636,218.896 289.438,212.734 287.705,212.722 L285.171,212.706 L280.09,212.594 L275.003,212.41 L269.911,212.197 L264.811,211.996 L259.703,211.85 L254.588,211.803 L250.747,211.857 L248.184,211.946 L246.906,212.008 C245.17,212.093 243.576,218.315 243.344,225.904 C243.112,233.493 244.331,239.576 246.067,239.49 L246.067,239.49"
       fill="#000000"
       id="path10823" />
    <path
       d="M313.964,240.206 L340.421,240.206 L366.879,240.206 L366.879,240.206 C368.611,240.207 370.22,234.056 370.471,226.466 C370.723,218.877 369.522,212.723 367.789,212.722 C367.789,212.722 367.789,212.722 367.789,212.722 L341.332,212.722 L314.873,212.722 C313.14,212.723 311.532,218.876 311.281,226.466 C311.03,234.055 312.231,240.207 313.964,240.206 L313.964,240.206"
       fill="#000000"
       id="path10825" />
    <path
       d="M135.91,286.686 L186.679,286.686 L237.45,286.686 L237.45,286.686 C239.183,286.687 240.791,280.536 241.042,272.946 C241.294,265.356 240.093,259.203 238.361,259.202 C238.361,259.202 238.361,259.202 238.361,259.202 L187.59,259.202 L136.819,259.202 C135.086,259.203 133.478,265.356 133.227,272.946 C132.976,280.535 134.177,286.687 135.91,286.686 L135.91,286.686"
       fill="#000000"
       id="path10827" />
    <path
       d="M266.769,283.826 L286.075,283.826 L305.382,283.826 L305.382,283.826 C307.115,283.827 308.723,277.675 308.975,270.086 C309.226,262.496 308.025,256.343 306.293,256.342 C306.293,256.342 306.293,256.342 306.293,256.342 L286.986,256.342 L267.678,256.342 C265.945,256.343 264.337,262.496 264.086,270.086 C263.835,277.675 265.036,283.827 266.769,283.826 L266.769,283.826"
       fill="#000000"
       id="path10829" />
    <path
       d="M341.834,284.541 L346.036,284.645 L354.434,284.879 L362.833,285.097 L369.139,285.212 L373.349,285.251 L375.458,285.256 L375.458,285.256 C377.19,285.262 378.799,279.114 379.052,271.525 C379.304,263.935 378.105,257.778 376.372,257.772 L374.274,257.767 L370.076,257.728 L363.781,257.613 L355.384,257.396 L346.983,257.161 L342.778,257.057 C341.047,257.016 339.432,263.135 339.172,270.724 C338.911,278.313 340.103,284.499 341.834,284.541 L341.834,284.541"
       fill="#000000"
       id="path10831" />
    <path
       d="M137.362,331.736 L138.731,331.694 L141.459,331.639 L145.546,331.619 L150.988,331.683 L156.424,331.822 L161.861,332 L167.303,332.185 L172.752,332.342 L178.215,332.437 L180.955,332.451 L180.955,332.451 C182.687,332.461 184.297,326.317 184.551,318.727 C184.804,311.138 183.606,304.977 181.873,304.967 C181.873,304.967 181.873,304.967 181.873,304.967 L179.15,304.953 L173.705,304.859 L168.262,304.702 L162.819,304.517 L157.371,304.338 L151.915,304.199 L146.45,304.135 L142.341,304.156 L139.598,304.211 L138.227,304.252 C136.493,304.305 134.893,310.501 134.654,318.09 C134.415,325.68 135.627,331.789 137.362,331.736 L137.362,331.736"
       fill="#000000"
       id="path10833" />
    <path
       d="M213.853,332.451 L232.087,332.451 L250.321,332.451 L250.321,332.451 C252.054,332.452 253.662,326.3 253.914,318.711 C254.165,311.121 252.965,304.968 251.232,304.967 C251.232,304.967 251.232,304.967 251.232,304.967 L232.998,304.967 L214.762,304.967 C213.029,304.968 211.421,311.121 211.17,318.711 C210.919,326.3 212.121,332.452 213.853,332.451 L213.853,332.451"
       fill="#000000"
       id="path10835" />
    <path
       d="M294.625,331.02 L296.114,331.087 L299.037,331.199 L301.881,331.282 L304.65,331.338 L307.349,331.37 L309.984,331.38 L312.56,331.371 L315.083,331.346 L317.558,331.307 L319.99,331.255 L323.571,331.163 L328.248,331.022 L332.855,330.88 L337.434,330.756 L342.029,330.672 L345.513,330.646 L347.862,330.652 L350.242,330.678 L352.657,330.727 L355.112,330.803 L357.613,330.907 L360.166,331.041 L362.776,331.21 L365.448,331.413 L368.189,331.656 L371.003,331.939 L373.896,332.265 L375.373,332.446 L375.373,332.446 C377.098,332.657 378.739,326.678 379.038,319.092 C379.338,311.505 378.182,305.184 376.457,304.972 C376.457,304.972 376.457,304.972 376.457,304.972 L374.968,304.791 L372.057,304.462 L369.226,304.177 L366.468,303.934 L363.779,303.728 L361.152,303.559 L358.584,303.424 L356.068,303.319 L353.598,303.244 L351.169,303.194 L348.776,303.167 L346.413,303.162 L342.914,303.188 L338.306,303.273 L333.721,303.396 L329.115,303.538 L324.444,303.679 L320.871,303.772 L318.446,303.823 L315.979,303.862 L313.466,303.887 L310.9,303.896 L308.277,303.886 L305.59,303.854 L302.834,303.798 L300.003,303.716 L297.09,303.605 L295.598,303.537 C293.868,303.461 292.247,309.551 291.979,317.14 C291.71,324.729 292.895,330.943 294.625,331.02 L294.625,331.02"
       fill="#000000"
       id="path10837" />
    <path
       d="M556.801,351.504 C534.9,351.504 517.146,333.438 517.146,311.151 C517.146,288.865 534.9,270.799 556.801,270.799 C578.701,270.799 596.455,288.865 596.455,311.151 C596.455,333.438 578.701,351.504 556.801,351.504 z"
       fill-opacity="0"
       stroke="#FF0000"
       stroke-width="4"
       id="path10839"
       style="stroke:#8f123e;stroke-opacity:1" />
    <path
       d="M577.604,326.055 C565.952,335.742 548.774,333.622 536.277,326.481"
       fill-opacity="0"
       stroke="#FF0000"
       stroke-width="4"
       stroke-linecap="round"
       stroke-linejoin="round"
       id="path10841"
       style="stroke:#8f123e;stroke-opacity:1" />
    <path
       d="M556.502,302.999 C555.724,307.733 556.937,313.734 557.354,317.485"
       fill-opacity="0"
       stroke="#FF0000"
       stroke-width="4"
       stroke-linecap="round"
       stroke-linejoin="round"
       id="path10843"
       style="stroke:#8f123e;stroke-opacity:1" />
    <path
       d="M538.541,302.269 C537.291,302.269 536.277,301.255 536.277,300.005 C536.277,298.754 537.291,297.741 538.541,297.741 C539.791,297.741 540.805,298.754 540.805,300.005 C540.805,301.255 539.791,302.269 538.541,302.269 z"
       fill-opacity="0"
       stroke="#FF0000"
       stroke-width="4"
       id="path10845"
       style="stroke:#8f123e;stroke-opacity:1" />
    <path
       d="M571.289,301.298 C569.994,301.298 568.944,300.249 568.944,298.953 C568.944,297.658 569.994,296.609 571.289,296.609 C572.584,296.609 573.634,297.658 573.634,298.953 C573.634,300.249 572.584,301.298 571.289,301.298 z"
       fill-opacity="0"
       stroke="#FF0000"
       stroke-width="4"
       id="path10847"
       style="stroke:#8f123e;stroke-opacity:1" />
    <path
       d="M795.459,353.802 C773.559,353.802 755.805,335.736 755.805,313.45 C755.805,291.163 773.559,273.097 795.459,273.097 C817.36,273.097 835.114,291.163 835.114,313.45 C835.114,335.736 817.36,353.802 795.459,353.802 z"
       fill-opacity="0"
       stroke="#FF0000"
       stroke-width="4"
       id="path10849"
       style="stroke:#8f123e;stroke-opacity:1" />
    <path
       d="M816.263,337 C804.61,327.313 787.432,329.433 774.936,336.574"
       fill-opacity="0"
       stroke="#FF0000"
       stroke-width="4"
       stroke-linecap="round"
       stroke-linejoin="round"
       id="path10851"
       style="stroke:#8f123e;stroke-opacity:1" />
    <path
       d="M795.16,305.297 C794.383,310.031 795.596,316.033 796.013,319.783"
       fill-opacity="0"
       stroke="#FF0000"
       stroke-width="4"
       stroke-linecap="round"
       stroke-linejoin="round"
       id="path10853"
       style="stroke:#8f123e;stroke-opacity:1" />
    <path
       d="M777.2,304.567 C775.949,304.567 774.936,303.553 774.936,302.303 C774.936,301.052 775.949,300.039 777.2,300.039 C778.45,300.039 779.464,301.052 779.464,302.303 C779.464,303.553 778.45,304.567 777.2,304.567 z"
       fill-opacity="0"
       stroke="#FF0000"
       stroke-width="4"
       id="path10855"
       style="stroke:#8f123e;stroke-opacity:1" />
    <path
       d="M809.948,303.596 C808.653,303.596 807.603,302.547 807.603,301.252 C807.603,299.956 808.653,298.907 809.948,298.907 C811.243,298.907 812.293,299.956 812.293,301.252 C812.293,302.547 811.243,303.596 809.948,303.596 z"
       fill-opacity="0"
       stroke="#FF0000"
       stroke-width="4"
       id="path10857"
       style="stroke:#8f123e;stroke-opacity:1" />
  </g>
  <g
     id="Layer_2">
    <path
       d="M557.815,270.752 C565.797,211.289 618.454,170.083 677.365,170.306 C736.594,170.814 787.67,213.823 794.906,273.097"
       fill-opacity="0"
       stroke="#FF0000"
       stroke-width="20"
       id="path10860"
       style="stroke:#8f123e;stroke-opacity:1" />
    <path
       d="M557.815,270.799 C557.815,270.799 557.815,270.799 557.815,270.799 C562.645,232.631 587.737,200.519 621.568,183.276"
       fill-opacity="0"
       stroke="#000000"
       stroke-width="20"
       id="path10862" />
    <path
       d="M626.296,192.369 L685.001,316.904"
       fill-opacity="0"
       stroke="#FF0000"
       stroke-width="4"
       id="path10864"
       style="stroke:#8f123e;stroke-opacity:1" />
    <path
       d="M626.296,192.369 L670.533,323.008"
       fill-opacity="0"
       stroke="#FF0000"
       stroke-width="4"
       id="path10866"
       style="stroke:#8f123e;stroke-opacity:1" />
    <path
       d="M685.331,314.715 L670.533,321.017"
       fill-opacity="0"
       stroke="#FF0000"
       stroke-width="4"
       id="path10868"
       style="stroke:#8f123e;stroke-opacity:1" />
  </g>
</svg>
