<?xml version="1.0" encoding="UTF-8" standalone="no"?>
<svg
   xmlns:dc="http://purl.org/dc/elements/1.1/"
   xmlns:cc="http://creativecommons.org/ns#"
   xmlns:rdf="http://www.w3.org/1999/02/22-rdf-syntax-ns#"
   xmlns:svg="http://www.w3.org/2000/svg"
   xmlns="http://www.w3.org/2000/svg"
   xmlns:sodipodi="http://sodipodi.sourceforge.net/DTD/sodipodi-0.dtd"
   xmlns:inkscape="http://www.inkscape.org/namespaces/inkscape"
   version="1.1"
   x="0"
   y="0"
   width="944"
   height="704"
   viewBox="0, 0, 944, 704"
   id="svg24812"
   sodipodi:docname="QUA.svg"
   inkscape:export-filename="X:\07-Administration\04-CoC\CoC-ML\intern\Präsentationen\Fachliche Szenarien\ML Poster Sketches\ML Poster\QUA.png"
   inkscape:export-xdpi="96"
   inkscape:export-ydpi="96"
   inkscape:version="0.92.1 r15371">
  <metadata
     id="metadata24818">
    <rdf:RDF>
      <cc:Work
         rdf:about="">
        <dc:format>image/svg+xml</dc:format>
        <dc:type
           rdf:resource="http://purl.org/dc/dcmitype/StillImage" />
      </cc:Work>
    </rdf:RDF>
  </metadata>
  <defs
     id="defs24816" />
  <sodipodi:namedview
     pagecolor="#ffffff"
     bordercolor="#666666"
     borderopacity="1"
     objecttolerance="10"
     gridtolerance="10"
     guidetolerance="10"
     inkscape:pageopacity="0"
     inkscape:pageshadow="2"
     inkscape:window-width="1920"
     inkscape:window-height="1027"
     id="namedview24814"
     showgrid="false"
     inkscape:zoom="0.94816591"
     inkscape:cx="733.91847"
     inkscape:cy="326.7159"
     inkscape:window-x="-8"
     inkscape:window-y="-8"
     inkscape:window-maximized="1"
     inkscape:current-layer="Layer_1" />
  <g
     id="Layer_1">
    <path
       d="M449.924,59.954 C423.7,58.547 353.1,54.678 333.735,66.636 C319.828,75.224 327.829,123.482 322.747,130.128 C321.876,131.267 264.686,133.6 269.5,137.797 C269.96,138.197 312.425,152.165 318.5,153.489 C325.051,154.916 312.878,165.651 324.949,180.042 C335.3,192.382 577.583,191.363 587.5,190.103 C598.489,188.707 603.75,185.237 603.868,177.504 C604.141,159.62 605.782,80.668 597.859,73.387 C582.889,59.632 492.359,59.962 450.486,59.354"
       fill-opacity="0"
       stroke="#000000"
       stroke-width="4"
       stroke-linecap="round"
       stroke-linejoin="round"
       id="path24701" />
    <path
       d="M661.222,299.176 C661.222,259.903 677.337,215.176 628.061,215.176 C583.633,215.176 538.97,210.816 494.165,209.721 C360.268,206.448 366.525,185.175 368.402,289.358 C368.562,298.254 360.894,323.176 381.542,335.722 C406.927,351.146 588.97,344.449 631.19,344.449 C646.894,344.449 660.804,336.091 663.099,322.085"
       fill-opacity="0"
       stroke="#000000"
       stroke-width="4"
       stroke-linecap="round"
       stroke-linejoin="round"
       id="path24703" />
    <path
       d="M661.222,299.176 C673.86,304.479 702,312.331 718.785,316.085"
       fill-opacity="0"
       stroke="#000000"
       stroke-width="4"
       stroke-linecap="round"
       stroke-linejoin="round"
       id="path24705" />
    <path
       d="M718.785,316.085 C704.474,317.971 676.72,318.693 663.099,322.085"
       fill-opacity="0"
       stroke="#000000"
       stroke-width="4"
       stroke-linecap="round"
       stroke-linejoin="round"
       id="path24707" />
    <path
       d="M517.066,651.491 C543.293,652.821 613.905,656.482 633.235,644.467 C647.116,635.838 638.973,587.603 644.035,580.943 C644.903,579.801 702.086,577.3 697.26,573.117 C696.799,572.718 654.293,558.876 648.214,557.57 C641.659,556.161 653.8,545.391 641.686,531.035 C631.299,518.726 389.02,520.458 379.107,521.747 C368.122,523.176 362.872,526.661 362.776,534.394 C362.556,552.28 361.147,631.236 369.092,638.494 C384.102,652.205 474.631,651.607 516.505,652.092"
       fill-opacity="0"
       stroke="#000000"
       stroke-width="4"
       stroke-linecap="round"
       stroke-linejoin="round"
       id="path24709" />
    <path
       d="M305.064,412.892 C305.179,452.165 289.197,496.94 338.472,496.795 C382.9,496.664 427.576,500.892 472.384,501.855 C606.29,504.733 600.095,526.024 597.911,421.848 C597.725,412.952 605.32,388.007 584.636,375.523 C559.205,360.173 377.182,367.406 334.963,367.531 C319.258,367.577 305.373,375.976 303.119,389.989"
       fill-opacity="0"
       stroke="#000000"
       stroke-width="4"
       stroke-linecap="round"
       stroke-linejoin="round"
       id="path24711" />
    <path
       d="M305.064,412.892 C292.411,407.627 264.248,399.857 247.451,396.153"
       fill-opacity="0"
       stroke="#000000"
       stroke-width="4"
       stroke-linecap="round"
       stroke-linejoin="round"
       id="path24713" />
    <path
       d="M247.451,396.153 C261.757,394.225 289.508,393.421 303.119,389.989"
       fill-opacity="0"
       stroke="#000000"
       stroke-width="4"
       stroke-linecap="round"
       stroke-linejoin="round"
       id="path24715" />
    <path
       d="M127.254,246.63 C137.442,257.257 140.298,271.913 133.092,284.317"
       fill-opacity="0"
       stroke="#000000"
       stroke-width="4"
       stroke-linecap="round"
       stroke-linejoin="round"
       id="path24717" />
    <path
       d="M133.822,234.766 C126.417,248.156 114.908,261.961 100.254,267.567"
       fill-opacity="0"
       stroke="#000000"
       stroke-width="4"
       stroke-linecap="round"
       stroke-linejoin="round"
       id="path24719" />
    <path
       d="M141.119,287.109 C127.172,278.523 112.016,275.4 96.605,272.453"
       fill-opacity="0"
       stroke="#000000"
       stroke-width="4"
       stroke-linecap="round"
       stroke-linejoin="round"
       id="path24721" />
    <path
       d="M134.128,280.05 C133.822,319.674 215.031,374.989 144.077,374.989"
       fill-opacity="0"
       stroke="#000000"
       stroke-width="4"
       stroke-linecap="round"
       stroke-linejoin="round"
       id="path24723" />
    <path
       d="M141.862,374.989 C134.128,380.743 133.708,395.687 137.807,402.911"
       fill-opacity="0"
       stroke="#000000"
       stroke-width="4"
       stroke-linecap="round"
       stroke-linejoin="round"
       id="path24725" />
    <path
       d="M137.352,400.577 C144.18,413.57 140.893,414.013 134.128,419.516"
       fill-opacity="0"
       stroke="#000000"
       stroke-width="4"
       stroke-linecap="round"
       stroke-linejoin="round"
       id="path24727" />
    <path
       d="M134.128,419.516 C125.347,423.911 109.865,426.492 100.274,425.829"
       fill-opacity="0"
       stroke="#000000"
       stroke-width="4"
       stroke-linecap="round"
       stroke-linejoin="round"
       id="path24729" />
    <path
       d="M100.254,427.449 C110.555,431.152 125.93,438.072 134.973,443.03"
       fill-opacity="0"
       stroke="#000000"
       stroke-width="4"
       stroke-linecap="round"
       stroke-linejoin="round"
       id="path24731" />
    <path
       d="M134.973,443.03 C147.624,451.23 131.553,459.627 128.954,465.732 C125.799,473.147 132.016,483.972 129.905,491.412 C125.181,508.062 100.676,507.62 90.307,502.205"
       fill-opacity="0"
       stroke="#000000"
       stroke-width="4"
       stroke-linecap="round"
       stroke-linejoin="round"
       id="path24733" />
    <path
       d="M126.163,236.721 C128.893,213.605 120.857,195.471 116.502,175.005"
       fill-opacity="0"
       stroke="#000000"
       stroke-width="4"
       stroke-linecap="round"
       stroke-linejoin="round"
       id="path24735" />
    <path
       d="M93.557,195.577 C99.84,169.758 122.272,149.625 141.862,138.117"
       fill-opacity="0"
       stroke="#000000"
       stroke-width="4"
       stroke-linecap="round"
       stroke-linejoin="round"
       id="path24737" />
    <path
       d="M80.274,184.936 C86.572,157.522 109.751,138.536 129.786,126.767"
       fill-opacity="0"
       stroke="#000000"
       stroke-width="4"
       stroke-linecap="round"
       stroke-linejoin="round"
       id="path24739" />
    <path
       d="M68.198,182.808 C69.56,160.483 88.015,138.536 104.426,128.895"
       fill-opacity="0"
       stroke="#000000"
       stroke-width="4"
       stroke-linecap="round"
       stroke-linejoin="round"
       id="path24741" />
    <path
       d="M60.348,172.877 C56.582,149.743 68.876,140.49 79.67,124.639"
       fill-opacity="0"
       stroke="#000000"
       stroke-width="4"
       stroke-linecap="round"
       stroke-linejoin="round"
       id="path24743" />
    <path
       d="M159.474,400.097 C170.503,414.141 167.135,435.055 161.531,450.856"
       fill-opacity="0"
       stroke="#000000"
       stroke-width="4"
       stroke-linecap="round"
       stroke-linejoin="round"
       id="path24745" />
    <path
       d="M178.285,390.126 C189.709,412.024 188.675,438.958 183.704,461.345"
       fill-opacity="0"
       stroke="#000000"
       stroke-width="4"
       stroke-linecap="round"
       stroke-linejoin="round"
       id="path24747" />
    <path
       d="M198.605,378.588 C218.066,401.316 211.155,437.907 202.669,465.324"
       fill-opacity="0"
       stroke="#000000"
       stroke-width="4"
       stroke-linecap="round"
       stroke-linejoin="round"
       id="path24749" />
    <path
       d="M219.94,365.856 C243.465,397.394 237.612,438.892 222.988,471.69"
       fill-opacity="0"
       stroke="#000000"
       stroke-width="4"
       stroke-linecap="round"
       stroke-linejoin="round"
       id="path24751" />
    <path
       d="M920.5,150.162 C901.549,150.162 882.597,150.162 863.646,150.162 C844.323,150.162 815.291,143.625 797.536,155.441 C765.402,176.824 760.058,380.017 768.447,424.678 C770.767,437.027 784.819,461.256 792.247,468.671 C822.532,498.9 861.435,476.734 895.378,488.028"
       fill-opacity="0"
       stroke="#FF0000"
       stroke-width="4"
       stroke-linecap="round"
       stroke-linejoin="round"
       id="path24753"
       style="stroke:#8f123e;stroke-opacity:1" />
    <path
       d="M770.201,241.097 C825.916,251.302 826.461,322.044 764.912,322.044"
       fill-opacity="0"
       stroke="#FF0000"
       stroke-width="4"
       stroke-linecap="round"
       stroke-linejoin="round"
       id="path24755"
       style="stroke:#8f123e;stroke-opacity:1" />
    <path
       d="M769.173,380.854 C783.446,380.481 808.494,376.843 822.599,375.279"
       fill-opacity="0"
       stroke="#FF0000"
       stroke-width="4"
       stroke-linecap="round"
       stroke-linejoin="round"
       id="path24757"
       style="stroke:#8f123e;stroke-opacity:1" />
    <path
       d="M822.03,375.279 C822.057,367.921 822.599,360.708 822.599,353.342"
       fill-opacity="0"
       stroke="#FF0000"
       stroke-width="4"
       stroke-linecap="round"
       stroke-linejoin="round"
       id="path24759"
       style="stroke:#8f123e;stroke-opacity:1" />
    <path
       d="M899.39,282.05 C893.229,279.973 888.699,280.327 882.424,283.76 C870.852,290.092 871.686,315.655 878.826,325.157 C882.551,330.116 888.129,332.587 892.706,332.341 C899.562,331.974 904.358,331.647 908.901,325.499 C918.701,312.236 911.262,286.443 899.223,281.843"
       fill-opacity="0"
       stroke="#FF0000"
       stroke-width="4"
       stroke-linecap="round"
       stroke-linejoin="round"
       id="path24761"
       style="stroke:#8f123e;stroke-opacity:1" />
    <path
       d="M865.584,148.358 C872.481,111.119 903.947,111.119 911.269,146.922"
       fill-opacity="0"
       stroke="#FF0000"
       stroke-width="4"
       stroke-linecap="round"
       stroke-linejoin="round"
       id="path24763"
       style="stroke:#8f123e;stroke-opacity:1" />
    <path
       d="M893.733,119.899 C894.075,92.195 894.48,56.834 894.48,29.406"
       fill-opacity="0"
       stroke="#FF0000"
       stroke-width="4"
       stroke-linecap="round"
       stroke-linejoin="round"
       id="path24765"
       style="stroke:#8f123e;stroke-opacity:1" />
    <path
       d="M894.656,5.05 C879.911,3.915 879.877,35.39 896.963,28.388 C904.669,25.231 904.826,5.411 894.656,5.05"
       fill-opacity="0"
       stroke="#FF0000"
       stroke-width="4"
       stroke-linecap="round"
       stroke-linejoin="round"
       id="path24767"
       style="stroke:#8f123e;stroke-opacity:1" />
    <path
       d="M345.849,109.504 L347.15,109.762 L349.803,110.229 L352.494,110.632 L355.21,110.981 L357.946,111.288 L360.694,111.562 L364.825,111.936 L370.321,112.423 L374.401,112.823 L377.087,113.127 L379.741,113.473 L382.355,113.87 L384.923,114.33 L387.436,114.861 L388.663,115.156 L388.663,115.156 C390.566,115.614 392.42,109.171 392.803,100.766 C393.186,92.361 391.953,85.176 390.049,84.718 L388.779,84.414 L386.214,83.872 L383.605,83.406 L380.957,83.004 L378.276,82.655 L375.567,82.349 L371.471,81.947 L365.979,81.461 L361.862,81.088 L359.133,80.815 L356.423,80.512 L353.739,80.167 L351.089,79.771 L348.472,79.311 L347.169,79.052 C345.262,78.675 343.42,85.185 343.055,93.594 C342.691,102.003 343.941,109.126 345.849,109.504 L345.849,109.504"
       fill="#000000"
       id="path24769" />
    <path
       d="M420.873,109.456 L421.804,109.835 L423.714,110.531 L425.651,111.134 L427.601,111.645 L429.565,112.071 L431.539,112.417 L433.526,112.69 L435.521,112.895 L437.524,113.04 L439.535,113.131 L441.551,113.173 L443.572,113.172 L446.607,113.104 L450.663,112.92 L454.72,112.674 L458.764,112.412 L462.788,112.181 L465.782,112.057 L467.765,112.009 L469.74,111.994 L471.701,112.019 L473.65,112.089 L475.584,112.211 L477.501,112.389 L479.401,112.63 L481.283,112.939 L483.145,113.321 L484.059,113.539 L484.059,113.539 C485.962,113.995 487.816,107.551 488.198,99.146 C488.58,90.74 487.347,83.557 485.443,83.101 L484.477,82.872 L482.551,82.477 L480.611,82.16 L478.658,81.914 L476.693,81.732 L474.717,81.608 L472.732,81.537 L470.738,81.512 L468.737,81.527 L466.727,81.576 L463.706,81.702 L459.671,81.933 L455.632,82.194 L451.601,82.44 L447.582,82.622 L444.581,82.689 L442.594,82.691 L440.615,82.65 L438.648,82.562 L436.693,82.421 L434.752,82.222 L432.825,81.959 L430.914,81.625 L429.021,81.217 L427.146,80.727 L425.291,80.152 L423.446,79.48 L422.513,79.101 C422.513,79.101 422.513,79.101 422.513,79.101 C420.625,78.332 418.727,84.504 418.274,92.886 C417.821,101.269 418.985,108.687 420.873,109.456 L420.873,109.456"
       fill="#000000"
       id="path24771" />
    <path
       d="M519.75,109.516 L522.775,109.778 L528.819,110.321 L533.364,110.692 L536.406,110.894 L539.457,111.043 L542.521,111.125 L544.064,111.136 L544.064,111.136 C545.985,111.151 547.771,104.34 548.053,95.922 C548.335,87.505 547.007,80.669 545.086,80.654 C545.086,80.654 545.086,80.654 545.086,80.654 L543.574,80.643 L540.546,80.563 L537.522,80.415 L534.503,80.215 L529.972,79.846 L523.922,79.301 L520.894,79.04 C520.894,79.04 520.894,79.04 520.894,79.04 C518.978,78.876 517.169,85.565 516.853,93.981 C516.537,102.397 517.834,109.352 519.75,109.516 L519.75,109.516"
       fill="#000000"
       id="path24773" />
    <path
       d="M352.512,157.216 L356.07,157.035 L363.185,156.769 L370.307,156.619 L377.438,156.57 L384.576,156.609 L391.718,156.721 L398.863,156.894 L406.008,157.112 L416.723,157.494 L430.989,158.033 L441.665,158.398 L448.768,158.597 L455.856,158.743 L462.927,158.823 L466.458,158.834 L466.458,158.834 C468.38,158.84 470.164,152.022 470.444,143.604 C470.725,135.187 469.394,128.358 467.473,128.351 L463.955,128.341 L456.898,128.261 L449.823,128.115 L442.729,127.917 L432.059,127.552 L417.79,127.013 L407.067,126.63 L399.911,126.412 L392.753,126.239 L385.594,126.127 L378.437,126.088 L371.283,126.137 L364.135,126.288 L356.999,126.554 L353.44,126.735 C351.515,126.834 349.747,133.736 349.491,142.153 C349.235,150.57 350.588,157.314 352.512,157.216 L352.512,157.216"
       fill="#000000"
       id="path24775" />
    <path
       d="M517.393,159.642 L529.922,159.642 L542.452,159.642 L542.452,159.642 C544.374,159.644 546.158,152.822 546.437,144.405 C546.716,135.987 545.385,129.162 543.463,129.16 C543.463,129.16 543.463,129.16 543.463,129.16 L530.932,129.16 L518.4,129.16 C516.478,129.162 514.695,135.987 514.417,144.404 C514.139,152.822 515.471,159.644 517.393,159.642 L517.393,159.642"
       fill="#000000"
       id="path24777" />
    <path
       d="M341.949,408.639 L345.11,408.693 L351.426,408.836 L360.894,409.126 L373.511,409.614 L386.126,410.165 L398.744,410.721 L411.37,411.225 L420.85,411.533 L427.176,411.692 L433.506,411.805 L439.841,411.865 L443.013,411.873 L443.013,411.873 C444.935,411.879 446.72,405.061 447,396.644 C447.28,388.226 445.949,381.397 444.028,381.391 C444.028,381.391 444.028,381.391 444.028,381.391 L440.867,381.383 L434.544,381.323 L428.226,381.21 L421.911,381.052 L412.444,380.744 L399.824,380.241 L387.205,379.684 L374.583,379.133 L361.953,378.645 L352.473,378.355 L346.147,378.211 L342.984,378.157 C342.984,378.157 342.984,378.157 342.984,378.157 C341.064,378.125 339.275,384.923 338.989,393.34 C338.703,401.758 340.028,408.607 341.949,408.639 L341.949,408.639"
       fill="#000000"
       id="path24779" />
    <path
       d="M477.823,411.872 L479.048,411.804 L481.474,411.722 L483.89,411.704 L486.303,411.741 L488.713,411.825 L491.121,411.948 L494.735,412.186 L499.555,412.563 L504.385,412.946 L509.236,413.268 L512.894,413.429 L515.346,413.483 L516.578,413.49 L516.578,413.49 C518.5,413.502 520.285,406.689 520.567,398.272 C520.848,389.854 519.519,383.02 517.598,383.007 C517.598,383.007 517.598,383.007 517.598,383.007 L516.39,383.001 L513.974,382.948 L510.35,382.789 L505.52,382.469 L500.689,382.086 L495.85,381.708 L492.212,381.467 L489.778,381.343 L487.338,381.259 L484.889,381.222 L482.431,381.241 L479.969,381.324 L478.743,381.392 C476.818,381.499 475.052,388.409 474.798,396.826 C474.543,405.243 475.898,411.979 477.823,411.872 L477.823,411.872"
       fill="#000000"
       id="path24781" />
    <path
       d="M562.665,414.298 L570.748,414.298 L578.832,414.298 L578.832,414.298 C580.754,414.3 582.538,407.478 582.817,399.061 C583.096,390.643 581.764,383.818 579.843,383.816 C579.843,383.816 579.843,383.816 579.843,383.816 L571.758,383.816 L563.672,383.816 C561.751,383.818 559.967,390.643 559.689,399.061 C559.411,407.478 560.743,414.3 562.665,414.298 L562.665,414.298"
       fill="#000000"
       id="path24783" />
    <path
       d="M334.682,457.953 L338.93,457.979 L347.418,458.066 L360.141,458.254 L377.103,458.533 L389.837,458.696 L398.337,458.754 L402.593,458.762 L402.593,458.762 C404.514,458.766 406.299,451.946 406.578,443.529 C406.858,435.111 405.527,428.284 403.605,428.28 L399.358,428.272 L390.867,428.214 L378.14,428.051 L361.175,427.772 L348.444,427.584 L339.95,427.497 L335.699,427.471 C335.699,427.471 335.699,427.471 335.699,427.471 C333.778,427.461 331.993,434.277 331.712,442.695 C331.431,451.112 332.761,457.944 334.682,457.953 L334.682,457.953"
       fill="#000000"
       id="path24785" />
    <path
       d="M438.975,457.953 L459.184,457.953 L479.395,457.953 L479.395,457.953 C481.316,457.956 483.1,451.133 483.38,442.716 C483.659,434.298 482.327,427.473 480.406,427.471 C480.406,427.471 480.406,427.471 480.406,427.471 L460.195,427.471 L439.982,427.471 C438.061,427.473 436.277,434.298 435.999,442.716 C435.721,451.133 437.053,457.955 438.975,457.953 L438.975,457.953"
       fill="#000000"
       id="path24787" />
    <path
       d="M513.351,457.953 L520.625,457.953 L527.901,457.953 L527.901,457.953 C529.822,457.956 531.606,451.133 531.885,442.716 C532.165,434.298 530.833,427.473 528.911,427.471 C528.911,427.471 528.911,427.471 528.911,427.471 L521.636,427.471 L514.358,427.471 C512.436,427.473 510.653,434.298 510.375,442.716 C510.096,451.133 511.429,457.955 513.351,457.953 L513.351,457.953"
       fill="#000000"
       id="path24789" />
    <path
       d="M551.516,458.744 L552.104,458.62 L553.258,458.41 L554.405,458.243 L555.553,458.116 L557.282,457.994 L559.587,457.948 L561.887,458.02 L564.19,458.191 L566.495,458.441 L568.803,458.753 L572.271,459.295 L576.897,460.056 L580.373,460.57 L582.698,460.851 L585.022,461.058 L587.349,461.171 L588.523,461.187 L588.523,461.187 C590.444,461.214 592.232,454.412 592.516,445.995 C592.801,437.577 591.475,430.732 589.554,430.705 L588.436,430.691 L586.173,430.582 L583.899,430.38 L581.616,430.105 L578.166,429.594 L573.528,428.832 L570.026,428.285 L567.677,427.968 L565.317,427.713 L562.946,427.539 L560.565,427.466 L558.179,427.515 L556.386,427.643 L555.183,427.778 L553.977,427.954 L552.776,428.173 L552.185,428.298 C550.252,428.707 548.536,435.854 548.351,444.262 C548.166,452.669 549.583,459.153 551.516,458.744 L551.516,458.744"
       fill="#000000"
       id="path24791" />
    <path
       d="M409.362,252.909 L410.387,252.779 L412.423,252.563 L414.456,252.403 L416.492,252.295 L418.529,252.235 L420.569,252.22 L422.609,252.248 L424.651,252.315 L427.719,252.481 L431.81,252.81 L435.897,253.239 L439.981,253.74 L444.063,254.29 L448.137,254.861 L452.203,255.429 L456.259,255.968 L460.302,256.451 L464.332,256.853 L467.345,257.085 L469.351,257.201 L471.348,257.281 L473.341,257.323 L474.34,257.328 L474.34,257.328 C476.262,257.34 478.047,250.525 478.328,242.108 C478.61,233.69 477.28,226.857 475.359,226.846 L474.385,226.841 L472.422,226.8 L470.452,226.721 L468.477,226.607 L465.499,226.378 L461.501,225.98 L457.478,225.5 L453.434,224.963 L449.368,224.395 L445.284,223.822 L441.186,223.27 L437.072,222.765 L432.946,222.333 L428.815,222.001 L425.713,221.833 L423.641,221.766 L421.567,221.738 L419.492,221.753 L417.417,221.815 L415.341,221.926 L413.265,222.09 L411.194,222.309 L410.166,222.44 C408.237,222.688 406.493,229.709 406.271,238.123 C406.049,246.537 407.433,253.157 409.362,252.909 L409.362,252.909"
       fill="#FF0000"
       id="path24793"
       style="fill:#8f123e;fill-opacity:1" />
    <path
       d="M514.059,259.535 L524.537,259.535 L535.017,259.535 L535.017,259.535 C536.938,259.537 538.722,252.715 539.001,244.297 C539.281,235.88 537.949,229.054 536.027,229.052 C536.027,229.052 536.027,229.052 536.027,229.052 L525.548,229.052 L515.066,229.052 C513.144,229.054 511.361,235.88 511.083,244.297 C510.805,252.715 512.137,259.537 514.059,259.535 L514.059,259.535"
       fill="#FF0000"
       id="path24795"
       style="fill:#8f123e;fill-opacity:1" />
    <path
       d="M562.49,259.528 L563.578,259.675 L565.78,259.943 L567.998,260.177 L570.227,260.379 L573.59,260.628 L578.106,260.876 L582.654,261.049 L587.221,261.169 L594.089,261.302 L600.953,261.446 L605.509,261.587 L610.041,261.79 L614.54,262.078 L617.884,262.363 L620.096,262.592 L622.298,262.854 L624.485,263.153 L626.656,263.492 L628.811,263.873 L630.946,264.299 L633.063,264.773 L634.109,265.027 L634.109,265.027 C636.012,265.492 637.866,259.055 638.251,250.651 C638.635,242.246 637.404,235.056 635.5,234.591 C635.5,234.591 635.5,234.591 635.5,234.591 L634.424,234.33 L632.27,233.848 L630.098,233.415 L627.912,233.029 L625.711,232.686 L623.496,232.383 L621.269,232.118 L619.028,231.887 L615.651,231.599 L611.122,231.309 L606.568,231.106 L601.996,230.964 L595.129,230.82 L588.273,230.687 L583.725,230.568 L579.204,230.396 L574.717,230.15 L571.381,229.903 L569.174,229.703 L566.982,229.472 L564.802,229.207 L563.711,229.059 C563.711,229.059 563.711,229.059 563.711,229.059 C561.799,228.802 559.975,235.415 559.638,243.828 C559.301,252.242 560.578,259.271 562.49,259.528 L562.49,259.528"
       fill="#FF0000"
       id="path24797"
       style="fill:#8f123e;fill-opacity:1" />
    <path
       d="M411.55,310.275 L412.904,310.133 L415.595,309.923 L418.28,309.8 L420.968,309.753 L423.657,309.773 L426.347,309.847 L430.386,310.042 L435.763,310.399 L441.128,310.792 L445.145,311.06 L447.819,311.207 L450.487,311.315 L453.149,311.374 L454.483,311.382 L454.483,311.382 C456.404,311.396 458.19,304.583 458.472,296.165 C458.753,287.748 457.424,280.913 455.503,280.9 L454.195,280.892 L451.562,280.834 L448.916,280.727 L446.26,280.581 L442.254,280.314 L436.878,279.92 L431.472,279.561 L427.401,279.366 L424.678,279.29 L421.951,279.271 L419.218,279.319 L416.48,279.445 L413.748,279.659 L412.391,279.801 C412.391,279.801 412.391,279.801 412.391,279.801 C410.463,280.005 408.712,286.991 408.48,295.406 C408.248,303.821 409.622,310.478 411.55,310.275 L411.55,310.275"
       fill="#FF0000"
       id="path24799"
       style="fill:#8f123e;fill-opacity:1" />
    <path
       d="M500.764,313.587 L507.872,314.092 L522.074,315.021 L536.261,315.836 L550.442,316.531 L564.626,317.099 L575.273,317.438 L582.378,317.622 L589.488,317.77 L596.605,317.882 L603.732,317.958 L610.868,317.996 L614.442,318.001 L614.442,318.001 C616.363,318.005 618.148,311.184 618.427,302.767 C618.707,294.349 617.376,287.522 615.454,287.519 C615.454,287.519 615.454,287.519 615.454,287.519 L611.887,287.514 L604.759,287.476 L597.641,287.4 L590.531,287.288 L583.429,287.14 L576.334,286.957 L565.7,286.618 L551.529,286.051 L537.362,285.357 L523.187,284.542 L508.994,283.614 L501.885,283.108 C499.968,282.973 498.163,289.686 497.854,298.102 C497.544,306.518 498.847,313.451 500.764,313.587 L500.764,313.587"
       fill="#FF0000"
       id="path24801"
       style="fill:#8f123e;fill-opacity:1" />
    <path
       d="M405.939,570.62 L407.947,570.651 L411.955,570.738 L417.957,570.926 L425.945,571.254 L433.924,571.632 L441.902,572.018 L449.887,572.37 L457.885,572.646 L463.898,572.778 L467.916,572.82 L469.929,572.826 L469.929,572.826 C471.851,572.833 473.636,566.015 473.916,557.598 C474.196,549.18 472.866,542.351 470.944,542.344 L468.944,542.338 L464.943,542.296 L458.95,542.164 L450.966,541.889 L442.989,541.537 L435.01,541.151 L427.021,540.773 L419.017,540.445 L413.001,540.256 L408.982,540.168 L406.971,540.138 C405.05,540.11 403.262,546.911 402.977,555.329 C402.692,563.746 404.018,570.592 405.939,570.62 L405.939,570.62"
       fill="#FF0000"
       id="path24803"
       style="fill:#8f123e;fill-opacity:1" />
    <path
       d="M515.113,571.721 L516.508,571.808 L519.322,571.958 L522.153,572.08 L524.999,572.177 L529.291,572.282 L535.052,572.362 L540.849,572.395 L546.67,572.407 L552.503,572.42 L558.339,572.459 L564.167,572.548 L569.976,572.711 L574.313,572.896 L577.191,573.055 L580.061,573.246 L582.918,573.471 L585.763,573.735 L588.593,574.039 L591.406,574.387 L594.203,574.782 L596.98,575.227 L599.737,575.724 L602.474,576.277 L605.187,576.888 L606.53,577.215 L606.53,577.215 C608.433,577.681 610.288,571.245 610.672,562.84 C611.057,554.435 609.825,547.245 607.922,546.78 C607.922,546.78 607.922,546.78 607.922,546.78 L606.551,546.445 L603.802,545.827 L601.032,545.267 L598.243,544.765 L595.435,544.316 L592.612,543.917 L589.773,543.566 L586.92,543.259 L584.054,542.994 L581.177,542.767 L578.289,542.575 L575.39,542.415 L571.031,542.229 L565.202,542.066 L559.36,541.977 L553.517,541.938 L547.683,541.924 L541.868,541.913 L536.084,541.88 L530.34,541.8 L526.063,541.696 L523.232,541.599 L520.417,541.478 L517.616,541.328 L516.218,541.242 C514.301,541.125 512.499,547.853 512.193,556.27 C511.888,564.687 513.195,571.604 515.113,571.721 L515.113,571.721"
       fill="#FF0000"
       id="path24805"
       style="fill:#8f123e;fill-opacity:1" />
    <path
       d="M402.469,619.139 L403.67,619.403 L406.12,619.911 L408.615,620.387 L411.142,620.823 L413.692,621.212 L416.254,621.549 L418.819,621.826 L421.378,622.037 L423.918,622.175 L426.434,622.235 L428.912,622.209 L430.746,622.129 L431.955,622.045 L433.145,621.936 L434.319,621.801 L435.477,621.639 L436.617,621.449 L437.74,621.23 L438.841,620.981 L439.922,620.701 L440.981,620.39 L441.511,620.219 L441.511,620.219 C443.448,619.593 445.128,612.282 445.263,603.887 C445.398,595.493 443.937,589.195 442,589.821 L441.518,589.977 L440.516,590.273 L439.489,590.54 L438.436,590.778 L437.361,590.989 L436.263,591.172 L435.145,591.329 L434.008,591.461 L432.853,591.567 L431.687,591.648 L429.906,591.727 L427.481,591.753 L425.015,591.695 L422.517,591.56 L420,591.353 L417.471,591.08 L414.943,590.748 L412.423,590.364 L409.925,589.933 L407.456,589.463 L405.025,588.958 L403.822,588.694 C401.917,588.276 400.069,594.752 399.695,603.159 C399.322,611.566 400.563,618.721 402.469,619.139 L402.469,619.139"
       fill="#FF0000"
       id="path24807"
       style="fill:#8f123e;fill-opacity:1" />
    <path
       d="M492.04,622.466 L493.981,622.358 L497.857,622.172 L503.666,621.964 L511.404,621.807 L519.133,621.772 L526.857,621.842 L534.575,621.999 L542.29,622.228 L550.001,622.51 L561.564,622.997 L576.978,623.675 L588.539,624.132 L596.25,624.379 L603.963,624.561 L611.68,624.66 L615.544,624.674 L615.544,624.674 C617.465,624.68 619.25,617.862 619.53,609.445 C619.81,601.027 618.48,594.198 616.558,594.191 L612.711,594.178 L605.011,594.079 L597.311,593.898 L589.612,593.651 L578.057,593.195 L562.641,592.516 L551.069,592.028 L543.347,591.746 L535.618,591.517 L527.881,591.359 L520.137,591.29 L512.382,591.325 L504.62,591.483 L498.791,591.692 L494.902,591.878 L492.96,591.986 C491.035,592.093 489.268,599.003 489.014,607.42 C488.76,615.837 490.114,622.573 492.04,622.466 L492.04,622.466"
       fill="#FF0000"
       id="path24809"
       style="fill:#8f123e;fill-opacity:1" />
  </g>
</svg>
