<?xml version="1.0" encoding="UTF-8" standalone="no"?>
<svg
   xmlns:dc="http://purl.org/dc/elements/1.1/"
   xmlns:cc="http://creativecommons.org/ns#"
   xmlns:rdf="http://www.w3.org/1999/02/22-rdf-syntax-ns#"
   xmlns:svg="http://www.w3.org/2000/svg"
   xmlns="http://www.w3.org/2000/svg"
   xmlns:sodipodi="http://sodipodi.sourceforge.net/DTD/sodipodi-0.dtd"
   xmlns:inkscape="http://www.inkscape.org/namespaces/inkscape"
   version="1.1"
   x="0"
   y="0"
   width="944"
   height="704"
   viewBox="0, 0, 944, 704"
   id="svg17013"
   sodipodi:docname="ROB.svg"
   inkscape:export-filename="X:\07-Administration\04-CoC\CoC-ML\intern\Präsentationen\Fachliche Szenarien\ML Poster Sketches\ML Poster\ROB.png"
   inkscape:export-xdpi="96"
   inkscape:export-ydpi="96"
   inkscape:version="0.92.1 r15371">
  <metadata
     id="metadata17019">
    <rdf:RDF>
      <cc:Work
         rdf:about="">
        <dc:format>image/svg+xml</dc:format>
        <dc:type
           rdf:resource="http://purl.org/dc/dcmitype/StillImage" />
      </cc:Work>
    </rdf:RDF>
  </metadata>
  <defs
     id="defs17017" />
  <sodipodi:namedview
     pagecolor="#ffffff"
     bordercolor="#666666"
     borderopacity="1"
     objecttolerance="10"
     gridtolerance="10"
     guidetolerance="10"
     inkscape:pageopacity="0"
     inkscape:pageshadow="2"
     inkscape:window-width="1920"
     inkscape:window-height="1027"
     id="namedview17015"
     showgrid="false"
     inkscape:zoom="1.3409091"
     inkscape:cx="518.2485"
     inkscape:cy="303.72346"
     inkscape:window-x="-8"
     inkscape:window-y="-8"
     inkscape:window-maximized="1"
     inkscape:current-layer="Layer_1" />
  <g
     id="Layer_1">
    <path
       d="M588.5,511.292 C498.522,508.723 378.239,507.173 318.5,505.5"
       fill-opacity="0"
       stroke="#000000"
       stroke-width="4"
       stroke-linecap="round"
       stroke-linejoin="round"
       id="path16958" />
    <path
       d="M589.5,502.5 C590.542,514.529 588.5,526.82 588.5,538.5"
       fill-opacity="0"
       stroke="#000000"
       stroke-width="4"
       stroke-linecap="round"
       stroke-linejoin="round"
       id="path16960" />
    <path
       d="M315.5,497.5 C316.306,505.739 314.5,513.459 314.5,521.5"
       fill-opacity="0"
       stroke="#000000"
       stroke-width="4"
       stroke-linecap="round"
       stroke-linejoin="round"
       id="path16962" />
    <path
       d="M463.5,485.5 C478.434,485.021 548.345,484.092 557.84,480.81 C569.362,476.826 569.374,419.844 554.545,410.782 C536.764,399.916 369.223,394.616 356.819,405.838 C348.168,413.665 341.004,466.022 348.992,472.983 C357.239,480.17 432.668,485.391 461.75,485.391"
       fill-opacity="0"
       stroke="#000000"
       stroke-width="4"
       stroke-linecap="round"
       stroke-linejoin="round"
       id="path16964" />
    <path
       d="M557.84,415.313 C542.382,373.372 538.287,359.042 531.477,353.935 C518.125,343.922 468.921,344.873 449.915,344.873 C431.257,344.873 393.063,341.416 377.003,351.052 C363.351,359.243 360.114,388.125 353.935,409.546"
       fill-opacity="0"
       stroke="#000000"
       stroke-width="4"
       stroke-linecap="round"
       stroke-linejoin="round"
       id="path16966" />
    <path
       d="M557.428,483.281 C557.84,489.834 559.772,506.933 557.84,508.55 C555.092,510.851 511.94,511.357 506.761,506.178 C502.306,501.722 506.349,489.459 506.349,484.105"
       fill-opacity="0"
       stroke="#000000"
       stroke-width="4"
       stroke-linecap="round"
       stroke-linejoin="round"
       id="path16968" />
    <path
       d="M356.407,479.162 C357.553,482.512 352.977,503.373 357.231,505.5 C398.792,506.736 406.162,506 406.662,505.5 C409.512,502.65 407.486,487.09 407.486,483.281"
       fill-opacity="0"
       stroke="#000000"
       stroke-width="4"
       stroke-linecap="round"
       stroke-linejoin="round"
       id="path16970" />
    <path
       d="M272.672,521.5 C273.004,510.249 271.966,499.524 271.966,488.33"
       fill-opacity="0"
       stroke="#FF0000"
       stroke-width="4"
       stroke-linecap="round"
       stroke-linejoin="round"
       id="path16972"
       style="stroke:#8f123e;stroke-opacity:1" />
    <path
       d="M268.437,486.212 C245.188,490.286 206.334,484.692 187.981,486.212"
       fill-opacity="0"
       stroke="#FF0000"
       stroke-width="4"
       stroke-linecap="round"
       stroke-linejoin="round"
       id="path16974"
       style="stroke:#8f123e;stroke-opacity:1" />
    <path
       d="M187.981,486.212 C188.186,497.088 187.517,508.352 190.098,518.677"
       fill-opacity="0"
       stroke="#FF0000"
       stroke-width="4"
       stroke-linecap="round"
       stroke-linejoin="round"
       id="path16976"
       style="stroke:#8f123e;stroke-opacity:1" />
    <path
       d="M269.143,520.794 C241.954,518.904 215.477,519.383 188.687,519.383"
       fill-opacity="0"
       stroke="#FF0000"
       stroke-width="4"
       stroke-linecap="round"
       stroke-linejoin="round"
       id="path16978"
       style="stroke:#8f123e;stroke-opacity:1" />
    <path
       d="M263.598,435.899 C270.4,426.6 285.076,420.451 292.695,410.292 C314.16,381.671 271.7,370.523 261.54,384.07 C255.672,391.894 249.781,405.829 244.664,414.446 C239.732,422.754 210.394,434.696 206.759,451.572 C202.508,471.31 231.211,481.695 243.131,469.775 C248.844,464.062 257.346,445.514 263.7,435.984"
       fill-opacity="0"
       stroke="#FF0000"
       stroke-width="4"
       stroke-linecap="round"
       stroke-linejoin="round"
       id="path16980"
       style="stroke:#8f123e;stroke-opacity:1" />
    <path
       d="M263.902,482.345 C264.212,472.358 262.133,459.653 253.341,453.791"
       fill-opacity="0"
       stroke="#FF0000"
       stroke-width="4"
       stroke-linecap="round"
       stroke-linejoin="round"
       id="path16982"
       style="stroke:#8f123e;stroke-opacity:1" />
    <path
       d="M206.334,449.488 C198.971,460.05 195.106,474.064 196.624,484.692"
       fill-opacity="0"
       stroke="#FF0000"
       stroke-width="4"
       stroke-linecap="round"
       stroke-linejoin="round"
       id="path16984"
       style="stroke:#8f123e;stroke-opacity:1" />
    <path
       d="M288.936,381.429 C273.053,373.357 247.182,328.069 228.307,348.572 C214.742,363.308 244.612,390.933 251.776,397.074"
       fill-opacity="0"
       stroke="#FF0000"
       stroke-width="4"
       stroke-linecap="round"
       stroke-linejoin="round"
       id="path16986"
       style="stroke:#8f123e;stroke-opacity:1" />
    <path
       d="M233.106,343.945 C247.673,337.557 303.199,303.518 314.194,309.015 C328.032,315.935 278.606,343.503 275.521,345.817 C271.033,349.183 268.621,353.799 264.294,357.044"
       fill-opacity="0"
       stroke="#FF0000"
       stroke-width="4"
       stroke-linecap="round"
       stroke-linejoin="round"
       id="path16988"
       style="stroke:#8f123e;stroke-opacity:1" />
    <path
       d="M317.879,311.968 C324.484,320.223 325.109,321.935 324.058,329.111 C323.222,334.828 331.418,346.469 331.633,346.254 C333.429,344.458 309.098,325.202 308.311,324.327"
       fill-opacity="0"
       stroke="#FF0000"
       stroke-width="4"
       stroke-linecap="round"
       stroke-linejoin="round"
       id="path16990"
       style="stroke:#8f123e;stroke-opacity:1" />
    <path
       d="M644.456,531.645 C644.124,520.394 645.162,509.669 645.162,498.475"
       fill-opacity="0"
       stroke="#FF0000"
       stroke-width="4"
       stroke-linecap="round"
       stroke-linejoin="round"
       id="path16992"
       style="stroke:#8f123e;stroke-opacity:1" />
    <path
       d="M648.69,496.358 C671.939,500.431 710.794,494.837 729.146,496.358"
       fill-opacity="0"
       stroke="#FF0000"
       stroke-width="4"
       stroke-linecap="round"
       stroke-linejoin="round"
       id="path16994"
       style="stroke:#8f123e;stroke-opacity:1" />
    <path
       d="M729.146,496.358 C728.941,507.233 729.61,518.498 727.029,528.822"
       fill-opacity="0"
       stroke="#FF0000"
       stroke-width="4"
       stroke-linecap="round"
       stroke-linejoin="round"
       id="path16996"
       style="stroke:#8f123e;stroke-opacity:1" />
    <path
       d="M647.985,530.94 C675.173,529.049 701.651,529.528 728.441,529.528"
       fill-opacity="0"
       stroke="#FF0000"
       stroke-width="4"
       stroke-linecap="round"
       stroke-linejoin="round"
       id="path16998"
       style="stroke:#8f123e;stroke-opacity:1" />
    <path
       d="M649.387,448.566 C639.561,442.549 623.65,442.438 612.742,435.937 C582.01,417.62 617.049,391.173 631.595,399.843 C639.996,404.85 650.74,415.501 658.747,421.527 C666.467,427.338 698.142,427.236 707.917,441.464 C719.35,458.106 696.747,478.619 681.191,472.123 C673.736,469.01 658.823,455.084 649.324,448.683"
       fill-opacity="0"
       stroke="#FF0000"
       stroke-width="4"
       stroke-linecap="round"
       stroke-linejoin="round"
       id="path17000"
       style="stroke:#8f123e;stroke-opacity:1" />
    <path
       d="M653.226,492.49 C652.916,482.503 654.994,469.798 663.787,463.936"
       fill-opacity="0"
       stroke="#FF0000"
       stroke-width="4"
       stroke-linecap="round"
       stroke-linejoin="round"
       id="path17002"
       style="stroke:#8f123e;stroke-opacity:1" />
    <path
       d="M710.794,459.634 C718.156,470.195 722.022,484.209 720.503,494.837"
       fill-opacity="0"
       stroke="#FF0000"
       stroke-width="4"
       stroke-linecap="round"
       stroke-linejoin="round"
       id="path17004"
       style="stroke:#8f123e;stroke-opacity:1" />
    <path
       d="M607.61,404.911 C619.078,391.277 619.46,344.591 644.844,356.094 C663.087,364.361 649.041,400.737 644.844,409.189"
       fill-opacity="0"
       stroke="#FF0000"
       stroke-width="4"
       stroke-linecap="round"
       stroke-linejoin="round"
       id="path17006"
       style="stroke:#8f123e;stroke-opacity:1" />
    <path
       d="M644.844,356.094 C630.277,349.705 579.546,315.696 568.552,321.193 C554.713,328.112 604.14,355.681 607.224,357.994 C611.713,361.361 614.125,365.976 618.452,369.222"
       fill-opacity="0"
       stroke="#FF0000"
       stroke-width="4"
       stroke-linecap="round"
       stroke-linejoin="round"
       id="path17008"
       style="stroke:#8f123e;stroke-opacity:1" />
    <path
       d="M569.985,318.391 C561.823,304.729 529.134,330.583 535.905,339.271 C538.009,341.97 545.063,331.195 548.187,331.985 C551.151,332.735 552.262,337.236 554.654,339.026 C558.81,342.137 541.494,350.232 544.221,351.533 C555.524,356.924 566.884,343.082 571.375,335.007"
       fill-opacity="0"
       stroke="#FF0000"
       stroke-width="4"
       stroke-linecap="round"
       stroke-linejoin="round"
       id="path17010"
       style="stroke:#8f123e;stroke-opacity:1" />
  </g>
</svg>
