<?xml version="1.0" encoding="UTF-8" standalone="no"?>
<svg
   xmlns:dc="http://purl.org/dc/elements/1.1/"
   xmlns:cc="http://creativecommons.org/ns#"
   xmlns:rdf="http://www.w3.org/1999/02/22-rdf-syntax-ns#"
   xmlns:svg="http://www.w3.org/2000/svg"
   xmlns="http://www.w3.org/2000/svg"
   xmlns:sodipodi="http://sodipodi.sourceforge.net/DTD/sodipodi-0.dtd"
   xmlns:inkscape="http://www.inkscape.org/namespaces/inkscape"
   version="1.1"
   x="0"
   y="0"
   width="944"
   height="704"
   viewBox="0, 0, 944, 704"
   id="svg18431"
   sodipodi:docname="RPA.svg"
   inkscape:version="0.92.1 r15371"
   inkscape:export-filename="X:\07-Administration\04-CoC\CoC-ML\intern\Präsentationen\Fachliche Szenarien\ML Poster Sketches\ML Poster\RPA.png"
   inkscape:export-xdpi="96"
   inkscape:export-ydpi="96">
  <metadata
     id="metadata18437">
    <rdf:RDF>
      <cc:Work
         rdf:about="">
        <dc:format>image/svg+xml</dc:format>
        <dc:type
           rdf:resource="http://purl.org/dc/dcmitype/StillImage" />
      </cc:Work>
    </rdf:RDF>
  </metadata>
  <defs
     id="defs18435" />
  <sodipodi:namedview
     pagecolor="#ffffff"
     bordercolor="#666666"
     borderopacity="1"
     objecttolerance="10"
     gridtolerance="10"
     guidetolerance="10"
     inkscape:pageopacity="0"
     inkscape:pageshadow="2"
     inkscape:window-width="1920"
     inkscape:window-height="1027"
     id="namedview18433"
     showgrid="false"
     inkscape:zoom="0.33522727"
     inkscape:cx="472"
     inkscape:cy="352"
     inkscape:window-x="-8"
     inkscape:window-y="-8"
     inkscape:window-maximized="1"
     inkscape:current-layer="Layer_1" />
  <g
     id="Layer_1">
    <path
       d="M596.817,67.5 C606.903,126.034 596.407,187.628 604.817,246.5"
       fill-opacity="0"
       stroke="#000000"
       stroke-width="4"
       stroke-linecap="round"
       stroke-linejoin="round"
       id="path18332" />
    <path
       d="M605.817,63.5 C612.735,64.701 619.748,64.5 626.817,64.5"
       fill-opacity="0"
       stroke="#000000"
       stroke-width="4"
       stroke-linecap="round"
       stroke-linejoin="round"
       id="path18334" />
    <path
       d="M627.817,69.5 C639.889,127.358 631.817,187.832 631.817,246.5"
       fill-opacity="0"
       stroke="#000000"
       stroke-width="4"
       stroke-linecap="round"
       stroke-linejoin="round"
       id="path18336" />
    <path
       d="M631.817,248.5 C624.484,248.5 617.15,248.5 609.817,248.5"
       fill-opacity="0"
       stroke="#000000"
       stroke-width="4"
       stroke-linecap="round"
       stroke-linejoin="round"
       id="path18338" />
    <path
       d="M639.817,115.5 C658.549,130.39 658.598,170.719 641.817,187.5"
       fill-opacity="0"
       stroke="#000000"
       stroke-width="4"
       stroke-linecap="round"
       stroke-linejoin="round"
       id="path18340" />
    <path
       d="M645.916,184.638 C649.684,210.995 650.261,247.038 648.907,273.973 C647.613,299.71 587.835,283.645 593.519,300.224 C594.065,301.815 594.76,308.396 596.063,309.364 C603.766,315.077 714.15,308.681 714.266,308.298 C725.76,270.5 674.877,300.358 671.477,283.117 C662.919,239.734 660.206,194.075 655.134,150.129"
       fill-opacity="0"
       stroke="#000000"
       stroke-width="4"
       stroke-linecap="round"
       stroke-linejoin="round"
       id="path18342" />
    <path
       d="M553.31,311.959 C549.225,298.22 548.283,284.144 545.225,270.38"
       fill-opacity="0"
       stroke="#000000"
       stroke-width="4"
       stroke-linecap="round"
       stroke-linejoin="round"
       id="path18344" />
    <path
       d="M544.07,271.535 C509.273,278.118 472.706,285.698 438.966,296.944"
       fill-opacity="0"
       stroke="#000000"
       stroke-width="4"
       stroke-linecap="round"
       stroke-linejoin="round"
       id="path18346" />
    <path
       d="M437.801,296.944 C437.801,300.794 437.234,304.539 437.234,308.389"
       fill-opacity="0"
       stroke="#000000"
       stroke-width="4"
       stroke-linecap="round"
       stroke-linejoin="round"
       id="path18348" />
    <path
       d="M547.535,311.381 C510.869,308.463 474.042,309.071 437.234,309.071"
       fill-opacity="0"
       stroke="#000000"
       stroke-width="4"
       stroke-linecap="round"
       stroke-linejoin="round"
       id="path18350" />
    <path
       d="M534.112,270.522 C532.239,269.714 533.362,265.417 531.877,264.426 C530.755,263.678 519.791,267.165 519.076,267.88 C518.704,268.252 521.149,273.005 521.311,273.976"
       fill-opacity="0"
       stroke="#000000"
       stroke-width="4"
       stroke-linecap="round"
       stroke-linejoin="round"
       id="path18352" />
    <path
       d="M512.212,273.803 C512.212,273.058 512.212,272.313 512.212,271.568 C512.212,266.565 506.105,271.012 503.068,271.771 C502.691,271.865 498.395,272.807 498.395,272.99 C498.395,274.21 500.917,277.162 501.443,278.476"
       fill-opacity="0"
       stroke="#000000"
       stroke-width="4"
       stroke-linecap="round"
       stroke-linejoin="round"
       id="path18354" />
    <path
       d="M492.706,278.679 C493.299,269.611 486.793,273.914 480.514,277.054 C480.306,277.158 483.116,281.852 483.359,282.337"
       fill-opacity="0"
       stroke="#000000"
       stroke-width="4"
       stroke-linecap="round"
       stroke-linejoin="round"
       id="path18356" />
    <path
       d="M474.215,284.369 C474.215,283.759 474.215,283.15 474.215,282.54 C474.215,281.927 474.753,278.608 474.418,278.273 C473.505,277.359 462.845,281.1 462.43,281.93 C462.239,282.312 465.135,287.049 465.478,287.62"
       fill-opacity="0"
       stroke="#000000"
       stroke-width="4"
       stroke-linecap="round"
       stroke-linejoin="round"
       id="path18358" />
    <path
       d="M455.115,288.839 C455.115,287.891 455.115,286.942 455.115,285.994 C455.115,279.773 448.78,284.952 445.159,286.401 C444.836,286.53 442.041,287.073 442.314,287.62 C442.959,288.909 446.371,290.661 447.597,291.684"
       fill-opacity="0"
       stroke="#000000"
       stroke-width="4"
       stroke-linecap="round"
       stroke-linejoin="round"
       id="path18360" />
    <path
       d="M316.732,407.985 C263.065,407.985 209.398,407.985 155.732,407.985 C115.5,407.985 124.732,451.599 124.732,470.084 C124.732,493.339 106.792,612.965 122.732,626.777 C141.71,643.222 250.995,639.494 279.732,637.608 C315.409,635.266 506.461,645.024 525.732,631.109 C549.358,614.049 547.307,566.034 547.307,545.212 C547.307,515.644 550.281,453.679 534.732,427.481 C517.802,398.957 352.892,407.263 316.732,407.263"
       fill-opacity="0"
       stroke="#FF0000"
       stroke-width="4"
       stroke-linecap="round"
       stroke-linejoin="round"
       id="path18362"
       style="stroke:#8f123e;stroke-opacity:1"
       inkscape:export-xdpi="96"
       inkscape:export-ydpi="96" />
    <path
       d="M176.469,504.138 C141.286,495.525 138.322,559.174 174.469,550.138 C198.696,544.081 192.329,510.649 172.469,502.138"
       fill-opacity="0"
       stroke="#FF0000"
       stroke-width="4"
       stroke-linecap="round"
       stroke-linejoin="round"
       id="path18364"
       style="stroke:#8f123e;stroke-opacity:1"
       inkscape:export-xdpi="96"
       inkscape:export-ydpi="96" />
    <path
       d="M253.997,493.25 C250.932,497.566 247.236,500.948 244.116,505.108 C238.11,513.115 228.581,518.39 224.354,526.846 C222.722,530.108 259.17,562.136 263.878,559.782 C267.578,557.932 296.46,530.444 292.862,526.846 C281.963,515.947 269.171,505.132 257.949,493.909"
       fill-opacity="0"
       stroke="#FF0000"
       stroke-width="4"
       stroke-linecap="round"
       stroke-linejoin="round"
       id="path18366"
       style="stroke:#8f123e;stroke-opacity:1"
       inkscape:export-xdpi="96"
       inkscape:export-ydpi="96" />
    <path
       d="M381.011,455.243 C370.231,455.119 346.424,451.734 338.444,457.054 C334.674,459.568 332.961,500.171 337.728,504.904 C342.513,509.654 416.1,509.454 420.301,506.19 C423.826,503.451 424.757,461.348 418.066,458.002 C408.275,453.107 391.693,455.057 380.887,455.057"
       fill-opacity="0"
       stroke="#FF0000"
       stroke-width="4"
       stroke-linecap="round"
       stroke-linejoin="round"
       id="path18368"
       style="stroke:#8f123e;stroke-opacity:1"
       inkscape:export-xdpi="96"
       inkscape:export-ydpi="96" />
    <path
       d="M487.219,502.742 C481.677,502.603 476.782,502.018 472.624,506.176 C453.335,525.465 479.063,542.235 492.37,535.796 C507.018,528.708 502.01,501.884 483.356,501.884"
       fill-opacity="0"
       stroke="#FF0000"
       stroke-width="4"
       stroke-linecap="round"
       stroke-linejoin="round"
       id="path18370"
       style="stroke:#8f123e;stroke-opacity:1"
       inkscape:export-xdpi="96"
       inkscape:export-ydpi="96" />
    <path
       d="M487.648,490.294 C446.429,491.265 441.509,540.82 482.926,549.103 C488.376,550.193 494.34,549.466 499.239,546.528 C516.166,536.371 521.559,489.924 484.644,489.924"
       fill-opacity="0"
       stroke="#FF0000"
       stroke-width="4"
       stroke-linecap="round"
       stroke-linejoin="round"
       id="path18372"
       style="stroke:#8f123e;stroke-opacity:1"
       inkscape:export-xdpi="96"
       inkscape:export-ydpi="96" />
    <path
       d="M376.525,598.93 C387.303,599.173 411.072,602.819 419.11,597.587 C422.907,595.115 425.067,554.533 420.351,549.748 C415.619,544.946 342.035,544.336 337.798,547.554 C334.243,550.254 332.849,592.344 339.503,595.763 C349.24,600.766 365.842,598.999 376.647,599.117"
       fill-opacity="0"
       stroke="#FF0000"
       stroke-width="4"
       stroke-linecap="round"
       stroke-linejoin="round"
       id="path18374"
       style="stroke:#8f123e;stroke-opacity:1"
       inkscape:export-xdpi="96"
       inkscape:export-ydpi="96" />
    <path
       d="M190.962,527.217 C202.048,528.812 213.517,528.298 224.808,528.298"
       fill-opacity="0"
       stroke="#FF0000"
       stroke-width="4"
       stroke-linecap="round"
       stroke-linejoin="round"
       id="path18376"
       style="stroke:#8f123e;stroke-opacity:1"
       inkscape:export-xdpi="96"
       inkscape:export-ydpi="96" />
    <path
       d="M255.774,489.05 C257.202,486.199 253.598,477.544 255.774,475.368 C257.098,474.044 266.846,475.368 268.736,475.368 C290.544,475.368 312.422,475.008 334.268,475.008"
       fill-opacity="0"
       stroke="#FF0000"
       stroke-width="4"
       stroke-linecap="round"
       stroke-linejoin="round"
       id="path18378"
       style="stroke:#8f123e;stroke-opacity:1"
       inkscape:export-xdpi="96"
       inkscape:export-ydpi="96" />
    <path
       d="M262.615,563.224 C263.527,565.049 261.073,573.718 262.615,574.746 C265.216,576.48 319.871,574.837 331.028,577.626"
       fill-opacity="0"
       stroke="#FF0000"
       stroke-width="4"
       stroke-linecap="round"
       stroke-linejoin="round"
       id="path18380"
       style="stroke:#8f123e;stroke-opacity:1"
       inkscape:export-xdpi="96"
       inkscape:export-ydpi="96" />
    <path
       d="M426.704,482.852 C430.501,483.546 437.877,481.234 440.917,484.273 C442.665,486.022 437.397,524.205 438.074,524.543 C441.076,526.044 448.042,524.667 451.339,525.491"
       fill-opacity="0"
       stroke="#FF0000"
       stroke-width="4"
       stroke-linecap="round"
       stroke-linejoin="round"
       id="path18382"
       style="stroke:#8f123e;stroke-opacity:1"
       inkscape:export-xdpi="96"
       inkscape:export-ydpi="96" />
    <path
       d="M423.03,580.209 C425.419,578.916 436.675,582.794 438.548,580.921 C440.43,579.04 439.022,531.37 439.022,525.491"
       fill-opacity="0"
       stroke="#FF0000"
       stroke-width="4"
       stroke-linecap="round"
       stroke-linejoin="round"
       id="path18384"
       style="stroke:#8f123e;stroke-opacity:1"
       inkscape:export-xdpi="96"
       inkscape:export-ydpi="96" />
    <path
       d="M326.385,317.117 C326.923,296.56 325.241,276.965 325.241,256.512"
       fill-opacity="0"
       stroke="#FF0000"
       stroke-width="4"
       stroke-linecap="round"
       stroke-linejoin="round"
       id="path18386"
       style="stroke:#8f123e;stroke-opacity:1" />
    <path
       d="M319.523,252.643 C281.851,260.086 218.891,249.865 189.153,252.643"
       fill-opacity="0"
       stroke="#FF0000"
       stroke-width="4"
       stroke-linecap="round"
       stroke-linejoin="round"
       id="path18388"
       style="stroke:#8f123e;stroke-opacity:1" />
    <path
       d="M189.153,252.643 C189.485,272.514 188.401,293.095 192.584,311.959"
       fill-opacity="0"
       stroke="#FF0000"
       stroke-width="4"
       stroke-linecap="round"
       stroke-linejoin="round"
       id="path18390"
       style="stroke:#8f123e;stroke-opacity:1" />
    <path
       d="M320.667,315.827 C276.611,312.373 233.706,313.248 190.296,313.248"
       fill-opacity="0"
       stroke="#FF0000"
       stroke-width="4"
       stroke-linecap="round"
       stroke-linejoin="round"
       id="path18392"
       style="stroke:#8f123e;stroke-opacity:1" />
    <path
       d="M317.763,192.583 C333.814,181.831 359.596,182.017 377.411,170.405 C427.6,137.692 371.401,88.521 347.645,104.005 C333.925,112.947 316.286,132.143 303.182,142.958 C290.548,153.384 239.229,152.425 223.083,178.181 C204.199,208.304 240.377,246.333 265.722,234.845 C277.868,229.339 302.333,204.262 317.862,192.799"
       fill-opacity="0"
       stroke="#FF0000"
       stroke-width="4"
       stroke-linecap="round"
       stroke-linejoin="round"
       id="path18394"
       style="stroke:#8f123e;stroke-opacity:1" />
    <path
       d="M312.175,245.577 C312.676,227.33 317.852,214.971 303.605,204.261"
       fill-opacity="0"
       stroke="#FF0000"
       stroke-width="4"
       stroke-linecap="round"
       stroke-linejoin="round"
       id="path18396"
       style="stroke:#8f123e;stroke-opacity:1" />
    <path
       d="M218.891,185.546 C206.961,204.842 200.698,230.447 203.158,249.865"
       fill-opacity="0"
       stroke="#FF0000"
       stroke-width="4"
       stroke-linecap="round"
       stroke-linejoin="round"
       id="path18398"
       style="stroke:#8f123e;stroke-opacity:1" />
    <path
       d="M388.354,116.812 C407.24,139.817 465.272,163.51 457.347,183.389 C443.868,217.194 388.635,179.377 376.117,170.353"
       fill-opacity="0"
       stroke="#FF0000"
       stroke-width="4"
       stroke-linecap="round"
       stroke-linejoin="round"
       id="path18400"
       style="stroke:#8f123e;stroke-opacity:1" />
    <path
       d="M458.062,174.294 C468.764,189.378 469.777,192.505 468.075,205.616 C466.719,216.063 480.001,237.332 480.35,236.938 C483.26,233.657 443.834,198.474 442.558,196.875"
       fill-opacity="0"
       stroke="#FF0000"
       stroke-width="4"
       stroke-linecap="round"
       stroke-linejoin="round"
       id="path18402"
       style="stroke:#8f123e;stroke-opacity:1" />
    <path
       d="M745.763,407.388 C706.904,411.121 667.583,410.185 628.311,410.185"
       fill-opacity="0"
       stroke="#000000"
       stroke-width="4"
       stroke-linecap="round"
       stroke-linejoin="round"
       id="path18404" />
    <path
       d="M744.365,411.583 C738.792,485.331 742.966,559.705 742.966,633.904"
       fill-opacity="0"
       stroke="#000000"
       stroke-width="4"
       stroke-linecap="round"
       stroke-linejoin="round"
       id="path18406" />
    <path
       d="M747.161,626.912 C709.875,626.912 672.588,626.912 635.302,626.912"
       fill-opacity="0"
       stroke="#000000"
       stroke-width="4"
       stroke-linecap="round"
       stroke-linejoin="round"
       id="path18408" />
    <path
       d="M635.302,414.38 C645.404,482.867 645.09,551.813 645.09,621.319"
       fill-opacity="0"
       stroke="#000000"
       stroke-width="4"
       stroke-linecap="round"
       stroke-linejoin="round"
       id="path18410" />
    <path
       d="M719.196,432.557 C699.621,432.557 680.046,432.557 660.47,432.557"
       fill-opacity="0"
       stroke="#000000"
       stroke-width="4"
       stroke-linecap="round"
       stroke-linejoin="round"
       id="path18412" />
    <path
       d="M664.665,440.946 C664.665,445.607 664.665,450.268 664.665,454.929"
       fill-opacity="0"
       stroke="#000000"
       stroke-width="4"
       stroke-linecap="round"
       stroke-linejoin="round"
       id="path18414" />
    <path
       d="M724.571,437.708 C724.073,442.703 723.995,447.64 723.995,452.684"
       fill-opacity="0"
       stroke="#000000"
       stroke-width="4"
       stroke-linecap="round"
       stroke-linejoin="round"
       id="path18416" />
    <path
       d="M721.691,457.293 C702.04,456.785 682.519,457.869 662.936,457.869"
       fill-opacity="0"
       stroke="#000000"
       stroke-width="4"
       stroke-linecap="round"
       stroke-linejoin="round"
       id="path18418" />
    <path
       d="M699.226,581.139 C695.621,581.707 691.023,580.057 687.705,581.715 C676.765,587.186 685.883,601.9 702.106,597.844 C711.367,595.529 708.974,579.987 699.802,579.987"
       fill-opacity="0"
       stroke="#000000"
       stroke-width="4"
       stroke-linecap="round"
       stroke-linejoin="round"
       id="path18420" />
    <path
       d="M552.747,292.469 C556.663,293.844 562.48,296.554 564.884,300.561 C574.701,316.922 585.845,336.848 601.296,348.436 C611.414,356.025 623.181,357.815 634.336,362.596 C656.101,371.924 674.765,390.156 682.211,412.494"
       fill-opacity="0"
       stroke="#000000"
       stroke-width="4"
       stroke-linecap="round"
       stroke-linejoin="round"
       id="path18422" />
    <path
       d="M633.29,219.117 C634.94,219.02 632.465,221.472 633.29,221.884 C641.241,225.86 639.498,235.696 644.359,242.178 C646.693,245.29 649.802,242.858 651.016,246.5"
       fill-opacity="0"
       stroke="#000000"
       stroke-width="4"
       stroke-linecap="round"
       stroke-linejoin="round"
       id="path18424" />
    <path
       d="M667.565,251.402 C671.96,257.302 680.665,262.211 687.224,265.854 C730.28,279.283 745.276,288.638 758.198,311.252 C763.901,321.232 767.837,335.262 765.871,347.059 C763.371,362.059 730.136,384.263 723.031,393.736 C719.686,398.195 720.228,404.456 717.916,409.082"
       fill-opacity="0"
       stroke="#000000"
       stroke-width="4"
       stroke-linecap="round"
       stroke-linejoin="round"
       id="path18426" />
  </g>
</svg>
