<?xml version="1.0" encoding="UTF-8" standalone="no"?>
<svg
   xmlns:dc="http://purl.org/dc/elements/1.1/"
   xmlns:cc="http://creativecommons.org/ns#"
   xmlns:rdf="http://www.w3.org/1999/02/22-rdf-syntax-ns#"
   xmlns:svg="http://www.w3.org/2000/svg"
   xmlns="http://www.w3.org/2000/svg"
   xmlns:sodipodi="http://sodipodi.sourceforge.net/DTD/sodipodi-0.dtd"
   xmlns:inkscape="http://www.inkscape.org/namespaces/inkscape"
   version="1.1"
   x="0"
   y="0"
   width="944"
   height="704"
   viewBox="0, 0, 944, 704"
   id="svg62"
   sodipodi:docname="SKR.svg"
   inkscape:version="0.92.1 r15371"
   inkscape:export-filename="X:\07-Administration\04-CoC\CoC-ML\intern\Präsentationen\Fachliche Szenarien\ML Poster Sketches\ML Poster\SKR.png"
   inkscape:export-xdpi="96"
   inkscape:export-ydpi="96">
  <metadata
     id="metadata68">
    <rdf:RDF>
      <cc:Work
         rdf:about="">
        <dc:format>image/svg+xml</dc:format>
        <dc:type
           rdf:resource="http://purl.org/dc/dcmitype/StillImage" />
      </cc:Work>
    </rdf:RDF>
  </metadata>
  <defs
     id="defs66" />
  <sodipodi:namedview
     pagecolor="#ffffff"
     bordercolor="#666666"
     borderopacity="1"
     objecttolerance="10"
     gridtolerance="10"
     guidetolerance="10"
     inkscape:pageopacity="0"
     inkscape:pageshadow="2"
     inkscape:window-width="1920"
     inkscape:window-height="1027"
     id="namedview64"
     showgrid="false"
     inkscape:zoom="0.33522727"
     inkscape:cx="-179.79661"
     inkscape:cy="352"
     inkscape:window-x="-8"
     inkscape:window-y="-8"
     inkscape:window-maximized="1"
     inkscape:current-layer="Layer_1" />
  <g
     id="Layer_1">
    <path
       d="M346.534,500.066 C334.967,468.909 239.942,406.881 229.534,386.066"
       fill-opacity="0"
       stroke="#000000"
       stroke-width="4"
       stroke-linecap="round"
       stroke-linejoin="round"
       id="path5" />
    <path
       d="M232.534,386.066 C328.301,391.174 424.119,393.066 520.534,393.066 C543.283,393.066 566.815,396.338 589.534,394.066 C609.558,392.064 628.069,388.066 648.534,388.066"
       fill-opacity="0"
       stroke="#000000"
       stroke-width="4"
       stroke-linecap="round"
       stroke-linejoin="round"
       id="path7" />
    <path
       d="M647.534,390.066 C626.062,410.023 605.366,430.234 584.534,451.066"
       fill-opacity="0"
       stroke="#000000"
       stroke-width="4"
       stroke-linecap="round"
       stroke-linejoin="round"
       id="path9" />
    <path
       d="M433.534,379.066 C422.383,297.544 431.216,208.793 411.534,130.066"
       fill-opacity="0"
       stroke="#000000"
       stroke-width="4"
       stroke-linecap="round"
       stroke-linejoin="round"
       id="path11" />
    <path
       d="M407.534,129.066 C456.144,197.105 519.518,254.456 590.534,297.066"
       fill-opacity="0"
       stroke="#000000"
       stroke-width="4"
       stroke-linecap="round"
       stroke-linejoin="round"
       id="path13" />
    <path
       d="M590.534,308.066 C491.781,311.351 392.285,313.066 293.534,313.066"
       fill-opacity="0"
       stroke="#000000"
       stroke-width="4"
       stroke-linecap="round"
       stroke-linejoin="round"
       id="path15" />
    <path
       d="M417.534,133.066 C406.819,208.38 332.871,281.314 274.534,325.066"
       fill-opacity="0"
       stroke="#000000"
       stroke-width="4"
       stroke-linecap="round"
       stroke-linejoin="round"
       id="path17" />
    <path
       d="M582.534,454.066 C554.648,464.587 527.626,473.229 500.534,484.066"
       fill-opacity="0"
       stroke="#000000"
       stroke-width="4"
       stroke-linecap="round"
       stroke-linejoin="round"
       id="path19" />
    <path
       d="M584.534,454.066 C578.174,481.989 571.507,503.737 559.534,534.066"
       fill-opacity="0"
       stroke="#000000"
       stroke-width="4"
       stroke-linecap="round"
       stroke-linejoin="round"
       id="path21" />
    <path
       d="M500.471,484.066 C426.151,545.633 351.546,607.363 274.534,665.121"
       fill-opacity="0"
       stroke="#000000"
       stroke-width="4"
       stroke-linecap="round"
       stroke-linejoin="round"
       id="path23" />
    <path
       d="M560.791,534.56 C500.809,583.323 438.851,631.84 377.696,679.405"
       fill-opacity="0"
       stroke="#000000"
       stroke-width="4"
       stroke-linecap="round"
       stroke-linejoin="round"
       id="path25" />
    <path
       d="M504.69,484.579 C505.548,493.296 506.163,502.203 508.26,510.59"
       fill-opacity="0"
       stroke="#000000"
       stroke-width="4"
       stroke-linecap="round"
       stroke-linejoin="round"
       id="path27" />
    <path
       d="M508.26,510.59 C512.347,515.078 528.806,526.431 533.761,529.97"
       fill-opacity="0"
       stroke="#000000"
       stroke-width="4"
       stroke-linecap="round"
       stroke-linejoin="round"
       id="path29" />
    <path
       d="M558.241,532.52 C549.857,533.02 541.81,530.775 533.761,529.97"
       fill-opacity="0"
       stroke="#000000"
       stroke-width="4"
       stroke-linecap="round"
       stroke-linejoin="round"
       id="path31" />
    <path
       d="M504.02,511.547 C448.422,564.004 383.076,607.082 328.747,661.411"
       fill-opacity="0"
       stroke="#000000"
       stroke-width="4"
       stroke-linecap="round"
       stroke-linejoin="round"
       id="path33" />
    <path
       d="M530.467,531.253 C466.83,568.225 416.039,624.765 356.749,667.115"
       fill-opacity="0"
       stroke="#000000"
       stroke-width="4"
       stroke-linecap="round"
       stroke-linejoin="round"
       id="path35" />
    <path
       d="M556.395,466.951 C560.175,475.701 568.774,480.814 578.174,481.989"
       fill-opacity="0"
       stroke="#000000"
       stroke-width="4"
       stroke-linecap="round"
       stroke-linejoin="round"
       id="path37" />
    <text
       transform="translate(422.034,74.47)"
       id="text41"
       style="fill:#8f123e;fill-opacity:1">
      <tspan
         x="-73.014"
         y="23.5"
         font-size="65"
         id="tspan39"
         style="font-size:65px;font-family:'msg Text Heavy';fill:#8f123e;fill-opacity:1;-inkscape-font-specification:'msg Text Heavy, ';font-weight:normal;font-style:normal;font-stretch:normal;font-variant:normal">Ship</tspan>
    </text>
    <path
       d="M860.5,293.841 C856.726,300.241 831.044,336.81 827.184,337.764 C815.333,340.693 758.167,337.764 741.302,337.764 C736.161,337.764 701.242,339.149 699.101,337.032 C697.688,335.635 695.248,314.908 694.659,311.41 C693.419,304.052 684.585,282.794 685.034,282.128 C686.471,279.997 737.728,286.52 745.003,286.52 C747.887,286.52 758.436,288.299 759.07,285.788 C761.063,277.907 755.819,220.413 759.811,218.439 C762.787,216.968 767.01,218.333 770.176,217.707 C771.691,217.408 777.834,215.435 779.06,216.243 C782.447,218.475 776.968,255.169 779.801,257.97 C783.383,261.512 812.136,253.766 816.819,257.238 C819.009,258.863 819.495,263.109 821.261,265.291 C835.485,282.871 827.298,290.913 854.577,290.913"
       fill-opacity="0"
       stroke="#000000"
       stroke-width="4"
       stroke-linecap="round"
       stroke-linejoin="round"
       id="path43" />
    <path
       d="M787.021,203.605 C791.018,192.565 775.916,181.457 775.916,180.911 C775.916,170.663 777.643,164.725 767.772,158.218 C764.852,156.293 758.556,155.92 755.186,156.754 C754.17,157.005 753.705,159.682 752.965,158.95 C752.759,158.746 753.102,155.832 752.965,155.289 C751.918,151.147 736.355,142.327 732.975,146.505 C731.021,148.92 730.997,154.532 731.494,157.486 C731.641,158.353 734.605,158.95 733.715,158.95 C725.032,158.95 724.269,165.64 724.831,172.859 C726.402,193.056 746.527,198.194 747.782,200.677 C748.555,202.205 747.01,204.273 747.782,205.801 C750.454,211.084 757.124,214.249 762.59,216.05"
       fill-opacity="0"
       stroke="#000000"
       stroke-width="4"
       stroke-linecap="round"
       stroke-linejoin="round"
       id="path45" />
    <path
       d="M818.089,282.776 C814.069,279.319 813.851,270.701 809.196,267.632 C805.925,265.476 794.487,267.632 790.423,267.632 C789.82,267.632 786.855,267.252 786.47,267.632 C785.357,268.733 786.47,277.45 786.47,279.357 C786.47,280.87 786.059,286.807 786.964,288.15 C787.553,289.023 814.884,287.661 819.077,287.661"
       fill-opacity="0"
       stroke="#000000"
       stroke-width="4"
       stroke-linecap="round"
       stroke-linejoin="round"
       id="path47" />
    <path
       d="M242.067,289.571 C234.29,301.138 227.123,312.496 215.748,321.316 C199.989,333.536 83.106,332.126 67.703,320.183 C49.301,305.914 53.453,304.323 44.674,286.17"
       fill-opacity="0"
       stroke="#000000"
       stroke-width="4"
       stroke-linecap="round"
       stroke-linejoin="round"
       id="path49" />
    <path
       d="M231.101,289.571 C171.671,286.16 110.799,285.036 51.254,285.036"
       fill-opacity="0"
       stroke="#000000"
       stroke-width="4"
       stroke-linecap="round"
       stroke-linejoin="round"
       id="path51" />
    <path
       d="M209.448,282.926 C206.884,273.481 215.598,210.41 210.479,205.118 C207.662,202.206 192.648,202.454 188.313,202.454 C186.543,202.454 177.595,199.678 175.942,201.388 C174.286,203.1 174.911,215.892 174.911,217.909 C174.911,233.599 179.277,222.673 184.189,232.831 C185.654,235.86 186.251,280.186 186.251,286.124"
       fill-opacity="0"
       stroke="#000000"
       stroke-width="4"
       stroke-linecap="round"
       stroke-linejoin="round"
       id="path53" />
    <path
       d="M166.663,281.86 C166.642,277.424 167.167,272.848 168.209,268.537 C168.879,265.77 171.915,255.315 169.756,253.082 C169.74,253.066 137.639,252.179 137.28,252.549 C133.271,256.694 136.765,274.759 136.765,281.327"
       fill-opacity="0"
       stroke="#000000"
       stroke-width="4"
       stroke-linecap="round"
       stroke-linejoin="round"
       id="path55" />
    <path
       d="M130.064,281.86 C128.427,265.375 139.053,243.767 116.661,251.483 C107.118,254.772 99.65,245.342 99.65,259.477 C99.65,266.204 98.632,274.451 100.166,280.795"
       fill-opacity="0"
       stroke="#000000"
       stroke-width="4"
       stroke-linecap="round"
       stroke-linejoin="round"
       id="path57" />
    <path
       d="M94.495,281.86 C92.826,255.693 104.951,245.507 79.546,249.885 C61.494,252.995 62.801,246.625 60.474,265.872 C59.811,271.356 58.104,277.494 59.958,281.328"
       fill-opacity="0"
       stroke="#000000"
       stroke-width="4"
       stroke-linecap="round"
       stroke-linejoin="round"
       id="path59" />
  </g>
</svg>
