<?xml version="1.0" encoding="UTF-8" standalone="no"?>
<svg
   xmlns:dc="http://purl.org/dc/elements/1.1/"
   xmlns:cc="http://creativecommons.org/ns#"
   xmlns:rdf="http://www.w3.org/1999/02/22-rdf-syntax-ns#"
   xmlns:svg="http://www.w3.org/2000/svg"
   xmlns="http://www.w3.org/2000/svg"
   xmlns:sodipodi="http://sodipodi.sourceforge.net/DTD/sodipodi-0.dtd"
   xmlns:inkscape="http://www.inkscape.org/namespaces/inkscape"
   version="1.1"
   x="0"
   y="0"
   width="944"
   height="704"
   viewBox="0, 0, 944, 704"
   id="svg13499"
   sodipodi:docname="SRE.svg"
   inkscape:export-filename="X:\07-Administration\04-CoC\CoC-ML\intern\Präsentationen\Fachliche Szenarien\ML Poster Sketches\ML Poster\SRE.png"
   inkscape:export-xdpi="96"
   inkscape:export-ydpi="96"
   inkscape:version="0.92.1 r15371">
  <metadata
     id="metadata13505">
    <rdf:RDF>
      <cc:Work
         rdf:about="">
        <dc:format>image/svg+xml</dc:format>
        <dc:type
           rdf:resource="http://purl.org/dc/dcmitype/StillImage" />
      </cc:Work>
    </rdf:RDF>
  </metadata>
  <defs
     id="defs13503" />
  <sodipodi:namedview
     pagecolor="#ffffff"
     bordercolor="#666666"
     borderopacity="1"
     objecttolerance="10"
     gridtolerance="10"
     guidetolerance="10"
     inkscape:pageopacity="0"
     inkscape:pageshadow="2"
     inkscape:window-width="1920"
     inkscape:window-height="1027"
     id="namedview13501"
     showgrid="false"
     inkscape:zoom="1.3409091"
     inkscape:cx="370.99322"
     inkscape:cy="276.12316"
     inkscape:window-x="-8"
     inkscape:window-y="-8"
     inkscape:window-maximized="1"
     inkscape:current-layer="g13496" />
  <g
     id="Layer_2" />
  <g
     id="Layer_1">
    <path
       d="M126.471,214.577 C133.797,220.756 135.85,229.278 130.669,236.49"
       fill-opacity="0"
       stroke="#000000"
       stroke-width="4"
       stroke-linecap="round"
       stroke-linejoin="round"
       id="path13434" />
    <path
       d="M131.193,207.678 C125.869,215.464 117.593,223.491 107.055,226.751"
       fill-opacity="0"
       stroke="#000000"
       stroke-width="4"
       stroke-linecap="round"
       stroke-linejoin="round"
       id="path13436" />
    <path
       d="M136.441,238.114 C126.411,233.122 115.513,231.306 104.431,229.592"
       fill-opacity="0"
       stroke="#000000"
       stroke-width="4"
       stroke-linecap="round"
       stroke-linejoin="round"
       id="path13438" />
    <path
       d="M131.413,234.009 C131.193,257.049 189.59,289.213 138.568,289.213"
       fill-opacity="0"
       stroke="#000000"
       stroke-width="4"
       stroke-linecap="round"
       stroke-linejoin="round"
       id="path13440" />
    <path
       d="M136.975,289.213 C131.413,292.558 131.112,301.248 134.059,305.448"
       fill-opacity="0"
       stroke="#000000"
       stroke-width="4"
       stroke-linecap="round"
       stroke-linejoin="round"
       id="path13442" />
    <path
       d="M133.732,304.091 C138.642,311.646 136.278,311.904 131.413,315.104"
       fill-opacity="0"
       stroke="#000000"
       stroke-width="4"
       stroke-linecap="round"
       stroke-linejoin="round"
       id="path13444" />
    <path
       d="M131.413,315.104 C125.099,317.659 113.966,319.16 107.07,318.775"
       fill-opacity="0"
       stroke="#000000"
       stroke-width="4"
       stroke-linecap="round"
       stroke-linejoin="round"
       id="path13446" />
    <path
       d="M107.055,319.716 C114.463,321.87 125.519,325.893 132.021,328.776"
       fill-opacity="0"
       stroke="#000000"
       stroke-width="4"
       stroke-linecap="round"
       stroke-linejoin="round"
       id="path13448" />
    <path
       d="M132.021,328.776 C141.119,333.544 129.562,338.427 127.693,341.977 C125.424,346.288 129.895,352.583 128.377,356.909 C124.98,366.59 107.358,366.333 99.902,363.185"
       fill-opacity="0"
       stroke="#000000"
       stroke-width="4"
       stroke-linecap="round"
       stroke-linejoin="round"
       id="path13450" />
    <path
       d="M125.686,208.815 C127.65,195.374 121.871,184.83 118.739,172.929"
       fill-opacity="0"
       stroke="#000000"
       stroke-width="4"
       stroke-linecap="round"
       stroke-linejoin="round"
       id="path13452" />
    <path
       d="M102.24,184.891 C106.758,169.879 122.888,158.172 136.975,151.48"
       fill-opacity="0"
       stroke="#000000"
       stroke-width="4"
       stroke-linecap="round"
       stroke-linejoin="round"
       id="path13454" />
    <path
       d="M92.688,178.704 C97.217,162.763 113.884,151.724 128.291,144.881"
       fill-opacity="0"
       stroke="#000000"
       stroke-width="4"
       stroke-linecap="round"
       stroke-linejoin="round"
       id="path13456" />
    <path
       d="M84.004,177.467 C84.984,164.486 98.254,151.724 110.055,146.118"
       fill-opacity="0"
       stroke="#000000"
       stroke-width="4"
       stroke-linecap="round"
       stroke-linejoin="round"
       id="path13458" />
    <path
       d="M78.359,171.692 C75.651,158.24 84.492,152.86 92.253,143.643"
       fill-opacity="0"
       stroke="#000000"
       stroke-width="4"
       stroke-linecap="round"
       stroke-linejoin="round"
       id="path13460" />
    <path
       d="M149.64,303.812 C157.57,311.979 155.149,324.139 151.119,333.327"
       fill-opacity="0"
       stroke="#000000"
       stroke-width="4"
       stroke-linecap="round"
       stroke-linejoin="round"
       id="path13462" />
    <path
       d="M163.167,298.015 C171.381,310.748 170.638,326.408 167.063,339.426"
       fill-opacity="0"
       stroke="#000000"
       stroke-width="4"
       stroke-linecap="round"
       stroke-linejoin="round"
       id="path13464" />
    <path
       d="M177.778,291.305 C191.772,304.521 186.803,325.797 180.701,341.739"
       fill-opacity="0"
       stroke="#000000"
       stroke-width="4"
       stroke-linecap="round"
       stroke-linejoin="round"
       id="path13466" />
    <path
       d="M193.121,283.902 C210.037,302.24 205.828,326.37 195.312,345.441"
       fill-opacity="0"
       stroke="#000000"
       stroke-width="4"
       stroke-linecap="round"
       stroke-linejoin="round"
       id="path13468" />
    <path
       d="M333.794,288.771 C335.597,314.012 336.109,338.721 330.55,346.644 C326.128,352.945 295.392,355.339 291.26,343.562 C285.539,327.258 288.736,308.885 288.736,291.169"
       fill-opacity="0"
       stroke="#000000"
       stroke-width="4"
       stroke-linecap="round"
       stroke-linejoin="round"
       id="path13470" />
    <path
       d="M313.248,353.492 C312.36,360.3 313.248,367.32 313.248,374.038"
       fill-opacity="0"
       stroke="#000000"
       stroke-width="4"
       stroke-linecap="round"
       stroke-linejoin="round"
       id="path13472" />
    <path
       d="M321.899,365.135 C343.624,374.459 327.569,392.25 308.562,387.736 C297.154,385.027 291.961,367.791 305.678,366.162"
       fill-opacity="0"
       stroke="#000000"
       stroke-width="4"
       stroke-linecap="round"
       stroke-linejoin="round"
       id="path13474" />
    <path
       d="M305.486,263.89 L316.841,263.89 C321.475,263.89 325.783,268.66 325.783,273.063 L325.232,325.628 C325.232,330.03 321.475,333.599 316.841,333.599 L307.301,334.123 C302.667,334.123 297.094,330.03 297.094,325.628 L297.094,271.862 C297.094,267.459 300.851,263.89 305.486,263.89 z"
       fill-opacity="0"
       stroke="#000000"
       stroke-width="4"
       id="path13476" />
    <path
       d="M423.303,318.998 C424.969,317.013 426.011,317.615 426.592,319.868 C433.241,345.646 435.432,305.222 439.151,305.667 C440.844,305.87 442.004,336.721 444.832,336.677 C448.702,336.616 454.785,283.955 458.558,283.955 C462.21,283.955 458.989,328.098 462.175,345.081 C462.577,347.226 464.996,358.466 468.753,357.253 C471.91,356.233 471.965,346.872 472.341,344.501 C475.658,279.82 475.666,253.507 480.063,253.475 C485.789,253.433 483.8,371.048 489.983,371.164 C496.018,371.276 499.595,307.73 504.934,307.696 C506.731,307.684 508.426,329.182 511.213,329.431 C514.213,329.7 513.748,300.633 522.874,298.422 C527.362,297.335 526.456,328.852 529.752,328.852 C532.126,328.852 536.952,305.382 539.619,305.377 C541.922,305.373 544.174,318.823 546.198,318.129 C547.741,317.599 551.147,309.856 552.794,309.856 C554.503,309.856 561.867,314.651 567.128,314.651"
       fill-opacity="0"
       stroke="#000000"
       stroke-width="4"
       stroke-linecap="round"
       stroke-linejoin="round"
       id="path13478" />
    <g
       id="g13496">
      <path
         d="M177.778,499.788 L706.557,497.427"
         fill-opacity="0"
         stroke="#FF0000"
         stroke-width="4"
         id="path13492"
         style="stroke:#8f123e;stroke-opacity:1" />
      <path
         d="M706.579,502.227 L719.357,497.37 L706.536,492.627 z"
         fill="#FF0000"
         fill-opacity="1"
         stroke="#FF0000"
         stroke-width="4"
         stroke-opacity="1"
         id="path13494"
         style="stroke:#8f123e;stroke-opacity:1;fill:#8f123e;fill-opacity:1" />
    </g>
    <text
       xml:space="preserve"
       style="font-style:normal;font-variant:normal;font-weight:normal;font-stretch:normal;font-size:40px;line-height:1.25;font-family:'msg Text Heavy';-inkscape-font-specification:'msg Text Heavy, ';text-align:center;letter-spacing:0px;word-spacing:0px;text-anchor:middle;fill:#000000;fill-opacity:1;stroke:none"
       x="691.71808"
       y="279.88339"
       id="text13406"><tspan
         sodipodi:role="line"
         id="tspan13404"
         x="691.71808"
         y="279.88339"
         style="fill:#8f123e;fill-opacity:1">What</tspan><tspan
         sodipodi:role="line"
         x="691.71808"
         y="329.88339"
         id="tspan13408"
         style="fill:#8f123e;fill-opacity:1">is my</tspan><tspan
         sodipodi:role="line"
         x="691.71808"
         y="379.88339"
         id="tspan13410"
         style="fill:#8f123e;fill-opacity:1">balance?</tspan></text>
    <text
       xml:space="preserve"
       style="font-style:normal;font-variant:normal;font-weight:normal;font-stretch:normal;font-size:40px;line-height:1.25;font-family:'msg Text Heavy';-inkscape-font-specification:'msg Text Heavy, ';letter-spacing:0px;word-spacing:0px;fill:#000000;fill-opacity:1;stroke:none"
       x="155.11864"
       y="451.18643"
       id="text14076"><tspan
         sodipodi:role="line"
         id="tspan14074"
         x="155.11864"
         y="451.18643"
         style="fill:#8f123e;fill-opacity:1">Speech         -        Wave       -      Text     </tspan></text>
  </g>
</svg>
