<?xml version="1.0" encoding="UTF-8" standalone="no"?>
<svg
   xmlns:dc="http://purl.org/dc/elements/1.1/"
   xmlns:cc="http://creativecommons.org/ns#"
   xmlns:rdf="http://www.w3.org/1999/02/22-rdf-syntax-ns#"
   xmlns:svg="http://www.w3.org/2000/svg"
   xmlns="http://www.w3.org/2000/svg"
   xmlns:sodipodi="http://sodipodi.sourceforge.net/DTD/sodipodi-0.dtd"
   xmlns:inkscape="http://www.inkscape.org/namespaces/inkscape"
   version="1.1"
   x="0"
   y="0"
   width="944"
   height="704"
   viewBox="0, 0, 944, 704"
   id="svg11514"
   sodipodi:docname="SUM2.svg"
   inkscape:export-filename="X:\07-Administration\04-CoC\CoC-ML\intern\Präsentationen\Fachliche Szenarien\ML Poster Sketches\ML Poster\SUM2.png"
   inkscape:export-xdpi="96"
   inkscape:export-ydpi="96"
   inkscape:version="0.92.1 r15371">
  <metadata
     id="metadata11520">
    <rdf:RDF>
      <cc:Work
         rdf:about="">
        <dc:format>image/svg+xml</dc:format>
        <dc:type
           rdf:resource="http://purl.org/dc/dcmitype/StillImage" />
      </cc:Work>
    </rdf:RDF>
  </metadata>
  <defs
     id="defs11518" />
  <sodipodi:namedview
     pagecolor="#ffffff"
     bordercolor="#666666"
     borderopacity="1"
     objecttolerance="10"
     gridtolerance="10"
     guidetolerance="10"
     inkscape:pageopacity="0"
     inkscape:pageshadow="2"
     inkscape:window-width="1920"
     inkscape:window-height="1027"
     id="namedview11516"
     showgrid="false"
     inkscape:zoom="0.94816591"
     inkscape:cx="311.38562"
     inkscape:cy="380.761"
     inkscape:window-x="-8"
     inkscape:window-y="-8"
     inkscape:window-maximized="1"
     inkscape:current-layer="Layer_1" />
  <g
     id="Layer_1">
    <path
       d="M391.5,92.5 C294.383,93.418 197.479,90.5 100.5,90.5"
       fill-opacity="0"
       stroke="#000000"
       stroke-width="4"
       stroke-linecap="round"
       stroke-linejoin="round"
       id="path11425" />
    <path
       d="M99.5,91.5 C104.83,226.293 92.5,360.16 92.5,494.5"
       fill-opacity="0"
       stroke="#000000"
       stroke-width="4"
       stroke-linecap="round"
       stroke-linejoin="round"
       id="path11427" />
    <path
       d="M94.5,501.5 C195.316,501.826 297.44,504.594 396.5,514.5"
       fill-opacity="0"
       stroke="#000000"
       stroke-width="4"
       stroke-linecap="round"
       stroke-linejoin="round"
       id="path11429" />
    <path
       d="M394.5,513.5 C379.976,376.839 392.5,238.449 392.5,101.5"
       fill-opacity="0"
       stroke="#000000"
       stroke-width="4"
       stroke-linecap="round"
       stroke-linejoin="round"
       id="path11431" />
    <path
       d="M126.034,136.991 L128.116,137.162 L132.284,137.473 L136.445,137.742 L140.6,137.973 L144.748,138.167 L148.89,138.326 L155.094,138.503 L163.348,138.636 L171.59,138.667 L179.819,138.613 L188.04,138.489 L200.363,138.21 L216.8,137.752 L229.147,137.415 L237.393,137.226 L245.656,137.083 L253.939,137.003 L258.088,136.993 L258.088,136.993 C259.663,136.99 261.125,131.394 261.352,124.495 C261.58,117.595 260.488,112.004 258.912,112.007 L254.754,112.018 L246.461,112.097 L238.191,112.24 L229.939,112.43 L217.592,112.767 L201.162,113.225 L188.849,113.504 L180.638,113.627 L172.423,113.682 L164.198,113.651 L155.958,113.518 L149.769,113.341 L145.637,113.183 L141.499,112.99 L137.357,112.76 L133.208,112.491 L129.051,112.181 L126.966,112.009 C125.396,111.882 123.914,117.37 123.656,124.269 C123.399,131.167 124.463,136.863 126.034,136.991 L126.034,136.991"
       fill="#FF0000"
       id="path11433"
       style="fill:#8f123e;fill-opacity:1" />
    <path
       d="M291.988,136.985 L293.141,137.162 L295.482,137.469 L297.848,137.715 L300.233,137.903 L302.635,138.04 L305.053,138.129 L307.485,138.177 L309.928,138.188 L313.611,138.147 L318.55,138.011 L323.509,137.821 L328.473,137.617 L333.427,137.438 L338.359,137.326 L342.033,137.309 L344.466,137.34 L346.888,137.409 L349.295,137.523 L351.685,137.685 L354.056,137.902 L356.406,138.177 L358.735,138.516 L361.039,138.924 L363.316,139.405 L365.567,139.965 L367.788,140.608 L368.88,140.96 L368.88,140.96 C370.434,141.462 371.972,136.291 372.314,129.41 C372.657,122.528 371.674,116.543 370.12,116.04 L368.987,115.676 L366.715,115.019 L364.417,114.449 L362.094,113.959 L359.75,113.544 L357.386,113.201 L355.002,112.922 L352.601,112.703 L350.184,112.539 L347.754,112.424 L345.311,112.354 L342.855,112.324 L339.158,112.341 L334.208,112.453 L329.247,112.632 L324.287,112.837 L319.342,113.026 L314.425,113.161 L310.762,113.202 L308.338,113.191 L305.929,113.144 L303.537,113.056 L301.164,112.922 L298.81,112.736 L296.48,112.495 L294.168,112.192 L293.012,112.015 C291.446,111.775 289.947,117.17 289.664,124.066 C289.381,130.961 290.421,136.745 291.988,136.985 L291.988,136.985"
       fill="#FF0000"
       id="path11435"
       style="fill:#8f123e;fill-opacity:1" />
    <path
       d="M132.068,178.993 L136.692,179.128 L145.941,179.366 L155.188,179.56 L164.435,179.714 L178.307,179.876 L196.818,179.981 L206.085,179.993 L206.085,179.993 C207.661,179.995 209.123,174.404 209.352,167.504 C209.581,160.605 208.49,155.01 206.915,155.007 L197.653,154.995 L179.151,154.89 L165.285,154.728 L156.044,154.575 L146.802,154.381 L137.558,154.143 L132.932,154.007 C131.359,153.962 129.889,159.518 129.651,166.418 C129.412,173.317 130.494,178.947 132.068,178.993 L132.068,178.993"
       fill="#FF0000"
       id="path11437"
       style="fill:#8f123e;fill-opacity:1" />
    <path
       d="M250.004,177.988 L251.773,178.214 L255.339,178.609 L258.925,178.926 L262.527,179.172 L266.142,179.353 L269.77,179.474 L273.409,179.54 L277.059,179.559 L280.717,179.536 L284.382,179.476 L289.891,179.331 L297.25,179.064 L304.616,178.756 L311.977,178.453 L319.325,178.201 L324.817,178.073 L328.467,178.028 L332.109,178.021 L335.74,178.059 L339.359,178.147 L342.964,178.291 L346.553,178.496 L350.126,178.769 L353.682,179.114 L357.218,179.539 L360.734,180.048 L364.228,180.647 L365.962,180.981 L365.962,180.981 C367.525,181.284 369.034,175.941 369.331,169.048 C369.628,162.155 368.602,156.322 367.038,156.019 C367.038,156.019 367.038,156.019 367.038,156.019 L365.277,155.68 L361.749,155.076 L358.202,154.563 L354.635,154.135 L351.054,153.787 L347.455,153.513 L343.843,153.306 L340.218,153.162 L336.582,153.073 L332.935,153.036 L329.279,153.042 L325.615,153.088 L320.107,153.216 L312.752,153.469 L305.389,153.772 L298.03,154.08 L290.684,154.346 L285.189,154.491 L281.536,154.551 L277.894,154.574 L274.262,154.555 L270.642,154.489 L267.035,154.369 L263.443,154.19 L259.868,153.946 L256.31,153.631 L252.767,153.24 L250.996,153.012 C250.996,153.012 250.996,153.012 250.996,153.012 C249.428,152.813 247.935,158.242 247.661,165.139 C247.387,172.035 248.436,177.788 250.004,177.988 L250.004,177.988"
       fill="#000000"
       id="path11439" />
    <path
       d="M121.102,215.993 L122.362,215.963 L124.871,215.931 L128.622,215.947 L133.608,216.059 L138.583,216.244 L143.557,216.465 L148.539,216.685 L153.536,216.868 L158.557,216.977 L161.082,216.993 L161.082,216.993 C162.657,217.003 164.121,211.418 164.351,204.518 C164.582,197.619 163.493,192.017 161.918,192.007 C161.918,192.007 161.918,192.007 161.918,192.007 L159.413,191.992 L154.412,191.883 L149.425,191.701 L144.443,191.481 L139.459,191.26 L134.466,191.074 L129.456,190.961 L125.683,190.946 L123.159,190.977 L121.898,191.007 C120.321,191.046 118.865,196.67 118.646,203.57 C118.426,210.469 119.526,216.031 121.102,215.993 L121.102,215.993"
       fill="#000000"
       id="path11441" />
    <path
       d="M201.128,214.991 L202.505,214.904 L205.254,214.781 L208.004,214.717 L210.76,214.706 L214.902,214.772 L220.427,214.974 L225.946,215.255 L231.45,215.554 L236.928,215.812 L241.016,215.943 L243.729,215.987 L245.083,215.993 L245.083,215.993 C246.658,216.001 248.121,210.415 248.352,203.515 C248.582,196.616 247.492,191.016 245.917,191.007 C245.917,191.007 245.917,191.007 245.917,191.007 L244.578,191.002 L241.886,190.958 L237.818,190.828 L232.348,190.57 L226.84,190.271 L221.303,189.99 L215.75,189.786 L211.582,189.72 L208.802,189.732 L206.023,189.796 L203.251,189.921 L201.872,190.009 C201.872,190.009 201.872,190.009 201.872,190.009 C200.293,190.11 198.847,195.785 198.642,202.684 C198.437,209.582 199.55,215.093 201.128,214.991 L201.128,214.991"
       fill="#000000"
       id="path11443" />
    <path
       d="M290.15,219.99 L294.789,219.547 L304.094,218.724 L313.429,217.993 L322.791,217.361 L332.174,216.839 L341.571,216.433 L350.978,216.155 L360.387,216.011 L365.089,215.993 L365.089,215.993 C366.664,215.987 368.125,210.39 368.352,203.49 C368.58,196.591 367.487,191.002 365.911,191.007 L361.195,191.026 L351.767,191.17 L342.344,191.449 L332.929,191.855 L323.531,192.379 L314.155,193.011 L304.806,193.744 L295.492,194.567 L290.85,195.01 C289.271,195.163 287.833,200.879 287.639,207.776 C287.446,214.674 288.57,220.142 290.15,219.99 L290.15,219.99"
       fill="#000000"
       id="path11445" />
    <path
       d="M127.095,255.993 L134.494,255.903 L149.302,255.792 L164.119,255.762 L178.945,255.804 L193.777,255.906 L208.614,256.058 L230.872,256.356 L260.543,256.829 L290.19,257.31 L312.398,257.626 L327.188,257.794 L341.96,257.917 L356.715,257.984 L364.085,257.993 L364.085,257.993 C365.66,257.995 367.123,252.404 367.352,245.505 C367.581,238.605 366.49,233.01 364.915,233.007 L357.549,232.998 L342.8,232.932 L328.03,232.809 L313.245,232.64 L291.039,232.325 L261.392,231.844 L231.718,231.371 L209.455,231.072 L194.614,230.92 L179.777,230.818 L164.944,230.777 L150.119,230.806 L135.307,230.918 L127.905,231.007 C127.905,231.007 127.905,231.007 127.905,231.007 C126.329,231.028 124.87,236.638 124.647,243.538 C124.423,250.437 125.519,256.013 127.095,255.993 L127.095,255.993"
       id="path11447"
       fill="#000000" />
    <path
       d="M132.186,296.985 L133.821,296.738 L137.092,296.327 L140.378,296.012 L143.685,295.779 L147.005,295.613 L150.338,295.501 L155.353,295.403 L162.045,295.327 L167.055,295.25 L170.385,295.162 L173.703,295.027 L177.005,294.833 L180.287,294.564 L183.548,294.205 L185.174,293.987 L185.174,293.987 C186.755,293.776 188.183,288.015 188.363,281.118 C188.544,274.222 187.408,268.802 185.826,269.013 C185.826,269.013 185.826,269.013 185.826,269.013 L184.232,269.227 L181.009,269.582 L177.756,269.849 L174.479,270.043 L171.179,270.176 L167.862,270.264 L162.858,270.342 L156.156,270.418 L151.123,270.517 L147.769,270.629 L144.42,270.797 L141.082,271.032 L137.755,271.351 L134.45,271.767 L132.814,272.015 C132.814,272.015 132.814,272.015 132.814,272.015 C131.232,272.255 129.809,278.039 129.635,284.935 C129.462,291.83 130.604,297.225 132.186,296.985 L132.186,296.985"
       fill="#000000"
       id="path11449" />
    <path
       d="M223.982,292.984 L225.136,293.171 L227.476,293.495 L229.839,293.753 L232.219,293.951 L234.614,294.093 L237.023,294.183 L239.445,294.228 L241.878,294.232 L244.321,294.199 L246.772,294.135 L250.459,293.992 L255.392,293.737 L260.334,293.446 L265.271,293.157 L270.191,292.909 L273.862,292.774 L276.297,292.717 L278.722,292.693 L281.135,292.705 L283.535,292.759 L285.919,292.859 L288.286,293.011 L290.635,293.219 L292.964,293.488 L295.272,293.822 L297.557,294.227 L299.817,294.706 L300.931,294.974 L300.931,294.974 C302.492,295.351 304.011,290.071 304.325,283.182 C304.639,276.293 303.629,270.403 302.069,270.026 L300.918,269.75 L298.613,269.261 L296.287,268.85 L293.942,268.511 L291.578,268.239 L289.197,268.028 L286.802,267.875 L284.392,267.774 L281.97,267.719 L279.537,267.707 L277.094,267.732 L274.642,267.79 L270.954,267.925 L266.022,268.173 L261.085,268.462 L256.153,268.753 L251.237,269.007 L247.566,269.15 L245.132,269.214 L242.708,269.246 L240.297,269.243 L237.901,269.199 L235.519,269.11 L233.154,268.97 L230.809,268.776 L228.482,268.522 L226.173,268.202 L225.018,268.016 C225.018,268.016 225.018,268.016 225.018,268.016 C223.452,267.763 221.951,273.148 221.665,280.043 C221.379,286.938 222.417,292.732 223.982,292.984 L223.982,292.984"
       fill="#FF0000"
       id="path11451"
       style="fill:#8f123e;fill-opacity:1" />
    <path
       d="M332.087,293.842 L347.586,293.842 L363.086,293.842 L363.086,293.842 C364.661,293.844 366.123,288.252 366.352,281.352 C366.581,274.452 365.489,268.858 363.914,268.857 L348.414,268.857 L332.913,268.857 C332.913,268.857 332.913,268.857 332.913,268.857 C331.338,268.858 329.876,274.452 329.648,281.352 C329.42,288.251 330.512,293.844 332.087,293.842 L332.087,293.842"
       fill="#FF0000"
       id="path11453"
       style="fill:#8f123e;fill-opacity:1" />
    <path
       d="M127.042,343.991 L129.592,344.167 L134.701,344.419 L139.806,344.55 L144.904,344.574 L149.994,344.506 L155.078,344.362 L160.154,344.157 L165.224,343.904 L172.816,343.472 L182.921,342.871 L190.485,342.468 L195.521,342.251 L200.552,342.091 L205.579,342.004 L208.089,341.993 L208.089,341.993 C209.664,341.987 211.125,336.389 211.352,329.49 C211.58,322.59 210.487,317.001 208.911,317.007 L206.385,317.019 L201.339,317.106 L196.292,317.267 L191.244,317.485 L183.671,317.888 L173.57,318.488 L165.987,318.92 L160.93,319.172 L155.869,319.377 L150.806,319.521 L145.738,319.588 L140.668,319.565 L135.593,319.435 L130.509,319.185 L127.958,319.009 C126.386,318.902 124.907,324.407 124.655,331.306 C124.402,338.205 125.471,343.884 127.042,343.991 L127.042,343.991"
       fill="#000000"
       id="path11455" />
    <path
       d="M249.09,338.993 L252.177,338.978 L258.316,339.026 L264.427,339.154 L270.523,339.333 L276.616,339.534 L282.718,339.728 L288.839,339.887 L294.99,339.98 L298.083,339.993 L298.083,339.993 C299.658,340.001 301.121,334.414 301.352,327.515 C301.582,320.615 300.492,315.015 298.917,315.007 C298.917,315.007 298.917,315.007 298.917,315.007 L295.838,314.994 L289.701,314.901 L283.588,314.743 L277.488,314.549 L271.39,314.348 L265.282,314.168 L259.155,314.04 L252.999,313.992 L249.91,314.007 C248.334,314.016 246.874,319.616 246.647,326.516 C246.421,333.416 247.515,339.002 249.09,338.993 L249.09,338.993"
       fill="#000000"
       id="path11457" />
    <path
       d="M346.087,340.993 L354.586,340.993 L363.086,340.993 L363.086,340.993 C364.661,340.994 366.123,335.402 366.352,328.502 C366.581,321.603 365.489,316.009 363.914,316.007 L355.414,316.007 L346.913,316.007 C346.913,316.007 346.913,316.007 346.913,316.007 C345.338,316.008 343.876,321.603 343.648,328.502 C343.42,335.402 344.512,340.994 346.087,340.993 L346.087,340.993"
       fill="#000000"
       id="path11459" />
    <path
       d="M126.055,384.992 L130.057,385.188 L138.067,385.506 L146.075,385.734 L154.081,385.883 L162.084,385.962 L170.086,385.98 L182.086,385.916 L198.082,385.711 L214.079,385.44 L230.079,385.183 L242.081,385.046 L250.085,384.999 L254.087,384.993 L254.087,384.993 C255.662,384.992 257.124,379.397 257.352,372.498 C257.58,365.598 256.488,360.006 254.913,360.007 L250.906,360.014 L242.895,360.06 L230.886,360.198 L214.885,360.455 L198.893,360.725 L182.906,360.93 L170.918,360.995 L162.926,360.976 L154.933,360.898 L146.94,360.749 L138.946,360.521 L130.949,360.204 L126.945,360.008 C125.372,359.933 123.898,365.465 123.653,372.364 C123.407,379.263 124.483,384.917 126.055,384.992 L126.055,384.992"
       fill="#FF0000"
       id="path11461"
       style="fill:#8f123e;fill-opacity:1" />
    <path
       d="M288.087,383.993 L313.586,383.993 L339.086,383.993 L339.086,383.993 C340.661,383.994 342.123,378.402 342.352,371.502 C342.581,364.603 341.489,359.009 339.914,359.007 L314.414,359.007 L288.913,359.007 C288.913,359.007 288.913,359.007 288.913,359.007 C287.338,359.008 285.876,364.603 285.648,371.502 C285.42,378.402 286.512,383.994 288.087,383.993 L288.087,383.993"
       fill="#000000"
       id="path11463" />
    <path
       d="M129.088,424.993 L132.713,424.985 L139.962,425.007 L150.833,425.121 L165.327,425.389 L179.821,425.743 L194.317,426.13 L208.816,426.498 L223.319,426.795 L234.2,426.94 L241.456,426.987 L245.085,426.993 L245.085,426.993 C246.66,426.996 248.123,421.405 248.352,414.506 C248.581,407.606 247.49,402.01 245.915,402.007 C245.915,402.007 245.915,402.007 245.915,402.007 L242.292,402.001 L235.045,401.954 L224.174,401.81 L209.678,401.513 L195.181,401.145 L180.681,400.758 L166.179,400.404 L151.674,400.136 L140.794,400.022 L133.539,400 L129.912,400.007 C128.336,400.012 126.875,405.609 126.648,412.509 C126.42,419.408 127.513,424.998 129.088,424.993 L129.088,424.993"
       fill="#000000"
       id="path11465" />
    <path
       d="M288.115,429.992 L290.704,429.882 L295.883,429.721 L301.067,429.631 L306.256,429.603 L311.449,429.628 L316.645,429.697 L324.444,429.868 L334.84,430.172 L345.225,430.503 L355.591,430.791 L363.346,430.937 L368.507,430.986 L371.084,430.993 L371.084,430.993 C372.659,430.998 374.122,425.409 374.352,418.51 C374.581,411.61 373.491,406.013 371.916,406.007 L369.348,406.001 L364.2,405.952 L356.455,405.806 L346.095,405.518 L335.707,405.187 L325.301,404.883 L317.491,404.712 L312.284,404.642 L307.077,404.617 L301.872,404.646 L296.671,404.737 L291.477,404.898 L288.885,405.008 C288.885,405.008 288.885,405.008 288.885,405.008 C287.308,405.076 285.857,410.724 285.644,417.623 C285.431,424.523 286.537,430.06 288.115,429.992 L288.115,429.992"
       fill="#FF0000"
       id="path11467"
       style="fill:#8f123e;fill-opacity:1" />
    <path
       d="M138.087,475.993 L159.086,475.993 L180.086,475.993 L180.086,475.993 C181.661,475.994 183.123,470.402 183.352,463.502 C183.581,456.603 182.489,451.009 180.914,451.007 L159.914,451.007 L138.913,451.007 C138.913,451.007 138.913,451.007 138.913,451.007 C137.338,451.008 135.876,456.603 135.648,463.502 C135.42,470.402 136.512,475.994 138.087,475.993 L138.087,475.993"
       fill="#000000"
       id="path11469" />
    <path
       d="M208.087,475.993 L233.086,475.993 L258.086,475.993 L258.086,475.993 C259.661,475.994 261.123,470.402 261.352,463.502 C261.581,456.603 260.489,451.009 258.914,451.007 L233.914,451.007 L208.913,451.007 C208.913,451.007 208.913,451.007 208.913,451.007 C207.338,451.008 205.876,456.603 205.648,463.502 C205.42,470.402 206.512,475.994 208.087,475.993 L208.087,475.993"
       fill="#000000"
       id="path11471" />
    <path
       d="M325.118,475.992 L326.592,475.921 L329.529,475.822 L332.464,475.777 L335.4,475.777 L339.807,475.851 L345.681,476.049 L351.553,476.313 L357.422,476.59 L363.288,476.828 L367.686,476.948 L370.617,476.987 L372.083,476.993 L372.083,476.993 C373.658,477 375.122,471.413 375.352,464.513 C375.582,457.614 374.492,452.015 372.917,452.007 L371.463,452.002 L368.55,451.963 L364.169,451.843 L358.311,451.606 L352.439,451.328 L346.553,451.064 L340.657,450.865 L336.229,450.792 L333.272,450.791 L330.313,450.837 L327.356,450.937 L325.882,451.008 C325.882,451.008 325.882,451.008 325.882,451.008 C324.304,451.085 322.854,456.74 322.643,463.64 C322.433,470.539 323.541,476.069 325.118,475.992 L325.118,475.992"
       fill="#000000"
       id="path11473" />
    <path
       d="M285.087,475.993 L311.086,475.993 L337.086,475.993 L337.086,475.993 C338.661,475.994 340.123,470.402 340.352,463.502 C340.581,456.603 339.489,451.009 337.914,451.007 L311.914,451.007 L285.913,451.007 C285.913,451.007 285.913,451.007 285.913,451.007 C284.338,451.008 282.876,456.603 282.648,463.502 C282.42,470.402 283.512,475.994 285.087,475.993 L285.087,475.993"
       fill="#000000"
       id="path11475" />
    <path
       d="M808.324,97.5 C711.207,98.418 614.303,95.5 517.324,95.5"
       fill-opacity="0"
       stroke="#000000"
       stroke-width="4"
       stroke-linecap="round"
       stroke-linejoin="round"
       id="path11477" />
    <path
       d="M516.324,96.5 C521.654,231.293 509.324,365.16 509.324,499.5"
       fill-opacity="0"
       stroke="#000000"
       stroke-width="4"
       stroke-linecap="round"
       stroke-linejoin="round"
       id="path11479" />
    <path
       d="M511.324,506.5 C612.14,506.826 714.264,509.594 813.324,519.5"
       fill-opacity="0"
       stroke="#000000"
       stroke-width="4"
       stroke-linecap="round"
       stroke-linejoin="round"
       id="path11481" />
    <path
       d="M811.324,518.5 C796.8,381.839 809.324,243.449 809.324,106.5"
       fill-opacity="0"
       stroke="#000000"
       stroke-width="4"
       stroke-linecap="round"
       stroke-linejoin="round"
       id="path11483" />
    <path
       d="M542.857,141.991 L544.94,142.162 L549.107,142.473 L553.268,142.742 L557.423,142.973 L561.572,143.167 L565.714,143.326 L571.917,143.503 L580.172,143.636 L588.413,143.667 L596.643,143.613 L604.864,143.489 L617.187,143.21 L633.624,142.752 L645.971,142.415 L654.216,142.226 L662.48,142.083 L670.763,142.003 L674.912,141.993 L674.912,141.993 C676.487,141.99 677.948,136.394 678.176,129.495 C678.404,122.595 677.312,117.004 675.736,117.007 C675.736,117.007 675.736,117.007 675.736,117.007 L671.579,117.018 L663.285,117.097 L655.015,117.24 L646.763,117.43 L634.416,117.767 L617.986,118.225 L605.672,118.504 L597.462,118.627 L589.247,118.682 L581.022,118.651 L572.782,118.518 L566.593,118.341 L562.461,118.183 L558.323,117.99 L554.181,117.76 L550.032,117.491 L545.875,117.181 L543.79,117.009 C542.22,116.881 540.738,122.369 540.48,129.268 C540.222,136.166 541.287,141.862 542.857,141.991 L542.857,141.991"
       fill="#FF0000"
       id="path11485"
       style="fill:#8f123e;fill-opacity:1" />
    <path
       d="M708.812,141.985 L709.965,142.162 L712.306,142.47 L714.672,142.715 L717.057,142.903 L719.46,143.04 L721.877,143.129 L724.308,143.177 L726.752,143.188 L730.435,143.147 L735.374,143.011 L740.332,142.821 L745.297,142.617 L750.251,142.438 L755.183,142.326 L758.857,142.309 L761.29,142.34 L763.712,142.409 L766.119,142.523 L768.509,142.685 L770.88,142.902 L773.23,143.177 L775.558,143.516 L777.862,143.924 L780.141,144.405 L782.391,144.965 L784.612,145.608 L785.704,145.96 L785.704,145.96 C787.258,146.462 788.796,141.291 789.138,134.41 C789.481,127.528 788.498,121.543 786.944,121.04 L785.811,120.676 L783.538,120.019 L781.24,119.449 L778.919,118.959 L776.574,118.544 L774.209,118.2 L771.826,117.922 L769.425,117.703 L767.008,117.539 L764.578,117.424 L762.135,117.354 L759.679,117.324 L755.981,117.341 L751.032,117.453 L746.07,117.632 L741.111,117.837 L736.166,118.026 L731.248,118.161 L727.586,118.202 L725.162,118.191 L722.753,118.144 L720.361,118.056 L717.988,117.922 L715.635,117.737 L713.303,117.495 L710.992,117.192 L709.836,117.015 C709.836,117.015 709.836,117.015 709.836,117.015 C708.27,116.776 706.771,122.172 706.488,129.067 C706.205,135.963 707.246,141.746 708.812,141.985 L708.812,141.985"
       fill="#FF0000"
       id="path11487"
       style="fill:#8f123e;fill-opacity:1" />
    <path
       d="M548.891,183.993 L553.516,184.128 L562.765,184.366 L572.012,184.56 L581.259,184.714 L595.131,184.876 L613.642,184.981 L622.909,184.993 L622.909,184.993 C624.484,184.995 625.947,179.404 626.176,172.504 C626.405,165.605 625.313,160.01 623.738,160.007 L614.477,159.995 L595.975,159.89 L582.109,159.728 L572.867,159.575 L563.626,159.381 L554.382,159.143 L549.756,159.007 C549.756,159.007 549.756,159.007 549.756,159.007 C548.183,158.962 546.713,164.518 546.475,171.417 C546.236,178.317 547.318,183.947 548.891,183.993 L548.891,183.993"
       fill="#FF0000"
       id="path11489"
       style="fill:#8f123e;fill-opacity:1" />
    <path
       d="M643.236,181.984 L644.39,182.171 L646.729,182.495 L649.093,182.753 L651.473,182.951 L653.868,183.093 L656.278,183.183 L658.699,183.228 L661.133,183.232 L664.797,183.171 L669.711,182.992 L674.647,182.737 L679.588,182.446 L684.525,182.157 L689.446,181.909 L693.117,181.774 L695.551,181.717 L697.977,181.693 L700.389,181.705 L702.789,181.759 L705.173,181.859 L707.54,182.011 L709.889,182.219 L712.218,182.488 L714.526,182.822 L716.811,183.227 L719.071,183.706 L720.185,183.974 L720.185,183.974 C721.746,184.351 723.265,179.071 723.579,172.182 C723.893,165.292 722.883,159.402 721.323,159.026 L720.172,158.75 L717.867,158.261 L715.541,157.85 L713.195,157.511 L710.832,157.239 L708.452,157.028 L706.056,156.875 L703.647,156.774 L701.224,156.719 L698.791,156.707 L696.348,156.732 L693.896,156.79 L690.208,156.925 L685.277,157.173 L680.339,157.462 L675.407,157.753 L670.492,158.007 L665.604,158.185 L661.962,158.246 L659.552,158.243 L657.154,158.199 L654.773,158.11 L652.409,157.97 L650.063,157.776 L647.737,157.522 L645.427,157.202 L644.272,157.016 C644.272,157.016 644.272,157.016 644.272,157.016 C642.706,156.763 641.205,162.148 640.919,169.043 C640.633,175.938 641.671,181.732 643.236,181.984 L643.236,181.984"
       fill="#FF0000"
       id="path11491"
       style="fill:#8f123e;fill-opacity:1" />
    <path
       d="M743.495,182.842 L760.695,182.842 L777.896,182.842 L777.896,182.842 C779.471,182.844 780.933,177.252 781.162,170.352 C781.391,163.452 780.299,157.858 778.724,157.857 L761.523,157.857 L744.321,157.857 C744.321,157.857 744.321,157.857 744.321,157.857 C742.746,157.858 741.284,163.452 741.056,170.352 C740.828,177.251 741.92,182.844 743.495,182.842 L743.495,182.842"
       fill="#FF0000"
       id="path11493"
       style="fill:#8f123e;fill-opacity:1" />
    <path
       d="M542.879,229.298 L546.881,229.493 L554.89,229.811 L562.899,230.04 L570.905,230.189 L578.908,230.267 L586.91,230.286 L598.909,230.222 L614.906,230.016 L630.903,229.746 L646.903,229.489 L658.905,229.352 L666.909,229.305 L670.911,229.298 L670.911,229.298 C672.486,229.296 673.948,223.702 674.176,216.802 C674.404,209.903 673.312,204.311 671.737,204.313 L667.729,204.319 L659.719,204.366 L647.709,204.503 L631.709,204.761 L615.717,205.031 L599.73,205.236 L587.741,205.3 L579.749,205.282 L571.757,205.203 L563.764,205.055 L555.77,204.827 L547.772,204.509 L543.769,204.314 C542.196,204.237 540.722,209.768 540.477,216.667 C540.231,223.567 541.306,229.221 542.879,229.298 L542.879,229.298"
       fill="#FF0000"
       id="path11495"
       style="fill:#8f123e;fill-opacity:1" />
    <path
       d="M694.924,229.487 L697.514,229.377 L702.694,229.216 L707.877,229.126 L713.066,229.097 L718.259,229.122 L723.456,229.192 L731.254,229.362 L741.65,229.667 L752.036,229.997 L762.401,230.285 L770.157,230.432 L775.317,230.481 L777.894,230.487 L777.894,230.487 C779.469,230.493 780.932,224.904 781.162,218.005 C781.391,211.105 780.301,205.507 778.726,205.502 L776.158,205.495 L771.009,205.447 L763.265,205.3 L752.905,205.012 L742.517,204.682 L732.111,204.377 L724.301,204.207 L719.093,204.137 L713.887,204.112 L708.682,204.14 L703.481,204.231 L698.287,204.393 L695.696,204.503 C694.118,204.57 692.667,210.218 692.454,217.117 C692.241,224.017 693.347,229.555 694.924,229.487 L694.924,229.487"
       fill="#FF0000"
       id="path11497"
       style="fill:#8f123e;fill-opacity:1" />
    <path
       d="M410.99,267.573 C427.89,268.16 447.1,270.01 463.894,268.211"
       fill-opacity="0"
       stroke="#FF0000"
       stroke-width="4"
       stroke-linecap="round"
       stroke-linejoin="round"
       id="path11499"
       style="stroke:#8f123e;stroke-opacity:1" />
    <path
       d="M410.352,268.211 C408.725,278.315 409.077,288.811 409.077,299.125"
       fill-opacity="0"
       stroke="#FF0000"
       stroke-width="4"
       stroke-linecap="round"
       stroke-linejoin="round"
       id="path11501"
       style="stroke:#8f123e;stroke-opacity:1" />
    <path
       d="M409.077,299.125 C425.461,300.05 446.346,298.806 462.62,298.806"
       fill-opacity="0"
       stroke="#FF0000"
       stroke-width="4"
       stroke-linecap="round"
       stroke-linejoin="round"
       id="path11503"
       style="stroke:#8f123e;stroke-opacity:1" />
    <path
       d="M462.62,298.806 C463.141,307.625 461.276,321.055 460.07,329.5"
       fill-opacity="0"
       stroke="#FF0000"
       stroke-width="4"
       stroke-linecap="round"
       stroke-linejoin="round"
       id="path11505"
       style="stroke:#8f123e;stroke-opacity:1" />
    <path
       d="M460.07,329.5 C470.447,315.172 482.866,296.843 493.534,283.508"
       fill-opacity="0"
       stroke="#FF0000"
       stroke-width="4"
       stroke-linecap="round"
       stroke-linejoin="round"
       id="path11507"
       style="stroke:#8f123e;stroke-opacity:1" />
    <path
       d="M493.215,281.915 C482.417,261.96 473.63,248.913 462.938,231.56"
       fill-opacity="0"
       stroke="#FF0000"
       stroke-width="4"
       stroke-linecap="round"
       stroke-linejoin="round"
       id="path11509"
       style="stroke:#8f123e;stroke-opacity:1" />
    <path
       d="M462.619,232.516 C462.964,243.807 463.894,254.973 463.894,266.298"
       fill-opacity="0"
       stroke="#FF0000"
       stroke-width="4"
       stroke-linecap="round"
       stroke-linejoin="round"
       id="path11511"
       style="stroke:#8f123e;stroke-opacity:1" />
  </g>
</svg>
