<?xml version="1.0" encoding="UTF-8" standalone="no"?>
<svg
   xmlns:dc="http://purl.org/dc/elements/1.1/"
   xmlns:cc="http://creativecommons.org/ns#"
   xmlns:rdf="http://www.w3.org/1999/02/22-rdf-syntax-ns#"
   xmlns:svg="http://www.w3.org/2000/svg"
   xmlns="http://www.w3.org/2000/svg"
   xmlns:sodipodi="http://sodipodi.sourceforge.net/DTD/sodipodi-0.dtd"
   xmlns:inkscape="http://www.inkscape.org/namespaces/inkscape"
   version="1.1"
   x="0"
   y="0"
   width="944"
   height="704"
   viewBox="0, 0, 944, 704"
   id="svg12151"
   sodipodi:docname="TIM2.svg"
   inkscape:export-filename="X:\07-Administration\04-CoC\CoC-ML\intern\Präsentationen\Fachliche Szenarien\ML Poster Sketches\ML Poster\TIM2.png"
   inkscape:export-xdpi="96"
   inkscape:export-ydpi="96"
   inkscape:version="0.92.1 r15371">
  <metadata
     id="metadata12157">
    <rdf:RDF>
      <cc:Work
         rdf:about="">
        <dc:format>image/svg+xml</dc:format>
        <dc:type
           rdf:resource="http://purl.org/dc/dcmitype/StillImage" />
      </cc:Work>
    </rdf:RDF>
  </metadata>
  <defs
     id="defs12155" />
  <sodipodi:namedview
     pagecolor="#ffffff"
     bordercolor="#666666"
     borderopacity="1"
     objecttolerance="10"
     gridtolerance="10"
     guidetolerance="10"
     inkscape:pageopacity="0"
     inkscape:pageshadow="2"
     inkscape:window-width="1920"
     inkscape:window-height="1027"
     id="namedview12153"
     showgrid="false"
     inkscape:zoom="1.8963318"
     inkscape:cx="452.78912"
     inkscape:cy="431.89713"
     inkscape:window-x="-8"
     inkscape:window-y="-8"
     inkscape:window-maximized="1"
     inkscape:current-layer="Layer_1" />
  <g
     id="Layer_1">
    <path
       d="M180.102,133.993 L183.291,133.916 L189.671,133.832 L196.059,133.822 L202.458,133.868 L212.066,133.997 L221.681,134.139 L228.09,134.207 L234.496,134.23 L240.896,134.19 L247.288,134.066 L253.668,133.837 L258.447,133.586 L261.629,133.375 L264.806,133.127 L267.978,132.839 L271.145,132.509 L274.308,132.134 L277.465,131.712 L280.616,131.24 L282.192,130.984 L282.192,130.984 C283.775,130.729 285.196,124.932 285.365,118.037 C285.535,111.143 284.39,105.76 282.808,106.016 C282.808,106.016 282.808,106.016 282.808,106.016 L281.248,106.269 L278.117,106.738 L274.98,107.158 L271.837,107.53 L268.687,107.859 L265.532,108.145 L262.371,108.392 L259.207,108.602 L254.45,108.852 L248.09,109.08 L241.716,109.204 L235.329,109.245 L228.932,109.221 L222.527,109.153 L212.912,109.012 L203.295,108.883 L196.886,108.837 L190.481,108.846 L184.087,108.931 L180.898,109.007 C179.321,109.046 177.865,114.671 177.646,121.57 C177.426,128.47 178.526,134.031 180.102,133.993 L180.102,133.993"
       fill="#000000"
       id="path12068" />
    <path
       d="M323.087,129.993 L357.586,129.993 L392.086,129.993 L392.086,129.993 C393.661,129.994 395.123,124.402 395.352,117.502 C395.581,110.603 394.489,105.009 392.914,105.007 L358.414,105.007 L323.913,105.007 C323.913,105.007 323.913,105.007 323.913,105.007 C322.338,105.008 320.876,110.603 320.648,117.502 C320.42,124.402 321.512,129.994 323.087,129.993 L323.087,129.993"
       fill="#000000"
       id="path12070" />
    <path
       d="M422.915,130.97 L423.43,131.108 L424.517,131.367 L425.654,131.598 L426.835,131.801 L428.057,131.977 L429.32,132.127 L430.621,132.254 L431.96,132.357 L433.335,132.438 L434.744,132.498 L436.187,132.539 L437.66,132.56 L439.163,132.564 L440.694,132.551 L442.252,132.523 L443.834,132.48 L446.25,132.391 L449.543,132.231 L452.907,132.032 L456.328,131.802 L461.537,131.418 L468.557,130.875 L473.821,130.481 L477.303,130.241 L480.749,130.027 L484.144,129.849 L487.476,129.715 L490.731,129.633 L493.112,129.61 L494.667,129.616 L496.197,129.639 L497.698,129.68 L499.168,129.742 L500.607,129.823 L502.011,129.927 L503.38,130.053 L504.711,130.202 L506.002,130.376 L507.253,130.575 L508.46,130.801 L509.623,131.054 L510.738,131.335 L511.805,131.644 L512.821,131.983 L513.784,132.351 L514.69,132.749 L515.539,133.177 L516.327,133.634 L516.685,133.865 L516.685,133.865 C518.211,134.848 519.814,130.108 520.264,123.279 C520.715,116.45 519.842,110.117 518.315,109.135 C518.315,109.135 518.315,109.135 518.315,109.135 L517.881,108.857 L517.002,108.35 L516.074,107.885 L515.097,107.458 L514.074,107.068 L513.004,106.712 L511.889,106.39 L510.731,106.099 L509.529,105.838 L508.287,105.606 L507.005,105.402 L505.684,105.225 L504.327,105.073 L502.935,104.945 L501.509,104.84 L500.051,104.757 L498.562,104.695 L497.045,104.653 L495.5,104.63 L493.928,104.625 L491.526,104.648 L488.252,104.731 L484.904,104.865 L481.496,105.044 L478.041,105.258 L474.552,105.499 L469.285,105.893 L462.269,106.436 L457.069,106.82 L453.658,107.049 L450.308,107.247 L447.03,107.406 L444.627,107.495 L443.056,107.538 L441.511,107.566 L439.995,107.578 L438.507,107.575 L437.051,107.554 L435.628,107.514 L434.24,107.455 L432.888,107.375 L431.575,107.274 L430.302,107.151 L429.071,107.005 L427.885,106.834 L426.744,106.639 L425.651,106.417 L424.602,106.168 L424.085,106.03 C424.085,106.03 424.085,106.03 424.085,106.03 C422.526,105.614 421.001,110.86 420.678,117.747 C420.355,124.634 421.357,130.554 422.915,130.97 L422.915,130.97"
       fill="#000000"
       id="path12072" />
    <path
       d="M561.116,130.992 L565.467,130.797 L574.128,130.352 L582.742,129.863 L591.324,129.365 L599.897,128.896 L608.477,128.491 L614.929,128.251 L619.242,128.129 L623.569,128.043 L627.911,127.999 L630.087,127.993 L630.087,127.993 C631.663,127.99 633.124,122.395 633.352,115.495 C633.58,108.596 632.488,103.005 630.912,103.007 L628.726,103.013 L624.371,103.058 L620.033,103.144 L615.708,103.266 L609.243,103.507 L600.653,103.913 L592.077,104.382 L583.495,104.879 L574.889,105.368 L566.237,105.813 L561.884,106.008 C560.306,106.08 558.856,111.731 558.644,118.63 C558.432,125.529 559.539,131.064 561.116,130.992 L561.116,130.992"
       fill="#000000"
       id="path12074" />
    <path
       d="M687.072,131.993 L689.166,132.042 L693.37,132.095 L699.686,132.085 L708.116,131.985 L716.54,131.9 L722.844,131.919 L727.034,132.001 L731.215,132.155 L735.386,132.397 L739.543,132.742 L743.683,133.205 L746.775,133.639 L748.83,133.973 L750.882,134.345 L752.928,134.757 L753.946,134.978 L753.946,134.978 C755.508,135.318 757.022,130.007 757.328,123.116 C757.634,116.224 756.615,110.362 755.054,110.022 C755.054,110.022 755.054,110.022 755.054,110.022 L754.016,109.797 L751.943,109.38 L749.867,109.004 L747.784,108.666 L744.656,108.228 L740.478,107.761 L736.289,107.414 L732.092,107.17 L727.887,107.016 L723.675,106.934 L717.356,106.914 L708.929,107 L700.513,107.099 L694.214,107.11 L690.025,107.057 L687.928,107.007 C687.928,107.007 687.928,107.007 687.928,107.007 C686.354,106.972 684.887,112.536 684.65,119.435 C684.413,126.335 685.498,131.957 687.072,131.993 L687.072,131.993"
       fill="#000000"
       id="path12076" />
    <path
       d="M183.998,187.987 L184.602,188.069 L185.835,188.208 L187.081,188.31 L188.333,188.379 L190.221,188.426 L192.758,188.4 L195.315,188.293 L197.882,188.131 L201.736,187.836 L205.582,187.548 L208.127,187.4 L210.653,187.314 L213.152,187.313 L215.002,187.382 L216.221,187.466 L217.435,187.584 L218.637,187.738 L219.827,187.933 L221.004,188.169 L222.169,188.45 L223.319,188.779 L223.881,188.96 L223.881,188.96 C225.435,189.46 226.973,184.287 227.315,177.405 C227.657,170.524 226.674,164.54 225.119,164.04 C225.119,164.04 225.119,164.04 225.119,164.04 L224.513,163.846 L223.307,163.502 L222.091,163.209 L220.865,162.964 L219.631,162.764 L218.388,162.604 L217.138,162.483 L215.878,162.397 L213.979,162.328 L211.436,162.33 L208.879,162.417 L206.312,162.566 L202.464,162.854 L198.627,163.148 L196.089,163.309 L193.573,163.414 L191.081,163.441 L189.233,163.396 L188.015,163.329 L186.808,163.23 L185.607,163.096 L185.002,163.013 C183.434,162.8 181.939,168.217 181.662,175.114 C181.385,182.01 182.431,187.773 183.998,187.987 L183.998,187.987"
       fill="#000000"
       id="path12078" />
    <path
       d="M271.087,187.993 L316.086,187.993 L361.086,187.993 L361.086,187.993 C362.661,187.994 364.123,182.402 364.352,175.502 C364.581,168.603 363.489,163.009 361.914,163.007 L316.914,163.007 L271.913,163.007 C271.913,163.007 271.913,163.007 271.913,163.007 C270.338,163.008 268.876,168.603 268.648,175.502 C268.42,182.402 269.512,187.994 271.087,187.993 L271.087,187.993"
       fill="#FF0000"
       id="path12080"
       style="fill:#8f123e;fill-opacity:1" />
    <path
       d="M395.081,183.993 L398.958,184.029 L406.709,184.14 L418.328,184.387 L433.809,184.828 L449.287,185.344 L464.768,185.874 L480.26,186.36 L491.891,186.66 L499.652,186.815 L507.419,186.926 L515.194,186.985 L519.084,186.993 L519.084,186.993 C520.659,186.998 522.122,181.408 522.352,174.509 C522.581,167.609 521.491,162.012 519.916,162.007 C519.916,162.007 519.916,162.007 519.916,162.007 L516.031,162 L508.265,161.941 L500.505,161.83 L492.752,161.675 L481.129,161.375 L465.641,160.889 L450.158,160.359 L434.674,159.843 L419.183,159.401 L407.556,159.154 L399.799,159.044 L395.919,159.007 C394.344,158.994 392.88,164.577 392.649,171.476 C392.417,178.376 393.506,183.98 395.081,183.993 L395.081,183.993"
       fill="#000000"
       id="path12082" />
    <path
       d="M557.087,182.993 L590.586,182.993 L624.086,182.993 L624.086,182.993 C625.661,182.994 627.123,177.402 627.352,170.502 C627.581,163.603 626.489,158.009 624.914,158.007 L591.414,158.007 L557.913,158.007 C557.913,158.007 557.913,158.007 557.913,158.007 C556.338,158.008 554.876,163.603 554.648,170.502 C554.42,177.402 555.512,182.994 557.087,182.993 L557.087,182.993"
       fill="#FF0000"
       id="path12084"
       style="fill:#8f123e;fill-opacity:1" />
    <path
       d="M654.013,183.989 L655.8,184.194 L659.404,184.54 L663.027,184.804 L666.666,184.99 L670.318,185.106 L673.983,185.158 L677.658,185.152 L681.342,185.094 L685.035,184.991 L688.735,184.849 L694.294,184.577 L701.72,184.138 L709.151,183.657 L716.575,183.184 L723.982,182.771 L729.519,182.53 L733.198,182.414 L736.868,182.341 L740.527,182.317 L744.172,182.348 L747.804,182.442 L751.42,182.603 L755.019,182.838 L758.599,183.154 L762.16,183.556 L765.7,184.051 L769.217,184.646 L770.962,184.981 L770.962,184.981 C772.526,185.282 774.034,179.939 774.331,173.046 C774.628,166.153 773.601,160.321 772.038,160.019 L770.263,159.679 L766.709,159.079 L763.134,158.579 L759.541,158.173 L755.931,157.855 L752.306,157.619 L748.665,157.456 L745.012,157.363 L741.347,157.331 L737.67,157.355 L733.985,157.429 L730.29,157.546 L724.737,157.787 L717.32,158.201 L709.894,158.674 L702.47,159.155 L695.059,159.593 L689.513,159.864 L685.827,160.006 L682.15,160.109 L678.483,160.166 L674.828,160.173 L671.188,160.121 L667.56,160.007 L663.95,159.822 L660.356,159.561 L656.777,159.217 L654.987,159.011 C653.419,158.832 651.929,164.278 651.66,171.175 C651.39,178.073 652.444,183.809 654.013,183.989 L654.013,183.989"
       fill="#000000"
       id="path12086" />
    <path
       d="M188.084,236.993 L199.472,237.055 L222.258,237.133 L245.045,237.16 L267.825,237.15 L301.97,237.092 L336.065,237.025 L358.755,236.997 L370.086,236.993 L370.086,236.993 C371.662,236.993 373.124,231.4 373.352,224.5 C373.581,217.601 372.489,212.007 370.914,212.007 L359.582,212.011 L336.891,212.04 L302.796,212.107 L268.653,212.164 L245.874,212.175 L223.091,212.147 L200.308,212.069 L188.916,212.007 C187.341,212 185.878,217.588 185.648,224.488 C185.418,231.387 186.509,236.986 188.084,236.993 L188.084,236.993"
       fill="#000000"
       id="path12088" />
    <path
       d="M405.067,233.992 L406.476,234.036 L409.315,234.081 L413.591,234.072 L419.307,233.976 L425.016,233.875 L429.276,233.856 L432.099,233.893 L434.908,233.983 L437.698,234.139 L440.467,234.373 L443.211,234.697 L445.927,235.122 L447.94,235.514 L449.27,235.813 L449.93,235.974 L449.93,235.974 C451.49,236.354 453.01,231.077 453.325,224.188 C453.64,217.299 452.63,211.406 451.07,211.026 L450.387,210.86 L449.019,210.553 L446.957,210.152 L444.191,209.72 L441.405,209.392 L438.599,209.156 L435.778,208.998 L432.944,208.907 L430.099,208.871 L425.821,208.89 L420.113,208.99 L414.416,209.086 L410.164,209.096 L407.344,209.051 L405.933,209.008 C405.933,209.008 405.933,209.008 405.933,209.008 C404.359,208.96 402.89,214.515 402.651,221.415 C402.412,228.314 403.493,233.945 405.067,233.992 L405.067,233.992"
       fill="#000000"
       id="path12090" />
    <path
       d="M500.053,234.992 L502.271,235.106 L506.705,235.256 L511.125,235.314 L515.529,235.291 L519.918,235.199 L524.296,235.049 L530.844,234.742 L539.555,234.244 L548.259,233.729 L554.791,233.389 L559.151,233.207 L563.52,233.074 L567.898,233.002 L570.089,232.993 L570.089,232.993 C571.664,232.987 573.125,227.389 573.352,220.489 C573.579,213.59 572.486,208.001 570.911,208.007 L568.705,208.017 L564.308,208.089 L559.925,208.223 L555.551,208.406 L549.01,208.746 L540.308,209.26 L531.611,209.758 L525.08,210.064 L520.719,210.213 L516.35,210.306 L511.97,210.329 L507.578,210.272 L503.166,210.122 L500.947,210.008 C499.374,209.928 497.9,215.456 497.653,222.355 C497.406,229.254 498.481,234.912 500.053,234.992 L500.053,234.992"
       fill="#000000"
       id="path12092" />
    <path
       d="M190.039,283.991 L191.088,284.069 L193.22,284.171 L195.37,284.207 L197.528,284.192 L200.773,284.101 L205.105,283.922 L208.342,283.801 L210.485,283.753 L212.616,283.744 L214.73,283.788 L216.824,283.897 L218.894,284.085 L220.937,284.363 L222.951,284.744 L223.936,284.975 L223.936,284.975 C225.497,285.341 227.015,280.052 227.326,273.162 C227.638,266.272 226.625,260.39 225.064,260.025 C225.064,260.025 225.064,260.025 225.064,260.025 L224.023,259.782 L221.942,259.389 L219.839,259.104 L217.72,258.913 L215.585,258.802 L213.439,258.758 L211.283,258.767 L209.122,258.817 L205.879,258.937 L201.565,259.116 L198.347,259.206 L196.22,259.222 L194.109,259.186 L192.013,259.087 L190.961,259.009 C189.39,258.894 187.91,264.392 187.655,271.291 C187.401,278.19 188.468,283.876 190.039,283.991 L190.039,283.991"
       fill="#FF0000"
       id="path12094"
       style="fill:#8f123e;fill-opacity:1" />
    <path
       d="M255.101,284.993 L257.674,284.938 L262.812,284.867 L267.943,284.841 L273.069,284.855 L280.752,284.936 L290.985,285.129 L301.214,285.376 L311.446,285.63 L321.687,285.845 L329.379,285.952 L334.514,285.988 L337.085,285.993 L337.085,285.993 C338.66,285.997 340.122,280.407 340.352,273.508 C340.581,266.608 339.49,261.011 337.915,261.007 C337.915,261.007 337.915,261.007 337.915,261.007 L335.351,261.003 L330.225,260.967 L322.542,260.859 L312.306,260.644 L302.073,260.39 L291.838,260.144 L281.594,259.951 L273.901,259.869 L268.765,259.856 L263.622,259.882 L258.475,259.953 L255.899,260.007 C255.899,260.007 255.899,260.007 255.899,260.007 C254.323,260.042 252.866,265.664 252.646,272.563 C252.425,279.463 253.525,285.027 255.101,284.993 L255.101,284.993"
       fill="#000000"
       id="path12096" />
    <path
       d="M373.013,286.989 L375.107,287.228 L379.305,287.681 L385.607,288.293 L394.018,288.993 L402.44,289.57 L410.869,290.036 L419.306,290.401 L427.748,290.677 L436.196,290.875 L444.648,291.006 L453.104,291.082 L465.791,291.115 L482.711,291.071 L499.631,291.005 L508.087,290.993 L508.087,290.993 C509.662,290.992 511.124,285.397 511.352,278.498 C511.58,271.598 510.488,266.006 508.913,266.007 L500.454,266.02 L483.536,266.085 L466.622,266.13 L453.943,266.096 L445.496,266.021 L437.054,265.89 L428.619,265.692 L420.19,265.417 L411.769,265.053 L403.357,264.588 L394.954,264.012 L386.56,263.314 L380.272,262.703 L376.084,262.251 L373.987,262.011 C372.418,261.833 370.928,267.28 370.66,274.178 C370.391,281.075 371.444,286.811 373.013,286.989 L373.013,286.989"
       fill="#FF0000"
       id="path12098"
       style="fill:#8f123e;fill-opacity:1" />
    <path
       d="M546.111,289.992 L549.143,289.882 L555.195,289.581 L561.223,289.189 L567.228,288.72 L573.214,288.192 L579.186,287.62 L588.124,286.715 L600.033,285.504 L608.975,284.663 L614.949,284.165 L620.939,283.734 L626.95,283.387 L632.985,283.141 L637.528,283.031 L640.566,282.997 L642.088,282.993 L642.088,282.993 C643.663,282.989 645.125,277.393 645.352,270.493 C645.58,263.594 644.487,258.003 642.912,258.007 L641.38,258.012 L638.325,258.046 L633.759,258.156 L627.703,258.404 L621.674,258.752 L615.668,259.184 L609.681,259.684 L600.728,260.525 L588.82,261.736 L579.888,262.641 L573.927,263.212 L567.954,263.739 L561.967,264.206 L555.958,264.597 L549.923,264.897 L546.889,265.008 C545.312,265.067 543.859,270.708 543.644,277.607 C543.43,284.506 544.534,290.051 546.111,289.992 L546.111,289.992"
       fill="#FF0000"
       id="path12100"
       style="fill:#8f123e;fill-opacity:1" />
    <path
       d="M678.087,285.993 L715.586,285.993 L753.086,285.993 L753.086,285.993 C754.661,285.994 756.123,280.402 756.352,273.502 C756.581,266.603 755.489,261.009 753.914,261.007 L716.414,261.007 L678.913,261.007 C678.913,261.007 678.913,261.007 678.913,261.007 C677.338,261.008 675.876,266.603 675.648,273.502 C675.42,280.402 676.512,285.994 678.087,285.993 L678.087,285.993"
       fill="#000000"
       id="path12102" />
    <path
       d="M184.058,339.992 L185.244,340.045 L187.687,340.14 L190.214,340.223 L192.819,340.294 L195.496,340.353 L198.238,340.402 L201.041,340.441 L203.898,340.47 L206.804,340.49 L209.753,340.503 L214.245,340.507 L220.331,340.49 L226.486,340.452 L232.665,340.398 L238.821,340.333 L244.907,340.262 L249.398,340.208 L252.348,340.173 L255.253,340.139 L258.11,340.107 L260.912,340.078 L263.653,340.052 L266.329,340.03 L268.932,340.012 L271.457,340 L273.899,339.994 L275.086,339.993 L275.086,339.993 C276.662,339.993 278.124,334.4 278.352,327.5 C278.581,320.601 277.489,315.007 275.914,315.007 L274.724,315.008 L272.279,315.014 L269.751,315.027 L267.146,315.044 L264.469,315.066 L261.727,315.092 L258.924,315.121 L256.066,315.153 L253.16,315.187 L250.211,315.222 L245.72,315.277 L239.635,315.348 L233.482,315.413 L227.307,315.467 L221.156,315.505 L215.074,315.521 L210.587,315.517 L207.642,315.505 L204.74,315.484 L201.887,315.455 L199.09,315.417 L196.353,315.368 L193.683,315.309 L191.085,315.238 L188.566,315.156 L186.13,315.06 L184.942,315.008 C184.942,315.008 184.942,315.008 184.942,315.008 C183.369,314.939 181.896,320.477 181.652,327.376 C181.408,334.276 182.485,339.924 184.058,339.992 L184.058,339.992"
       fill="#000000"
       id="path12104" />
    <path
       d="M317.046,331.992 L321.911,332.301 L331.625,332.942 L346.157,333.94 L365.481,335.291 L384.776,336.599 L399.247,337.507 L408.902,338.062 L418.567,338.564 L428.246,339.006 L437.943,339.377 L447.662,339.669 L457.407,339.873 L467.182,339.979 L472.084,339.993 L472.084,339.993 C473.659,339.999 475.122,334.41 475.352,327.511 C475.581,320.611 474.491,315.013 472.916,315.007 C472.916,315.007 472.916,315.007 472.916,315.007 L468.025,314.994 L458.263,314.888 L448.529,314.684 L438.821,314.392 L429.133,314.021 L419.462,313.58 L409.805,313.078 L400.157,312.524 L385.692,311.616 L366.401,310.309 L347.075,308.957 L332.539,307.959 L322.823,307.318 L317.954,307.008 C316.382,306.91 314.905,312.423 314.654,319.322 C314.403,326.221 315.474,331.893 317.046,331.992 L317.046,331.992"
       fill="#000000"
       id="path12106" />
    <path
       d="M515.122,336.992 L515.973,336.946 L517.66,336.89 L520.182,336.881 L523.537,336.981 L526.887,337.17 L530.24,337.407 L533.601,337.648 L536.976,337.852 L540.368,337.975 L542.08,337.993 L542.08,337.993 C543.654,338.009 545.119,332.43 545.351,325.53 C545.583,318.631 544.495,313.024 542.92,313.007 C542.92,313.007 542.92,313.007 542.92,313.007 L541.244,312.99 L537.882,312.869 L534.523,312.666 L531.159,312.424 L527.788,312.187 L524.404,311.996 L521.006,311.895 L518.445,311.905 L516.731,311.963 L515.878,312.008 C515.878,312.008 515.878,312.008 515.878,312.008 C514.3,312.094 512.852,317.756 512.643,324.655 C512.434,331.554 513.544,337.077 515.122,336.992 L515.122,336.992"
       fill="#000000"
       id="path12108" />
    <path
       d="M579.017,338.989 L580.338,339.132 L582.983,339.375 L585.619,339.562 L588.245,339.695 L590.86,339.779 L593.465,339.815 L596.059,339.809 L598.646,339.761 L601.224,339.677 L603.795,339.559 L607.636,339.326 L612.74,338.928 L617.827,338.453 L625.434,337.654 L633.033,336.83 L638.101,336.309 L643.179,335.841 L648.27,335.452 L652.099,335.228 L654.658,335.116 L657.226,335.038 L659.801,334.998 L661.089,334.993 L661.089,334.993 C662.664,334.988 664.125,329.391 664.352,322.491 C664.58,315.591 663.487,310.002 661.911,310.007 L660.609,310.013 L658.014,310.053 L655.43,310.132 L652.85,310.244 L648.998,310.47 L643.886,310.861 L638.795,311.33 L633.719,311.852 L626.125,312.676 L618.532,313.473 L613.465,313.946 L608.385,314.343 L604.563,314.575 L602.01,314.692 L599.45,314.776 L596.884,314.823 L594.31,314.83 L591.73,314.794 L589.139,314.712 L586.54,314.58 L583.93,314.395 L581.306,314.154 L579.983,314.011 C578.414,313.843 576.926,319.298 576.659,326.195 C576.392,333.093 577.448,338.821 579.017,338.989 L579.017,338.989"
       fill="#000000"
       id="path12110" />
    <path
       d="M701.145,338.99 L702.707,338.851 L705.821,338.644 L708.935,338.52 L712.054,338.47 L715.177,338.483 L718.302,338.55 L722.995,338.73 L729.253,339.065 L735.505,339.435 L741.746,339.762 L746.418,339.929 L749.528,339.985 L751.083,339.993 L751.083,339.993 C752.658,340.001 754.121,334.414 754.352,327.514 C754.582,320.615 753.492,315.015 751.917,315.007 L750.38,315 L747.293,314.944 L742.642,314.778 L736.409,314.452 L730.15,314.081 L723.874,313.745 L719.158,313.565 L716.01,313.498 L712.861,313.485 L709.712,313.536 L706.562,313.661 L703.419,313.871 L701.855,314.01 C700.275,314.152 698.836,319.859 698.64,326.757 C698.444,333.655 699.566,339.132 701.145,338.99 L701.145,338.99"
       fill="#000000"
       id="path12112" />
    <path
       d="M184.095,389.993 L186.85,389.96 L192.357,389.923 L200.609,389.933 L211.602,390.044 L222.589,390.23 L233.574,390.454 L244.564,390.678 L255.561,390.865 L266.571,390.977 L272.084,390.993 L272.084,390.993 C273.659,390.999 275.122,385.411 275.352,378.512 C275.582,371.612 274.491,366.014 272.916,366.007 L267.413,365.992 L256.411,365.88 L245.419,365.693 L234.429,365.469 L223.439,365.244 L212.444,365.058 L201.439,364.948 L193.176,364.938 L187.663,364.974 L184.905,365.007 C183.329,365.028 181.87,370.637 181.647,377.537 C181.423,384.436 182.519,390.013 184.095,389.993 L184.095,389.993"
       fill="#000000"
       id="path12114" />
    <path
       d="M313.982,387.984 L315.613,388.249 L318.891,388.748 L322.182,389.208 L325.482,389.629 L328.789,390.013 L332.104,390.359 L335.426,390.669 L338.751,390.944 L343.746,391.293 L350.415,391.643 L357.087,391.87 L363.753,391.979 L367.083,391.993 L367.083,391.993 C368.658,392.001 370.121,386.414 370.352,379.514 C370.582,372.615 369.492,367.015 367.917,367.007 C367.917,367.007 367.917,367.007 367.917,367.007 L364.603,366.994 L357.959,366.885 L351.312,366.659 L344.665,366.31 L339.687,365.963 L336.374,365.689 L333.068,365.38 L329.768,365.036 L326.475,364.654 L323.191,364.235 L319.916,363.778 L316.65,363.28 L315.018,363.016 C313.452,362.763 311.951,368.148 311.665,375.043 C311.379,381.938 312.417,387.732 313.982,387.984 L313.982,387.984"
       fill="#000000"
       id="path12116" />
    <path
       d="M409.924,392.972 L410.789,393.191 L412.536,393.605 L414.294,393.986 L416.059,394.333 L418.717,394.795 L422.285,395.306 L425.879,395.705 L429.495,396.001 L433.131,396.203 L436.784,396.32 L440.454,396.361 L444.136,396.335 L447.83,396.25 L451.533,396.116 L457.099,395.841 L464.534,395.384 L471.97,394.887 L479.387,394.421 L484.926,394.134 L488.602,393.989 L492.266,393.891 L495.913,393.849 L499.542,393.872 L503.149,393.968 L506.733,394.146 L510.293,394.414 L513.825,394.782 L517.327,395.258 L519.93,395.69 L521.654,396.016 L523.372,396.375 L525.081,396.766 L525.929,396.974 L525.929,396.974 C527.489,397.356 529.009,392.082 529.325,385.193 C529.64,378.304 528.631,372.409 527.071,372.026 L526.204,371.814 L524.469,371.417 L522.726,371.054 L520.973,370.723 L518.331,370.284 L514.788,369.804 L511.219,369.433 L507.626,369.162 L504.012,368.983 L500.378,368.886 L496.726,368.864 L493.059,368.906 L489.379,369.004 L485.686,369.15 L480.133,369.438 L472.711,369.904 L465.282,370.401 L457.863,370.857 L452.314,371.131 L448.628,371.265 L444.955,371.35 L441.296,371.376 L437.654,371.336 L434.031,371.22 L430.429,371.02 L426.851,370.727 L423.297,370.333 L419.769,369.829 L417.141,369.373 L415.401,369.03 L413.669,368.656 L411.942,368.246 L411.076,368.028 C411.076,368.028 411.076,368.028 411.076,368.028 C409.516,367.634 407.994,372.899 407.676,379.788 C407.358,386.676 408.365,392.579 409.924,392.972 L409.924,392.972"
       fill="#FF0000"
       id="path12118"
       style="fill:#8f123e;fill-opacity:1" />
    <path
       d="M561.528,392.744 L561.857,393.045 L562.583,393.655 L563.347,394.225 L564.134,394.745 L564.941,395.216 L565.77,395.642 L566.621,396.025 L567.492,396.368 L568.382,396.672 L569.291,396.938 L570.22,397.17 L571.165,397.368 L572.128,397.535 L573.107,397.672 L574.102,397.78 L575.111,397.862 L576.648,397.936 L578.743,397.956 L580.887,397.895 L583.07,397.764 L585.284,397.574 L587.524,397.337 L590.913,396.918 L595.459,396.297 L598.857,395.833 L601.1,395.546 L603.321,395.288 L605.51,395.071 L607.661,394.906 L609.766,394.803 L611.817,394.773 L613.313,394.805 L614.288,394.854 L615.249,394.927 L616.191,395.026 L617.113,395.151 L618.015,395.304 L618.895,395.486 L619.753,395.698 L620.586,395.941 L621.395,396.216 L622.177,396.524 L622.933,396.866 L623.66,397.242 L624.357,397.653 L624.683,397.864 L624.683,397.864 C626.209,398.852 627.812,394.116 628.264,387.288 C628.715,380.459 627.844,374.123 626.317,373.136 L625.922,372.881 L625.138,372.423 L624.333,372.008 L623.505,371.636 L622.656,371.304 L621.786,371.01 L620.898,370.752 L619.989,370.528 L619.061,370.337 L618.116,370.178 L617.154,370.048 L616.176,369.946 L615.182,369.87 L614.169,369.819 L612.627,369.788 L610.53,369.819 L608.388,369.924 L606.209,370.092 L603.997,370.311 L601.761,370.571 L599.506,370.86 L596.109,371.324 L591.58,371.942 L588.214,372.359 L586.001,372.593 L583.82,372.78 L581.678,372.91 L579.582,372.971 L577.538,372.952 L576.043,372.88 L575.07,372.802 L574.115,372.699 L573.179,372.569 L572.263,372.411 L571.367,372.224 L570.494,372.008 L569.644,371.76 L568.819,371.48 L568.018,371.167 L567.245,370.821 L566.499,370.44 L565.781,370.025 L565.095,369.576 L564.44,369.092 L563.803,368.56 L563.472,368.256 C563.472,368.256 563.472,368.256 563.472,368.256 C561.974,366.885 560.324,371.255 559.787,378.017 C559.25,384.779 560.03,391.372 561.528,392.744 L561.528,392.744"
       fill="#000000"
       id="path12120" />
    <path
       d="M668.146,393.99 L668.445,393.963 L669.076,393.917 L669.758,393.879 L670.492,393.85 L671.278,393.829 L672.112,393.816 L672.992,393.811 L673.918,393.814 L674.886,393.824 L675.895,393.841 L676.943,393.865 L678.029,393.896 L679.15,393.933 L680.305,393.976 L682.099,394.051 L684.591,394.17 L687.185,394.309 L689.871,394.465 L692.631,394.636 L695.454,394.821 L698.325,395.016 L702.692,395.325 L708.553,395.756 L712.917,396.083 L715.786,396.3 L718.605,396.513 L721.363,396.72 L724.043,396.918 L726.634,397.107 L729.12,397.283 L731.49,397.444 L733.181,397.555 L734.265,397.622 L735.311,397.685 L736.319,397.743 L737.286,397.796 L738.211,397.843 L739.093,397.884 L739.928,397.919 L740.716,397.948 L741.456,397.969 L742.145,397.984 L742.783,397.992 L743.084,397.993 L743.084,397.993 C744.659,397.999 746.122,392.411 746.352,385.512 C746.582,378.612 745.491,373.014 743.916,373.007 L743.626,373.006 L743.001,372.999 L742.322,372.984 L741.592,372.963 L740.81,372.935 L739.981,372.9 L739.106,372.859 L738.185,372.812 L737.222,372.76 L736.218,372.702 L735.174,372.639 L734.094,372.572 L732.406,372.462 L730.041,372.301 L727.556,372.125 L724.968,371.937 L722.288,371.738 L719.531,371.531 L716.711,371.318 L713.842,371.102 L709.477,370.774 L703.612,370.343 L699.242,370.034 L696.368,369.838 L693.54,369.653 L690.774,369.482 L688.083,369.325 L685.48,369.186 L682.98,369.067 L681.182,368.991 L680.021,368.948 L678.894,368.911 L677.801,368.88 L676.745,368.856 L675.727,368.839 L674.75,368.829 L673.813,368.826 L672.92,368.831 L672.071,368.844 L671.269,368.865 L670.514,368.895 L669.808,368.935 L669.156,368.983 L668.854,369.01 C667.275,369.153 665.836,374.862 665.64,381.76 C665.444,388.658 666.566,394.134 668.146,393.99 L668.146,393.99"
       fill="#FF0000"
       id="path12122"
       style="fill:#8f123e;fill-opacity:1" />
    <path
       d="M184.131,436.991 L184.845,436.943 L186.31,436.856 L187.825,436.78 L189.389,436.716 L190.998,436.662 L192.648,436.617 L194.335,436.582 L196.057,436.555 L198.697,436.53 L202.302,436.521 L205.978,436.536 L209.698,436.571 L215.298,436.65 L220.837,436.746 L224.448,436.812 L227.962,436.874 L230.516,436.915 L232.174,436.939 L233.791,436.959 L235.365,436.975 L236.892,436.986 L238.367,436.992 L239.085,436.993 L239.085,436.993 C240.66,436.996 242.123,431.406 242.352,424.507 C242.581,417.607 241.49,412.011 239.915,412.007 L239.2,412.006 L237.729,412.001 L236.206,411.989 L234.636,411.973 L233.021,411.953 L231.365,411.929 L228.813,411.888 L225.299,411.826 L221.688,411.76 L216.145,411.664 L210.538,411.586 L206.812,411.551 L203.126,411.536 L199.512,411.544 L196.865,411.57 L195.137,411.596 L193.441,411.632 L191.782,411.677 L190.163,411.731 L188.588,411.796 L187.06,411.873 L185.585,411.96 L184.869,412.009 C184.869,412.009 184.869,412.009 184.869,412.009 C183.29,412.117 181.846,417.796 181.642,424.695 C181.438,431.594 182.553,437.099 184.131,436.991 L184.131,436.991"
       fill="#000000"
       id="path12124" />
    <path
       d="M282.075,441.993 L285.287,442.052 L291.696,442.201 L298.087,442.384 L304.464,442.593 L314.01,442.946 L326.713,443.454 L339.407,443.96 L352.115,444.414 L361.668,444.69 L368.052,444.832 L374.451,444.932 L380.867,444.986 L384.084,444.993 L384.084,444.993 C385.659,444.998 387.122,439.409 387.352,432.509 C387.581,425.609 386.491,420.012 384.916,420.007 C384.916,420.007 384.916,420.007 384.916,420.007 L381.707,420 L375.299,419.947 L368.909,419.846 L362.533,419.705 L352.99,419.429 L340.288,418.976 L327.593,418.47 L314.886,417.961 L305.335,417.609 L298.952,417.399 L292.554,417.216 L286.14,417.067 L282.925,417.007 C281.351,416.98 279.884,422.551 279.65,429.45 C279.415,436.35 280.501,441.965 282.075,441.993 L282.075,441.993"
       fill="#000000"
       id="path12126" />
    <path
       d="M425.103,445.993 L426.731,445.951 L429.965,445.966 L433.194,446.083 L436.428,446.266 L441.291,446.591 L446.169,446.872 L449.438,446.978 L451.08,446.993 L451.08,446.993 C452.655,447.008 454.119,441.427 454.351,434.528 C454.583,427.628 453.495,422.023 451.92,422.007 L450.308,421.993 L447.073,421.889 L442.206,421.608 L437.33,421.282 L434.069,421.098 L430.798,420.981 L427.526,420.966 L425.897,421.007 C424.32,421.048 422.865,426.674 422.646,433.573 C422.426,440.473 423.527,446.033 425.103,445.993 L425.103,445.993"
       fill="#000000"
       id="path12128" />
    <path
       d="M496.101,447.993 L498.018,447.953 L501.844,447.907 L507.57,447.907 L515.187,448.012 L522.79,448.2 L530.39,448.431 L537.995,448.664 L545.612,448.859 L553.251,448.976 L557.083,448.993 L557.083,448.993 C558.658,449.001 560.121,443.414 560.352,436.514 C560.582,429.615 559.492,424.015 557.917,424.007 L554.099,423.991 L546.474,423.874 L538.863,423.679 L531.258,423.446 L523.65,423.215 L516.033,423.027 L508.398,422.921 L502.657,422.921 L498.82,422.968 L496.899,423.007 C495.323,423.042 493.866,428.662 493.646,435.562 C493.425,442.461 494.524,448.027 496.101,447.993 L496.101,447.993"
       fill="#000000"
       id="path12130" />
    <path
       d="M560.5,176.5 C528.114,197.862 491.877,227.653 475.5,264.5"
       fill-opacity="0"
       stroke="#FF0000"
       stroke-width="4"
       stroke-linecap="round"
       stroke-linejoin="round"
       id="path12132"
       style="stroke:#8f123e;stroke-opacity:1" />
    <path
       d="M420.5,266.5 C404.179,224.437 368.903,197.202 329.5,177.5"
       fill-opacity="0"
       stroke="#FF0000"
       stroke-width="4"
       stroke-linecap="round"
       stroke-linejoin="round"
       id="path12134"
       style="stroke:#8f123e;stroke-opacity:1" />
    <path
       d="M504.5,279.5 C520.088,280.682 534.567,277.159 549.5,275.5"
       fill-opacity="0"
       stroke="#FF0000"
       stroke-width="4"
       stroke-linecap="round"
       stroke-linejoin="round"
       id="path12136"
       style="stroke:#8f123e;stroke-opacity:1" />
    <path
       d="M393.5,274.5 C335.406,236.286 268.415,225.053 208.5,262.5"
       fill-opacity="0"
       stroke="#FF0000"
       stroke-width="4"
       stroke-linecap="round"
       stroke-linejoin="round"
       id="path12138"
       style="stroke:#8f123e;stroke-opacity:1" />
    <path
       d="M443.5,283.5 C445.493,318.449 467.261,350.013 488.5,375.5"
       fill-opacity="0"
       stroke="#FF0000"
       stroke-width="4"
       stroke-linecap="round"
       stroke-linejoin="round"
       id="path12140"
       style="stroke:#8f123e;stroke-opacity:1" />
    <path
       d="M510.5,373.5 C557.08,333.296 642.151,329.915 689.5,370.5"
       fill-opacity="0"
       stroke="#FF0000"
       stroke-width="4"
       stroke-linecap="round"
       stroke-linejoin="round"
       id="path12142"
       style="stroke:#8f123e;stroke-opacity:1" />
    <path
       d="M793.5,70.5 C580.646,85.865 363.159,57.982 151.5,81.5"
       fill-opacity="0"
       stroke="#000000"
       stroke-width="4"
       stroke-linecap="round"
       stroke-linejoin="round"
       id="path12144" />
    <path
       d="M131.5,80.5 C109.637,245.558 164.674,428.804 124.5,589.5"
       fill-opacity="0"
       stroke="#000000"
       stroke-width="4"
       stroke-linecap="round"
       stroke-linejoin="round"
       id="path12146" />
    <path
       d="M781.5,68.5 C775.681,259.353 777.104,451.654 762.5,641.5"
       fill-opacity="0"
       stroke="#000000"
       stroke-width="4"
       stroke-linecap="round"
       stroke-linejoin="round"
       id="path12148" />
  </g>
</svg>
