<?xml version="1.0" encoding="UTF-8" standalone="no"?>
<svg
   xmlns:dc="http://purl.org/dc/elements/1.1/"
   xmlns:cc="http://creativecommons.org/ns#"
   xmlns:rdf="http://www.w3.org/1999/02/22-rdf-syntax-ns#"
   xmlns:svg="http://www.w3.org/2000/svg"
   xmlns="http://www.w3.org/2000/svg"
   xmlns:sodipodi="http://sodipodi.sourceforge.net/DTD/sodipodi-0.dtd"
   xmlns:inkscape="http://www.inkscape.org/namespaces/inkscape"
   version="1.1"
   x="0"
   y="0"
   width="944"
   height="704"
   viewBox="0, 0, 944, 704"
   id="svg23417"
   sodipodi:docname="VAS.svg"
   inkscape:export-filename="X:\07-Administration\04-CoC\CoC-ML\intern\Präsentationen\Fachliche Szenarien\ML Poster Sketches\ML Poster\VAS.png"
   inkscape:export-xdpi="96"
   inkscape:export-ydpi="96"
   inkscape:version="0.92.1 r15371">
  <metadata
     id="metadata23423">
    <rdf:RDF>
      <cc:Work
         rdf:about="">
        <dc:format>image/svg+xml</dc:format>
        <dc:type
           rdf:resource="http://purl.org/dc/dcmitype/StillImage" />
      </cc:Work>
    </rdf:RDF>
  </metadata>
  <defs
     id="defs23421" />
  <sodipodi:namedview
     pagecolor="#ffffff"
     bordercolor="#666666"
     borderopacity="1"
     objecttolerance="10"
     gridtolerance="10"
     guidetolerance="10"
     inkscape:pageopacity="0"
     inkscape:pageshadow="2"
     inkscape:window-width="1920"
     inkscape:window-height="1027"
     id="namedview23419"
     showgrid="false"
     inkscape:zoom="0.94816591"
     inkscape:cx="312.79034"
     inkscape:cy="451.02546"
     inkscape:window-x="-8"
     inkscape:window-y="-8"
     inkscape:window-maximized="1"
     inkscape:current-layer="Layer_1" />
  <g
     id="Layer_1">
    <path
       d="M825.12,540.223 C789.219,470.241 802.933,377.486 717.941,344.906"
       fill-opacity="0"
       stroke="#000000"
       stroke-width="4"
       stroke-linecap="round"
       stroke-linejoin="round"
       id="path23302" />
    <path
       d="M769.19,439.026 C753.011,412.997 739.921,386.196 725.146,359.64 C717.838,346.505 665.108,270.576 649.039,290.481 C646.316,293.854 650.705,315.038 652.724,319.378 C669.449,355.336 683.959,380.685 704.371,411.538 C723.732,440.801 709.177,473.528 717.941,506.112 C726.517,537.997 763.506,565.449 777.041,594.005"
       fill-opacity="0"
       stroke="#000000"
       stroke-width="4"
       stroke-linecap="round"
       stroke-linejoin="round"
       id="path23304" />
    <path
       d="M850.436,539.639 C873.736,580.514 909.178,611.972 941.954,644.748"
       fill-opacity="0"
       stroke="#000000"
       stroke-width="4"
       stroke-linecap="round"
       stroke-linejoin="round"
       id="path23306" />
    <path
       d="M772.51,618.471 C797.413,654.201 841.523,672.863 866.746,708.176"
       fill-opacity="0"
       stroke="#000000"
       stroke-width="4"
       stroke-linecap="round"
       stroke-linejoin="round"
       id="path23308" />
    <path
       d="M850.436,541.451 C831.317,577.102 808.036,602.942 775.229,624.813"
       fill-opacity="0"
       stroke="#000000"
       stroke-width="4"
       stroke-linecap="round"
       stroke-linejoin="round"
       id="path23310" />
    <path
       d="M408.606,709.18 C408.386,693.575 404.904,673.721 395.052,660.527 C354.092,605.671 353.019,623.22 335.746,593.451 C330.278,584.028 325.665,578.861 326.434,555.433 C327.771,514.683 311.707,493.041 286.648,450.372 C278.627,436.715 268.549,451.781 267.776,463.246 C266.464,482.723 259.144,528.164 293.403,568.368"
       fill-opacity="0"
       stroke="#000000"
       stroke-width="4"
       stroke-linecap="round"
       stroke-linejoin="round"
       id="path23312" />
    <path
       d="M264.888,524.373 C240.296,599.522 254.373,643.326 305.5,704.5"
       fill-opacity="0"
       stroke="#000000"
       stroke-width="4"
       stroke-linecap="round"
       stroke-linejoin="round"
       id="path23314" />
    <path
       d="M656.187,272.672 C604.263,173.283 582.703,123.109 540.105,47.686"
       fill-opacity="0"
       stroke="#000000"
       stroke-width="4"
       stroke-linecap="round"
       stroke-linejoin="round"
       id="path23316" />
    <path
       d="M538.187,47.686 C508.33,-8.681 361.511,77.463 323.203,95.929 C296.434,108.833 161.35,173.42 157.154,203.56 C153.966,226.456 170.323,247.836 171.556,253.478"
       fill-opacity="0"
       stroke="#000000"
       stroke-width="4"
       stroke-linecap="round"
       stroke-linejoin="round"
       id="path23318" />
    <path
       d="M262.522,444.946 C238.811,393.012 193.385,302.376 173.474,253.478"
       fill-opacity="0"
       stroke="#000000"
       stroke-width="4"
       stroke-linecap="round"
       stroke-linejoin="round"
       id="path23320" />
    <path
       d="M696.998,496.855 C598.635,534.709 507.346,597.4 415.654,643.246"
       fill-opacity="0"
       stroke="#000000"
       stroke-width="4"
       stroke-linecap="round"
       stroke-linejoin="round"
       id="path23322" />
    <path
       d="M489.678,65.26 C396.621,117.716 298.21,164.232 202.576,212.049"
       fill-opacity="0"
       stroke="#000000"
       stroke-width="4"
       stroke-linecap="round"
       stroke-linejoin="round"
       id="path23324" />
    <path
       d="M209.89,207.732 C275.919,331.304 342.078,456.996 404.17,581.18"
       fill-opacity="0"
       stroke="#000000"
       stroke-width="4"
       stroke-linecap="round"
       stroke-linejoin="round"
       id="path23326" />
    <path
       d="M503.469,50.149 C551.027,178.16 624.341,295.133 684.796,416.043"
       fill-opacity="0"
       stroke="#000000"
       stroke-width="4"
       stroke-linecap="round"
       stroke-linejoin="round"
       id="path23328" />
    <path
       d="M679.4,416.043 C591.653,473.868 496.789,515.32 408.606,568.228"
       fill-opacity="0"
       stroke="#000000"
       stroke-width="4"
       stroke-linecap="round"
       stroke-linejoin="round"
       id="path23330" />
    <path
       d="M568.987,538.352 C607.212,522.662 542.774,488.434 542.774,525.088 C542.774,530.774 547.54,535.079 552.565,537.089 C559.497,539.862 563.5,541.495 570.567,538.668"
       fill-opacity="0"
       stroke="#000000"
       stroke-width="4"
       stroke-linecap="round"
       stroke-linejoin="round"
       id="path23332" />
    <path
       d="M627.352,335.862 C540.06,380.357 454.828,433.278 368.58,476.402"
       fill-opacity="0"
       stroke="#FF0000"
       stroke-width="4"
       stroke-linecap="round"
       stroke-linejoin="round"
       id="path23334"
       style="stroke:#8f123e;stroke-opacity:1" />
    <path
       d="M439.537,456.085 C430.691,457.97 424.935,461.87 416.941,467.865 C389.127,488.726 420.855,535.73 451.684,525.453 C489.539,512.834 480.997,456.085 440.612,456.085"
       fill-opacity="0"
       stroke="#FF0000"
       stroke-width="4"
       stroke-linecap="round"
       stroke-linejoin="round"
       id="path23336"
       style="stroke:#8f123e;stroke-opacity:1" />
    <path
       d="M461.966,503.486 C452.284,502.781 446.542,507.733 444.849,516.535"
       fill-opacity="0"
       stroke="#FF0000"
       stroke-width="4"
       stroke-linecap="round"
       stroke-linejoin="round"
       id="path23338"
       style="stroke:#8f123e;stroke-opacity:1" />
    <path
       d="M451.628,504.502 C449.553,501.493 447.187,498.695 445.358,495.69"
       fill-opacity="0"
       stroke="#FF0000"
       stroke-width="4"
       stroke-linecap="round"
       stroke-linejoin="round"
       id="path23340"
       style="stroke:#8f123e;stroke-opacity:1" />
    <path
       d="M446.713,477.048 C457.058,491.385 436.742,505.156 427.563,489.42"
       fill-opacity="0"
       stroke="#FF0000"
       stroke-width="4"
       stroke-linecap="round"
       stroke-linejoin="round"
       id="path23342"
       style="stroke:#8f123e;stroke-opacity:1" />
    <path
       d="M440.612,479.082 C433.354,464.209 423.912,471.815 433.325,483.997"
       fill-opacity="0"
       stroke="#FF0000"
       stroke-width="4"
       stroke-linecap="round"
       stroke-linejoin="round"
       id="path23344"
       style="stroke:#8f123e;stroke-opacity:1" />
    <path
       d="M431.766,481.316 C439.025,496.189 448.466,488.584 439.053,476.402"
       fill-opacity="0"
       stroke="#FF0000"
       stroke-width="4"
       stroke-linecap="round"
       stroke-linejoin="round"
       id="path23346"
       style="stroke:#8f123e;stroke-opacity:1" />
    <path
       d="M451.552,455.719 C507.568,428.001 562.683,396.855 618.57,368.911"
       fill-opacity="0"
       stroke="#FF0000"
       stroke-width="4"
       stroke-linecap="round"
       stroke-linejoin="round"
       id="path23348"
       style="stroke:#8f123e;stroke-opacity:1" />
    <path
       d="M621,367.522 C630.277,382.231 641.699,395.759 650.168,410.579"
       fill-opacity="0"
       stroke="#FF0000"
       stroke-width="4"
       stroke-linecap="round"
       stroke-linejoin="round"
       id="path23350"
       style="stroke:#8f123e;stroke-opacity:1" />
    <path
       d="M653.987,412.315 C592.966,440.545 533.568,471.707 476.205,506.762"
       fill-opacity="0"
       stroke="#FF0000"
       stroke-width="4"
       stroke-linecap="round"
       stroke-linejoin="round"
       id="path23352"
       style="stroke:#8f123e;stroke-opacity:1" />
    <path
       d="M490.713,479.907 L492.935,478.831 L497.373,476.656 L504,473.351 L512.786,468.864 L521.522,464.292 L530.215,459.64 L538.873,454.915 L547.505,450.12 L556.117,445.263 L560.421,442.811 L560.421,442.811 C562.363,441.706 563.956,434.046 563.98,425.701 C564.004,417.357 562.45,411.488 560.508,412.593 L556.214,415.039 L547.615,419.889 L538.999,424.674 L530.359,429.39 L521.685,434.031 L512.97,438.593 L504.204,443.07 L497.591,446.368 L493.162,448.538 L490.938,449.616 C488.997,450.557 487.373,458.1 487.311,466.465 C487.249,474.83 488.772,480.848 490.713,479.907 L490.713,479.907"
       fill="#FF0000"
       id="path23354"
       style="fill:#8f123e;fill-opacity:1" />
    <path
       d="M580.355,431.013 L582.075,430.081 L585.523,428.248 L588.987,426.454 L592.469,424.695 L595.971,422.972 L599.492,421.282 L603.032,419.627 L606.591,418.004 L608.376,417.206 L608.376,417.206 C610.316,416.339 611.953,408.849 612.033,400.476 C612.112,392.104 610.604,386.019 608.663,386.885 L606.865,387.69 L603.285,389.322 L599.726,390.987 L596.185,392.686 L592.662,394.42 L589.158,396.189 L585.672,397.995 L582.207,399.837 L580.484,400.771 C578.543,401.825 576.94,409.45 576.904,417.801 C576.869,426.152 578.414,432.067 580.355,431.013 L580.355,431.013"
       fill="#FF0000"
       id="path23356"
       style="fill:#8f123e;fill-opacity:1" />
    <path
       d="M276.135,299.976 C285.932,294.965 295.728,289.953 305.525,284.942 C315.513,279.833 329.011,269.205 340.918,269.843 C362.466,270.999 412.149,361.307 418.125,383.686 C419.777,389.873 418.108,404.526 415.981,409.837 C407.306,431.491 382.078,431.773 367.139,445.846"
       fill-opacity="0"
       stroke="#FF0000"
       stroke-width="4"
       stroke-linecap="round"
       stroke-linejoin="round"
       id="path23358"
       style="stroke:#8f123e;stroke-opacity:1" />
    <path
       d="M374.827,301.281 C348.383,320.62 364.437,352.697 396.253,336.422"
       fill-opacity="0"
       stroke="#FF0000"
       stroke-width="4"
       stroke-linecap="round"
       stroke-linejoin="round"
       id="path23360"
       style="stroke:#8f123e;stroke-opacity:1" />
    <path
       d="M407.63,364.095 C400.166,367.701 386.378,372.682 378.726,375.706"
       fill-opacity="0"
       stroke="#FF0000"
       stroke-width="4"
       stroke-linecap="round"
       stroke-linejoin="round"
       id="path23362"
       style="stroke:#8f123e;stroke-opacity:1" />
    <path
       d="M379.019,375.556 C377.306,372.242 375.361,369.129 373.66,365.804"
       fill-opacity="0"
       stroke="#FF0000"
       stroke-width="4"
       stroke-linecap="round"
       stroke-linejoin="round"
       id="path23364"
       style="stroke:#8f123e;stroke-opacity:1" />
    <path
       d="M317.503,353.929 C320.208,351.362 322.631,350.324 326.668,350.214 C334.112,350.012 339.583,361.772 338.087,367.949 C337.306,371.173 334.993,373.763 332.57,374.863 C328.941,376.51 326.387,377.631 322.619,376.056 C314.491,372.661 312.38,359.051 317.541,353.791"
       fill-opacity="0"
       stroke="#FF0000"
       stroke-width="4"
       stroke-linecap="round"
       stroke-linejoin="round"
       id="path23366"
       style="stroke:#8f123e;stroke-opacity:1" />
    <path
       d="M304.107,284.64 C291.942,269.655 275.676,277.975 280.159,296.073"
       fill-opacity="0"
       stroke="#FF0000"
       stroke-width="4"
       stroke-linecap="round"
       stroke-linejoin="round"
       id="path23368"
       style="stroke:#8f123e;stroke-opacity:1" />
    <path
       d="M282.984,279.238 C276.41,266.822 268.035,250.967 261.701,238.586"
       fill-opacity="0"
       stroke="#FF0000"
       stroke-width="4"
       stroke-linecap="round"
       stroke-linejoin="round"
       id="path23370"
       style="stroke:#8f123e;stroke-opacity:1" />
    <path
       d="M255.986,227.639 C263.346,223.227 270.632,237.426 260.183,238.784 C255.47,239.396 250.813,230.491 255.986,227.639"
       fill-opacity="0"
       stroke="#FF0000"
       stroke-width="4"
       stroke-linecap="round"
       stroke-linejoin="round"
       id="path23372"
       style="stroke:#8f123e;stroke-opacity:1" />
    <path
       d="M426.137,356.448 C437.328,357.753 448.758,356.282 459.909,357.521"
       fill-opacity="0"
       stroke="#FF0000"
       stroke-width="4"
       stroke-linecap="round"
       stroke-linejoin="round"
       id="path23374"
       style="stroke:#8f123e;stroke-opacity:1" />
    <path
       d="M427.745,353.232 C433.301,345.336 439.504,338.516 447.044,332.861"
       fill-opacity="0"
       stroke="#FF0000"
       stroke-width="4"
       stroke-linecap="round"
       stroke-linejoin="round"
       id="path23376"
       style="stroke:#8f123e;stroke-opacity:1" />
    <path
       d="M463.126,358.593 C476.318,389.237 506.619,360.161 525.846,349.48 C548.133,337.098 571.957,327.495 593.39,314.635 C616.703,300.647 586.022,261.794 577.844,248.163 C553.246,207.165 500.521,252.359 470.631,272.286 C439.679,292.92 433.068,296.458 447.58,329.109"
       fill-opacity="0"
       stroke="#FF0000"
       stroke-width="4"
       stroke-linecap="round"
       stroke-linejoin="round"
       id="path23378"
       style="stroke:#8f123e;stroke-opacity:1" />
    <path
       d="M465.355,318.404 L466.067,317.887 L467.493,316.879 L469.662,315.402 L472.608,313.489 L475.602,311.628 L480.166,308.893 L486.303,305.287 L489.369,303.466 L489.369,303.466 C491.311,302.314 492.896,294.621 492.909,286.283 C492.922,277.944 491.359,272.118 489.417,273.27 C489.417,273.27 489.417,273.27 489.417,273.27 L486.361,275.085 L480.205,278.703 L475.604,281.46 L472.565,283.35 L469.567,285.297 L467.354,286.804 L465.899,287.833 L465.185,288.352 C463.244,289.761 461.708,297.631 461.755,305.93 C461.802,314.228 463.414,319.813 465.355,318.404 L465.355,318.404"
       fill="#FF0000"
       id="path23380"
       style="fill:#8f123e;fill-opacity:1" />
    <path
       d="M515.455,289.616 L515.871,289.462 L516.719,289.119 L517.968,288.549 L519.588,287.707 L521.169,286.792 L523.465,285.356 L525.725,283.912 L527.218,282.996 L527.958,282.564 L527.958,282.564 C529.9,281.432 531.488,273.753 531.506,265.412 C531.523,257.071 529.964,251.227 528.022,252.359 C528.022,252.359 528.022,252.359 528.022,252.359 L527.232,252.82 L525.698,253.762 L523.461,255.191 L521.239,256.582 L519.755,257.445 L518.239,258.236 L517.077,258.769 L516.283,259.09 L515.865,259.245 C513.927,259.965 512.264,267.347 512.15,275.734 C512.037,284.12 513.517,290.335 515.455,289.616 L515.455,289.616"
       fill="#FF0000"
       id="path23382"
       style="fill:#8f123e;fill-opacity:1" />
    <path
       d="M541.962,274.125 L542.425,274.124 L543.392,274.077 L544.37,273.972 L545.343,273.812 L546.311,273.601 L547.273,273.342 L548.224,273.039 L549.165,272.695 L550.094,272.312 L551.008,271.895 L551.907,271.446 L552.788,270.968 L553.649,270.465 L554.49,269.94 L555.308,269.396 L556.101,268.834 L556.497,268.542 L556.497,268.542 C558.438,267.107 559.969,259.22 559.916,250.926 C559.863,242.631 558.247,237.071 556.305,238.505 L555.962,238.76 L555.236,239.275 L554.485,239.776 L553.712,240.261 L552.919,240.725 L552.107,241.167 L551.279,241.582 L550.438,241.967 L549.584,242.321 L548.72,242.639 L547.848,242.919 L546.971,243.157 L546.089,243.352 L545.206,243.499 L544.324,243.597 L543.431,243.642 L542.965,243.643 C541.043,243.651 539.26,250.481 538.984,258.898 C538.707,267.316 540.04,274.133 541.962,274.125 L541.962,274.125"
       fill="#FF0000"
       id="path23384"
       style="fill:#8f123e;fill-opacity:1" />
    <path
       d="M480.743,357.1 L482.929,355.937 L487.294,353.541 L491.639,351.084 L495.969,348.599 L500.296,346.112 L504.63,343.654 L508.983,341.251 L512.265,339.503 L514.462,338.369 L515.563,337.814 L515.563,337.814 C517.504,336.837 519.121,329.267 519.175,320.907 C519.229,312.546 517.699,306.561 515.758,307.538 C515.758,307.538 515.758,307.538 515.758,307.538 L514.637,308.103 L512.411,309.251 L509.098,311.016 L504.721,313.433 L500.374,315.899 L496.049,318.384 L491.733,320.861 L487.415,323.303 L483.077,325.685 L480.889,326.849 C478.947,327.884 477.341,335.495 477.301,343.849 C477.261,352.202 478.802,358.135 480.743,357.1 L480.743,357.1"
       fill="#FF0000"
       id="path23386"
       style="fill:#8f123e;fill-opacity:1" />
    <path
       d="M535.8,326.613 L536.505,326.375 L537.942,325.864 L539.396,325.314 L540.856,324.728 L542.321,324.106 L543.785,323.449 L545.245,322.759 L546.696,322.034 L548.135,321.277 L549.558,320.488 L550.962,319.667 L552.342,318.815 L553.694,317.932 L555.015,317.018 L556.302,316.074 L557.551,315.1 L558.171,314.593 L558.171,314.593 C560.111,313.004 561.611,305.015 561.522,296.748 C561.433,288.482 559.788,283.069 557.848,284.658 L557.292,285.115 L556.12,286.031 L554.902,286.925 L553.644,287.797 L552.349,288.643 L551.023,289.463 L549.67,290.256 L548.293,291.02 L546.898,291.754 L545.489,292.458 L544.07,293.13 L542.645,293.77 L541.219,294.375 L539.795,294.947 L538.379,295.483 L536.97,295.985 L536.262,296.224 C534.324,296.882 532.65,304.219 532.523,312.61 C532.395,321.002 533.862,327.271 535.8,326.613 L535.8,326.613"
       fill="#FF0000"
       id="path23388"
       style="fill:#8f123e;fill-opacity:1" />
    <path
       d="M442.916,98.516 C462.165,88.946 480.95,84.442 490.486,101.894 C497.722,115.136 543.22,175.064 531.247,190.276 C514.87,211.084 402.609,263.061 375.291,267.399 C357.332,270.251 315.419,174.148 323.306,166.632 C352.968,138.366 407.785,115.547 445.384,97.632"
       fill-opacity="0"
       stroke="#FF0000"
       stroke-width="4"
       stroke-linecap="round"
       stroke-linejoin="round"
       id="path23390"
       style="stroke:#8f123e;stroke-opacity:1" />
    <path
       d="M498.759,115.695 C455.693,133.392 384.184,180.19 333.97,202.504"
       fill-opacity="0"
       stroke="#FF0000"
       stroke-width="4"
       stroke-linecap="round"
       stroke-linejoin="round"
       id="path23392"
       style="stroke:#8f123e;stroke-opacity:1" />
    <text
       transform="rotate(-25.975715)"
       id="text23396"
       x="320.3652"
       y="307.56223"
       style="font-size:12.00026989px;stroke-width:1.00002253">
      <tspan
         x="220.01494"
         y="312.56235"
         font-size="20"
         id="tspan23394"
         style="font-style:normal;font-variant:normal;font-weight:normal;font-stretch:normal;font-size:20.00045013px;font-family:'msg Text Heavy';-inkscape-font-specification:'msg Text Heavy, ';fill:#8f123e;stroke-width:1.00002253;fill-opacity:1">Next Appointment</tspan>
    </text>
    <text
       transform="matrix(0.899, -0.438, 0.438, 0.899, 436.395, 176.077)"
       id="text23400">
      <tspan
         x="-100.348"
         y="5"
         font-family="ArialRoundedMTBold"
         font-size="20"
         fill="#FF0000"
         id="tspan23398"
         style="-inkscape-font-specification:'msg Text Heavy, ';font-family:'msg Text Heavy';font-weight:normal;font-style:normal;font-stretch:normal;font-variant:normal;fill:#8f123e;fill-opacity:1">13:30</tspan>
    </text>
    <path
       d="M402.305,197.367 L402.992,197.188 L404.378,196.766 L405.759,196.273 L407.128,195.717 L408.485,195.106 L409.829,194.447 L411.162,193.749 L412.481,193.018 L414.434,191.879 L416.997,190.316 L419.509,188.756 L421.358,187.627 L422.571,186.907 L423.171,186.561 L423.171,186.561 C424.189,185.974 425.024,181.95 425.035,177.573 C425.046,173.197 424.229,170.125 423.21,170.712 L422.597,171.066 L421.368,171.795 L419.511,172.93 L417.008,174.484 L414.469,176.033 L412.54,177.158 L411.246,177.875 L409.944,178.559 L408.633,179.201 L407.314,179.796 L405.987,180.336 L404.652,180.815 L403.302,181.226 L402.613,181.405 C401.598,181.671 400.706,185.46 400.621,189.868 C400.536,194.276 401.29,197.633 402.305,197.367 L402.305,197.367"
       fill="#FF0000"
       id="path23402"
       style="fill:#8f123e;fill-opacity:1" />
    <path
       d="M433.822,178.544 L434.906,178.168 L437.07,177.357 L439.216,176.486 L441.342,175.567 L444.502,174.134 L448.682,172.188 L450.763,171.23 L450.763,171.23 C451.78,170.763 452.637,166.824 452.675,162.433 C452.714,158.042 451.92,154.862 450.902,155.33 C450.902,155.33 450.902,155.33 450.902,155.33 L448.817,156.289 L444.648,158.231 L441.507,159.656 L439.402,160.565 L437.283,161.426 L435.143,162.228 L434.058,162.605 C433.041,162.958 432.165,166.812 432.099,171.213 C432.034,175.615 432.806,178.897 433.822,178.544 L433.822,178.544"
       fill="#FF0000"
       id="path23404"
       style="fill:#8f123e;fill-opacity:1" />
    <path
       d="M463.293,161.674 L463.753,161.612 L464.671,161.464 L465.574,161.283 L466.458,161.072 L467.324,160.832 L468.173,160.566 L469.414,160.12 L471.019,159.444 L472.578,158.686 L474.092,157.86 L475.57,156.976 L477.017,156.05 L478.442,155.092 L480.552,153.624 L483.361,151.668 L485.494,150.255 L486.94,149.362 L487.671,148.936 L487.671,148.936 C488.69,148.342 489.523,144.313 489.533,139.938 C489.542,135.562 488.724,132.496 487.705,133.09 L486.945,133.534 L485.46,134.452 L483.298,135.884 L480.49,137.84 L478.4,139.294 L477.002,140.234 L475.591,141.138 L474.158,141.996 L472.695,142.796 L471.193,143.529 L469.64,144.184 L468.438,144.617 L467.62,144.874 L466.786,145.105 L465.935,145.309 L465.065,145.484 L464.171,145.629 L463.71,145.691 C462.698,145.826 461.784,149.515 461.669,153.928 C461.554,158.342 462.281,161.81 463.293,161.674 L463.293,161.674"
       fill="#FF0000"
       id="path23406"
       style="fill:#8f123e;fill-opacity:1" />
    <path
       d="M415.135,216.874 L415.846,216.421 L417.275,215.541 L418.721,214.69 L420.186,213.865 L422.417,212.669 L425.442,211.146 L428.515,209.69 L431.626,208.286 L436.342,206.241 L442.66,203.551 L447.375,201.489 L450.49,200.064 L453.567,198.58 L455.845,197.418 L457.348,196.616 L458.834,195.791 L460.304,194.94 L461.755,194.06 L463.188,193.151 L463.901,192.682 L463.901,192.682 C464.919,192.013 465.738,187.932 465.73,183.567 C465.721,179.202 464.889,176.207 463.87,176.876 L463.178,177.332 L461.77,178.226 L460.341,179.092 L458.892,179.931 L457.425,180.746 L455.942,181.538 L453.687,182.688 L450.632,184.162 L447.535,185.58 L442.829,187.637 L436.504,190.33 L431.773,192.382 L428.643,193.795 L425.544,195.263 L422.491,196.801 L420.237,198.01 L418.751,198.847 L417.282,199.712 L415.834,200.603 L415.121,201.058 C415.121,201.058 415.121,201.058 415.121,201.058 C414.102,201.709 413.28,205.777 413.284,210.144 C413.288,214.512 414.117,217.525 415.135,216.874 L415.135,216.874"
       fill="#FF0000"
       id="path23408"
       style="fill:#8f123e;fill-opacity:1" />
    <path
       d="M481.619,181.89 L482.156,181.465 L483.234,180.638 L484.883,179.433 L487.131,177.887 L489.424,176.396 L491.75,174.949 L494.096,173.533 L497.624,171.44 L499.962,170.048 L499.962,170.048 C500.981,169.442 501.811,165.404 501.818,161.031 C501.824,156.657 501.004,153.602 499.985,154.209 L497.65,155.599 L494.113,157.697 L491.75,159.123 L489.4,160.586 L487.075,162.098 L484.79,163.671 L483.11,164.899 L482.011,165.742 L481.472,166.169 C480.454,166.976 479.662,171.149 479.703,175.491 C479.743,179.832 480.601,182.697 481.619,181.89 L481.619,181.89"
       fill="#FF0000"
       id="path23410"
       style="fill:#8f123e;fill-opacity:1" />
    <path
       d="M428.798,235.758 L429.227,235.642 L430.092,235.372 L430.944,235.055 L431.779,234.698 L432.596,234.304 L433.397,233.877 L434.182,233.421 L434.951,232.939 L436.072,232.178 L437.521,231.108 L438.923,229.998 L440.279,228.882 L440.941,228.33 L440.941,228.33 C441.958,227.484 442.743,223.284 442.693,218.95 C442.643,214.616 441.778,211.79 440.76,212.636 L440.106,213.182 L438.778,214.275 L437.421,215.351 L436.024,216.384 L434.947,217.116 L434.217,217.574 L433.473,218.008 L432.717,218.412 L431.946,218.785 L431.16,219.123 L430.357,219.422 L429.531,219.682 L429.1,219.798 C428.085,220.071 427.194,223.866 427.111,228.273 C427.028,232.68 427.783,236.031 428.798,235.758 L428.798,235.758"
       fill="#FF0000"
       id="path23412"
       style="fill:#8f123e;fill-opacity:1" />
    <path
       d="M458.746,220.891 L458.996,220.597 L459.495,220.053 L460.028,219.521 L460.605,218.988 L461.223,218.458 L461.879,217.932 L462.572,217.409 L463.3,216.891 L464.456,216.122 L466.101,215.115 L467.852,214.131 L469.701,213.165 L471.636,212.216 L473.645,211.281 L475.717,210.358 L477.84,209.444 L481.099,208.087 L485.521,206.287 L489.95,204.478 L493.226,203.103 L495.369,202.171 L497.464,201.226 L499.502,200.262 L501.472,199.278 L503.365,198.27 L505.168,197.235 L506.874,196.169 L508.087,195.344 L508.862,194.78 L509.604,194.208 L510.315,193.625 L510.995,193.028 L511.642,192.417 L512.257,191.79 L512.839,191.144 L513.389,190.475 L513.906,189.778 L514.393,189.045 L514.851,188.262 L515.098,187.795 L515.098,187.795 C516.072,185.921 516.623,181.16 516.327,177.162 C516.032,173.164 515.002,171.442 514.027,173.317 L513.932,173.508 L513.638,174.023 L513.286,174.564 L512.879,175.119 L512.421,175.681 L511.916,176.245 L511.366,176.808 L510.775,177.368 L510.144,177.922 L509.476,178.472 L508.772,179.016 L508.037,179.551 L506.872,180.345 L505.211,181.384 L503.442,182.4 L501.578,183.393 L499.631,184.366 L497.611,185.321 L495.53,186.261 L493.4,187.187 L490.134,188.558 L485.706,190.366 L481.276,192.169 L478.006,193.532 L475.869,194.451 L473.78,195.382 L471.749,196.327 L469.787,197.291 L467.905,198.275 L466.111,199.284 L464.419,200.32 L463.222,201.117 L462.458,201.662 L461.724,202.217 L461.019,202.784 L460.346,203.364 L459.704,203.959 L459.094,204.572 L458.528,205.192 L458.276,205.487 C458.276,205.487 458.276,205.487 458.276,205.487 C457.265,206.672 456.552,211.081 456.681,215.335 C456.811,219.588 457.735,222.076 458.746,220.891 L458.746,220.891"
       fill="#FF0000"
       id="path23414"
       style="fill:#8f123e;fill-opacity:1" />
  </g>
</svg>
