<?xml version="1.0" encoding="UTF-8" standalone="no"?>
<svg
   xmlns:dc="http://purl.org/dc/elements/1.1/"
   xmlns:cc="http://creativecommons.org/ns#"
   xmlns:rdf="http://www.w3.org/1999/02/22-rdf-syntax-ns#"
   xmlns:svg="http://www.w3.org/2000/svg"
   xmlns="http://www.w3.org/2000/svg"
   xmlns:sodipodi="http://sodipodi.sourceforge.net/DTD/sodipodi-0.dtd"
   xmlns:inkscape="http://www.inkscape.org/namespaces/inkscape"
   version="1.1"
   x="0"
   y="0"
   width="944"
   height="704"
   viewBox="0, 0, 944, 704"
   id="svg15627"
   sodipodi:docname="VCO.svg"
   inkscape:export-filename="X:\07-Administration\04-CoC\CoC-ML\intern\Präsentationen\Fachliche Szenarien\ML Poster Sketches\ML Poster\VCO.png"
   inkscape:export-xdpi="96"
   inkscape:export-ydpi="96"
   inkscape:version="0.92.1 r15371">
  <metadata
     id="metadata15633">
    <rdf:RDF>
      <cc:Work
         rdf:about="">
        <dc:format>image/svg+xml</dc:format>
        <dc:type
           rdf:resource="http://purl.org/dc/dcmitype/StillImage" />
      </cc:Work>
    </rdf:RDF>
  </metadata>
  <defs
     id="defs15631" />
  <sodipodi:namedview
     pagecolor="#ffffff"
     bordercolor="#666666"
     borderopacity="1"
     objecttolerance="10"
     gridtolerance="10"
     guidetolerance="10"
     inkscape:pageopacity="0"
     inkscape:pageshadow="2"
     inkscape:window-width="1920"
     inkscape:window-height="1027"
     id="namedview15629"
     showgrid="false"
     inkscape:zoom="0.94816591"
     inkscape:cx="674.06897"
     inkscape:cy="261.18725"
     inkscape:window-x="-8"
     inkscape:window-y="-8"
     inkscape:window-maximized="1"
     inkscape:current-layer="Layer_1" />
  <g
     id="Layer_2" />
  <g
     id="Layer_1">
    <path
       d="M181.708,207.087 C189.034,213.266 191.087,221.788 185.906,229.001"
       fill-opacity="0"
       stroke="#000000"
       stroke-width="4"
       stroke-linecap="round"
       stroke-linejoin="round"
       id="path15410" />
    <path
       d="M186.43,200.188 C181.106,207.974 172.829,216.002 162.292,219.261"
       fill-opacity="0"
       stroke="#000000"
       stroke-width="4"
       stroke-linecap="round"
       stroke-linejoin="round"
       id="path15412" />
    <path
       d="M191.678,230.624 C181.648,225.632 170.75,223.816 159.668,222.102"
       fill-opacity="0"
       stroke="#000000"
       stroke-width="4"
       stroke-linecap="round"
       stroke-linejoin="round"
       id="path15414" />
    <path
       d="M186.65,226.52 C186.43,249.56 244.827,281.723 193.804,281.723"
       fill-opacity="0"
       stroke="#000000"
       stroke-width="4"
       stroke-linecap="round"
       stroke-linejoin="round"
       id="path15416" />
    <path
       d="M192.212,281.723 C186.65,285.069 186.349,293.758 189.296,297.959"
       fill-opacity="0"
       stroke="#000000"
       stroke-width="4"
       stroke-linecap="round"
       stroke-linejoin="round"
       id="path15418" />
    <path
       d="M188.969,296.601 C193.879,304.156 191.515,304.414 186.65,307.614"
       fill-opacity="0"
       stroke="#000000"
       stroke-width="4"
       stroke-linecap="round"
       stroke-linejoin="round"
       id="path15420" />
    <path
       d="M186.65,307.614 C180.336,310.169 169.203,311.67 162.307,311.285"
       fill-opacity="0"
       stroke="#000000"
       stroke-width="4"
       stroke-linecap="round"
       stroke-linejoin="round"
       id="path15422" />
    <path
       d="M162.292,312.227 C169.699,314.38 180.756,318.404 187.258,321.286"
       fill-opacity="0"
       stroke="#000000"
       stroke-width="4"
       stroke-linecap="round"
       stroke-linejoin="round"
       id="path15424" />
    <path
       d="M187.258,321.286 C196.356,326.054 184.799,330.937 182.93,334.487 C180.661,338.799 185.132,345.093 183.614,349.419 C180.217,359.101 162.595,358.843 155.139,355.695"
       fill-opacity="0"
       stroke="#000000"
       stroke-width="4"
       stroke-linecap="round"
       stroke-linejoin="round"
       id="path15426" />
    <path
       d="M180.923,201.325 C182.886,187.884 177.108,177.34 173.976,165.44"
       fill-opacity="0"
       stroke="#000000"
       stroke-width="4"
       stroke-linecap="round"
       stroke-linejoin="round"
       id="path15428" />
    <path
       d="M157.477,177.401 C161.995,162.389 178.125,150.682 192.212,143.991"
       fill-opacity="0"
       stroke="#000000"
       stroke-width="4"
       stroke-linecap="round"
       stroke-linejoin="round"
       id="path15430" />
    <path
       d="M147.925,171.214 C152.454,155.274 169.121,144.234 183.528,137.391"
       fill-opacity="0"
       stroke="#000000"
       stroke-width="4"
       stroke-linecap="round"
       stroke-linejoin="round"
       id="path15432" />
    <path
       d="M139.241,169.977 C140.22,156.996 153.491,144.234 165.292,138.628"
       fill-opacity="0"
       stroke="#000000"
       stroke-width="4"
       stroke-linecap="round"
       stroke-linejoin="round"
       id="path15434" />
    <path
       d="M133.596,164.202 C130.888,150.751 139.729,145.371 147.49,136.154"
       fill-opacity="0"
       stroke="#000000"
       stroke-width="4"
       stroke-linecap="round"
       stroke-linejoin="round"
       id="path15436" />
    <path
       d="M204.877,296.323 C212.807,304.489 210.386,316.649 206.356,325.837"
       fill-opacity="0"
       stroke="#000000"
       stroke-width="4"
       stroke-linecap="round"
       stroke-linejoin="round"
       id="path15438" />
    <path
       d="M218.404,290.525 C226.618,303.258 225.875,318.919 222.3,331.936"
       fill-opacity="0"
       stroke="#000000"
       stroke-width="4"
       stroke-linecap="round"
       stroke-linejoin="round"
       id="path15440" />
    <path
       d="M233.015,283.816 C247.009,297.032 242.04,318.308 235.938,334.25"
       fill-opacity="0"
       stroke="#000000"
       stroke-width="4"
       stroke-linecap="round"
       stroke-linejoin="round"
       id="path15442" />
    <path
       d="M248.357,276.413 C265.274,294.751 261.065,318.88 250.549,337.951"
       fill-opacity="0"
       stroke="#000000"
       stroke-width="4"
       stroke-linecap="round"
       stroke-linejoin="round"
       id="path15444" />
    <path
       d="M389.031,281.282 C390.834,306.522 391.346,331.232 385.787,339.154 C381.365,345.455 350.629,347.849 346.497,336.072 C340.776,319.768 343.973,301.395 343.973,283.679"
       fill-opacity="0"
       stroke="#000000"
       stroke-width="4"
       stroke-linecap="round"
       stroke-linejoin="round"
       id="path15446" />
    <path
       d="M368.485,346.002 C367.597,352.811 368.485,359.83 368.485,366.549"
       fill-opacity="0"
       stroke="#000000"
       stroke-width="4"
       stroke-linecap="round"
       stroke-linejoin="round"
       id="path15448" />
    <path
       d="M377.136,357.645 C398.861,366.969 382.806,384.761 363.799,380.246 C352.391,377.537 347.198,360.302 360.915,358.673"
       fill-opacity="0"
       stroke="#000000"
       stroke-width="4"
       stroke-linecap="round"
       stroke-linejoin="round"
       id="path15450" />
    <path
       d="M360.722,256.401 L372.078,256.401 C376.712,256.401 381.02,261.17 381.02,265.573 L380.469,318.138 C380.469,322.54 376.712,326.109 372.078,326.109 L362.538,326.633 C357.904,326.633 352.331,322.54 352.331,318.138 L352.331,264.372 C352.331,259.97 356.088,256.401 360.722,256.401 z"
       fill-opacity="0"
       stroke="#000000"
       stroke-width="4"
       id="path15452" />
    <path
       d="M690.737,222.01 C623.244,221.094 556.259,218.01 488.737,218.01"
       fill-opacity="0"
       stroke="#000000"
       stroke-width="4"
       stroke-linecap="round"
       stroke-linejoin="round"
       id="path15460" />
    <path
       d="M491.737,217.01 C497.672,263.14 491.737,309.913 491.737,356.01"
       fill-opacity="0"
       stroke="#000000"
       stroke-width="4"
       stroke-linecap="round"
       stroke-linejoin="round"
       id="path15462" />
    <path
       d="M494.737,355.01 C562.248,354.483 629.295,356.01 696.737,356.01"
       fill-opacity="0"
       stroke="#000000"
       stroke-width="4"
       stroke-linecap="round"
       stroke-linejoin="round"
       id="path15464" />
    <path
       d="M693.737,216.01 C699.275,264.759 702.208,309.773 696.737,359.01"
       fill-opacity="0"
       stroke="#000000"
       stroke-width="4"
       stroke-linecap="round"
       stroke-linejoin="round"
       id="path15466" />
    <path
       d="M494.497,343.136 C508.773,343.708 522.714,343.136 537.009,343.136"
       fill-opacity="0"
       stroke="#000000"
       stroke-width="4"
       stroke-linecap="round"
       stroke-linejoin="round"
       id="path15468" />
    <path
       d="M535.004,339.526 C535.155,331.33 534.201,323.639 534.201,315.462"
       fill-opacity="0"
       stroke="#000000"
       stroke-width="4"
       stroke-linecap="round"
       stroke-linejoin="round"
       id="path15470" />
    <path
       d="M534.201,312.254 C521.531,312.802 507.675,312.361 495.7,313.858"
       fill-opacity="0"
       stroke="#000000"
       stroke-width="4"
       stroke-linecap="round"
       stroke-linejoin="round"
       id="path15472" />
    <path
       d="M492.892,297.415 C506.489,294.715 520.669,295.41 534.603,295.41"
       fill-opacity="0"
       stroke="#000000"
       stroke-width="4"
       stroke-linecap="round"
       stroke-linejoin="round"
       id="path15474" />
    <path
       d="M535.004,291.8 C534.439,283.358 536.117,275.271 536.608,266.934"
       fill-opacity="0"
       stroke="#000000"
       stroke-width="4"
       stroke-linecap="round"
       stroke-linejoin="round"
       id="path15476" />
    <path
       d="M534.201,265.731 C520.548,267.612 506.795,265.033 493.293,266.533"
       fill-opacity="0"
       stroke="#000000"
       stroke-width="4"
       stroke-linecap="round"
       stroke-linejoin="round"
       id="path15478" />
    <path
       d="M680.588,342.735 C639.582,340.765 598.238,341.531 557.062,341.531"
       fill-opacity="0"
       stroke="#000000"
       stroke-width="4"
       stroke-linecap="round"
       stroke-linejoin="round"
       id="path15480" />
    <path
       d="M556.26,338.724 C556.241,334.115 557.357,329.801 557.864,325.489"
       fill-opacity="0"
       stroke="#000000"
       stroke-width="4"
       stroke-linecap="round"
       stroke-linejoin="round"
       id="path15482" />
    <path
       d="M558.265,323.083 C598.894,325.494 640.732,325.89 681.391,325.89"
       fill-opacity="0"
       stroke="#000000"
       stroke-width="4"
       stroke-linecap="round"
       stroke-linejoin="round"
       id="path15484" />
    <path
       d="M683.396,330.302 C683.396,333.778 683.396,337.253 683.396,340.729"
       fill-opacity="0"
       stroke="#000000"
       stroke-width="4"
       stroke-linecap="round"
       stroke-linejoin="round"
       id="path15486" />
    <path
       d="M694.224,262.122 C688.673,261.367 683.663,262.998 678.583,264.127"
       fill-opacity="0"
       stroke="#000000"
       stroke-width="4"
       stroke-linecap="round"
       stroke-linejoin="round"
       id="path15488" />
    <path
       d="M678.182,267.736 C678.779,280.32 680.304,293.479 681.391,305.436"
       fill-opacity="0"
       stroke="#000000"
       stroke-width="4"
       stroke-linecap="round"
       stroke-linejoin="round"
       id="path15490" />
    <path
       d="M684.599,309.848 C690.882,309.848 697.166,309.848 703.449,309.848"
       fill-opacity="0"
       stroke="#000000"
       stroke-width="4"
       stroke-linecap="round"
       stroke-linejoin="round"
       id="path15492" />
    <path
       d="M623.237,224.422 C623.584,234.558 622.618,244.562 622.034,254.501"
       fill-opacity="0"
       stroke="#000000"
       stroke-width="4"
       stroke-linecap="round"
       stroke-linejoin="round"
       id="path15494" />
    <path
       d="M619.627,255.303 C605.811,256.275 592.73,253.298 579.12,253.298"
       fill-opacity="0"
       stroke="#000000"
       stroke-width="4"
       stroke-linecap="round"
       stroke-linejoin="round"
       id="path15496" />
    <path
       d="M576.313,247.282 C576.313,237.523 576.313,227.764 576.313,218.005"
       fill-opacity="0"
       stroke="#000000"
       stroke-width="4"
       stroke-linecap="round"
       stroke-linejoin="round"
       id="path15498" />
    <path
       d="M561.875,223.62 C562.28,232.058 561.561,240.477 560.671,248.485"
       fill-opacity="0"
       stroke="#000000"
       stroke-width="4"
       stroke-linecap="round"
       stroke-linejoin="round"
       id="path15500" />
    <path
       d="M559.468,248.887 C555.221,248.883 551.174,248.602 547.035,248.084"
       fill-opacity="0"
       stroke="#000000"
       stroke-width="4"
       stroke-linecap="round"
       stroke-linejoin="round"
       id="path15502" />
    <path
       d="M545.03,246.881 C545.168,236.495 546.903,226.245 548.64,216.401"
       fill-opacity="0"
       stroke="#000000"
       stroke-width="4"
       stroke-linecap="round"
       stroke-linejoin="round"
       id="path15504" />
    <path
       d="M655.322,277.763 C643.455,277.282 631.542,277.362 619.627,277.362"
       fill-opacity="0"
       stroke="#FF0000"
       stroke-width="4"
       stroke-linecap="round"
       stroke-linejoin="round"
       id="path15506"
       style="stroke:#8f123e;stroke-opacity:1" />
    <path
       d="M658.931,276.413 C659.414,286.134 661.576,300.071 659.332,309.046"
       fill-opacity="0"
       stroke="#FF0000"
       stroke-width="4"
       stroke-linecap="round"
       stroke-linejoin="round"
       id="path15508"
       style="stroke:#8f123e;stroke-opacity:1" />
    <path
       d="M658.931,308.645 C645.254,308.086 631.726,306.639 618.023,306.639"
       fill-opacity="0"
       stroke="#FF0000"
       stroke-width="4"
       stroke-linecap="round"
       stroke-linejoin="round"
       id="path15510"
       style="stroke:#8f123e;stroke-opacity:1" />
    <path
       d="M618.023,306.639 C617.648,297.879 618.262,285.894 619.627,277.362"
       fill-opacity="0"
       stroke="#FF0000"
       stroke-width="4"
       stroke-linecap="round"
       stroke-linejoin="round"
       id="path15512"
       style="stroke:#8f123e;stroke-opacity:1" />
    <path
       d="M677.207,330.122 L677.207,330.122"
       fill-opacity="0"
       stroke="#000000"
       stroke-width="4"
       stroke-linecap="round"
       stroke-linejoin="round"
       id="path15514" />
    <path
       d="M669.303,329.571 L669.303,329.571"
       fill-opacity="0"
       stroke="#000000"
       stroke-width="4"
       stroke-linecap="round"
       stroke-linejoin="round"
       id="path15516" />
    <path
       d="M661.767,329.571 L661.767,329.571"
       fill-opacity="0"
       stroke="#000000"
       stroke-width="4"
       stroke-linecap="round"
       stroke-linejoin="round"
       id="path15518" />
    <path
       d="M654.047,329.755 L654.047,329.755"
       fill-opacity="0"
       stroke="#000000"
       stroke-width="4"
       stroke-linecap="round"
       stroke-linejoin="round"
       id="path15520" />
    <path
       d="M648.9,329.939 L648.9,329.939"
       fill-opacity="0"
       stroke="#000000"
       stroke-width="4"
       stroke-linecap="round"
       stroke-linejoin="round"
       id="path15522" />
    <path
       d="M640.996,329.755 L640.996,329.755"
       fill-opacity="0"
       stroke="#000000"
       stroke-width="4"
       stroke-linecap="round"
       stroke-linejoin="round"
       id="path15524" />
    <path
       d="M633.46,329.939 L633.46,329.939"
       fill-opacity="0"
       stroke="#000000"
       stroke-width="4"
       stroke-linecap="round"
       stroke-linejoin="round"
       id="path15526" />
    <path
       d="M625.739,329.571 L625.739,329.571"
       fill-opacity="0"
       stroke="#000000"
       stroke-width="4"
       stroke-linecap="round"
       stroke-linejoin="round"
       id="path15528" />
    <path
       d="M616.916,329.387 L616.916,329.387"
       fill-opacity="0"
       stroke="#000000"
       stroke-width="4"
       stroke-linecap="round"
       stroke-linejoin="round"
       id="path15530" />
    <path
       d="M608.461,329.387 L608.461,329.387"
       fill-opacity="0"
       stroke="#000000"
       stroke-width="4"
       stroke-linecap="round"
       stroke-linejoin="round"
       id="path15532" />
    <path
       d="M600.557,328.652 L600.557,328.652"
       fill-opacity="0"
       stroke="#000000"
       stroke-width="4"
       stroke-linecap="round"
       stroke-linejoin="round"
       id="path15534" />
    <path
       d="M590.447,327.733 L590.447,327.733"
       fill-opacity="0"
       stroke="#000000"
       stroke-width="4"
       stroke-linecap="round"
       stroke-linejoin="round"
       id="path15536" />
    <path
       d="M582.543,328.284 L582.543,328.284"
       fill-opacity="0"
       stroke="#000000"
       stroke-width="4"
       stroke-linecap="round"
       stroke-linejoin="round"
       id="path15538" />
    <path
       d="M574.088,328.836 L574.088,328.836"
       fill-opacity="0"
       stroke="#000000"
       stroke-width="4"
       stroke-linecap="round"
       stroke-linejoin="round"
       id="path15540" />
    <path
       d="M564.162,329.203 L564.162,329.203"
       fill-opacity="0"
       stroke="#000000"
       stroke-width="4"
       stroke-linecap="round"
       stroke-linejoin="round"
       id="path15542" />
    <path
       d="M677.942,336.188 L677.942,336.188"
       fill-opacity="0"
       stroke="#000000"
       stroke-width="4"
       stroke-linecap="round"
       stroke-linejoin="round"
       id="path15544" />
    <path
       d="M669.671,335.821 L669.671,335.821"
       fill-opacity="0"
       stroke="#000000"
       stroke-width="4"
       stroke-linecap="round"
       stroke-linejoin="round"
       id="path15546" />
    <path
       d="M660.48,335.821 L660.48,335.821"
       fill-opacity="0"
       stroke="#000000"
       stroke-width="4"
       stroke-linecap="round"
       stroke-linejoin="round"
       id="path15548" />
    <path
       d="M654.047,335.269 L654.047,335.269"
       fill-opacity="0"
       stroke="#000000"
       stroke-width="4"
       stroke-linecap="round"
       stroke-linejoin="round"
       id="path15550" />
    <path
       d="M647.981,335.453 L647.981,335.453"
       fill-opacity="0"
       stroke="#000000"
       stroke-width="4"
       stroke-linecap="round"
       stroke-linejoin="round"
       id="path15552" />
    <path
       d="M641.18,335.453 L641.18,335.453"
       fill-opacity="0"
       stroke="#000000"
       stroke-width="4"
       stroke-linecap="round"
       stroke-linejoin="round"
       id="path15554" />
    <path
       d="M633.46,335.637 L633.46,335.637"
       fill-opacity="0"
       stroke="#000000"
       stroke-width="4"
       stroke-linecap="round"
       stroke-linejoin="round"
       id="path15556" />
    <path
       d="M625.739,334.718 L625.739,334.718"
       fill-opacity="0"
       stroke="#000000"
       stroke-width="4"
       stroke-linecap="round"
       stroke-linejoin="round"
       id="path15558" />
    <path
       d="M618.019,335.269 L618.019,335.269"
       fill-opacity="0"
       stroke="#000000"
       stroke-width="4"
       stroke-linecap="round"
       stroke-linejoin="round"
       id="path15560" />
    <path
       d="M608.093,334.166 L608.093,334.166"
       fill-opacity="0"
       stroke="#000000"
       stroke-width="4"
       stroke-linecap="round"
       stroke-linejoin="round"
       id="path15562" />
    <path
       d="M598.351,334.901 L598.351,334.901"
       fill-opacity="0"
       stroke="#000000"
       stroke-width="4"
       stroke-linecap="round"
       stroke-linejoin="round"
       id="path15564" />
    <path
       d="M590.447,333.247 L590.447,333.247"
       fill-opacity="0"
       stroke="#000000"
       stroke-width="4"
       stroke-linecap="round"
       stroke-linejoin="round"
       id="path15566" />
    <path
       d="M582.176,333.799 L582.176,333.799"
       fill-opacity="0"
       stroke="#000000"
       stroke-width="4"
       stroke-linecap="round"
       stroke-linejoin="round"
       id="path15568" />
    <path
       d="M573.537,334.534 L573.537,334.534"
       fill-opacity="0"
       stroke="#000000"
       stroke-width="4"
       stroke-linecap="round"
       stroke-linejoin="round"
       id="path15570" />
    <path
       d="M563.243,335.269 L563.243,335.269"
       fill-opacity="0"
       stroke="#000000"
       stroke-width="4"
       stroke-linecap="round"
       stroke-linejoin="round"
       id="path15572" />
    <path
       d="M490.989,312.296 C474.458,306.355 465.921,321.188 451.647,322.615"
       fill-opacity="0"
       stroke="#000000"
       stroke-width="4"
       stroke-linecap="round"
       stroke-linejoin="round"
       id="path15574" />
    <path
       d="M490.989,344.605 C474.458,350.546 465.921,335.713 451.647,334.286"
       fill-opacity="0"
       stroke="#000000"
       stroke-width="4"
       stroke-linecap="round"
       stroke-linejoin="round"
       id="path15576" />
    <path
       d="M451.359,322.303 C451.359,325.312 451.359,328.321 451.359,331.33"
       fill-opacity="0"
       stroke="#000000"
       stroke-width="4"
       stroke-linecap="round"
       stroke-linejoin="round"
       id="path15578" />
    <path
       d="M451.359,328.284 C443.373,328.551 428.637,325.63 421.947,330.09 C409.075,338.671 410.696,408.118 379.292,408.118 C363.307,408.118 370.264,391.835 368.09,380.967"
       fill-opacity="0"
       stroke="#000000"
       stroke-width="4"
       stroke-linecap="round"
       stroke-linejoin="round"
       id="path15580" />
    <path
       d="M800.657,301.716 C800.53,292.429 800.327,286.835 799.011,283.874 C797.61,280.723 794.627,277.323 789.522,277.467 C786.171,277.562 783.025,279.758 781.469,283.418 C779.105,288.979 779.84,295.168 779.84,301.407"
       fill-opacity="0"
       stroke="#FF0000"
       stroke-width="4"
       stroke-linecap="round"
       stroke-linejoin="round"
       id="path15582"
       style="stroke:#8f123e;stroke-opacity:1" />
    <path
       d="M804.719,302.521 C779.752,301.89 777.715,302.576 776.032,301.988"
       fill-opacity="0"
       stroke="#FF0000"
       stroke-width="4"
       stroke-linecap="round"
       stroke-linejoin="round"
       id="path15584"
       style="stroke:#8f123e;stroke-opacity:1" />
    <path
       d="M804.719,303.452 C804.719,304.872 804.719,306.291 804.719,307.711"
       fill-opacity="0"
       stroke="#FF0000"
       stroke-width="4"
       stroke-linecap="round"
       stroke-linejoin="round"
       id="path15586"
       style="stroke:#8f123e;stroke-opacity:1" />
    <path
       d="M803.196,307.844 C794.575,307.676 785.938,307.711 777.302,307.711"
       fill-opacity="0"
       stroke="#FF0000"
       stroke-width="4"
       stroke-linecap="round"
       stroke-linejoin="round"
       id="path15588"
       style="stroke:#8f123e;stroke-opacity:1" />
    <path
       d="M775.905,302.654 C775.766,304.194 775.779,305.747 775.779,307.311"
       fill-opacity="0"
       stroke="#FF0000"
       stroke-width="4"
       stroke-linecap="round"
       stroke-linejoin="round"
       id="path15590"
       style="stroke:#8f123e;stroke-opacity:1" />
    <path
       d="M793.168,308.908 C793.323,312.61 793.295,316.345 793.295,320.087"
       fill-opacity="0"
       stroke="#000000"
       stroke-width="4"
       stroke-linecap="round"
       stroke-linejoin="round"
       id="path15592" />
    <path
       d="M788.218,309.707 C788.359,314.02 788.599,318.256 788.599,322.615"
       fill-opacity="0"
       stroke="#000000"
       stroke-width="4"
       stroke-linecap="round"
       stroke-linejoin="round"
       id="path15594" />
    <path
       d="M788.458,322.375 C791.719,390.548 660.48,427.594 660.48,335.821"
       fill-opacity="0"
       stroke="#000000"
       stroke-width="4"
       stroke-linecap="round"
       stroke-linejoin="round"
       id="path15596" />
    <path
       d="M793.532,318.993 L793.532,318.993"
       fill-opacity="0"
       stroke="#000000"
       stroke-width="4"
       stroke-linecap="round"
       stroke-linejoin="round"
       id="path15598" />
    <path
       d="M793.492,320.55 C794.32,334.7 793.04,348.427 793.04,362.339"
       fill-opacity="0"
       stroke="#000000"
       stroke-width="4"
       stroke-linecap="round"
       stroke-linejoin="round"
       id="path15600" />
    <path
       d="M795.525,364.372 C793.868,364.372 792.212,364.372 790.555,364.372"
       fill-opacity="0"
       stroke="#000000"
       stroke-width="4"
       stroke-linecap="round"
       stroke-linejoin="round"
       id="path15602" />
    <path
       d="M797.106,364.598 C796.573,367.132 797.106,378.623 797.106,384.928"
       fill-opacity="0"
       stroke="#000000"
       stroke-width="4"
       stroke-linecap="round"
       stroke-linejoin="round"
       id="path15604" />
    <path
       d="M794.621,384.702 C793.943,384.702 793.266,384.702 792.588,384.702"
       fill-opacity="0"
       stroke="#000000"
       stroke-width="4"
       stroke-linecap="round"
       stroke-linejoin="round"
       id="path15606" />
    <path
       d="M791.233,365.954 C790.868,371.82 791.007,377.851 791.007,383.799"
       fill-opacity="0"
       stroke="#000000"
       stroke-width="4"
       stroke-linecap="round"
       stroke-linejoin="round"
       id="path15608" />
    <path
       d="M793.943,387.865 C794.203,393.686 792.682,399.677 786.941,402.548 C771.975,410.03 666.267,403.628 655.021,392.383 C642.657,380.018 647.567,351.14 647.567,335.233"
       fill-opacity="0"
       stroke="#000000"
       stroke-width="4"
       stroke-linecap="round"
       stroke-linejoin="round"
       id="path15610" />
    <path
       d="M769.558,294.088 C765.18,294.953 760.565,295.357 756.219,295.612"
       fill-opacity="0"
       stroke="#FF0000"
       stroke-width="4"
       stroke-linecap="round"
       stroke-linejoin="round"
       id="path15612"
       style="stroke:#8f123e;stroke-opacity:1" />
    <path
       d="M772.988,283.226 C767.698,283.049 763.591,279.923 758.505,279.606"
       fill-opacity="0"
       stroke="#FF0000"
       stroke-width="4"
       stroke-linecap="round"
       stroke-linejoin="round"
       id="path15614"
       style="stroke:#8f123e;stroke-opacity:1" />
    <path
       d="M778.323,273.317 C775.775,268.671 772.503,264.201 768.414,260.741"
       fill-opacity="0"
       stroke="#FF0000"
       stroke-width="4"
       stroke-linecap="round"
       stroke-linejoin="round"
       id="path15616"
       style="stroke:#8f123e;stroke-opacity:1" />
    <path
       d="M791.853,266.838 C791.613,262.281 791.662,257.7 791.662,253.118"
       fill-opacity="0"
       stroke="#FF0000"
       stroke-width="4"
       stroke-linecap="round"
       stroke-linejoin="round"
       id="path15618"
       style="stroke:#8f123e;stroke-opacity:1" />
    <path
       d="M802.714,272.365 C806.415,267.375 811.899,263.351 816.625,259.216"
       fill-opacity="0"
       stroke="#FF0000"
       stroke-width="4"
       stroke-linecap="round"
       stroke-linejoin="round"
       id="path15620"
       style="stroke:#8f123e;stroke-opacity:1" />
    <path
       d="M806.906,282.083 C812.451,282.087 817.771,280.367 823.104,279.034"
       fill-opacity="0"
       stroke="#FF0000"
       stroke-width="4"
       stroke-linecap="round"
       stroke-linejoin="round"
       id="path15622"
       style="stroke:#8f123e;stroke-opacity:1" />
    <path
       d="M809.193,292.754 C814.526,292.62 819.706,292.775 824.819,294.278"
       fill-opacity="0"
       stroke="#FF0000"
       stroke-width="4"
       stroke-linecap="round"
       stroke-linejoin="round"
       id="path15624"
       style="stroke:#8f123e;stroke-opacity:1" />
  </g>
  <text
     xml:space="preserve"
     style="font-style:normal;font-variant:normal;font-weight:normal;font-stretch:normal;font-size:40px;line-height:1.25;font-family:'msg Text Heavy';-inkscape-font-specification:'msg Text Heavy, ';text-align:center;letter-spacing:0px;word-spacing:0px;text-anchor:middle;fill:#000000;fill-opacity:1;stroke:none"
     x="336.13867"
     y="158.1017"
     id="text16180"><tspan
       sodipodi:role="line"
       id="tspan16178"
       x="336.13867"
       y="158.1017"
       style="fill:#8f123e;fill-opacity:1">Switch the</tspan><tspan
       sodipodi:role="line"
       x="336.13867"
       y="208.1017"
       id="tspan16182"
       style="fill:#8f123e;fill-opacity:1">light on!</tspan></text>
</svg>
