<svg width="390" height="390" xmlns="http://www.w3.org/2000/svg" xmlns:xlink="http://www.w3.org/1999/xlink" xml:space="preserve" overflow="hidden"><defs><clipPath id="clip0"><rect x="1055" y="353" width="390" height="390"/></clipPath></defs><g clip-path="url(#clip0)" transform="translate(-1055 -353)"><path d="M1055 548C1055 440.304 1142.3 353 1250 353 1357.7 353 1445 440.304 1445 548 1445 655.695 1357.7 743 1250 743 1142.3 743 1055 655.695 1055 548Z" fill="#4A4A4A" fill-rule="evenodd"/><path d="M1316.38 473.4 1316.38 457.8C1316.38 453.492 1312.88 450 1308.57 450L1180.38 450C1174.03 450 1168.35 454.746 1168.02 461.074 1167.66 467.821 1173.04 473.4 1179.71 473.4L1324.19 473.4C1328.5 473.4 1332 476.892 1332 481.2L1332 637.2C1332 641.508 1328.5 645 1324.19 645L1183.62 645C1174.99 645 1168 638.016 1168 629.4L1168 461.7" stroke="#FFFFFF" stroke-width="7.76893" stroke-linejoin="round" stroke-miterlimit="10" fill="none" fill-rule="evenodd"/><path d="M1184 474 1184 645" stroke="#FFFFFF" stroke-width="7.76893" stroke-linejoin="round" stroke-miterlimit="10" fill="none" fill-rule="evenodd"/><path d="M1252.14 508.307 1207.95 587.874C1205.28 592.352 1208.55 598 1213.81 598L1302.19 598C1307.45 598 1310.72 592.352 1308.05 587.874L1263.86 508.307C1261.23 503.897 1254.77 503.897 1252.14 508.307Z" stroke="#FFFFFF" stroke-width="7.76893" stroke-linejoin="round" stroke-miterlimit="10" fill="none" fill-rule="evenodd"/><path d="M1258 559 1254 535.857C1254 533.727 1255.79 532 1258 532L1258 532C1260.21 532 1262 533.727 1262 535.857L1258 559Z" stroke="#139EAD" stroke-width="7.76893" stroke-linejoin="round" stroke-miterlimit="10" fill="#A01441" fill-rule="evenodd"/><path d="M1262 579C1262 581.21 1260.21 583 1258 583 1255.79 583 1254 581.21 1254 579 1254 576.791 1255.79 575 1258 575 1260.21 575 1262 576.791 1262 579Z" stroke="#139EAD" stroke-width="7.76893" stroke-linejoin="round" stroke-miterlimit="10" fill="none" fill-rule="evenodd"/></g></svg>