<svg width="389" height="390" xmlns="http://www.w3.org/2000/svg" xmlns:xlink="http://www.w3.org/1999/xlink" xml:space="preserve" overflow="hidden"><g transform="translate(-2952 -354)"><path d="M2952 549C2952 441.304 3039.08 354 3146.5 354 3253.92 354 3341 441.304 3341 549 3341 656.695 3253.92 744 3146.5 744 3039.08 744 2952 656.695 2952 549Z" fill="#4A4A4A" fill-rule="evenodd"/><path d="M3095 587 3064.25 587C3058.44 587 3054 582.509 3054 576.636L3054 521.364C3054 515.491 3058.44 511 3064.25 511L3095 511 3095 587Z" stroke="#FFFFFF" stroke-width="5.5" stroke-miterlimit="8" fill="none" fill-rule="evenodd"/><path d="M3095 511.252 3144.5 470.688C3146.91 468.969 3150 470.688 3150 473.438L3150 624.35C3150 627.444 3146.91 629.163 3144.5 627.1L3095 586.88" stroke="#FFFFFF" stroke-width="5.5" stroke-miterlimit="8" fill="none" fill-rule="evenodd"/><path d="M3210 478C3248.67 516.861 3248.67 580.139 3210 619" stroke="#139EAD" stroke-width="5.5" stroke-miterlimit="8" fill="none" fill-rule="evenodd"/><path d="M3190 498C3219.33 526.162 3219.33 571.839 3190 600" stroke="#139EAD" stroke-width="5.5" stroke-miterlimit="8" fill="none" fill-rule="evenodd"/><path d="M3171 517C3188.33 534.462 3188.33 562.538 3171 580" stroke="#139EAD" stroke-width="5.5" stroke-miterlimit="8" fill="none" fill-rule="evenodd"/></g></svg>