<svg width="390" height="390" xmlns="http://www.w3.org/2000/svg" xmlns:xlink="http://www.w3.org/1999/xlink" xml:space="preserve" overflow="hidden"><defs><clipPath id="clip0"><rect x="109" y="1861" width="390" height="390"/></clipPath></defs><g clip-path="url(#clip0)" transform="translate(-109 -1861)"><path d="M109 2056C109 1948.3 196.304 1861 304 1861 411.696 1861 499 1948.3 499 2056 499 2163.7 411.696 2251 304 2251 196.304 2251 109 2163.7 109 2056Z" fill="#4A4A4A" fill-rule="evenodd"/><path d="M301.5 2049.97C301.5 2082.47 256.5 2105.74 256.5 2135.5 256.5 2105.74 211.5 2082.47 211.5 2049.97 211.5 2017.47 231.577 2005.5 256.5 2005.5 281.423 2005.5 301.5 2025.34 301.5 2049.97Z" stroke="#FFFFFF" stroke-width="4.58333" stroke-miterlimit="8" fill="none" fill-rule="evenodd"/><path d="M270.5 2050C270.5 2057.46 264.232 2063.5 256.5 2063.5 248.768 2063.5 242.5 2057.46 242.5 2050 242.5 2042.54 248.768 2036.5 256.5 2036.5 264.232 2036.5 270.5 2042.54 270.5 2050Z" stroke="#FFFFFF" stroke-width="4.58333" stroke-miterlimit="8" fill="none" fill-rule="evenodd"/><path d="M328.5 2087.5 311.357 2087.5C305.529 2087.5 301.071 2091.96 301.071 2097.79 301.071 2103.61 305.529 2108.07 311.357 2108.07L362.786 2108.07C370.328 2108.07 376.5 2114.24 376.5 2121.79 376.5 2129.33 370.328 2135.5 362.786 2135.5L256.5 2135.5 256.5 2132.07" stroke="#139EAD" stroke-width="4.58333" stroke-miterlimit="8" fill="none" fill-rule="evenodd"/><path d="M349.5 1977.5 349.5 2080.5" stroke="#FFFFFF" stroke-width="4.58333" stroke-miterlimit="8" fill="none" fill-rule="evenodd"/><path d="M349.5 1977.84 349.5 1977.5 397.5 2008.5 349.5 2039.5" stroke="#FFFFFF" stroke-width="4.58333" stroke-miterlimit="8" fill="none" fill-rule="evenodd"/><path d="M356.5 2087.5C356.5 2091.37 353.366 2094.5 349.5 2094.5 345.634 2094.5 342.5 2091.37 342.5 2087.5 342.5 2083.63 345.634 2080.5 349.5 2080.5 353.366 2080.5 356.5 2083.63 356.5 2087.5Z" stroke="#FFFFFF" stroke-width="4.58333" stroke-miterlimit="8" fill="none" fill-rule="evenodd"/></g></svg>