<svg width="390" height="390" xmlns="http://www.w3.org/2000/svg" xmlns:xlink="http://www.w3.org/1999/xlink" xml:space="preserve" overflow="hidden"><defs><clipPath id="clip0"><rect x="583" y="354" width="390" height="390"/></clipPath></defs><g clip-path="url(#clip0)" transform="translate(-583 -354)"><path d="M583 549C583 441.304 670.305 354 778 354 885.696 354 973 441.304 973 549 973 656.695 885.696 744 778 744 670.305 744 583 656.695 583 549Z" fill="#4A4A4A" fill-rule="evenodd"/><rect x="677.5" y="447.5" width="78.0001" height="78.0001" stroke="#FFFFFF" stroke-width="4.58333" stroke-miterlimit="8" fill="none"/><path d="M814.5 486.5C814.5 464.961 831.961 447.5 853.5 447.5 875.039 447.5 892.5 464.961 892.5 486.5 892.5 508.039 875.039 525.5 853.5 525.5 831.961 525.5 814.5 508.039 814.5 486.5Z" stroke="#FFFFFF" stroke-width="4.58333" stroke-miterlimit="8" fill="none" fill-rule="evenodd"/><path d="M677 643 716 565 755 643Z" fill="#139EAD" fill-rule="evenodd"/><path d="M814.5 595.293 844.293 595.293 853.5 565.5 862.706 595.293 892.5 595.293 868.396 613.706 877.603 643.5 853.5 625.086 829.396 643.5 838.603 613.706Z" stroke="#FFFFFF" stroke-width="4.58333" stroke-miterlimit="8" fill="none" fill-rule="evenodd"/></g></svg>