<svg width="390" height="390" xmlns="http://www.w3.org/2000/svg" xmlns:xlink="http://www.w3.org/1999/xlink" xml:space="preserve" overflow="hidden"><defs><clipPath id="clip0"><rect x="3425" y="354" width="390" height="390"/></clipPath><clipPath id="clip1"><rect x="3473" y="402" width="294" height="294"/></clipPath><clipPath id="clip2"><rect x="3473" y="402" width="294" height="294"/></clipPath><clipPath id="clip3"><rect x="3473" y="402" width="294" height="294"/></clipPath></defs><g clip-path="url(#clip0)" transform="translate(-3425 -354)"><path d="M3425 549C3425 441.304 3512.3 354 3620 354 3727.7 354 3815 441.304 3815 549 3815 656.695 3727.7 744 3620 744 3512.3 744 3425 656.695 3425 549Z" fill="#4A4A4A" fill-rule="evenodd"/><g clip-path="url(#clip1)"><g clip-path="url(#clip2)"><g clip-path="url(#clip3)"><path d="M3520.38 593.659 3520.38 600.529C3520.38 608.087 3526.56 614.271 3534.12 614.271L3705.88 614.271C3713.44 614.271 3719.62 608.087 3719.62 600.529L3719.62 593.659 3520.38 593.659Z" stroke="#FFFFFF" stroke-width="5.49647" fill="none"/><path d="M3634.08 593.659C3634.08 597.438 3630.99 600.529 3627.21 600.529L3613.47 600.529C3609.69 600.529 3606.6 597.438 3606.6 593.659" stroke="#FFFFFF" stroke-width="5.49647" fill="none"/><path d="M3706.23 593.659 3706.23 490.6C3706.23 486.821 3703.13 483.729 3699.36 483.729L3541.33 483.729C3537.55 483.729 3534.46 486.821 3534.46 490.6L3534.46 593.659" stroke="#FFFFFF" stroke-width="5.49647" fill="none"/><path d="" stroke="#FFFFFF" stroke-width="1.37412" fill="none"/></g></g></g><text fill="#139EAD" font-family="Aptos,Aptos_MSFontService,sans-serif" font-weight="400" font-size="83" transform="matrix(1 0 0 1 3564.11 562)">&lt;/&gt;</text></g></svg>