<svg width="390" height="390" xmlns="http://www.w3.org/2000/svg" xmlns:xlink="http://www.w3.org/1999/xlink" xml:space="preserve" overflow="hidden"><defs><clipPath id="clip0"><rect x="3425" y="856" width="390" height="390"/></clipPath></defs><g clip-path="url(#clip0)" transform="translate(-3425 -856)"><path d="M3425 1051C3425 943.304 3512.3 856 3620 856 3727.7 856 3815 943.304 3815 1051 3815 1158.7 3727.7 1246 3620 1246 3512.3 1246 3425 1158.7 3425 1051Z" fill="#4A4A4A" fill-rule="evenodd"/><path d="M3598.7 1074.5C3605.77 1074.5 3611.5 1068.68 3611.5 1061.5L3611.5 1023.25C3611.5 1018.33 3608.39 1013.94 3603.79 1012.4L3595.5 1009.5 3579.5 1025.75 3563.5 1009.5 3555.21 1012.4C3550.61 1013.94 3547.5 1018.33 3547.5 1023.25L3547.5 1061.5C3547.5 1068.68 3553.23 1074.5 3560.3 1074.5" stroke="#FFFFFF" stroke-width="4.58333" stroke-linejoin="round" stroke-miterlimit="10" fill="none" fill-rule="evenodd"/><path d="M3595.5 986.5C3595.5 995.336 3588.34 1002.5 3579.5 1002.5 3570.66 1002.5 3563.5 995.336 3563.5 986.5 3563.5 977.663 3570.66 970.5 3579.5 970.5 3588.34 970.5 3595.5 977.663 3595.5 986.5Z" stroke="#FFFFFF" stroke-width="4.58333" stroke-linejoin="round" stroke-miterlimit="10" fill="none" fill-rule="evenodd"/><path d="M3696.5 999.5C3696.5 1008.34 3689.11 1015.5 3680 1015.5 3670.89 1015.5 3663.5 1008.34 3663.5 999.5 3663.5 990.663 3670.89 983.5 3680 983.5 3689.11 983.5 3696.5 990.663 3696.5 999.5Z" stroke="#139EAD" stroke-width="4.58333" stroke-linejoin="round" stroke-miterlimit="10" fill="none" fill-rule="evenodd"/><path d="M3696.5 1051.5C3696.5 1060.34 3689.11 1067.5 3680 1067.5 3670.89 1067.5 3663.5 1060.34 3663.5 1051.5 3663.5 1042.66 3670.89 1035.5 3680 1035.5 3689.11 1035.5 3696.5 1042.66 3696.5 1051.5Z" stroke="#139EAD" stroke-width="4.58333" stroke-linejoin="round" stroke-miterlimit="10" fill="none" fill-rule="evenodd"/><path d="M3696.5 1103.5C3696.5 1112.34 3689.11 1119.5 3680 1119.5 3670.89 1119.5 3663.5 1112.34 3663.5 1103.5 3663.5 1094.66 3670.89 1087.5 3680 1087.5 3689.11 1087.5 3696.5 1094.66 3696.5 1103.5Z" stroke="#139EAD" stroke-width="4.58333" stroke-linejoin="round" stroke-miterlimit="10" fill="none" fill-rule="evenodd"/><path d="M3598.5 1035.5 3598.5 1132.5 3560.5 1132.5 3560.5 1035.5" stroke="#FFFFFF" stroke-width="4.58333" stroke-linecap="round" stroke-linejoin="round" stroke-miterlimit="10" fill="none" fill-rule="evenodd"/><path d="M3579.5 1074.5 3579.5 1132.5" stroke="#FFFFFF" stroke-width="4.58333" stroke-linecap="round" stroke-linejoin="round" stroke-miterlimit="10" fill="none" fill-rule="evenodd"/><path d="M3663.5 1051.5 3624.5 1051.5" stroke="#139EAD" stroke-width="4.58333" stroke-linecap="round" stroke-linejoin="round" stroke-miterlimit="10" fill="none" fill-rule="evenodd"/><path d="M3663.5 1103.5 3647.25 1103.5C3641.87 1103.5 3637.5 1099.14 3637.5 1093.75L3637.5 1009.25C3637.5 1003.86 3641.87 999.5 3647.25 999.5L3663.5 999.5" stroke="#139EAD" stroke-width="4.58333" stroke-linejoin="round" stroke-miterlimit="10" fill="none" fill-rule="evenodd"/></g></svg>