<svg width="389" height="390" xmlns="http://www.w3.org/2000/svg" xmlns:xlink="http://www.w3.org/1999/xlink" xml:space="preserve" overflow="hidden"><defs><clipPath id="clip0"><rect x="1057" y="1880" width="389" height="390"/></clipPath></defs><g clip-path="url(#clip0)" transform="translate(-1057 -1880)"><path d="M1057 2075C1057 1967.3 1144.08 1880 1251.5 1880 1358.92 1880 1446 1967.3 1446 2075 1446 2182.7 1358.92 2270 1251.5 2270 1144.08 2270 1057 2182.7 1057 2075Z" fill="#4A4A4A" fill-rule="evenodd"/><g><g><g><path d="M233.461 253.726 105.401 253.726 105.401 246.986C105.401 239.541 111.437 233.506 118.881 233.506L219.981 233.506C227.425 233.506 233.461 239.541 233.461 246.986L233.461 253.726Z" stroke="#FFFFFF" stroke-width="7.61583" stroke-linejoin="round" fill="none" transform="matrix(1 0 0 1.00297 1083 1906)"/><path d="M128.991 233.506C125.269 233.506 122.251 230.488 122.251 226.766 122.251 223.043 125.269 220.026 128.991 220.026L209.871 220.026C213.593 220.026 216.611 223.043 216.611 226.766 216.611 230.488 213.593 233.506 209.871 233.506" stroke="#FFFFFF" stroke-width="7.61583" stroke-linejoin="round" fill="none" transform="matrix(1 0 0 1.00297 1083 1906)"/><path d="M155.951 155.996C155.951 155.996 128.991 192.661 128.991 220.026" stroke="#FFFFFF" stroke-width="7.61583" stroke-linejoin="round" fill="none" transform="matrix(1 0 0 1.00297 1083 1906)"/><path d="" stroke="#FFFFFF" stroke-width="7.61583" stroke-linecap="round" stroke-linejoin="round" fill="none" transform="matrix(1 0 0 1.00297 1083 1906)"/><path d="M149.211 105.446C178.995 105.446 203.131 129.582 203.131 159.366" stroke="#FFFFFF" stroke-width="7.61583" stroke-linecap="round" stroke-linejoin="round" fill="none" transform="matrix(1 0 0 1.00297 1083 1906)"/><path d="M209.871 220.026 209.871 212.091C209.871 205.42 212.201 199.022 215.242 193.088 220.422 182.972 223.351 171.516 223.351 159.366 223.351 118.406 190.171 85.2256 149.211 85.2256L149.211 105.446 112.141 142.516C107.31 147.343 107.534 160.057 113.707 166.224L116.956 169.476 145.841 152.626C151.423 157.118 160.48 157.118 166.061 152.626" stroke="#FFFFFF" stroke-width="7.61583" stroke-linecap="round" stroke-linejoin="round" fill="none" transform="matrix(1 0 0 1.00297 1083 1906)"/></g></g></g></g></svg>