<svg width="390" height="390" xmlns="http://www.w3.org/2000/svg" xmlns:xlink="http://www.w3.org/1999/xlink" xml:space="preserve" overflow="hidden"><defs><clipPath id="clip0"><rect x="3899" y="856" width="390" height="390"/></clipPath></defs><g clip-path="url(#clip0)" transform="translate(-3899 -856)"><path d="M3899 1051C3899 943.304 3986.3 856 4094 856 4201.7 856 4289 943.304 4289 1051 4289 1158.7 4201.7 1246 4094 1246 3986.3 1246 3899 1158.7 3899 1051Z" fill="#4A4A4A" fill-rule="evenodd"/><path d="M4029.5 1031.5C4029.5 1010.43 4045.98 993.5 4066.5 993.5" stroke="#FFFFFF" stroke-width="4.58333" stroke-miterlimit="8" fill="none" fill-rule="evenodd"/><path d="M4100.5 1079.2 4151.8 1130.5C4160 1130.5 4166.5 1124 4166.5 1115.8L4115.2 1064.5" stroke="#FFFFFF" stroke-width="4.58333" stroke-miterlimit="8" fill="none" fill-rule="evenodd"/><path d="M4066.5 1031.5 4149.5 1031.5" stroke="#139EAD" stroke-width="4.58333" stroke-miterlimit="8" fill="none" fill-rule="evenodd"/><path d="M4066.5 1010.5 4131.76 1010.5 4145.5 996.5" stroke="#139EAD" stroke-width="4.58333" stroke-miterlimit="8" fill="none" fill-rule="evenodd"/><path d="M4066.5 1051.5 4131.76 1051.5 4145.5 1065.5" stroke="#139EAD" stroke-width="4.58333" stroke-miterlimit="8" fill="none" fill-rule="evenodd"/><path d="M4159.5 986.5 4180.5 986.5 4180.5 1007.5 4159.5 1007.5Z" stroke="#139EAD" stroke-width="4.58333" stroke-miterlimit="8" fill="none" fill-rule="evenodd"/><path d="M4159.5 1020.5 4180.5 1020.5 4180.5 1041.5 4159.5 1041.5Z" stroke="#139EAD" stroke-width="4.58333" stroke-miterlimit="8" fill="none" fill-rule="evenodd"/><path d="M4159.5 1055.5 4180.5 1055.5 4180.5 1075.5 4159.5 1075.5Z" stroke="#139EAD" stroke-width="4.58333" stroke-miterlimit="8" fill="none" fill-rule="evenodd"/><path d="M4121.5 1010.35C4113.26 988.329 4091.96 972.5 4066.89 972.5 4034.6 972.5 4008.5 998.653 4008.5 1031 4008.5 1063.35 4034.6 1089.5 4066.89 1089.5 4091.96 1089.5 4112.91 1073.67 4121.5 1051.65" stroke="#FFFFFF" stroke-width="4.58333" stroke-miterlimit="8" fill="none" fill-rule="evenodd"/></g></svg>