<svg width="390" height="390" xmlns="http://www.w3.org/2000/svg" xmlns:xlink="http://www.w3.org/1999/xlink" xml:space="preserve" overflow="hidden"><defs><clipPath id="clip0"><rect x="2478" y="1359" width="390" height="390"/></clipPath></defs><g clip-path="url(#clip0)" transform="translate(-2478 -1359)"><path d="M2478 1554C2478 1446.3 2565.3 1359 2673 1359 2780.7 1359 2868 1446.3 2868 1554 2868 1661.7 2780.7 1749 2673 1749 2565.3 1749 2478 1661.7 2478 1554Z" fill="#4A4A4A" fill-rule="evenodd"/><path d="M2682.5 1657.5C2682.5 1662.45 2678.45 1666.5 2673.5 1666.5 2668.55 1666.5 2664.5 1662.45 2664.5 1657.5" stroke="#FFFFFF" stroke-width="4.58333" stroke-miterlimit="8" fill="none" fill-rule="evenodd"/><path d="M2692 1657.5 2656 1657.5C2648.35 1657.5 2642.5 1651.65 2642.5 1644L2642.5 1621.5 2705.5 1621.5 2705.5 1644C2705.5 1651.65 2699.65 1657.5 2692 1657.5Z" stroke="#139EAD" stroke-width="4.58333" stroke-miterlimit="8" fill="none" fill-rule="evenodd"/><path d="M2705.5 1621.5 2705.5 1601.33C2705.5 1597.3 2707.3 1593.27 2710.45 1591.03 2723.95 1580.27 2732.5 1564.14 2732.5 1545.76 2732.5 1513.49 2706.4 1487.5 2674 1487.5 2641.6 1487.5 2615.5 1513.49 2615.5 1545.76 2615.5 1564.14 2624.05 1580.27 2637.55 1591.03 2640.7 1593.71 2642.5 1597.3 2642.5 1601.33L2642.5 1621.5" stroke="#139EAD" stroke-width="4.58333" stroke-miterlimit="8" fill="none" fill-rule="evenodd"/><path d="M2723.92 1614.7 2741.93 1625.5 2753.64 1613.8 2742.83 1595.81C2746.44 1591.31 2749.14 1585.91 2751.84 1580.51L2773 1580.96 2777.5 1564.77 2759.04 1554.42C2759.49 1551.72 2759.49 1548.57 2759.49 1545.42 2759.49 1542.27 2759.49 1539.57 2759.04 1536.42L2777.5 1526.08 2773 1509.88 2751.84 1510.33C2749.59 1504.93 2746.44 1499.98 2742.83 1495.04L2753.64 1477.04 2741.93 1465.34 2723.92 1476.14C2719.42 1472.54 2714.02 1469.84 2708.62 1467.14L2709.07 1446 2692.86 1441.5 2682.5 1459.95C2679.8 1459.49 2676.65 1459.49 2673.5 1459.49 2670.35 1459.49 2667.65 1459.49 2664.5 1459.95L2654.14 1441.5 2637.93 1446 2638.38 1467.14C2632.98 1469.39 2628.03 1472.54 2623.08 1476.14L2605.07 1465.34 2593.36 1477.04 2604.17 1495.04C2600.57 1499.53 2597.86 1504.93 2595.16 1510.33L2574 1509.88 2569.5 1526.08 2587.96 1536.42C2587.51 1539.12 2587.51 1542.27 2587.51 1545.42 2587.51 1548.57 2587.51 1551.27 2587.96 1554.42L2569.5 1564.77 2574 1580.96 2595.16 1580.51C2597.41 1585.91 2600.57 1590.86 2604.17 1595.81L2593.36 1613.8 2605.07 1625.5 2623.08 1614.7" stroke="#FFFFFF" stroke-width="4.58333" stroke-miterlimit="8" fill="none" fill-rule="evenodd"/><path d="M2660 1621.5 2660 1567.5 2646.5 1540.5 2673.5 1549.5 2700.5 1540.5 2687 1567.5 2687 1621.5" stroke="#139EAD" stroke-width="4.58333" stroke-miterlimit="8" fill="none" fill-rule="evenodd"/></g></svg>