<svg width="390" height="390" xmlns="http://www.w3.org/2000/svg" xmlns:xlink="http://www.w3.org/1999/xlink" xml:space="preserve" overflow="hidden"><g transform="translate(-3899 -1861)"><path d="M3899 2056C3899 1948.3 3986.3 1861 4094 1861 4201.7 1861 4289 1948.3 4289 2056 4289 2163.7 4201.7 2251 4094 2251 3986.3 2251 3899 2163.7 3899 2056Z" fill="#4A4A4A" fill-rule="evenodd"/><path d="M4070.5 1967.5 4061.5 1953.5" stroke="#FFFFFF" stroke-width="4.58333" stroke-miterlimit="8" fill="none" fill-rule="evenodd"/><path d="M4197.5 2089.5 4183.5 2080.5" stroke="#FFFFFF" stroke-width="4.58333" stroke-miterlimit="8" fill="none" fill-rule="evenodd"/><path d="M4040.5 1998.5 4025.5 1989.5" stroke="#FFFFFF" stroke-width="4.58333" stroke-miterlimit="8" fill="none" fill-rule="evenodd"/><path d="M4211.5 2039.5 4193.5 2039.5" stroke="#FFFFFF" stroke-width="4.58333" stroke-miterlimit="8" fill="none" fill-rule="evenodd"/><path d="M4197.5 1989.5 4183.5 1998.5" stroke="#FFFFFF" stroke-width="4.58333" stroke-miterlimit="8" fill="none" fill-rule="evenodd"/><path d="M4161.5 1953.5 4152.5 1967.5" stroke="#FFFFFF" stroke-width="4.58333" stroke-miterlimit="8" fill="none" fill-rule="evenodd"/><path d="M4111.5 1939.5 4111.5 1957.5" stroke="#FFFFFF" stroke-width="4.58333" stroke-miterlimit="8" fill="none" fill-rule="evenodd"/><path d="M4090.5 2130.5 4090.5 2156C4090.5 2160.67 4094.37 2164.5 4099.1 2164.5L4124.9 2164.5C4129.63 2164.5 4133.5 2160.67 4133.5 2156L4133.5 2130.5" stroke="#FFFFFF" stroke-width="4.58333" stroke-miterlimit="8" fill="none" fill-rule="evenodd"/><path d="M4103.5 2164.5C4103.5 2169.45 4107.33 2173.5 4112 2173.5 4116.67 2173.5 4120.5 2169.45 4120.5 2164.5" stroke="#FFFFFF" stroke-width="4.58333" stroke-miterlimit="8" fill="none" fill-rule="evenodd"/><path d="M4150.5 2039.5C4150.5 2017.83 4133.17 2000.5 4111.5 2000.5" stroke="#FFFFFF" stroke-width="4.58333" stroke-miterlimit="8" fill="none" fill-rule="evenodd"/><path d="M4034 2156.5C4034 2156.5 3977.5 2134.78 3977.5 2087L3977.5 2034.88C3977.5 2034.88 4002.71 2017.5 4034 2017.5 4065.29 2017.5 4090.5 2034.88 4090.5 2034.88L4090.5 2087C4090.5 2134.78 4034 2156.5 4034 2156.5Z" stroke="#FFFFFF" stroke-width="4.58333" stroke-miterlimit="8" fill="none" fill-rule="evenodd"/><path d="M4081.14 2117.93C4081.14 2118.37 4081.14 2118.37 4081.14 2118.8L4081.14 2121.83C4081.14 2126.6 4085.04 2130.5 4089.81 2130.5L4133.16 2130.5C4137.92 2130.5 4141.82 2126.6 4141.82 2121.83L4141.82 2118.8C4141.82 2106.67 4146.59 2095.4 4155.69 2087.17 4168.7 2075.47 4176.5 2058.13 4176.5 2039.5 4176.5 2003.53 4147.46 1974.5 4111.48 1974.5 4082.44 1974.5 4058.17 1993.13 4049.5 2019.13" stroke="#FFFFFF" stroke-width="4.58333" stroke-miterlimit="8" fill="none" fill-rule="evenodd"/><path d="M4025.57 2092.09 4008.43 2074.91 3997 2086.36 4025.57 2115 4077 2063.45 4065.57 2052Z" fill="#139EAD" fill-rule="evenodd"/></g></svg>