<svg width="389" height="390" xmlns="http://www.w3.org/2000/svg" xmlns:xlink="http://www.w3.org/1999/xlink" xml:space="preserve" overflow="hidden"><defs><clipPath id="clip0"><rect x="1057" y="856" width="389" height="390"/></clipPath></defs><g clip-path="url(#clip0)" transform="translate(-1057 -856)"><path d="M1057 1051C1057 943.304 1144.08 856 1251.5 856 1358.92 856 1446 943.304 1446 1051 1446 1158.7 1358.92 1246 1251.5 1246 1144.08 1246 1057 1158.7 1057 1051Z" fill="#4A4A4A" fill-rule="evenodd"/><g><g><g><path d="M87.2564 156.306 87.2564 139.129C87.2564 129.511 93.4399 119.205 100.998 111.647 108.555 104.089 111.303 100.311 111.303 94.4705L111.303 94.4705C111.303 113.708 142.908 129.167 190.315 131.915 197.873 131.915 204.056 138.442 204.056 146L204.056 156.306C204.056 148.748 210.24 142.565 217.798 142.565L217.798 142.565C221.576 142.565 224.668 145.656 224.668 149.435L224.668 159.741C224.668 171.078 215.393 180.353 204.056 180.353L204.056 180.353C204.056 212.645 177.948 238.753 145.656 238.753 113.365 238.753 87.2564 212.645 87.2564 180.353L87.2564 180.353C75.92 180.353 66.6447 171.078 66.6447 159.741L66.6447 149.435C66.6447 145.656 69.7364 142.565 73.5153 142.565L73.5153 142.565C81.0729 142.565 87.2564 148.748 87.2564 156.306Z" stroke="#FFFFFF" stroke-width="4.58038" stroke-linejoin="round" fill="none" transform="matrix(1.00342 0 0 1 1105 905)"/><path d="M73.5153 142.565 73.5153 125.388C73.5153 85.5388 105.807 53.247 145.656 53.247L145.656 53.247C185.506 53.247 217.798 85.5388 217.798 125.388L217.798 142.565" stroke="#FFFFFF" stroke-width="4.58038" stroke-linejoin="round" fill="none" transform="matrix(1.00342 0 0 1 1105 905)"/><path d="M183.445 225.012 231.882 225.012C223.294 209.553 218.485 192.376 218.485 175.2" stroke="#FFFFFF" stroke-width="4.58038" stroke-linejoin="round" fill="none" transform="matrix(1.00342 0 0 1 1105 905)"/><path d="M73.5153 175.2C73.5153 192.72 68.7058 209.896 60.1176 225.012L108.555 225.012" stroke="#FFFFFF" stroke-width="4.58038" stroke-linejoin="round" fill="none" transform="matrix(1.00342 0 0 1 1105 905)"/></g></g></g><text fill="#139EAD" font-family="Aptos,Aptos_MSFontService,sans-serif" font-weight="700" font-size="92" transform="matrix(1 0 0 1 1227.78 1103)">?</text></g></svg>