<svg width="390" height="390" xmlns="http://www.w3.org/2000/svg" xmlns:xlink="http://www.w3.org/1999/xlink" xml:space="preserve" overflow="hidden"><defs><clipPath id="clip0"><rect x="1530" y="856" width="390" height="390"/></clipPath></defs><g clip-path="url(#clip0)" transform="translate(-1530 -856)"><path d="M1530 1051C1530 943.304 1617.3 856 1725 856 1832.7 856 1920 943.304 1920 1051 1920 1158.7 1832.7 1246 1725 1246 1617.3 1246 1530 1158.7 1530 1051Z" fill="#4A4A4A" fill-rule="evenodd"/><g><g><g><path d="M66.9882 128.823 101.341 128.823 101.341 225.012 66.9882 225.012" stroke="#FFFFFF" stroke-width="4.58038" stroke-linecap="round" stroke-linejoin="round" fill="none" transform="matrix(1 0 0 1 1579 905)"/><path d="M87.6 200.965C87.6 202.862 86.0619 204.4 84.1647 204.4 82.2674 204.4 80.7294 202.862 80.7294 200.965 80.7294 199.067 82.2674 197.529 84.1647 197.529 86.0619 197.529 87.6 199.067 87.6 200.965Z" stroke="#FFFFFF" stroke-width="4.58038" stroke-linejoin="round" fill="none" transform="matrix(1 0 0 1 1579 905)"/><path d="M170.047 231.882C162.489 231.882 156.306 225.699 156.306 218.141 156.306 210.583 162.489 204.4 170.047 204.4L190.659 204.4C198.216 204.4 204.4 210.583 204.4 218.141 204.4 225.699 198.216 231.882 190.659 231.882L115.082 231.882C107.525 231.882 101.341 225.699 101.341 218.141" stroke="#FFFFFF" stroke-width="4.58038" stroke-linejoin="round" fill="none" transform="matrix(1 0 0 1 1579 905)"/><path d="M173.482 204.4C165.925 204.4 159.741 198.216 159.741 190.659 159.741 183.101 165.925 176.918 173.482 176.918L204.4 176.918C211.958 176.918 218.141 183.101 218.141 190.659 218.141 198.216 211.958 204.4 204.4 204.4L190.659 204.4" stroke="#FFFFFF" stroke-width="4.58038" stroke-linejoin="round" fill="none" transform="matrix(1 0 0 1 1579 905)"/><path d="M176.918 176.918C169.36 176.918 163.176 170.734 163.176 163.176 163.176 155.619 169.36 149.435 176.918 149.435L183.788 149.435" stroke="#FFFFFF" stroke-width="4.58038" stroke-linejoin="round" fill="none" transform="matrix(1 0 0 1 1579 905)"/><path d="M211.27 149.435C218.828 149.435 225.012 155.619 225.012 163.176 225.012 170.734 218.828 176.918 211.27 176.918L204.4 176.918" stroke="#FFFFFF" stroke-width="4.58038" stroke-linejoin="round" fill="none" transform="matrix(1 0 0 1 1579 905)"/><path d="M183.788 121.953C176.23 121.953 170.047 128.136 170.047 135.694 170.047 143.252 176.23 149.435 183.788 149.435L211.27 149.435C218.828 149.435 225.012 143.252 225.012 135.694 225.012 128.136 218.828 121.953 211.27 121.953L156.306 121.953 156.306 80.7294C156.306 69.3929 147.031 60.1176 135.694 60.1176L128.823 60.1176 128.823 91.0352 101.341 135.694" stroke="#FFFFFF" stroke-width="4.58038" stroke-linejoin="round" fill="none" transform="matrix(1 0 0 1 1579 905)"/></g></g></g></g></svg>