<svg width="390" height="390" xmlns="http://www.w3.org/2000/svg" xmlns:xlink="http://www.w3.org/1999/xlink" xml:space="preserve" overflow="hidden"><defs><clipPath id="clip0"><rect x="3899" y="1359" width="390" height="390"/></clipPath></defs><g clip-path="url(#clip0)" transform="translate(-3899 -1359)"><path d="M3899 1554C3899 1446.3 3986.3 1359 4094 1359 4201.7 1359 4289 1446.3 4289 1554 4289 1661.7 4201.7 1749 4094 1749 3986.3 1749 3899 1661.7 3899 1554Z" fill="#4A4A4A" fill-rule="evenodd"/><path d="M4017.5 1554C4017.5 1562.01 4010.78 1568.5 4002.5 1568.5 3994.22 1568.5 3987.5 1562.01 3987.5 1554 3987.5 1545.99 3994.22 1539.5 4002.5 1539.5 4010.78 1539.5 4017.5 1545.99 4017.5 1554Z" stroke="#FFFFFF" stroke-width="4.58333" stroke-miterlimit="8" fill="none" fill-rule="evenodd"/><path d="M4061.5 1631C4061.5 1639.01 4055.01 1645.5 4047 1645.5 4038.99 1645.5 4032.5 1639.01 4032.5 1631 4032.5 1622.99 4038.99 1616.5 4047 1616.5 4055.01 1616.5 4061.5 1622.99 4061.5 1631Z" stroke="#FFFFFF" stroke-width="4.58333" stroke-miterlimit="8" fill="none" fill-rule="evenodd"/><path d="M4156.5 1631C4156.5 1639.01 4150.01 1645.5 4142 1645.5 4133.99 1645.5 4127.5 1639.01 4127.5 1631 4127.5 1622.99 4133.99 1616.5 4142 1616.5 4150.01 1616.5 4156.5 1622.99 4156.5 1631Z" stroke="#FFFFFF" stroke-width="4.58333" stroke-miterlimit="8" fill="none" fill-rule="evenodd"/><path d="M4061.5 1477C4061.5 1485.01 4055.01 1491.5 4047 1491.5 4038.99 1491.5 4032.5 1485.01 4032.5 1477 4032.5 1468.99 4038.99 1462.5 4047 1462.5 4055.01 1462.5 4061.5 1468.99 4061.5 1477Z" stroke="#FFFFFF" stroke-width="4.58333" stroke-miterlimit="8" fill="none" fill-rule="evenodd"/><path d="M4156.5 1477C4156.5 1485.01 4150.01 1491.5 4142 1491.5 4133.99 1491.5 4127.5 1485.01 4127.5 1477 4127.5 1468.99 4133.99 1462.5 4142 1462.5 4150.01 1462.5 4156.5 1468.99 4156.5 1477Z" stroke="#FFFFFF" stroke-width="4.58333" stroke-miterlimit="8" fill="none" fill-rule="evenodd"/><path d="M4200.5 1554C4200.5 1562.01 4194.01 1568.5 4186 1568.5 4177.99 1568.5 4171.5 1562.01 4171.5 1554 4171.5 1545.99 4177.99 1539.5 4186 1539.5 4194.01 1539.5 4200.5 1545.99 4200.5 1554Z" stroke="#FFFFFF" stroke-width="4.58333" stroke-miterlimit="8" fill="none" fill-rule="evenodd"/><path d="M4061.5 1631.5 4127.5 1631.5" stroke="#FFFFFF" stroke-width="4.58333" stroke-miterlimit="8" fill="none" fill-rule="evenodd"/><path d="M4010.5 1566.5 4039.5 1618.5" stroke="#FFFFFF" stroke-width="4.58333" stroke-miterlimit="8" fill="none" fill-rule="evenodd"/><path d="M4039.5 1489.5 4010.5 1541.5" stroke="#FFFFFF" stroke-width="4.58333" stroke-miterlimit="8" fill="none" fill-rule="evenodd"/><path d="M4127.5 1477.5 4061.5 1477.5" stroke="#FFFFFF" stroke-width="4.58333" stroke-miterlimit="8" fill="none" fill-rule="evenodd"/><path d="M4179.5 1541.5 4149.5 1489.5" stroke="#FFFFFF" stroke-width="4.58333" stroke-miterlimit="8" fill="none" fill-rule="evenodd"/><path d="M4149.5 1618.5 4179.5 1566.5" stroke="#FFFFFF" stroke-width="4.58333" stroke-miterlimit="8" fill="none" fill-rule="evenodd"/><path d="M4134.5 1554C4134.5 1576.37 4116.59 1594.5 4094.5 1594.5 4072.41 1594.5 4054.5 1576.37 4054.5 1554 4054.5 1531.63 4072.41 1513.5 4094.5 1513.5 4116.59 1513.5 4134.5 1531.63 4134.5 1554Z" stroke="#FFFFFF" stroke-width="4.58333" stroke-miterlimit="8" fill="none" fill-rule="evenodd"/><path d="M4134.5 1554.5 4171.5 1554.5" stroke="#FFFFFF" stroke-width="4.58333" stroke-miterlimit="8" fill="none" fill-rule="evenodd"/><path d="M4017.5 1554.5 4054.5 1554.5" stroke="#FFFFFF" stroke-width="4.58333" stroke-miterlimit="8" fill="none" fill-rule="evenodd"/><path d="M4054.5 1489.5 4073.5 1519.5" stroke="#FFFFFF" stroke-width="4.58333" stroke-miterlimit="8" fill="none" fill-rule="evenodd"/><path d="M4115.5 1519.5 4134.5 1489.5" stroke="#FFFFFF" stroke-width="4.58333" stroke-miterlimit="8" fill="none" fill-rule="evenodd"/><path d="M4134.5 1618.5 4115.5 1588.5" stroke="#FFFFFF" stroke-width="4.58333" stroke-miterlimit="8" fill="none" fill-rule="evenodd"/><path d="M4073.5 1588.5 4054.5 1618.5" stroke="#FFFFFF" stroke-width="4.58333" stroke-miterlimit="8" fill="none" fill-rule="evenodd"/><g><g><g><path d="M4100.35 1544.47 4094 1550.82 4087.65 1544.47 4100.35 1544.47Z" stroke="#139EAD" stroke-width="2.3077" stroke-linejoin="round" fill="none"/><path d="M4094 1572 4094 1550.82" stroke="#139EAD" stroke-width="2.3077" stroke-linejoin="round" fill="none"/><path d="M4086.59 1572 4101.41 1572" stroke="#139EAD" stroke-width="2.3077" stroke-linejoin="round" fill="none"/><path d="M4080.24 1545.53C4080.24 1537.91 4086.38 1531.76 4094 1531.76" stroke="#139EAD" stroke-width="2.3077" stroke-linecap="round" stroke-linejoin="round" fill="none"/><path d="M4096.12 1580.47C4096.12 1581.64 4095.16 1582.59 4094 1582.59 4092.84 1582.59 4091.88 1581.64 4091.88 1580.47" stroke="#139EAD" stroke-width="2.3077" stroke-linejoin="round" fill="none"/><path d="M4114.12 1545.53C4114.12 1534.41 4105.12 1525.41 4094 1525.41 4082.88 1525.41 4073.88 1534.41 4073.88 1545.53 4073.88 1556.65 4079.18 1561.31 4086.59 1564.27L4086.59 1578.35C4086.59 1579.52 4087.54 1580.47 4088.71 1580.47L4099.29 1580.47C4100.46 1580.47 4101.41 1579.52 4101.41 1578.35L4101.41 1564.27C4108.82 1561.31 4114.12 1554.11 4114.12 1545.53Z" stroke="#139EAD" stroke-width="2.3077" stroke-linecap="round" stroke-linejoin="round" fill="none"/></g></g></g></g></svg>