<svg width="390" height="389" xmlns="http://www.w3.org/2000/svg" xmlns:xlink="http://www.w3.org/1999/xlink" xml:space="preserve" overflow="hidden"><defs><clipPath id="clip0"><rect x="2013" y="352" width="390" height="389"/></clipPath></defs><g clip-path="url(#clip0)" transform="translate(-2013 -352)"><path d="M2013 546.5C2013 439.081 2100.3 352 2208 352 2315.7 352 2403 439.081 2403 546.5 2403 653.919 2315.7 741 2208 741 2100.3 741 2013 653.919 2013 546.5Z" fill="#4A4A4A" fill-rule="evenodd"/><path d="M2259.5 484.737 2259.5 470.947C2259.5 468.879 2257.79 467.5 2255.74 467.5L2140.26 467.5C2138.21 467.5 2136.5 468.879 2136.5 470.947L2136.5 595.053C2136.5 597.121 2138.21 598.5 2140.26 598.5L2255.74 598.5C2257.79 598.5 2259.5 597.121 2259.5 595.053L2259.5 512.316" stroke="#FFFFFF" stroke-width="4.58333" stroke-miterlimit="8" fill="none" fill-rule="evenodd"/><path d="M2163.5 563.75C2176.87 563.75 2187.5 556.875 2187.5 546.562 2187.5 533.156 2198.13 522.5 2211.5 522.5 2224.87 522.5 2235.5 533.156 2235.5 546.562 2235.5 563.75 2220.07 577.5 2201.21 577.5 2180.3 577.5 2168.99 568.906 2163.5 563.75Z" stroke="#139EAD" stroke-width="4.58333" stroke-miterlimit="8" fill="none" fill-rule="evenodd"/><path d="M2156.5 516.5 2167.5 526.5" stroke="#FFFFFF" stroke-width="4.58333" stroke-miterlimit="8" fill="none" fill-rule="evenodd"/><path d="M2174.5 481.5 2184.5 509.5" stroke="#FFFFFF" stroke-width="4.58333" stroke-miterlimit="8" fill="none" fill-rule="evenodd"/><path d="M2211.5 488.5 2208.5 505.5" stroke="#FFFFFF" stroke-width="4.58333" stroke-miterlimit="8" fill="none" fill-rule="evenodd"/><path d="M2204.5 467.5 2191.5 467.5 2191.5 457.75C2191.5 455.8 2192.8 454.5 2194.75 454.5L2201.25 454.5C2203.2 454.5 2204.5 455.8 2204.5 457.75L2204.5 467.5Z" stroke="#FFFFFF" stroke-width="4.58333" stroke-miterlimit="8" fill="none" fill-rule="evenodd"/><path d="M2204.5 598.5 2204.5 632.667C2204.5 636.425 2201.57 639.5 2198 639.5L2198 639.5C2194.43 639.5 2191.5 636.425 2191.5 632.667L2191.5 598.5" stroke="#FFFFFF" stroke-width="4.58333" stroke-miterlimit="8" fill="none" fill-rule="evenodd"/><path d="M2218.5 598.5 2240.66 636.059C2242.74 639.473 2246.89 640.498 2250.01 638.449 2253.47 636.4 2254.51 632.303 2252.43 629.23L2234.43 598.5" stroke="#FFFFFF" stroke-width="4.58333" stroke-miterlimit="8" fill="none" fill-rule="evenodd"/><path d="M2161.99 598.5 2144.46 629.288C2142.44 632.709 2143.79 636.814 2146.82 638.524 2150.19 640.577 2154.24 639.209 2155.92 636.13L2177.5 598.5" stroke="#FFFFFF" stroke-width="4.58333" stroke-miterlimit="8" fill="none" fill-rule="evenodd"/><path d="M2234.21 538.501 2280.5 492.214C2280.5 486.386 2272.61 478.5 2266.79 478.5L2220.5 524.786" stroke="#139EAD" stroke-width="4.58333" stroke-miterlimit="8" fill="none" fill-rule="evenodd"/></g></svg>