<svg width="390" height="390" xmlns="http://www.w3.org/2000/svg" xmlns:xlink="http://www.w3.org/1999/xlink" xml:space="preserve" overflow="hidden"><defs><clipPath id="clip0"><rect x="583" y="856" width="390" height="390"/></clipPath></defs><g clip-path="url(#clip0)" transform="translate(-583 -856)"><path d="M583 1051C583 943.304 670.305 856 778 856 885.696 856 973 943.304 973 1051 973 1158.7 885.696 1246 778 1246 670.305 1246 583 1158.7 583 1051Z" fill="#4A4A4A" fill-rule="evenodd"/><g><g><g><path d="M238.753 197.529C238.753 208.866 229.478 218.141 218.141 218.141L73.8588 218.141C62.5223 218.141 53.247 208.866 53.247 197.529L53.247 94.4705C53.247 83.1341 62.5223 73.8588 73.8588 73.8588L218.141 73.8588C229.478 73.8588 238.753 83.1341 238.753 94.4705L238.753 197.529Z" stroke="#FFFFFF" stroke-width="4.58038" stroke-linejoin="round" fill="none" transform="matrix(1 0 0 1 632 923)"/><path d="M115.082 111.647C115.082 121.133 107.392 128.823 97.9058 128.823 88.4195 128.823 80.7294 121.133 80.7294 111.647 80.7294 102.161 88.4195 94.4705 97.9058 94.4705 107.392 94.4705 115.082 102.161 115.082 111.647Z" stroke="#FFFFFF" stroke-width="4.58038" stroke-linejoin="round" fill="none" transform="matrix(1 0 0 1 632 923)"/><path d="M190.659 176.918 142.565 128.823 73.8588 197.529" stroke="#FFFFFF" stroke-width="4.58038" stroke-linecap="round" stroke-linejoin="round" fill="none" transform="matrix(1 0 0 1 632 923)"/><path d="M218.141 163.176 190.659 135.694 170.047 156.306" stroke="#FFFFFF" stroke-width="4.58038" stroke-linecap="round" stroke-linejoin="round" fill="none" transform="matrix(1 0 0 1 632 923)"/></g></g></g><g><g><g><path d="M840 944.082C812.442 944.082 788.273 961.249 774.494 987 788.273 1012.75 812.442 1029.92 840 1029.92 867.558 1029.92 891.727 1012.75 905.506 987 891.727 961.249 867.558 944.082 840 944.082Z" stroke="#139EAD" stroke-width="5.81819" stroke-linecap="round" stroke-linejoin="round" fill="#4A4A4A"/><path d="M869.365 987C869.365 1003.22 856.218 1016.36 840 1016.36 823.782 1016.36 810.635 1003.22 810.635 987 810.635 970.782 823.782 957.635 840 957.635 856.218 957.635 869.365 970.782 869.365 987Z" stroke="#139EAD" stroke-width="5.81819" stroke-linecap="round" stroke-linejoin="round" fill="#4A4A4A"/><path d="M840 971.188C848.809 971.188 855.812 978.191 855.812 987 855.812 995.81 848.809 1002.81 840 1002.81 831.191 1002.81 824.188 995.81 824.188 987" stroke="#139EAD" stroke-width="5.81819" stroke-linecap="round" stroke-linejoin="round" fill="#4A4A4A"/></g></g></g></g></svg>