<svg width="390" height="390" xmlns="http://www.w3.org/2000/svg" xmlns:xlink="http://www.w3.org/1999/xlink" xml:space="preserve" overflow="hidden"><g transform="translate(-2004 -1368)"><path d="M2004 1563C2004 1455.3 2091.3 1368 2199 1368 2306.7 1368 2394 1455.3 2394 1563 2394 1670.7 2306.7 1758 2199 1758 2091.3 1758 2004 1670.7 2004 1563Z" fill="#4A4A4A" fill-rule="evenodd"/><path d="M2202.5 1614.5C2174.28 1614.5 2151.5 1591.5 2151.5 1563 2151.5 1534.5 2174.28 1511.5 2202.5 1511.5" stroke="#FFFFFF" stroke-width="4.58333" stroke-miterlimit="8" fill="none" fill-rule="evenodd"/><path d="M2285.5 1546C2285.5 1551.8 2280.8 1556.5 2275 1556.5 2269.2 1556.5 2264.5 1551.8 2264.5 1546 2264.5 1540.2 2269.2 1535.5 2275 1535.5 2280.8 1535.5 2285.5 1540.2 2285.5 1546Z" stroke="#FFFFFF" stroke-width="4.58333" stroke-miterlimit="8" fill="none" fill-rule="evenodd"/><path d="M2247.5 1639C2247.5 1644.8 2242.8 1649.5 2237 1649.5 2231.2 1649.5 2226.5 1644.8 2226.5 1639 2226.5 1633.2 2231.2 1628.5 2237 1628.5 2242.8 1628.5 2247.5 1633.2 2247.5 1639Z" stroke="#FFFFFF" stroke-width="4.58333" stroke-miterlimit="8" fill="none" fill-rule="evenodd"/><path d="M2247.5 1491C2247.5 1496.8 2242.8 1501.5 2237 1501.5 2231.2 1501.5 2226.5 1496.8 2226.5 1491 2226.5 1485.2 2231.2 1480.5 2237 1480.5 2242.8 1480.5 2247.5 1485.2 2247.5 1491Z" stroke="#FFFFFF" stroke-width="4.58333" stroke-miterlimit="8" fill="none" fill-rule="evenodd"/><path d="M2236.5 1628.5 2236.5 1601.04 2202.21 1601.04C2181.3 1601.04 2164.5 1584.22 2164.5 1563.28 2164.5 1542.35 2181.3 1525.53 2202.21 1525.53L2236.5 1525.53 2236.5 1501.5" stroke="#FFFFFF" stroke-width="4.58333" stroke-miterlimit="8" fill="none" fill-rule="evenodd"/><path d="M2223.5 1545.5 2264.5 1545.5" stroke="#FFFFFF" stroke-width="4.58333" stroke-miterlimit="8" fill="none" fill-rule="evenodd"/><path d="M2274.5 1601C2274.5 1606.8 2270.02 1611.5 2264.5 1611.5 2258.98 1611.5 2254.5 1606.8 2254.5 1601 2254.5 1595.2 2258.98 1590.5 2264.5 1590.5 2270.02 1590.5 2274.5 1595.2 2274.5 1601Z" stroke="#FFFFFF" stroke-width="4.58333" stroke-miterlimit="8" fill="none" fill-rule="evenodd"/><path d="M2199.5 1573.5 2264.5 1573.5 2264.5 1590.5" stroke="#FFFFFF" stroke-width="4.58333" stroke-miterlimit="8" fill="none" fill-rule="evenodd"/><path d="M2210.5 1494.36 2206.37 1477.5 2192.61 1477.5 2188.49 1494.36C2183.67 1495.04 2179.2 1496.42 2174.73 1498.14L2162.69 1485.76 2150.65 1492.64 2155.46 1509.15C2153.74 1510.52 2151.68 1512.24 2149.96 1513.96 2148.24 1515.68 2146.52 1517.4 2145.15 1519.47L2128.63 1514.65 2121.76 1526.69 2134.14 1538.73C2132.42 1543.2 2131.04 1548.02 2130.35 1552.49L2113.5 1556.62 2113.5 1570.38 2130.35 1574.51C2131.04 1579.32 2132.42 1583.8 2134.14 1588.27L2121.76 1600.31 2128.63 1612.35 2145.15 1607.53C2146.52 1609.25 2148.24 1611.32 2149.96 1613.04 2151.68 1614.76 2153.4 1616.48 2155.46 1617.85L2150.65 1634.36 2162.69 1641.24 2174.73 1628.86C2179.2 1630.58 2184.01 1631.96 2188.49 1632.64L2192.61 1649.5 2206.37 1649.5 2210.5 1632.64" stroke="#FFFFFF" stroke-width="4.58333" stroke-miterlimit="8" fill="none" fill-rule="evenodd"/><path d="M2223.5 1546C2223.5 1549.59 2220.37 1552.5 2216.5 1552.5 2212.63 1552.5 2209.5 1549.59 2209.5 1546 2209.5 1542.41 2212.63 1539.5 2216.5 1539.5 2220.37 1539.5 2223.5 1542.41 2223.5 1546Z" stroke="#FFFFFF" stroke-width="4.58333" stroke-miterlimit="8" fill="none" fill-rule="evenodd"/><path d="M2199.5 1573.5C2199.5 1577.37 2196.37 1580.5 2192.5 1580.5 2188.63 1580.5 2185.5 1577.37 2185.5 1573.5 2185.5 1569.63 2188.63 1566.5 2192.5 1566.5 2196.37 1566.5 2199.5 1569.63 2199.5 1573.5Z" stroke="#FFFFFF" stroke-width="4.58333" stroke-miterlimit="8" fill="none" fill-rule="evenodd"/><path d="M2202.5 1614.5C2174.28 1614.5 2151.5 1591.5 2151.5 1563 2151.5 1534.5 2174.28 1511.5 2202.5 1511.5" stroke="#FFFFFF" stroke-width="4.58333" stroke-miterlimit="8" fill="none" fill-rule="evenodd"/><path d="M2285.5 1546C2285.5 1551.8 2280.8 1556.5 2275 1556.5 2269.2 1556.5 2264.5 1551.8 2264.5 1546 2264.5 1540.2 2269.2 1535.5 2275 1535.5 2280.8 1535.5 2285.5 1540.2 2285.5 1546Z" stroke="#139EAD" stroke-width="4.58333" stroke-miterlimit="8" fill="none" fill-rule="evenodd"/><path d="M2247.5 1639C2247.5 1644.8 2242.8 1649.5 2237 1649.5 2231.2 1649.5 2226.5 1644.8 2226.5 1639 2226.5 1633.2 2231.2 1628.5 2237 1628.5 2242.8 1628.5 2247.5 1633.2 2247.5 1639Z" stroke="#FFFFFF" stroke-width="4.58333" stroke-miterlimit="8" fill="none" fill-rule="evenodd"/><path d="M2247.5 1491C2247.5 1496.8 2242.8 1501.5 2237 1501.5 2231.2 1501.5 2226.5 1496.8 2226.5 1491 2226.5 1485.2 2231.2 1480.5 2237 1480.5 2242.8 1480.5 2247.5 1485.2 2247.5 1491Z" stroke="#FFFFFF" stroke-width="4.58333" stroke-miterlimit="8" fill="none" fill-rule="evenodd"/><path d="M2236.5 1628.5 2236.5 1601.04 2202.21 1601.04C2181.3 1601.04 2164.5 1584.22 2164.5 1563.28 2164.5 1542.35 2181.3 1525.53 2202.21 1525.53L2236.5 1525.53 2236.5 1501.5" stroke="#FFFFFF" stroke-width="4.58333" stroke-miterlimit="8" fill="none" fill-rule="evenodd"/><path d="M2223.5 1545.5 2264.5 1545.5" stroke="#139EAD" stroke-width="4.58333" stroke-miterlimit="8" fill="none" fill-rule="evenodd"/><path d="M2274.5 1601C2274.5 1606.8 2270.02 1611.5 2264.5 1611.5 2258.98 1611.5 2254.5 1606.8 2254.5 1601 2254.5 1595.2 2258.98 1590.5 2264.5 1590.5 2270.02 1590.5 2274.5 1595.2 2274.5 1601Z" stroke="#139EAD" stroke-width="4.58333" stroke-miterlimit="8" fill="none" fill-rule="evenodd"/><path d="M2199.5 1573.5 2264.5 1573.5 2264.5 1590.5" stroke="#139EAD" stroke-width="4.58333" stroke-miterlimit="8" fill="none" fill-rule="evenodd"/><path d="M2210.5 1494.36 2206.37 1477.5 2192.61 1477.5 2188.49 1494.36C2183.67 1495.04 2179.2 1496.42 2174.73 1498.14L2162.69 1485.76 2150.65 1492.64 2155.46 1509.15C2153.74 1510.52 2151.68 1512.24 2149.96 1513.96 2148.24 1515.68 2146.52 1517.4 2145.15 1519.47L2128.63 1514.65 2121.76 1526.69 2134.14 1538.73C2132.42 1543.2 2131.04 1548.02 2130.35 1552.49L2113.5 1556.62 2113.5 1570.38 2130.35 1574.51C2131.04 1579.32 2132.42 1583.8 2134.14 1588.27L2121.76 1600.31 2128.63 1612.35 2145.15 1607.53C2146.52 1609.25 2148.24 1611.32 2149.96 1613.04 2151.68 1614.76 2153.4 1616.48 2155.46 1617.85L2150.65 1634.36 2162.69 1641.24 2174.73 1628.86C2179.2 1630.58 2184.01 1631.96 2188.49 1632.64L2192.61 1649.5 2206.37 1649.5 2210.5 1632.64" stroke="#FFFFFF" stroke-width="4.58333" stroke-miterlimit="8" fill="none" fill-rule="evenodd"/><path d="M2223.5 1546C2223.5 1549.59 2220.37 1552.5 2216.5 1552.5 2212.63 1552.5 2209.5 1549.59 2209.5 1546 2209.5 1542.41 2212.63 1539.5 2216.5 1539.5 2220.37 1539.5 2223.5 1542.41 2223.5 1546Z" stroke="#139EAD" stroke-width="4.58333" stroke-miterlimit="8" fill="none" fill-rule="evenodd"/><path d="M2199.5 1573.5C2199.5 1577.37 2196.37 1580.5 2192.5 1580.5 2188.63 1580.5 2185.5 1577.37 2185.5 1573.5 2185.5 1569.63 2188.63 1566.5 2192.5 1566.5 2196.37 1566.5 2199.5 1569.63 2199.5 1573.5Z" stroke="#139EAD" stroke-width="4.58333" stroke-miterlimit="8" fill="none" fill-rule="evenodd"/></g></svg>