<svg width="389" height="390" xmlns="http://www.w3.org/2000/svg" xmlns:xlink="http://www.w3.org/1999/xlink" xml:space="preserve" overflow="hidden"><defs><clipPath id="clip0"><rect x="2952" y="856" width="389" height="390"/></clipPath></defs><g clip-path="url(#clip0)" transform="translate(-2952 -856)"><path d="M2952 1051C2952 943.304 3039.08 856 3146.5 856 3253.92 856 3341 943.304 3341 1051 3341 1158.7 3253.92 1246 3146.5 1246 3039.08 1246 2952 1158.7 2952 1051Z" fill="#4A4A4A" fill-rule="evenodd"/><path d="M3152.5 938.5 3152.5 980.5" stroke="#139EAD" stroke-width="4.58333" stroke-linecap="round" stroke-linejoin="round" stroke-miterlimit="10" fill="none" fill-rule="evenodd"/><path d="M3218.5 952.5 3190.5 980.5" stroke="#139EAD" stroke-width="4.58333" stroke-linecap="round" stroke-linejoin="round" stroke-miterlimit="10" fill="none" fill-rule="evenodd"/><path d="M3087.5 952.5 3115.5 980.5" stroke="#139EAD" stroke-width="4.58333" stroke-linecap="round" stroke-linejoin="round" stroke-miterlimit="10" fill="none" fill-rule="evenodd"/><path d="M3132.5 959.5 3153 980.5 3173.5 959.5" stroke="#139EAD" stroke-width="4.58333" stroke-linecap="round" stroke-linejoin="round" stroke-miterlimit="10" fill="none" fill-rule="evenodd"/><path d="M3115.5 959.5 3115.5 980.5 3094.5 980.5" stroke="#139EAD" stroke-width="4.58333" stroke-linecap="round" stroke-linejoin="round" stroke-miterlimit="10" fill="none" fill-rule="evenodd"/><path d="M3190.5 959.5 3190.5 980.5 3211.5 980.5" stroke="#139EAD" stroke-width="4.58333" stroke-linecap="round" stroke-linejoin="round" stroke-miterlimit="10" fill="none" fill-rule="evenodd"/><path d="M3080.5 1000.39 3080.5 1014.18 3135.74 1076.24 3135.74 1124.5 3170.26 1110.71 3170.26 1076.24 3225.5 1014.18 3225.5 1000.39C3225.5 996.603 3222.39 993.5 3218.59 993.5L3087.4 993.5C3083.61 993.5 3080.5 996.603 3080.5 1000.39Z" stroke="#FFFFFF" stroke-width="4.58333" stroke-linecap="round" stroke-linejoin="round" stroke-miterlimit="10" fill="none" fill-rule="evenodd"/><path d="M3080.5 1014.5 3204.5 1014.5" stroke="#FFFFFF" stroke-width="4.58333" stroke-linecap="round" stroke-linejoin="round" stroke-miterlimit="10" fill="none" fill-rule="evenodd"/><path d="M3135.5 1076.5 3156.5 1076.5" stroke="#FFFFFF" stroke-width="4.58333" stroke-linecap="round" stroke-linejoin="round" stroke-miterlimit="10" fill="none" fill-rule="evenodd"/><path d="M3154.5 1136.5 3154.5 1177.5" stroke="#139EAD" stroke-width="4.58333" stroke-linecap="round" stroke-linejoin="round" stroke-miterlimit="10" fill="none" fill-rule="evenodd"/><path d="M3134.5 1157.5 3155 1177.5 3175.5 1157.5" stroke="#139EAD" stroke-width="4.58333" stroke-linecap="round" stroke-linejoin="round" stroke-miterlimit="10" fill="none" fill-rule="evenodd"/></g></svg>