<svg width="390" height="390" xmlns="http://www.w3.org/2000/svg" xmlns:xlink="http://www.w3.org/1999/xlink" xml:space="preserve" overflow="hidden"><defs><clipPath id="clip0"><rect x="3425" y="1359" width="390" height="390"/></clipPath></defs><g clip-path="url(#clip0)" transform="translate(-3425 -1359)"><path d="M3425 1554C3425 1446.3 3512.3 1359 3620 1359 3727.7 1359 3815 1446.3 3815 1554 3815 1661.7 3727.7 1749 3620 1749 3512.3 1749 3425 1661.7 3425 1554Z" fill="#4A4A4A" fill-rule="evenodd"/><path d="M3589.5 1516.5 3706.5 1516.5" stroke="#139EAD" stroke-width="4.58333" stroke-linejoin="round" stroke-miterlimit="10" fill="none" fill-rule="evenodd"/><path d="M3627.5 1516.5 3648 1571.5 3668.5 1516.5" stroke="#139EAD" stroke-width="4.58333" stroke-linejoin="round" stroke-miterlimit="10" fill="none" fill-rule="evenodd"/><path d="M3674.5 1489.14C3662.49 1476.41 3645.68 1468.5 3627.16 1468.5 3591.14 1468.5 3561.98 1497.74 3561.98 1533.86L3561.98 1533.86 3536.6 1559.66C3532.14 1564.13 3535.23 1571.7 3541.74 1571.7L3555.12 1571.7 3555.12 1606.1C3555.12 1613.67 3561.3 1619.86 3568.84 1619.86L3596.29 1619.86 3596.29 1640.5" stroke="#FFFFFF" stroke-width="4.58333" stroke-linecap="round" stroke-linejoin="round" stroke-miterlimit="10" fill="none" fill-rule="evenodd"/><path d="M3672.5 1640.5 3672.5 1581.37C3684.83 1569.34 3692.5 1552.5 3692.5 1533.94 3692.5 1532.91 3692.5 1531.87 3692.5 1530.5" stroke="#FFFFFF" stroke-width="4.58333" stroke-linecap="round" stroke-linejoin="round" stroke-miterlimit="10" fill="none" fill-rule="evenodd"/><path d="M3606.5 1488.5 3689.5 1488.5" stroke="#139EAD" stroke-width="4.58333" stroke-linejoin="round" stroke-miterlimit="10" fill="none" fill-rule="evenodd"/><path d="M3589.5 1516.02 3606.71 1488.5 3627.35 1516.02 3648 1488.5 3668.65 1516.02 3689.29 1488.5 3706.5 1516.02 3648 1574.5Z" stroke="#139EAD" stroke-width="4.58333" stroke-linejoin="round" stroke-miterlimit="10" fill="none" fill-rule="evenodd"/></g></svg>