<svg width="389" height="390" xmlns="http://www.w3.org/2000/svg" xmlns:xlink="http://www.w3.org/1999/xlink" xml:space="preserve" overflow="hidden"><g transform="translate(-2952 -1861)"><path d="M2952 2056C2952 1948.3 3039.08 1861 3146.5 1861 3253.92 1861 3341 1948.3 3341 2056 3341 2163.7 3253.92 2251 3146.5 2251 3039.08 2251 2952 2163.7 2952 2056Z" fill="#4A4A4A" fill-rule="evenodd"/><path d="M3024.5 2130.06 3266.27 2130.06 3266.27 2136.94 3024.5 2136.94ZM3261.69 2119.75 3289.19 2133.5 3261.69 2147.25Z" fill="#FFFFFF"/><path d="M0 0 0.000360892 156.063" stroke="#FFFFFF" stroke-width="6.875" stroke-miterlimit="8" fill="none" fill-rule="evenodd" transform="matrix(1 0 0 -1 3025.5 2133.56)"/><path d="M3024.5 2056.5 3267.15 2056.5" stroke="#FFFFFF" stroke-width="4.58333" stroke-miterlimit="8" fill="none" fill-rule="evenodd"/><path d="M3029.4 2095.41C3039 2053.55 3074.03 2025.87 3107.65 2033.58 3120.33 2036.49 3131.57 2044.26 3139.79 2055.82" stroke="#139EAD" stroke-width="11.4583" stroke-miterlimit="8" fill="none" fill-rule="evenodd"/><path d="M3190.43 2058.06C3181.38 2069 3163.33 2071.79 3150.11 2064.3 3145.47 2061.67 3141.86 2057.98 3139.71 2053.69" stroke="#139EAD" stroke-width="11.4583" stroke-miterlimit="8" fill="none" fill-rule="evenodd"/><path d="M3190.77 2059.43C3198.16 2047.67 3215.67 2043.09 3229.88 2049.21 3235.01 2051.42 3239.23 2054.84 3241.99 2059.05" stroke="#139EAD" stroke-width="11.4583" stroke-miterlimit="8" fill="none" fill-rule="evenodd"/><path d="M3276.83 2056.39C3267.14 2063.56 3252.86 2064.52 3241.9 2058.73" stroke="#139EAD" stroke-width="11.4583" stroke-miterlimit="8" fill="none" fill-rule="evenodd"/></g></svg>