<svg width="390" height="390" xmlns="http://www.w3.org/2000/svg" xmlns:xlink="http://www.w3.org/1999/xlink" xml:space="preserve" overflow="hidden"><defs><clipPath id="clip0"><rect x="2478" y="856" width="390" height="390"/></clipPath></defs><g clip-path="url(#clip0)" transform="translate(-2478 -856)"><path d="M2478 1051C2478 943.304 2565.3 856 2673 856 2780.7 856 2868 943.304 2868 1051 2868 1158.7 2780.7 1246 2673 1246 2565.3 1246 2478 1158.7 2478 1051Z" fill="#4A4A4A" fill-rule="evenodd"/><path d="M2614.09 1149 2575 1086.41 2575 1016 2578.91 1016C2585.55 1016 2590.64 1021.09 2590.64 1027.74L2590.64 1070.76 2627.77 1107.93C2628.95 1109.1 2630.51 1109.1 2631.68 1107.93 2632.85 1106.75 2632.85 1105.19 2631.68 1104.02L2614.48 1086.8C2609.79 1082.11 2609.79 1074.68 2614.48 1070.37L2618 1066.85 2652.79 1101.67C2658.26 1107.14 2661 1114.19 2661 1121.62L2661 1149" stroke="#FFFFFF" stroke-width="5.72917" stroke-linecap="round" stroke-linejoin="round" stroke-miterlimit="10" fill="none" fill-rule="evenodd"/><path d="M2730.91 1149 2770 1086.41 2770 1016 2766.09 1016C2759.45 1016 2754.36 1021.09 2754.36 1027.74L2754.36 1070.76 2717.23 1107.93C2716.05 1109.1 2714.49 1109.1 2713.32 1107.93 2712.15 1106.75 2712.15 1105.19 2713.32 1104.02L2730.52 1086.8C2735.21 1082.11 2735.21 1074.68 2730.52 1070.37L2727 1066.85 2692.21 1101.67C2686.74 1107.14 2684 1114.19 2684 1121.62L2684 1149" stroke="#FFFFFF" stroke-width="5.72917" stroke-linecap="round" stroke-linejoin="round" stroke-miterlimit="10" fill="none" fill-rule="evenodd"/><path d="M2673 1071 2614 1047.5 2614 977 2673 1000.5 2673 1071Z" stroke="#139EAD" stroke-width="5.72917" stroke-linejoin="round" stroke-miterlimit="10" fill="none" fill-rule="evenodd"/><path d="M2673 1000.5 2731 977 2731 1047.5 2673 1071" stroke="#139EAD" stroke-width="5.72917" stroke-linejoin="round" stroke-miterlimit="10" fill="none" fill-rule="evenodd"/><path d="M2614 977 2672.5 954 2731 977" stroke="#139EAD" stroke-width="5.72917" stroke-linejoin="round" stroke-miterlimit="10" fill="none" fill-rule="evenodd"/></g></svg>