<svg width="390" height="390" xmlns="http://www.w3.org/2000/svg" xmlns:xlink="http://www.w3.org/1999/xlink" xml:space="preserve" overflow="hidden"><defs><clipPath id="clip0"><rect x="109" y="856" width="390" height="390"/></clipPath></defs><g clip-path="url(#clip0)" transform="translate(-109 -856)"><path d="M109 1051C109 943.304 196.304 856 304 856 411.696 856 499 943.304 499 1051 499 1158.7 411.696 1246 304 1246 196.304 1246 109 1158.7 109 1051Z" fill="#4A4A4A" fill-rule="evenodd"/><g><g><g><path d="M218.718 153.041C218.718 189.339 189.293 218.764 152.995 218.764 116.698 218.764 87.2725 189.339 87.2725 153.041 87.2725 116.743 116.698 87.3181 152.995 87.3181 189.293 87.3181 218.718 116.743 218.718 153.041Z" stroke="#FFFFFF" stroke-width="7.43893" stroke-linejoin="round" fill="none" transform="matrix(1 0 0 1.07207 148.859 861.47)"/><path d="M108.027 153.041C108.027 128.202 128.157 108.073 152.995 108.073" stroke="#FFFFFF" stroke-width="7.43893" stroke-linecap="round" stroke-linejoin="round" fill="none" transform="matrix(1 0 0 1.07207 148.859 861.47)"/><path d="M191.505 206.228 242.513 257.233C246.567 261.287 253.134 261.283 257.187 257.233 261.241 253.179 261.241 246.609 257.187 242.555L206.186 191.551" stroke="#FFFFFF" stroke-width="7.43893" stroke-linejoin="round" fill="none" transform="matrix(1 0 0 1.07207 148.859 861.47)"/></g></g></g><text fill="#139EAD" font-family="Aptos,Aptos_MSFontService,sans-serif" font-weight="700" font-size="73" transform="matrix(1 0 0 1 285.039 1055)">A</text></g></svg>