<svg width="389" height="390" xmlns="http://www.w3.org/2000/svg" xmlns:xlink="http://www.w3.org/1999/xlink" xml:space="preserve" overflow="hidden"><defs><clipPath id="clip0"><rect x="1057" y="1359" width="389" height="390"/></clipPath></defs><g clip-path="url(#clip0)" transform="translate(-1057 -1359)"><path d="M1057 1554C1057 1446.3 1144.08 1359 1251.5 1359 1358.92 1359 1446 1446.3 1446 1554 1446 1661.7 1358.92 1749 1251.5 1749 1144.08 1749 1057 1661.7 1057 1554Z" fill="#4A4A4A" fill-rule="evenodd"/><path d="M1196.3 1505.5 1150.7 1505.5C1142.09 1505.5 1135.5 1512.55 1135.5 1521.77L1135.5 1597.69C1135.5 1606.91 1142.09 1613.96 1150.7 1613.96L1226.7 1613.96 1226.7 1646.5 1257.1 1613.96 1272.3 1613.96C1280.91 1613.96 1287.5 1606.91 1287.5 1597.69L1287.5 1581.42" stroke="#FFFFFF" stroke-width="4.58333" stroke-miterlimit="8" fill="none" fill-rule="evenodd"/><path d="M1196.5 1564.96 1196.5 1478.68C1196.5 1469.51 1203.08 1462.5 1211.68 1462.5L1353.32 1462.5C1361.92 1462.5 1368.5 1469.51 1368.5 1478.68L1368.5 1564.96C1368.5 1574.13 1361.92 1581.14 1353.32 1581.14L1338.15 1581.14 1338.15 1613.5 1307.79 1581.14 1211.68 1581.14C1203.58 1581.14 1196.5 1573.59 1196.5 1564.96Z" stroke="#FFFFFF" stroke-width="4.58333" stroke-miterlimit="8" fill="none" fill-rule="evenodd"/><path d="M1323.5 1521.5 1338.5 1538 1323.5 1554.5" stroke="#139EAD" stroke-width="6.875" stroke-miterlimit="8" fill="none" fill-rule="evenodd"/><path d="M1267.5 1538.5 1338.5 1538.5" stroke="#139EAD" stroke-width="6.875" stroke-miterlimit="8" fill="none" fill-rule="evenodd"/><path d="M1241.5 1489.5 1226.5 1505.5 1241.5 1521.5" stroke="#139EAD" stroke-width="6.875" stroke-miterlimit="8" fill="none" fill-rule="evenodd"/><path d="M1297.5 1505.5 1226.5 1505.5" stroke="#139EAD" stroke-width="6.875" stroke-miterlimit="8" fill="none" fill-rule="evenodd"/></g></svg>