<svg width="390" height="389" xmlns="http://www.w3.org/2000/svg" xmlns:xlink="http://www.w3.org/1999/xlink" xml:space="preserve" overflow="hidden"><defs><clipPath id="clip0"><rect x="109" y="356" width="390" height="389"/></clipPath></defs><g clip-path="url(#clip0)" transform="translate(-109 -356)"><path d="M109 550.5C109 443.081 196.304 356 304 356 411.696 356 499 443.081 499 550.5 499 657.919 411.696 745 304 745 196.304 745 109 657.919 109 550.5Z" fill="#4A4A4A" fill-rule="evenodd"/><text fill="#139EAD" font-family="Aptos,Aptos_MSFontService,sans-serif" font-weight="700" font-size="64" transform="matrix(1 0 0 1 183.873 568)">1</text><text fill="#FFFFFF" font-family="Aptos,Aptos_MSFontService,sans-serif" font-weight="400" font-size="64" transform="matrix(1 0 0 1 286.063 476)">2</text><text fill="#FFFFFF" font-family="Aptos,Aptos_MSFontService,sans-serif" font-weight="400" font-size="64" transform="matrix(1 0 0 1 396.772 568)">3</text><g><g><g><path d="M156.649 231.882C156.649 192.72 178.635 167.299 199.934 151.84L210.583 166.612 225.012 121.953 178.635 121.953 188.254 135.007C154.588 159.054 136.381 192.72 136.381 231.882" stroke="#FFFFFF" stroke-width="5.49647" fill="none" transform="matrix(1 0 0 1.00342 158 434)"/><path d="M156.649 166.268 156.649 101.341 173.826 101.341 146.343 60.1176 118.861 101.341 136.038 101.341 136.038 176.918" stroke="#FFFFFF" stroke-width="5.49647" fill="none" transform="matrix(1 0 0 1.00342 158 434)"/><path d="M136.038 166.268C127.793 154.588 117.487 144.282 104.776 135.007L114.395 121.953 67.3317 121.953 81.76 166.612 92.4094 151.84C113.708 167.299 135.694 192.72 135.694 231.882" stroke="#FFFFFF" stroke-width="5.49647" fill="none" transform="matrix(1 0 0 1.00342 158 434)"/></g></g></g></g></svg>