<svg width="390" height="390" xmlns="http://www.w3.org/2000/svg" xmlns:xlink="http://www.w3.org/1999/xlink" xml:space="preserve" overflow="hidden"><g transform="translate(-3425 -1861)"><path d="M3425 2056C3425 1948.3 3512.3 1861 3620 1861 3727.7 1861 3815 1948.3 3815 2056 3815 2163.7 3727.7 2251 3620 2251 3512.3 2251 3425 2163.7 3425 2056Z" fill="#4A4A4A" fill-rule="evenodd"/><path d="M3668.5 2156.5 3668.5 2100.35C3668.5 2094.69 3665.05 2089.9 3659.43 2088.16L3642.59 2082.5 3621 2104.26 3599.41 2082.5 3582.57 2088.16C3577.39 2089.9 3573.5 2095.12 3573.5 2100.35L3573.5 2156.06" stroke="#FFFFFF" stroke-width="4.58333" stroke-miterlimit="8" fill="none" fill-rule="evenodd"/><path d="M3620.5 1974.5 3620.5 1991.5" stroke="#139EAD" stroke-width="4.58333" stroke-miterlimit="8" fill="none" fill-rule="evenodd"/><path d="M3629.5 1966C3629.5 1970.69 3625.47 1974.5 3620.5 1974.5 3615.53 1974.5 3611.5 1970.69 3611.5 1966 3611.5 1961.31 3615.53 1957.5 3620.5 1957.5 3625.47 1957.5 3629.5 1961.31 3629.5 1966Z" stroke="#139EAD" stroke-width="4.58333" stroke-miterlimit="8" fill="none" fill-rule="evenodd"/><path d="M3642.5 2043.5C3630.46 2055.5 3611.54 2055.5 3599.5 2043.5" stroke="#139EAD" stroke-width="4.58333" stroke-miterlimit="8" fill="none" fill-rule="evenodd"/><path d="M3737.5 2113.5 3737.5 2073.85C3737.5 2066.44 3732.76 2059.47 3725.86 2057.29L3711.62 2052.5 3690.06 2074.29 3668.5 2052.5" stroke="#FFFFFF" stroke-width="4.58333" stroke-miterlimit="8" fill="none" fill-rule="evenodd"/><path d="M3503.5 2113.5 3503.5 2073.85C3503.5 2066.44 3508.31 2059.47 3515.31 2057.29L3529.75 2052.5 3551.62 2074.29 3573.5 2052.5" stroke="#FFFFFF" stroke-width="4.58333" stroke-miterlimit="8" fill="none" fill-rule="evenodd"/><path d="M3650.5 2117.5 3650.5 2156.5" stroke="#FFFFFF" stroke-width="4.58333" stroke-miterlimit="8" fill="none" fill-rule="evenodd"/><path d="M3590.5 2117.5 3590.5 2156.5" stroke="#FFFFFF" stroke-width="4.58333" stroke-miterlimit="8" fill="none" fill-rule="evenodd"/><path d="M3521.5 2078.5 3521.5 2130.5" stroke="#FFFFFF" stroke-width="4.58333" stroke-miterlimit="8" fill="none" fill-rule="evenodd"/><path d="M3720.5 2078.5 3720.5 2130.5" stroke="#FFFFFF" stroke-width="4.58333" stroke-miterlimit="8" fill="none" fill-rule="evenodd"/><path d="M3668.5 2031.8C3673.2 2038.73 3680.89 2043.5 3689.86 2043.5 3703.96 2043.5 3715.5 2031.8 3715.5 2017.5 3715.5 2003.2 3703.96 1991.5 3689.86 1991.5 3680.89 1991.5 3673.2 1996.27 3668.5 2003.2" stroke="#FFFFFF" stroke-width="4.58333" stroke-miterlimit="8" fill="none" fill-rule="evenodd"/><path d="M3573.5 2003.2C3568.7 1996.27 3560.85 1991.5 3551.68 1991.5 3537.28 1991.5 3525.5 2003.2 3525.5 2017.5 3525.5 2031.8 3537.28 2043.5 3551.68 2043.5 3560.85 2043.5 3568.7 2038.73 3573.5 2031.8" stroke="#FFFFFF" stroke-width="4.58333" stroke-miterlimit="8" fill="none" fill-rule="evenodd"/><path d="M3607.5 2013.5C3607.5 2015.71 3605.71 2017.5 3603.5 2017.5 3601.29 2017.5 3599.5 2015.71 3599.5 2013.5 3599.5 2011.29 3601.29 2009.5 3603.5 2009.5 3605.71 2009.5 3607.5 2011.29 3607.5 2013.5Z" stroke="#139EAD" stroke-width="4.58333" stroke-miterlimit="8" fill="none" fill-rule="evenodd"/><path d="M3642.5 2013.5C3642.5 2015.71 3640.49 2017.5 3638 2017.5 3635.51 2017.5 3633.5 2015.71 3633.5 2013.5 3633.5 2011.29 3635.51 2009.5 3638 2009.5 3640.49 2009.5 3642.5 2011.29 3642.5 2013.5Z" stroke="#139EAD" stroke-width="4.58333" stroke-miterlimit="8" fill="none" fill-rule="evenodd"/><path d="M3655.55 1991.5 3586.45 1991.5C3579.11 1991.5 3573.5 1997.13 3573.5 2004.5L3573.5 2056.5C3573.5 2063.87 3579.11 2069.5 3586.45 2069.5L3655.55 2069.5C3662.89 2069.5 3668.5 2063.87 3668.5 2056.5L3668.5 2004.5C3668.5 1997.13 3662.89 1991.5 3655.55 1991.5Z" stroke="#139EAD" stroke-width="4.58333" stroke-miterlimit="8" fill="none" fill-rule="evenodd"/></g></svg>