<svg width="389" height="390" xmlns="http://www.w3.org/2000/svg" xmlns:xlink="http://www.w3.org/1999/xlink" xml:space="preserve" overflow="hidden"><defs><clipPath id="clip0"><rect x="2952" y="1359" width="389" height="390"/></clipPath></defs><g clip-path="url(#clip0)" transform="translate(-2952 -1359)"><path d="M2952 1554C2952 1446.3 3039.08 1359 3146.5 1359 3253.92 1359 3341 1446.3 3341 1554 3341 1661.7 3253.92 1749 3146.5 1749 3039.08 1749 2952 1661.7 2952 1554Z" fill="#4A4A4A" fill-rule="evenodd"/><path d="M3188.5 1456.5 3188.5 1479.63C3188.5 1487.49 3194.51 1493.5 3202.38 1493.5L3225.5 1493.5" stroke="#FFFFFF" stroke-width="4.58333" stroke-linecap="round" stroke-linejoin="round" stroke-miterlimit="10" fill="none" fill-rule="evenodd"/><path d="M3170.5 1545C3170.5 1578.41 3143.41 1605.5 3110 1605.5 3076.59 1605.5 3049.5 1578.41 3049.5 1545 3049.5 1511.59 3076.59 1484.5 3110 1484.5 3143.41 1484.5 3170.5 1511.59 3170.5 1545Z" stroke="#139EAD" stroke-width="4.58333" stroke-linejoin="round" stroke-miterlimit="10" fill="none" fill-rule="evenodd"/><path d="M3068.5 1614.82 3068.5 1651.94C3068.5 1662.15 3076.84 1670.5 3087.03 1670.5L3225.97 1670.5C3236.16 1670.5 3244.5 1662.15 3244.5 1651.94L3244.5 1492.79C3244.5 1487.68 3242.65 1483.04 3238.94 1479.8L3203.28 1444.07C3199.57 1440.36 3194.94 1438.5 3190.31 1438.5L3087.03 1438.5C3076.84 1438.5 3068.5 1446.85 3068.5 1457.06L3068.5 1475.62" stroke="#FFFFFF" stroke-width="4.58333" stroke-linecap="round" stroke-linejoin="round" stroke-miterlimit="10" fill="none" fill-rule="evenodd"/><path d="M3077.5 1544.5C3077.5 1526.67 3091.67 1512.5 3109.5 1512.5" stroke="#139EAD" stroke-width="4.58333" stroke-linecap="round" stroke-linejoin="round" stroke-miterlimit="10" fill="none" fill-rule="evenodd"/><path d="M3142.5 1596.07 3188.93 1642.5C3199.14 1642.5 3207.5 1634.14 3207.5 1623.93L3161.07 1577.5" stroke="#139EAD" stroke-width="4.58333" stroke-linejoin="round" stroke-miterlimit="10" fill="none" fill-rule="evenodd"/></g></svg>