<svg width="390" height="390" xmlns="http://www.w3.org/2000/svg" xmlns:xlink="http://www.w3.org/1999/xlink" xml:space="preserve" overflow="hidden"><defs><clipPath id="clip0"><rect x="1530" y="1359" width="390" height="390"/></clipPath></defs><g clip-path="url(#clip0)" transform="translate(-1530 -1359)"><path d="M1530 1554C1530 1446.3 1617.3 1359 1725 1359 1832.7 1359 1920 1446.3 1920 1554 1920 1661.7 1832.7 1749 1725 1749 1617.3 1749 1530 1661.7 1530 1554Z" fill="#4A4A4A" fill-rule="evenodd"/><path d="M1635 1564C1638.6 1577.06 1646.26 1587.42 1658.42 1591.92 1670.58 1596.43 1683.19 1593.28 1694 1585.62" stroke="#FFFFFF" stroke-width="5.72917" stroke-linecap="round" stroke-linejoin="round" stroke-miterlimit="10" fill="none" fill-rule="evenodd"/><path d="M1637 1506.82C1640.52 1497.35 1650.65 1492.84 1659.46 1496 1668.7 1499.61 1673.11 1509.98 1670.02 1519" stroke="#FFFFFF" stroke-width="5.72917" stroke-linecap="round" stroke-linejoin="round" stroke-miterlimit="10" fill="none" fill-rule="evenodd"/><path d="M1696 1528.82C1699.63 1519.35 1710.05 1514.84 1719.12 1518 1728.64 1521.61 1733.17 1531.98 1730 1541" stroke="#FFFFFF" stroke-width="5.72917" stroke-linecap="round" stroke-linejoin="round" stroke-miterlimit="10" fill="none" fill-rule="evenodd"/><path d="M1770.37 1509.88C1772.63 1503.55 1768.57 1496.33 1761.81 1495.42 1747.84 1493.17 1723.95 1490.91 1699.16 1481.88 1674.36 1472.84 1654.53 1458.84 1642.36 1451.62 1636.5 1448.01 1628.84 1450.71 1626.58 1457.04L1611.71 1497.68C1592.78 1549.17 1609.91 1602.91 1650.02 1617.36 1689.69 1631.81 1737.02 1602 1755.95 1550.07L1770.37 1509.88Z" stroke="#FFFFFF" stroke-width="5.72917" stroke-linejoin="round" stroke-miterlimit="10" fill="none" fill-rule="evenodd"/><path d="M1819 1609.38C1807.74 1601.72 1795.58 1598.57 1783.42 1603.08 1771.26 1607.58 1763.6 1617.94 1760 1631" stroke="#139EAD" stroke-width="5.72917" stroke-linecap="round" stroke-linejoin="round" stroke-miterlimit="10" fill="none" fill-rule="evenodd"/><path d="M1807.82 1527C1811.43 1536.4 1806.47 1546.7 1797 1549.83 1787.53 1553.41 1777.16 1548.49 1774 1539.09" stroke="#139EAD" stroke-width="5.72917" stroke-linecap="round" stroke-linejoin="round" stroke-miterlimit="10" fill="none" fill-rule="evenodd"/><path d="M1707 1610.97C1729.54 1647.54 1768.32 1666.5 1801.23 1654.31 1840.91 1639.87 1858.04 1586.14 1839.56 1534.67L1824.68 1494.04C1822.42 1487.71 1814.76 1485.01 1808.9 1488.62 1799.88 1494.04 1786.35 1503.07 1769.67 1511.19" stroke="#FFFFFF" stroke-width="5.72917" stroke-linejoin="round" stroke-miterlimit="10" fill="none" fill-rule="evenodd"/></g></svg>