<svg width="397" height="397" xmlns="http://www.w3.org/2000/svg" xmlns:xlink="http://www.w3.org/1999/xlink" xml:space="preserve" overflow="hidden"><g transform="translate(-2001 -853)"><path d="M2004.5 1051.5C2004.5 943.805 2091.8 856.5 2199.5 856.5 2307.2 856.5 2394.5 943.805 2394.5 1051.5 2394.5 1159.2 2307.2 1246.5 2199.5 1246.5 2091.8 1246.5 2004.5 1159.2 2004.5 1051.5Z" stroke="#F2F2F2" stroke-width="6.875" stroke-miterlimit="8" fill="none" fill-rule="evenodd"/><g><g><g><path d="M80.7295 118.518 80.7295 118.518C84.8518 118.518 87.9436 115.426 88.6306 111.647 94.1271 78.3248 119.205 53.2471 149.435 53.2471 183.445 53.2471 211.271 85.5389 211.271 125.388 211.271 188.598 172.795 238.753 125.388 238.753 108.212 238.753 94.4707 225.012 94.4707 207.835" stroke="#4A4A4A" stroke-width="4.58038" fill="none" transform="matrix(-1 0 0 1.00342 2322 910)"/><path d="M128.824 108.212 135.694 108.212C154.588 108.212 170.047 123.671 170.047 142.565 170.047 172.795 150.122 197.53 125.388 197.53 119.548 197.53 115.082 193.064 115.082 187.224 115.082 180.353 121.953 173.482 121.953 166.612 121.953 160.772 117.487 156.306 111.647 156.306" stroke="#4A4A4A" stroke-width="4.58038" fill="none" transform="matrix(-1 0 0 1.00342 2322 910)"/><path d="M171.421 193.407C183.101 175.887 190.659 151.84 190.659 125.388 190.659 96.8754 172.108 73.8589 149.435 73.8589 128.48 73.8589 111.647 90.6918 111.647 111.647 111.647 127.106 121.61 140.16 135.694 144.282" stroke="#4A4A4A" stroke-width="4.58038" fill="none" transform="matrix(-1 0 0 1.00342 2322 910)"/></g></g></g><path d="M2258.29 1068.36 2237.71 1047.64 2224 1061.45 2258.29 1096 2320 1033.82 2306.29 1020Z" fill="#A01441" fill-rule="evenodd"/></g></svg>