<svg width="390" height="390" xmlns="http://www.w3.org/2000/svg" xmlns:xlink="http://www.w3.org/1999/xlink" xml:space="preserve" overflow="hidden"><defs><clipPath id="clip0"><rect x="583" y="1859" width="390" height="390"/></clipPath></defs><g clip-path="url(#clip0)" transform="translate(-583 -1859)"><path d="M583 2054C583 1946.3 670.305 1859 778 1859 885.696 1859 973 1946.3 973 2054 973 2161.7 885.696 2249 778 2249 670.305 2249 583 2161.7 583 2054Z" fill="#4A4A4A" fill-rule="evenodd"/><path d="M739 1975.5C739 1986.27 730.27 1995 719.5 1995 708.73 1995 700 1986.27 700 1975.5 700 1964.73 708.73 1956 719.5 1956 730.27 1956 739 1964.73 739 1975.5Z" stroke="#FFFFFF" stroke-width="5.72917" stroke-linejoin="round" stroke-miterlimit="10" fill="none" fill-rule="evenodd"/><path d="M695.647 2088.68C687.006 2088.68 680 2081.71 680 2073.11L680 2019.48C680 2013.58 683.805 2008.32 689.42 2006.47L699.559 2003 719.118 2022.47 738.676 2003 805.176 2003C809.497 2003 813 2006.49 813 2010.79L813 2010.79C813 2015.09 809.497 2018.58 805.176 2018.58L754.323 2018.58C747.842 2018.58 742.588 2023.81 742.588 2030.26L742.588 2151 695.647 2151 695.647 2034.16" stroke="#FFFFFF" stroke-width="5.72917" stroke-linecap="round" stroke-linejoin="round" stroke-miterlimit="10" fill="none" fill-rule="evenodd"/><path d="M719 2081 719 2151" stroke="#FFFFFF" stroke-width="5.72917" stroke-linecap="round" stroke-linejoin="round" stroke-miterlimit="10" fill="none" fill-rule="evenodd"/><path d="M836.428 2041.95 821 2041.95 848 2003 875 2041.95 859.571 2041.95 859.571 2151 836.428 2151Z" fill="#139EAD" fill-rule="evenodd"/><path d="M797 2073 821 2073 821 2151 797 2151Z" stroke="#FFFFFF" stroke-width="5.72917" stroke-linejoin="round" stroke-miterlimit="10" fill="none" fill-rule="evenodd"/><path d="M758 2112 782 2112 782 2151 758 2151Z" stroke="#FFFFFF" stroke-width="5.72917" stroke-linejoin="round" stroke-miterlimit="10" fill="none" fill-rule="evenodd"/></g></svg>