<svg width="390" height="390" xmlns="http://www.w3.org/2000/svg" xmlns:xlink="http://www.w3.org/1999/xlink" xml:space="preserve" overflow="hidden"><g transform="translate(-3899 -354)"><path d="M3899 549C3899 441.304 3986.3 354 4094 354 4201.7 354 4289 441.304 4289 549 4289 656.695 4201.7 744 4094 744 3986.3 744 3899 656.695 3899 549Z" fill="#4A4A4A" fill-rule="evenodd"/><g><g><g><path d="M197.529 80.7294C197.529 80.7294 174.513 87.6 146 87.6 117.487 87.6 94.4705 80.7294 94.4705 80.7294" stroke="#FFFFFF" stroke-width="5.49647" stroke-linecap="round" stroke-linejoin="round" fill="none" transform="matrix(1 0 0 1 3950 393)"/><path d="M218.141 83.8211C218.141 78.6682 215.393 73.8588 210.927 71.7976 197.529 64.927 173.482 60.1176 146 60.1176 118.518 60.1176 94.4705 64.927 81.0729 71.7976 76.607 74.2023 73.8588 79.0117 73.8588 83.8211L73.8588 111.991C73.8588 117.143 76.607 121.953 81.0729 124.014 94.4705 130.885 118.518 135.694 146 135.694 173.482 135.694 197.529 130.885 210.927 124.014 215.393 121.609 218.141 116.8 218.141 111.991L218.141 83.8211Z" stroke="#FFFFFF" stroke-width="5.49647" stroke-linejoin="round" fill="none" transform="matrix(1 0 0 1 3950 393)"/><path d="M79.0117 122.64C75.5764 126.419 73.8588 131.228 73.8588 136.381L73.8588 160.085C73.8588 165.238 76.607 170.047 81.0729 172.108 94.4705 178.979 118.518 183.788 146 183.788 173.482 183.788 197.529 178.979 210.927 172.108 215.393 169.703 218.141 164.894 218.141 160.085L218.141 136.381C218.141 131.228 216.08 126.419 212.988 122.64" stroke="#FFFFFF" stroke-width="5.49647" stroke-linejoin="round" fill="none" transform="matrix(1 0 0 1 3950 393)"/><path d="M79.0117 170.734C75.5764 174.513 73.8588 179.322 73.8588 184.475L73.8588 208.179C73.8588 213.332 76.607 218.141 81.0729 220.202 94.4705 227.073 118.518 231.882 146 231.882 173.482 231.882 197.529 227.073 210.927 220.202 215.393 217.798 218.141 212.988 218.141 208.179L218.141 184.475C218.141 179.322 216.08 174.513 212.988 170.734" stroke="#FFFFFF" stroke-width="5.49647" stroke-linejoin="round" fill="none" transform="matrix(1 0 0 1 3950 393)"/></g></g></g><path d="M4131.5 620C4131.5 598.185 4149.18 580.5 4171 580.5 4192.82 580.5 4210.5 598.185 4210.5 620 4210.5 641.815 4192.82 659.5 4171 659.5 4149.18 659.5 4131.5 641.815 4131.5 620Z" stroke="#FFFFFF" stroke-width="4.58333" stroke-miterlimit="8" fill="#4A4A4A" fill-rule="evenodd"/><path d="M4142 611.729 4161.73 611.729 4161.73 592 4178.27 592 4178.27 611.729 4198 611.729 4198 628.271 4178.27 628.271 4178.27 648 4161.73 648 4161.73 628.271 4142 628.271Z" fill="#139EAD" fill-rule="evenodd"/></g></svg>