<svg width="398" height="398" xmlns="http://www.w3.org/2000/svg" xmlns:xlink="http://www.w3.org/1999/xlink" xml:space="preserve" overflow="hidden"><g transform="translate(-1519 -347)"><path d="M1523 549C1523 441.304 1610.3 354 1718 354 1825.7 354 1913 441.304 1913 549 1913 656.695 1825.7 744 1718 744 1610.3 744 1523 656.695 1523 549Z" fill="#4A4A4A" fill-rule="evenodd"/><path d="M1636.12 462.349 1636.12 502.149 1648.06 502.149 1652.72 492.829C1654.74 488.785 1658.88 486.229 1663.4 486.229L1699.8 486.229 1699.8 597.023C1699.8 602.163 1696.51 606.726 1691.63 608.351L1675.92 613.589 1675.92 629.509 1763.48 629.509 1763.48 613.589 1747.76 608.351C1742.89 606.726 1739.6 602.163 1739.6 597.023L1739.6 486.229 1776 486.229C1780.52 486.229 1784.66 488.785 1786.68 492.829L1791.34 502.149 1803.28 502.149 1803.28 462.349 1636.12 462.349Z" stroke="#FFFFFF" stroke-width="7.10713" fill="none"/><path d="M1753 547.5 1754.94 547.5 1754.94 578.5 1753 578.5ZM1756.88 547.5 1760.75 547.5 1760.75 578.5 1756.88 578.5ZM1762.69 547.5 1806 547.5 1806 532 1837 563 1806 594 1806 578.5 1762.69 578.5Z" fill="#139EAD" fill-rule="evenodd"/></g></svg>