<svg width="402" height="390" xmlns="http://www.w3.org/2000/svg" xmlns:xlink="http://www.w3.org/1999/xlink" xml:space="preserve" overflow="hidden"><defs><clipPath id="clip0"><rect x="97" y="1359" width="402" height="390"/></clipPath></defs><g clip-path="url(#clip0)" transform="translate(-97 -1359)"><path d="M109 1554C109 1446.3 196.304 1359 304 1359 411.696 1359 499 1446.3 499 1554 499 1661.7 411.696 1749 304 1749 196.304 1749 109 1661.7 109 1554Z" fill="#4A4A4A" fill-rule="evenodd"/><g><g><g><path d="M93.8703 60.4419 93.8703 79.5619C93.8703 82.1992 91.7301 84.3419 89.0903 84.3419L69.9703 84.3419" stroke="#FFFFFF" stroke-width="4.68626" stroke-linecap="round" stroke-linejoin="round" fill="none" transform="matrix(1 0 0 1 96.9999 1438)"/><path d="M84.3103 98.6819 136.89 98.6819" stroke="#FFFFFF" stroke-width="4.68626" stroke-linecap="round" stroke-linejoin="round" fill="none" transform="matrix(1 0 0 1 96.9999 1438)"/><path d="M84.3103 108.242 136.89 108.242" stroke="#FFFFFF" stroke-width="4.68626" stroke-linecap="round" stroke-linejoin="round" fill="none" transform="matrix(1 0 0 1 96.9999 1438)"/><path d="M84.3103 117.802 136.89 117.802" stroke="#FFFFFF" stroke-width="4.68626" stroke-linecap="round" stroke-linejoin="round" fill="none" transform="matrix(1 0 0 1 96.9999 1438)"/><path d="M84.3103 127.362 117.77 127.362" stroke="#FFFFFF" stroke-width="4.68626" stroke-linecap="round" stroke-linejoin="round" fill="none" transform="matrix(1 0 0 1 96.9999 1438)"/><path d="M151.23 65.2219C151.23 62.5797 149.09 60.4419 146.45 60.4419L93.8703 60.4419 69.9703 84.3419 69.9703 156.042C69.9703 158.679 72.1106 160.822 74.7503 160.822L146.45 160.822C149.09 160.822 151.23 158.679 151.23 156.042L151.23 65.2219Z" stroke="#FFFFFF" stroke-width="4.68626" stroke-linejoin="round" fill="none" transform="matrix(1 0 0 1 96.9999 1438)"/><path d="M151.23 79.5619 165.57 79.5619C168.21 79.5619 170.35 81.6997 170.35 84.3419L170.35 175.162C170.35 177.799 168.21 179.942 165.57 179.942L93.8703 179.942C91.2306 179.942 89.0903 177.799 89.0903 175.162L89.0903 160.822" stroke="#FFFFFF" stroke-width="4.68626" stroke-linejoin="round" fill="none" transform="matrix(1 0 0 1 96.9999 1438)"/></g></g></g><path d="M284 1586.25 285.906 1586.25 285.906 1616.75 284 1616.75ZM287.812 1586.25 291.625 1586.25 291.625 1616.75 287.812 1616.75ZM293.531 1586.25 337.5 1586.25 337.5 1571 368 1601.5 337.5 1632 337.5 1616.75 293.531 1616.75Z" fill="#139EAD" fill-rule="evenodd"/><path d="M398.5 1546.5 398.5 1560.1C398.5 1561.98 396.978 1563.5 395.1 1563.5L381.5 1563.5" stroke="#FFFFFF" stroke-width="4.65082" stroke-linecap="round" stroke-linejoin="round" stroke-miterlimit="10" fill="none" fill-rule="evenodd"/><path d="M391.5 1573.5 428.5 1573.5" stroke="#FFFFFF" stroke-width="4.65082" stroke-linecap="round" stroke-linejoin="round" stroke-miterlimit="10" fill="none" fill-rule="evenodd"/><path d="M391.5 1580.5 428.5 1580.5" stroke="#FFFFFF" stroke-width="4.65082" stroke-linecap="round" stroke-linejoin="round" stroke-miterlimit="10" fill="none" fill-rule="evenodd"/><path d="M391.5 1586.5 428.5 1586.5" stroke="#FFFFFF" stroke-width="4.65082" stroke-linecap="round" stroke-linejoin="round" stroke-miterlimit="10" fill="none" fill-rule="evenodd"/><path d="M391.5 1593.5 414.5 1593.5" stroke="#FFFFFF" stroke-width="4.65082" stroke-linecap="round" stroke-linejoin="round" stroke-miterlimit="10" fill="none" fill-rule="evenodd"/><path d="M438.5 1549.83C438.5 1547.99 436.999 1546.5 435.147 1546.5L398.265 1546.5 381.5 1563.17 381.5 1613.17C381.5 1615.01 383.001 1616.5 384.853 1616.5L435.147 1616.5C436.999 1616.5 438.5 1615.01 438.5 1613.17L438.5 1549.83Z" stroke="#FFFFFF" stroke-width="4.65082" stroke-linejoin="round" stroke-miterlimit="10" fill="none" fill-rule="evenodd"/></g></svg>