<svg width="390" height="390" xmlns="http://www.w3.org/2000/svg" xmlns:xlink="http://www.w3.org/1999/xlink" xml:space="preserve" overflow="hidden"><defs><clipPath id="clip0"><rect x="583" y="1359" width="390" height="390"/></clipPath></defs><g clip-path="url(#clip0)" transform="translate(-583 -1359)"><path d="M583 1554C583 1446.3 670.305 1359 778 1359 885.696 1359 973 1446.3 973 1554 973 1661.7 885.696 1749 778 1749 670.305 1749 583 1661.7 583 1554Z" fill="#4A4A4A" fill-rule="evenodd"/><path d="M819.5 1552.5 860.5 1552.5" stroke="#FFFFFF" stroke-width="4.58333" stroke-miterlimit="8" fill="none" fill-rule="evenodd"/><path d="M819.5 1535.5 860.5 1535.5" stroke="#FFFFFF" stroke-width="4.58333" stroke-miterlimit="8" fill="none" fill-rule="evenodd"/><path d="M819.5 1592.5 860.5 1552.5" stroke="#FFFFFF" stroke-width="4.58333" stroke-miterlimit="8" fill="none" fill-rule="evenodd"/><path d="M860.5 1592.5 840.5 1572.5" stroke="#FFFFFF" stroke-width="4.58333" stroke-miterlimit="8" fill="none" fill-rule="evenodd"/><path d="M779.5 1523.76 779.5 1605.53C779.5 1612.3 784.962 1617.79 791.7 1617.79L836.433 1617.79 836.433 1650.5 868.967 1617.79 889.3 1617.79C896.038 1617.79 901.5 1612.3 901.5 1605.53L901.5 1523.76C901.5 1516.99 896.038 1511.5 889.3 1511.5L791.7 1511.5C784.962 1511.5 779.5 1516.99 779.5 1523.76Z" stroke="#FFFFFF" stroke-width="4.58333" stroke-miterlimit="8" fill="none" fill-rule="evenodd"/><path d="M803.5 1511.21 803.5 1490.76C803.5 1483.99 797.993 1478.5 791.2 1478.5L692.8 1478.5C686.007 1478.5 680.5 1483.99 680.5 1490.76L680.5 1572.53C680.5 1579.3 686.007 1584.79 692.8 1584.79L713.3 1584.79 746.1 1617.5 746.1 1584.79 778.9 1584.79" stroke="#FFFFFF" stroke-width="4.58333" stroke-miterlimit="8" fill="none" fill-rule="evenodd"/><text fill="#139EAD" font-family="Aptos,Aptos_MSFontService,sans-serif" font-weight="700" font-size="64" transform="matrix(1 0 0 1 691.782 1547)">en</text></g></svg>