<svg width="390" height="390" xmlns="http://www.w3.org/2000/svg" xmlns:xlink="http://www.w3.org/1999/xlink" xml:space="preserve" overflow="hidden"><g transform="translate(-2478 -354)"><path d="M2478 549C2478 441.304 2565.3 354 2673 354 2780.7 354 2868 441.304 2868 549 2868 656.695 2780.7 744 2673 744 2565.3 744 2478 656.695 2478 549Z" fill="#4A4A4A" fill-rule="evenodd"/><g><g><g><path d="M2593.99 524.953 2593.99 593.659C2593.99 604.995 2603.26 614.271 2614.6 614.271L2710.79 614.271C2722.12 614.271 2731.4 604.995 2731.4 593.659L2731.4 511.212C2731.4 499.875 2722.12 490.6 2710.79 490.6L2666.13 490.6" stroke="#FFFFFF" stroke-width="5.49647" fill="none"/><path d="M2697.05 586.788 2683.31 586.788" stroke="#FFFFFF" stroke-width="5.49647" fill="none"/><path d="M2573.38 483.729C2584.71 483.729 2593.99 494.379 2593.99 507.776 2593.99 521.174 2584.71 531.823 2573.38 531.823L2573.38 483.729Z" stroke="#FFFFFF" stroke-width="5.49647" fill="none"/><path d="M2587.8 524.953 2666.13 524.953C2671.97 524.953 2676.44 520.487 2676.44 514.647L2676.44 500.906C2676.44 495.066 2671.97 490.6 2666.13 490.6L2587.8 490.6" stroke="#FFFFFF" stroke-width="5.49647" fill="none"/><path d="M2731.4 573.047 2772.62 600.529 2772.62 504.341 2731.4 531.823" stroke="#FFFFFF" stroke-width="5.49647" fill="none"/></g></g></g></g></svg>