<svg width="390" height="390" xmlns="http://www.w3.org/2000/svg" xmlns:xlink="http://www.w3.org/1999/xlink" xml:space="preserve" overflow="hidden"><g transform="translate(-1530 -1861)"><path d="M1530 2056C1530 1948.3 1617.3 1861 1725 1861 1832.7 1861 1920 1948.3 1920 2056 1920 2163.7 1832.7 2251 1725 2251 1617.3 2251 1530 2163.7 1530 2056Z" fill="#4A4A4A" fill-rule="evenodd"/><path d="M1771 2007 1771 2030" stroke="#139EAD" stroke-width="5.72917" stroke-miterlimit="8" fill="none" fill-rule="evenodd"/><path d="M1786 1991.5C1786 2000.06 1779.28 2007 1771 2007 1762.72 2007 1756 2000.06 1756 1991.5 1756 1982.94 1762.72 1976 1771 1976 1779.28 1976 1786 1982.94 1786 1991.5Z" stroke="#139EAD" stroke-width="5.72917" stroke-miterlimit="8" fill="none" fill-rule="evenodd"/><path d="M1760 2067.5C1760 2071.64 1756.42 2075 1752 2075 1747.58 2075 1744 2071.64 1744 2067.5 1744 2063.36 1747.58 2060 1752 2060 1756.42 2060 1760 2063.36 1760 2067.5Z" stroke="#139EAD" stroke-width="5.72917" stroke-miterlimit="8" fill="none" fill-rule="evenodd"/><path d="M1798 2067.5C1798 2071.64 1794.42 2075 1790 2075 1785.58 2075 1782 2071.64 1782 2067.5 1782 2063.36 1785.58 2060 1790 2060 1794.42 2060 1798 2063.36 1798 2067.5Z" stroke="#139EAD" stroke-width="5.72917" stroke-miterlimit="8" fill="none" fill-rule="evenodd"/><path d="M1721 2117.58C1721 2123.89 1726.11 2129 1732.42 2129L1808.58 2129C1814.89 2129 1820 2123.89 1820 2117.58L1820 2041.42C1820 2035.11 1814.89 2030 1808.58 2030L1728.62 2030" stroke="#139EAD" stroke-width="5.72917" stroke-miterlimit="8" fill="none" fill-rule="evenodd"/><path d="M1820 2060C1828.84 2060 1836 2066.72 1836 2075 1836 2083.28 1828.84 2090 1820 2090" stroke="#139EAD" stroke-width="5.72917" stroke-miterlimit="8" fill="none" fill-rule="evenodd"/><path d="M1729 2071 1729 2021.83C1729 2013.47 1722.19 2006.7 1713.8 2006.7L1713.8 2006.7 1713.8 2006.7C1713.8 1994.16 1703.59 1984 1691 1984L1656.8 1984C1633.71 1984 1615 2002.63 1615 2025.61L1615 2071" stroke="#FFFFFF" stroke-width="5.72917" stroke-miterlimit="8" fill="none" fill-rule="evenodd"/><path d="M1691 2098C1680.51 2108.67 1663.49 2108.67 1653 2098" stroke="#FFFFFF" stroke-width="5.72917" stroke-miterlimit="8" fill="none" fill-rule="evenodd"/><path d="M1790 2098C1779.51 2108.67 1762.49 2108.67 1752 2098" stroke="#139EAD" stroke-width="5.72917" stroke-miterlimit="8" fill="none" fill-rule="evenodd"/><path d="M1653 2060 1653 2068" stroke="#FFFFFF" stroke-width="5.72917" stroke-miterlimit="8" fill="none" fill-rule="evenodd"/><path d="M1691 2060 1691 2068" stroke="#FFFFFF" stroke-width="5.72917" stroke-miterlimit="8" fill="none" fill-rule="evenodd"/><path d="M1713.8 2060.07 1713.8 2034.6C1713.8 2029.22 1708.35 2025.52 1703.37 2027.58 1684.24 2035.46 1659.76 2035.46 1640.63 2027.58 1635.65 2025.52 1630.2 2029.22 1630.2 2034.6L1630.2 2060.07C1621.81 2060.07 1615 2063.07 1615 2071.46 1615 2079.85 1621.81 2090.44 1630.2 2090.44L1630.2 2094.24C1630.2 2117.3 1648.91 2136 1672 2136 1695.09 2136 1713.8 2117.3 1713.8 2094.24L1713.8 2090.44C1722.2 2090.44 1729 2079.85 1729 2071.46 1729 2063.07 1722.2 2060.07 1713.8 2060.07Z" stroke="#FFFFFF" stroke-width="5.72917" stroke-miterlimit="8" fill="none" fill-rule="evenodd"/></g></svg>