<svg width="477" height="578" xmlns="http://www.w3.org/2000/svg" xmlns:xlink="http://www.w3.org/1999/xlink" xml:space="preserve" overflow="hidden"><g transform="translate(-2478 -1812)"><path d="M2478 2056C2478 1948.3 2565.3 1861 2673 1861 2780.7 1861 2868 1948.3 2868 2056 2868 2163.7 2780.7 2251 2673 2251 2565.3 2251 2478 2163.7 2478 2056Z" fill="#4A4A4A" fill-rule="evenodd"/><g><g><g><path d="M166.612 60.1177C179.893 60.1177 190.659 70.8839 190.659 84.1648L190.659 146C190.659 159.281 179.893 170.047 166.612 170.047L125.388 170.047C112.107 170.047 101.341 159.281 101.341 146L101.341 84.1648C101.341 70.8839 112.107 60.1177 125.388 60.1177Z" stroke="#FFFFFF" stroke-width="4.5804" stroke-linejoin="round" fill="none" transform="matrix(1.00342 0 0 1 2509 1910)"/><path d="M190.659 135.694 156.306 135.694" stroke="#FFFFFF" stroke-width="4.5804" stroke-linecap="round" stroke-linejoin="round" fill="none" transform="matrix(1.00342 0 0 1 2509 1910)"/><path d="M190.659 115.082 156.306 115.082" stroke="#FFFFFF" stroke-width="4.5804" stroke-linecap="round" stroke-linejoin="round" fill="none" transform="matrix(1.00342 0 0 1 2509 1910)"/><path d="M135.694 135.694 101.341 135.694" stroke="#FFFFFF" stroke-width="4.5804" stroke-linecap="round" stroke-linejoin="round" fill="none" transform="matrix(1.00342 0 0 1 2509 1910)"/><path d="M135.694 115.082 101.341 115.082" stroke="#FFFFFF" stroke-width="4.5804" stroke-linecap="round" stroke-linejoin="round" fill="none" transform="matrix(1.00342 0 0 1 2509 1910)"/><path d="M190.659 94.4707 156.306 94.4707" stroke="#FFFFFF" stroke-width="4.5804" stroke-linecap="round" stroke-linejoin="round" fill="none" transform="matrix(1.00342 0 0 1 2509 1910)"/><path d="M135.694 94.4707 101.341 94.4707" stroke="#FFFFFF" stroke-width="4.5804" stroke-linecap="round" stroke-linejoin="round" fill="none" transform="matrix(1.00342 0 0 1 2509 1910)"/><path d="M159.741 170.047 159.741 183.788C159.741 187.567 156.65 190.659 152.871 190.659L139.13 190.659C135.351 190.659 132.259 187.567 132.259 183.788L132.259 170.047" stroke="#FFFFFF" stroke-width="4.5804" stroke-linejoin="round" fill="none" transform="matrix(1.00342 0 0 1 2509 1910)"/><path d="M139.13 218.141 139.13 190.659" stroke="#FFFFFF" stroke-width="4.5804" stroke-linejoin="round" fill="none" transform="matrix(1.00342 0 0 1 2509 1910)"/><path d="M152.871 190.659 152.871 218.141" stroke="#FFFFFF" stroke-width="4.5804" stroke-linejoin="round" fill="none" transform="matrix(1.00342 0 0 1 2509 1910)"/><path d="M197.53 231.883 94.4707 231.883 94.4707 228.447C94.4707 222.607 98.9365 218.141 104.777 218.141L187.224 218.141C193.064 218.141 197.53 222.607 197.53 228.447L197.53 231.883Z" stroke="#FFFFFF" stroke-width="4.5804" stroke-linecap="round" stroke-linejoin="round" fill="none" transform="matrix(1.00342 0 0 1 2509 1910)"/></g></g></g><text fill="#139EAD" font-family="Aptos Light,Aptos Light_MSFontService,sans-serif" font-weight="300" font-size="275" transform="matrix(1 0 0 1 2708.81 2149)">!</text></g></svg>