<?xml version="1.0" encoding="utf-8"?>
<!-- Generator: Adobe Illustrator 23.0.1, SVG Export Plug-In . SVG Version: 6.00 Build 0)  -->
<svg version="1.1" id="Layer_1" xmlns="http://www.w3.org/2000/svg" xmlns:xlink="http://www.w3.org/1999/xlink" x="0px" y="0px"
	 viewBox="0 0 256 256" style="enable-background:new 0 0 256 256;" xml:space="preserve">
<style type="text/css">
	.st0{fill:#D6D6D6;}
	.st1{fill-rule:evenodd;clip-rule:evenodd;fill:#D6D6D6;}
	.st2{fill:none;stroke:#D6D6D6;stroke-width:0.9921;stroke-miterlimit:10;}
</style>
<path class="st0" d="M64,132.1c0-3.7,3-6.7,6.7-6.7s6.7,3,6.7,6.7c0,3.7-3,6.7-6.7,6.7C67,138.8,64,135.8,64,132.1L64,132.1z"/>
<path class="st0" d="M81.6,108v30.6h5.6v-26c0,0,8.6,0,12.8,0v26h5.6v-26c3.7,0,6.8,0,8.5,0c2.9,0,4.9,1.7,4.9,5.5v20.5h5.6
	c0-8,0-15.1,0-22c0-4.2-2.2-8.6-7.7-8.6H81.6L81.6,108z"/>
<path class="st0" d="M135.8,108c-6,0-7.9,4-7.9,8.5c0,4.8,2,8.8,7.5,8.8c4.9,0,9.6,0,13.3,0c4.1,0,4.1,3.1,4.1,4.6
	c0,1.3,0,4.1-4,4.1c-3.2,0-20.4,0-20.4,0s0,3.4,0,4.7h22.7c5.7,0,7.3-3.3,7.3-8.7c0-6.4-2.1-9.3-6.9-9.3c-5.7,0-9.7,0-14.4,0
	c-3.6,0-3.6-2.4-3.6-4.1c0-1.3,0.4-3.9,4.2-3.9c4.1,0,19.6,0,19.6,0c0-1.9,0-2.9,0-4.7H135.8L135.8,108z"/>
<path class="st1" d="M173,108c-5,0-6.8,0.8-8.2,1.9c-1.5,1.2-2.9,2.7-2.9,7.8v5.5v5.6c0,5.4,1.5,7,3.1,8.3c1,0.7,2.8,1.6,8.1,1.6
	h13.4c0,0,0,0.9,0,1.2c0,2.3-0.4,3.3-3.1,3.3h-17.5v4.9h19.3c5.2,0,6.9-2.3,6.9-6.7V108H173z M186.4,133.9h-11.7
	c-3.5,0-7,0.3-7.1-4.2c0-0.2,0-1.8,0-6.6c0-4.1,0-5,0-5.5c0.2-3.8,1.6-5.1,7.3-5c0.3,0,11.5,0,11.5,0L186.4,133.9L186.4,133.9z"/>
<circle class="st2" cx="128" cy="128" r="126"/>
</svg>
